<svg width="1440" height="658" viewBox="0 0 1440 658" fill="none" xmlns="http://www.w3.org/2000/svg">
<path d="M17.16 3.87885C11.44 -1.29295 5.72 -1.29295 0 3.87885V658H1440V296H1477V3.87885C1471.28 9.05066 1465.56 9.05066 1459.84 3.87885C1454.12 -1.29295 1448.4 -1.29295 1442.68 3.87885C1436.96 9.05066 1431.24 9.05066 1425.52 3.87885C1419.8 -1.29295 1414.08 -1.29295 1408.36 3.87885C1402.64 9.05066 1396.92 9.05066 1391.2 3.87885C1385.48 -1.29295 1379.76 -1.29295 1374.04 3.87885C1368.32 9.05066 1362.6 9.05066 1356.88 3.87885C1351.16 -1.29295 1345.44 -1.29295 1339.72 3.87885C1334 9.05066 1328.28 9.05066 1322.56 3.87885C1316.84 -1.29295 1311.12 -1.29295 1305.4 3.87885C1299.68 9.05066 1293.96 9.05066 1288.24 3.87885C1282.52 -1.29295 1276.8 -1.29295 1271.08 3.87885C1265.36 9.05066 1259.64 9.05066 1253.92 3.87885C1248.2 -1.29295 1242.48 -1.29295 1236.76 3.87885C1231.04 9.05066 1225.32 9.05066 1219.6 3.87885C1213.88 -1.29295 1208.16 -1.29295 1202.44 3.87885C1196.72 9.05066 1191 9.05066 1185.28 3.87885C1179.56 -1.29295 1173.84 -1.29295 1168.12 3.87885C1162.4 9.05066 1156.68 9.05066 1150.96 3.87885C1145.24 -1.29295 1139.52 -1.29295 1133.8 3.87885C1128.08 9.05066 1122.36 9.05066 1116.64 3.87885C1110.92 -1.29295 1105.2 -1.29295 1099.48 3.87885C1093.76 9.05066 1088.04 9.05066 1082.32 3.87885C1076.6 -1.29295 1070.88 -1.29295 1065.16 3.87885C1059.44 9.05066 1053.72 9.05066 1048 3.87885C1042.28 -1.29295 1036.56 -1.29295 1030.84 3.87885C1025.12 9.05066 1019.4 9.05066 1013.68 3.87885C1007.96 -1.29295 1002.24 -1.29295 996.52 3.87885C990.8 9.05066 985.08 9.05066 979.36 3.87885C973.64 -1.29295 967.92 -1.29295 962.2 3.87885C956.48 9.05066 950.76 9.05066 945.04 3.87885C939.32 -1.29295 933.6 -1.29295 927.88 3.87885C922.16 9.05066 916.44 9.05066 910.72 3.87885C905 -1.29295 899.28 -1.29295 893.56 3.87885C887.84 9.05066 882.12 9.05066 876.4 3.87885C870.68 -1.29295 864.96 -1.29295 859.24 3.87885C856.173 6.65162 853.107 7.93782 850.04 7.73745C847.387 7.56409 844.733 6.27789 842.08 3.87885C839.013 1.10609 835.947 -0.180112 832.88 0.0202547C829.813 -0.180112 826.747 1.10609 823.68 3.87885C821.027 6.2779 818.373 7.5641 815.72 7.73745C813.067 7.5641 810.413 6.27789 807.76 3.87885C804.693 1.10609 801.627 -0.180108 798.56 0.0202539C795.493 -0.180108 792.427 1.10609 789.36 3.87885C786.707 6.2779 784.053 7.5641 781.4 7.73745C778.747 7.56409 776.093 6.27789 773.44 3.87885C770.373 1.10609 767.307 -0.180109 764.24 0.0202541C761.173 -0.180109 758.107 1.10609 755.04 3.87885C752.387 6.27789 749.733 7.56409 747.08 7.73745C744.427 7.56409 741.773 6.27789 739.12 3.87885C736.053 1.10608 732.987 -0.180115 729.92 0.0202555C726.853 -0.180115 723.787 1.10608 720.72 3.87885C718.067 6.27789 715.413 7.56409 712.76 7.73745C710.107 7.56409 707.453 6.27789 704.8 3.87885C701.733 1.10609 698.667 -0.180112 695.6 0.0202547C692.533 -0.180112 689.467 1.10609 686.4 3.87885C683.747 6.27789 681.093 7.56409 678.44 7.73745C675.787 7.56409 673.133 6.27789 670.48 3.87885C667.413 1.10609 664.347 -0.180111 661.28 0.0202545C658.213 -0.180111 655.147 1.10609 652.08 3.87885C649.427 6.2779 646.773 7.5641 644.12 7.73746C641.467 7.5641 638.813 6.2779 636.16 3.87885C633.093 1.10609 630.027 -0.180107 626.96 0.0202537C623.893 -0.180107 620.827 1.10609 617.76 3.87885C612.04 9.05066 606.32 9.05066 600.6 3.87885C594.88 -1.29295 589.16 -1.29295 583.44 3.87885C577.72 9.05066 572 9.05066 566.28 3.87885C560.56 -1.29295 554.84 -1.29295 549.12 3.87885C543.4 9.05066 537.68 9.05066 531.96 3.87885C526.24 -1.29295 520.52 -1.29295 514.8 3.87885C509.08 9.05066 503.36 9.05066 497.64 3.87885C491.92 -1.29295 486.2 -1.29295 480.48 3.87885C474.76 9.05066 469.04 9.05066 463.32 3.87885C457.6 -1.29295 451.88 -1.29295 446.16 3.87885C440.44 9.05066 434.72 9.05066 429 3.87885C423.28 -1.29295 417.56 -1.29295 411.84 3.87885C406.12 9.05066 400.4 9.05066 394.68 3.87885C388.96 -1.29295 383.24 -1.29295 377.52 3.87885C371.8 9.05066 366.08 9.05066 360.36 3.87885C354.64 -1.29295 348.92 -1.29295 343.2 3.87885C337.48 9.05066 331.76 9.05066 326.04 3.87885C320.32 -1.29295 314.6 -1.29295 308.88 3.87885C303.16 9.05066 297.44 9.05066 291.72 3.87885C286 -1.29295 280.28 -1.29295 274.56 3.87885C268.84 9.05066 263.12 9.05066 257.4 3.87885C251.68 -1.29295 245.96 -1.29295 240.24 3.87885C234.52 9.05066 228.8 9.05066 223.08 3.87885C217.36 -1.29295 211.64 -1.29295 205.92 3.87885C200.2 9.05066 194.48 9.05066 188.76 3.87885C183.04 -1.29295 177.32 -1.29295 171.6 3.87885C165.88 9.05066 160.16 9.05066 154.44 3.87885C148.72 -1.29295 143 -1.29295 137.28 3.87885C131.56 9.05066 125.84 9.05066 120.12 3.87885C114.4 -1.29295 108.68 -1.29295 102.96 3.87885C97.24 9.05066 91.52 9.05066 85.8 3.87885C80.08 -1.29295 74.36 -1.29295 68.64 3.87885C62.92 9.05066 57.2 9.05066 51.48 3.87885C45.76 -1.29295 40.04 -1.29295 34.32 3.87885C28.6 9.05066 22.88 9.05066 17.16 3.87885Z" fill="#002D56"/>
</svg>
