<svg width="356" height="484" viewBox="0 0 356 484" fill="none" xmlns="http://www.w3.org/2000/svg">
<path d="M219.161 385.857L9.33026 397.565V3.92507L219.161 31.8424V385.857Z" fill="#002D56" stroke="white" stroke-width="3.66516"/>
<rect x="-0.91629" y="0.91629" width="12.8281" height="9.1629" transform="matrix(-1 0 0 1 155.02 80.6335)" fill="#002D56" stroke="white" stroke-width="1.83258"/>
<path fill-rule="evenodd" clip-rule="evenodd" d="M149.523 82.466C137.377 82.466 127.532 72.6203 127.532 60.4751C127.532 48.3298 137.377 38.4841 149.523 38.4841C161.148 38.4841 170.667 47.5051 171.46 58.9289C179.891 60.9249 178.337 71.0527 169.379 69.9379C165.842 77.347 158.28 82.466 149.523 82.466Z" fill="#002D56"/>
<path d="M171.46 58.9289L171.249 59.8205L170.593 59.6652L170.546 58.9924L171.46 58.9289ZM169.379 69.9379L168.552 69.5431L168.837 68.947L169.492 69.0286L169.379 69.9379ZM128.448 60.4751C128.448 72.1143 137.883 81.5497 149.523 81.5497V83.3823C136.871 83.3823 126.615 73.1264 126.615 60.4751H128.448ZM149.523 39.4004C137.883 39.4004 128.448 48.8359 128.448 60.4751H126.615C126.615 47.8238 136.871 37.5678 149.523 37.5678V39.4004ZM170.546 58.9924C169.786 48.0454 160.663 39.4004 149.523 39.4004V37.5678C161.633 37.5678 171.548 46.9647 172.374 58.8654L170.546 58.9924ZM169.492 69.0286C173.596 69.5394 175.684 67.5012 176.037 65.4446C176.395 63.3667 175.085 60.7286 171.249 59.8205L171.671 58.0372C176.266 59.1251 178.395 62.549 177.843 65.7553C177.288 68.9829 174.119 71.4512 169.266 70.8471L169.492 69.0286ZM149.523 81.5497C157.914 81.5497 165.161 76.6456 168.552 69.5431L170.206 70.3326C166.522 78.0483 158.646 83.3823 149.523 83.3823V81.5497Z" fill="white"/>
<path d="M166.016 75.1357C160.405 74.7984 158.162 72.1317 156.853 68.7217" stroke="white" stroke-width="1.83258"/>
<mask id="mask0" mask-type="alpha" maskUnits="userSpaceOnUse" x="126" y="37" width="52" height="47">
<path fill-rule="evenodd" clip-rule="evenodd" d="M149.523 82.466C137.377 82.466 127.532 72.6203 127.532 60.4751C127.532 48.3298 137.377 38.4841 149.523 38.4841C161.148 38.4841 170.667 47.5051 171.46 58.9289C179.891 60.9249 178.337 71.0527 169.379 69.9379C165.842 77.347 158.28 82.466 149.523 82.466Z" fill="white"/>
<path d="M171.46 58.9289L171.249 59.8205L170.593 59.6652L170.546 58.9924L171.46 58.9289ZM169.379 69.9379L168.552 69.5431L168.837 68.947L169.492 69.0286L169.379 69.9379ZM128.448 60.4751C128.448 72.1143 137.883 81.5497 149.523 81.5497V83.3823C136.871 83.3823 126.615 73.1264 126.615 60.4751H128.448ZM149.523 39.4004C137.883 39.4004 128.448 48.8359 128.448 60.4751H126.615C126.615 47.8238 136.871 37.5678 149.523 37.5678V39.4004ZM170.546 58.9924C169.786 48.0454 160.663 39.4004 149.523 39.4004V37.5678C161.633 37.5678 171.548 46.9647 172.374 58.8654L170.546 58.9924ZM169.492 69.0286C173.596 69.5394 175.684 67.5012 176.037 65.4446C176.395 63.3667 175.085 60.7286 171.249 59.8205L171.671 58.0372C176.266 59.1251 178.395 62.549 177.843 65.7553C177.288 68.9829 174.119 71.4512 169.266 70.8471L169.492 69.0286ZM149.523 81.5497C157.914 81.5497 165.161 76.6456 168.552 69.5431L170.206 70.3326C166.522 78.0483 158.646 83.3823 149.523 83.3823V81.5497Z" fill="#002D56"/>
</mask>
<g mask="url(#mask0)">
<circle r="2.74887" transform="matrix(-1 0 0 1 157.769 55.8936)" fill="white"/>
<path d="M145.857 50.396C153.996 50.1384 158.229 48.9832 165.1 44.8982V35.7354H125.699V63.224H145.857V50.396Z" fill="white"/>
</g>
<rect x="56.0611" y="59.5589" width="27.4887" height="27.4887" stroke="white" stroke-width="1.83258"/>
<path d="M56.9774 60.4751L71.638 82.4661L91.7964 40.3168" stroke="white" stroke-width="3.66516"/>
<rect x="-0.91629" y="0.91629" width="12.8281" height="9.1629" transform="matrix(-1 0 0 1 155.02 175.928)" fill="#002D56" stroke="white" stroke-width="1.83258"/>
<path fill-rule="evenodd" clip-rule="evenodd" d="M149.523 177.76C137.377 177.76 127.532 167.915 127.532 155.769C127.532 143.624 137.377 133.778 149.523 133.778C161.148 133.778 170.667 142.799 171.46 154.223C179.891 156.219 178.337 166.347 169.379 165.232C165.842 172.641 158.28 177.76 149.523 177.76Z" fill="#002D56"/>
<path d="M171.46 154.223L171.249 155.115L170.593 154.959L170.546 154.287L171.46 154.223ZM169.379 165.232L168.552 164.837L168.837 164.241L169.492 164.323L169.379 165.232ZM128.448 155.769C128.448 167.409 137.883 176.844 149.523 176.844V178.677C136.871 178.677 126.615 168.421 126.615 155.769H128.448ZM149.523 134.695C137.883 134.695 128.448 144.13 128.448 155.769H126.615C126.615 143.118 136.871 132.862 149.523 132.862V134.695ZM170.546 154.287C169.786 143.34 160.663 134.695 149.523 134.695V132.862C161.633 132.862 171.548 142.259 172.374 154.16L170.546 154.287ZM169.492 164.323C173.596 164.834 175.684 162.796 176.037 160.739C176.395 158.661 175.085 156.023 171.249 155.115L171.671 153.332C176.266 154.419 178.395 157.843 177.843 161.05C177.288 164.277 174.119 166.746 169.266 166.141L169.492 164.323ZM149.523 176.844C157.914 176.844 165.161 171.94 168.552 164.837L170.206 165.627C166.522 173.343 158.646 178.677 149.523 178.677V176.844Z" fill="white"/>
<path d="M166.016 170.43C160.405 170.093 158.162 167.426 156.853 164.016" stroke="white" stroke-width="1.83258"/>
<mask id="mask1" mask-type="alpha" maskUnits="userSpaceOnUse" x="126" y="132" width="52" height="47">
<path fill-rule="evenodd" clip-rule="evenodd" d="M149.523 177.76C137.377 177.76 127.532 167.915 127.532 155.769C127.532 143.624 137.377 133.778 149.523 133.778C161.148 133.778 170.667 142.799 171.46 154.223C179.891 156.219 178.337 166.347 169.379 165.232C165.842 172.641 158.28 177.76 149.523 177.76Z" fill="white"/>
<path d="M171.46 154.223L171.249 155.115L170.593 154.959L170.546 154.287L171.46 154.223ZM169.379 165.232L168.552 164.837L168.837 164.241L169.492 164.323L169.379 165.232ZM128.448 155.769C128.448 167.409 137.883 176.844 149.523 176.844V178.677C136.871 178.677 126.615 168.421 126.615 155.769H128.448ZM149.523 134.695C137.883 134.695 128.448 144.13 128.448 155.769H126.615C126.615 143.118 136.871 132.862 149.523 132.862V134.695ZM170.546 154.287C169.786 143.34 160.663 134.695 149.523 134.695V132.862C161.633 132.862 171.548 142.259 172.374 154.16L170.546 154.287ZM169.492 164.323C173.596 164.834 175.684 162.796 176.037 160.739C176.395 158.661 175.085 156.023 171.249 155.115L171.671 153.332C176.266 154.419 178.395 157.843 177.843 161.05C177.288 164.277 174.119 166.746 169.266 166.141L169.492 164.323ZM149.523 176.844C157.914 176.844 165.161 171.94 168.552 164.837L170.206 165.627C166.522 173.343 158.646 178.677 149.523 178.677V176.844Z" fill="#002D56"/>
</mask>
<g mask="url(#mask1)">
<circle r="2.74887" transform="matrix(-1 0 0 1 157.769 151.188)" fill="white"/>
<path d="M145.857 145.69C153.996 145.432 158.229 144.277 165.1 140.192V131.029H125.699L122.95 171.346L145.857 185.091V145.69Z" fill="white"/>
</g>
<rect x="56.0611" y="154.853" width="27.4887" height="27.4887" stroke="white" stroke-width="1.83258"/>
<rect x="126.615" y="155.769" width="18.3258" height="31.1538" fill="white"/>
<rect x="-0.91629" y="0.91629" width="12.8281" height="9.1629" transform="matrix(-1 0 0 1 155.02 271.221)" fill="#002D56" stroke="white" stroke-width="1.83258"/>
<path fill-rule="evenodd" clip-rule="evenodd" d="M149.523 273.054C137.377 273.054 127.532 263.208 127.532 251.063C127.532 238.918 137.377 229.072 149.523 229.072C161.148 229.072 170.667 238.093 171.46 249.517C179.891 251.513 178.337 261.641 169.379 260.526C165.842 267.935 158.28 273.054 149.523 273.054Z" fill="#002D56"/>
<path d="M171.46 249.517L171.249 250.409L170.593 250.253L170.546 249.58L171.46 249.517ZM169.379 260.526L168.552 260.131L168.837 259.535L169.492 259.617L169.379 260.526ZM128.448 251.063C128.448 262.702 137.883 272.138 149.523 272.138V273.97C136.871 273.97 126.615 263.714 126.615 251.063H128.448ZM149.523 229.988C137.883 229.988 128.448 239.424 128.448 251.063H126.615C126.615 238.412 136.871 228.156 149.523 228.156V229.988ZM170.546 249.58C169.786 238.633 160.663 229.988 149.523 229.988V228.156C161.633 228.156 171.548 237.553 172.374 249.453L170.546 249.58ZM169.492 259.617C173.596 260.127 175.684 258.089 176.037 256.033C176.395 253.955 175.085 251.317 171.249 250.409L171.671 248.625C176.266 249.713 178.395 253.137 177.843 256.343C177.288 259.571 174.119 262.039 169.266 261.435L169.492 259.617ZM149.523 272.138C157.914 272.138 165.161 267.234 168.552 260.131L170.206 260.921C166.523 268.636 158.646 273.97 149.523 273.97V272.138Z" fill="white"/>
<path d="M166.016 265.724C160.405 265.386 158.162 262.72 156.853 259.31" stroke="white" stroke-width="1.83258"/>
<mask id="mask2" mask-type="alpha" maskUnits="userSpaceOnUse" x="126" y="228" width="52" height="46">
<path fill-rule="evenodd" clip-rule="evenodd" d="M149.523 273.054C137.377 273.054 127.532 263.208 127.532 251.063C127.532 238.918 137.377 229.072 149.523 229.072C161.148 229.072 170.667 238.093 171.46 249.517C179.891 251.513 178.337 261.641 169.379 260.526C165.842 267.935 158.28 273.054 149.523 273.054Z" fill="white"/>
<path d="M171.46 249.517L171.249 250.409L170.593 250.253L170.546 249.58L171.46 249.517ZM169.379 260.526L168.552 260.131L168.837 259.535L169.492 259.617L169.379 260.526ZM128.448 251.063C128.448 262.702 137.883 272.138 149.523 272.138V273.97C136.871 273.97 126.615 263.714 126.615 251.063H128.448ZM149.523 229.988C137.883 229.988 128.448 239.424 128.448 251.063H126.615C126.615 238.412 136.871 228.156 149.523 228.156V229.988ZM170.546 249.58C169.786 238.633 160.663 229.988 149.523 229.988V228.156C161.633 228.156 171.548 237.553 172.374 249.453L170.546 249.58ZM169.492 259.617C173.596 260.127 175.684 258.089 176.037 256.033C176.395 253.955 175.085 251.317 171.249 250.409L171.671 248.625C176.266 249.713 178.395 253.137 177.843 256.343C177.288 259.571 174.119 262.039 169.266 261.435L169.492 259.617ZM149.523 272.138C157.914 272.138 165.161 267.234 168.552 260.131L170.206 260.921C166.523 268.636 158.646 273.97 149.523 273.97V272.138Z" fill="#002D56"/>
</mask>
<g mask="url(#mask2)">
<circle r="2.74887" transform="matrix(-1 0 0 1 157.769 246.482)" fill="white"/>
<path d="M120.201 237.319C117.896 238.689 120.941 239.524 125.699 240.037V253.812H145.857V240.984C151.266 240.813 135.123 241.054 125.699 240.037V226.323L105.541 237.319H120.201Z" fill="white"/>
</g>
<rect x="56.0611" y="250.147" width="27.4887" height="27.4887" stroke="white" stroke-width="1.83258"/>
<circle r="18.3258" transform="matrix(-1 0 0 1 114.704 344.525)" fill="white"/>
<rect x="185.061" y="389.172" width="145" height="94" fill="white"/>
<rect x="253" y="306" width="77" height="177" fill="white"/>
<path fill-rule="evenodd" clip-rule="evenodd" d="M227.416 13.0696L250.871 144.462C300.935 160.145 339.161 204.668 344.159 260.175C350.784 333.761 296.502 398.786 222.915 405.411C193.274 408.08 165.022 400.866 141.417 386.488L214.241 383.978L201.61 189.01C201.705 184.132 201.67 178.967 201.495 173.499L172.562 21.2724L227.416 13.0696Z" fill="white"/>
<path d="M250.871 144.462L250.323 146.21L249.262 145.878L249.066 144.784L250.871 144.462ZM227.416 13.0696L227.145 11.2572L228.907 10.9937L229.22 12.7475L227.416 13.0696ZM344.159 260.175L345.984 260.011L344.159 260.175ZM222.915 405.411L222.751 403.586L222.915 405.411ZM141.417 386.488L140.463 388.054L135.233 384.868L141.354 384.657L141.417 386.488ZM214.241 383.978L216.07 383.86L216.192 385.745L214.304 385.81L214.241 383.978ZM201.61 189.01L199.781 189.128L199.776 189.051L199.777 188.974L201.61 189.01ZM201.495 173.499L203.295 173.157L203.322 173.297L203.326 173.44L201.495 173.499ZM172.562 21.2724L170.761 21.6145L170.405 19.7419L172.291 19.4599L172.562 21.2724ZM249.066 144.784L225.612 13.3916L229.22 12.7475L252.675 144.139L249.066 144.784ZM342.333 260.34C337.404 205.596 299.705 161.68 250.323 146.21L251.418 142.713C302.165 158.61 340.917 203.741 345.984 260.011L342.333 260.34ZM222.751 403.586C295.329 397.051 348.868 332.918 342.333 260.34L345.984 260.011C352.7 334.605 297.674 400.52 223.08 407.236L222.751 403.586ZM142.37 384.923C165.652 399.104 193.514 406.218 222.751 403.586L223.08 407.236C193.035 409.941 164.393 402.628 140.463 388.054L142.37 384.923ZM141.354 384.657L214.178 382.147L214.304 385.81L141.48 388.32L141.354 384.657ZM212.412 384.097L199.781 189.128L203.438 188.891L216.07 383.86L212.412 384.097ZM203.326 173.44C203.502 178.937 203.538 184.134 203.442 189.046L199.777 188.974C199.872 184.13 199.837 178.997 199.663 173.558L203.326 173.44ZM174.362 20.9302L203.295 173.157L199.694 173.841L170.761 21.6145L174.362 20.9302ZM227.687 14.882L172.833 23.0848L172.291 19.4599L227.145 11.2572L227.687 14.882Z" fill="#002D56"/>
<path d="M2.06108 299.799H41.4615V242.072H48.7918V185.262H56.1222V125.704L41.4615 126.201V69.8099H2.06108V127.536V185.262V242.072V299.799Z" fill="#FFFDFD"/>
<path d="M41.4615 242.072V299.799H2.06108V242.072M41.4615 242.072H2.06108M41.4615 242.072H48.7918V185.262M2.06108 242.072V185.262M48.7918 185.262H2.06108M48.7918 185.262H56.1222V125.704L41.4615 126.201M2.06108 185.262V127.536M2.06108 127.536V69.8099H41.4615V126.201M2.06108 127.536L41.4615 126.201" stroke="#152F55" stroke-width="3.66516"/>
<path d="M229.301 306.213H7.55883" stroke="white" stroke-width="3.66516"/>
</svg>
