<svg width="1440" height="626" viewBox="0 0 1440 626" fill="none" xmlns="http://www.w3.org/2000/svg">
<path d="M-17 4.87885C-11.28 -0.292952 -5.56 -0.292952 0.16 4.87885C5.88 10.0507 11.6 10.0507 17.32 4.87885C23.04 -0.292952 28.76 -0.292952 34.48 4.87885C40.2 10.0507 45.92 10.0507 51.64 4.87885C57.36 -0.292952 63.08 -0.292952 68.8 4.87885C74.52 10.0507 80.24 10.0507 85.96 4.87885C91.68 -0.292952 97.4 -0.292952 103.12 4.87885C108.84 10.0507 114.56 10.0507 120.28 4.87885C126 -0.292952 131.72 -0.292952 137.44 4.87885C143.16 10.0507 148.88 10.0507 154.6 4.87885C160.32 -0.292952 166.04 -0.292952 171.76 4.87885C177.48 10.0507 183.2 10.0507 188.92 4.87885C194.64 -0.292952 200.36 -0.292952 206.08 4.87885C211.8 10.0507 217.52 10.0507 223.24 4.87885C228.96 -0.292952 234.68 -0.292952 240.4 4.87885C246.12 10.0507 251.84 10.0507 257.56 4.87885C263.28 -0.292952 269 -0.292952 274.72 4.87885C280.44 10.0507 286.16 10.0507 291.88 4.87885C297.6 -0.292952 303.32 -0.292952 309.04 4.87885C314.76 10.0507 320.48 10.0507 326.2 4.87885C331.92 -0.292952 337.64 -0.292952 343.36 4.87885C349.08 10.0507 354.8 10.0507 360.52 4.87885C366.24 -0.292952 371.96 -0.292952 377.68 4.87885C383.4 10.0507 389.12 10.0507 394.84 4.87885C400.56 -0.292952 406.28 -0.292952 412 4.87885C417.72 10.0507 423.44 10.0507 429.16 4.87885C434.88 -0.292952 440.6 -0.292952 446.32 4.87885C452.04 10.0507 457.76 10.0507 463.48 4.87885C469.2 -0.292952 474.92 -0.292952 480.64 4.87885C486.36 10.0507 492.08 10.0507 497.8 4.87885C503.52 -0.292952 509.24 -0.292952 514.96 4.87885C520.68 10.0507 526.4 10.0507 532.12 4.87885C537.84 -0.292952 543.56 -0.292952 549.28 4.87885C555 10.0507 560.72 10.0507 566.44 4.87885C572.16 -0.292952 577.88 -0.292952 583.6 4.87885C589.32 10.0507 595.04 10.0507 600.76 4.87885C603.827 2.10609 606.893 0.819893 609.96 1.02025C613.027 0.819893 616.093 2.10609 619.16 4.87885C621.813 7.2779 624.467 8.5641 627.12 8.73746C629.773 8.5641 632.427 7.2779 635.08 4.87885C638.147 2.10609 641.213 0.819889 644.28 1.02025C647.347 0.819889 650.413 2.10609 653.48 4.87885C656.133 7.27789 658.787 8.56409 661.44 8.73745C664.093 8.56409 666.747 7.27789 669.4 4.87885C672.467 2.10609 675.533 0.819888 678.6 1.02025C681.667 0.819888 684.733 2.10609 687.8 4.87885C690.453 7.27789 693.107 8.56409 695.76 8.73745C698.413 8.56409 701.067 7.27789 703.72 4.87885C706.787 2.10608 709.853 0.819885 712.92 1.02026C715.987 0.819885 719.053 2.10608 722.12 4.87885C724.773 7.27789 727.427 8.56409 730.08 8.73745C732.733 8.56409 735.387 7.27789 738.04 4.87885C741.107 2.10609 744.173 0.819891 747.24 1.02025C750.307 0.819891 753.373 2.10609 756.44 4.87885C759.093 7.27789 761.747 8.56409 764.4 8.73745C767.053 8.5641 769.707 7.2779 772.36 4.87885C775.427 2.10609 778.493 0.819892 781.56 1.02025C784.627 0.819892 787.693 2.10609 790.76 4.87885C793.413 7.27789 796.067 8.5641 798.72 8.73745C801.373 8.5641 804.027 7.2779 806.68 4.87885C809.747 2.10609 812.813 0.819888 815.88 1.02025C818.947 0.819888 822.013 2.10609 825.08 4.87885C827.733 7.27789 830.387 8.56409 833.04 8.73745C836.107 8.93782 839.173 7.65162 842.24 4.87885C847.96 -0.292952 853.68 -0.292952 859.4 4.87885C865.12 10.0507 870.84 10.0507 876.56 4.87885C882.28 -0.292952 888 -0.292952 893.72 4.87885C899.44 10.0507 905.16 10.0507 910.88 4.87885C916.6 -0.292952 922.32 -0.292952 928.04 4.87885C933.76 10.0507 939.48 10.0507 945.2 4.87885C950.92 -0.292952 956.64 -0.292952 962.36 4.87885C968.08 10.0507 973.8 10.0507 979.52 4.87885C985.24 -0.292952 990.96 -0.292952 996.68 4.87885C1002.4 10.0507 1008.12 10.0507 1013.84 4.87885C1019.56 -0.292952 1025.28 -0.292952 1031 4.87885C1036.72 10.0507 1042.44 10.0507 1048.16 4.87885C1053.88 -0.292952 1059.6 -0.292952 1065.32 4.87885C1071.04 10.0507 1076.76 10.0507 1082.48 4.87885C1088.2 -0.292952 1093.92 -0.292952 1099.64 4.87885C1105.36 10.0507 1111.08 10.0507 1116.8 4.87885C1122.52 -0.292952 1128.24 -0.292952 1133.96 4.87885C1139.68 10.0507 1145.4 10.0507 1151.12 4.87885C1156.84 -0.292952 1162.56 -0.292952 1168.28 4.87885C1174 10.0507 1179.72 10.0507 1185.44 4.87885C1191.16 -0.292952 1196.88 -0.292952 1202.6 4.87885C1208.32 10.0507 1214.04 10.0507 1219.76 4.87885C1225.48 -0.292952 1231.2 -0.292952 1236.92 4.87885C1242.64 10.0507 1248.36 10.0507 1254.08 4.87885C1259.8 -0.292952 1265.52 -0.292952 1271.24 4.87885C1276.96 10.0507 1282.68 10.0507 1288.4 4.87885C1294.12 -0.292952 1299.84 -0.292952 1305.56 4.87885C1311.28 10.0507 1317 10.0507 1322.72 4.87885C1328.44 -0.292952 1334.16 -0.292952 1339.88 4.87885C1345.6 10.0507 1351.32 10.0507 1357.04 4.87885C1362.76 -0.292952 1368.48 -0.292952 1374.2 4.87885C1379.92 10.0507 1385.64 10.0507 1391.36 4.87885C1397.08 -0.292952 1402.8 -0.292952 1408.52 4.87885C1414.24 10.0507 1419.96 10.0507 1425.68 4.87885C1431.4 -0.292952 1437.12 -0.292952 1442.84 4.87885C1448.56 10.0507 1454.28 10.0507 1460 4.87885V297H-17V4.87885Z" fill="#F6F6F6"/>
<path d="M-19 182.871C-13.2645 175.043 -7.52902 175.043 -1.79353 182.871C3.94196 190.698 9.67745 190.698 15.4129 182.871C21.1484 175.043 26.8839 175.043 32.6194 182.871C38.3549 190.698 44.0904 190.698 49.8259 182.871C55.5614 175.043 61.2969 175.043 67.0324 182.871C72.7679 190.698 78.5033 190.698 84.2388 182.871C89.9743 175.043 95.7098 175.043 101.445 182.871C107.181 190.698 112.916 190.698 118.652 182.871C124.387 175.043 130.123 175.043 135.858 182.871C141.594 190.698 147.329 190.698 153.065 182.871C158.8 175.043 164.536 175.043 170.271 182.871C176.007 190.698 181.742 190.698 187.478 182.871C193.213 175.043 198.949 175.043 204.684 182.871C210.42 190.698 216.155 190.698 221.891 182.871C227.626 175.043 233.362 175.043 239.097 182.871C244.833 190.698 250.568 190.698 256.304 182.871C262.039 175.043 267.775 175.043 273.51 182.871C279.246 190.698 284.981 190.698 290.717 182.871C296.452 175.043 302.188 175.043 307.923 182.871C313.658 190.698 319.394 190.698 325.129 182.871C330.865 175.043 336.6 175.043 342.336 182.871C348.071 190.698 353.807 190.698 359.542 182.871C365.278 175.043 371.013 175.043 376.749 182.871C382.484 190.698 388.22 190.698 393.955 182.871C399.691 175.043 405.426 175.043 411.162 182.871C416.897 190.698 422.633 190.698 428.368 182.871C434.104 175.043 439.839 175.043 445.575 182.871C451.31 190.698 457.046 190.698 462.781 182.871C468.517 175.043 474.252 175.043 479.988 182.871C485.723 190.698 491.459 190.698 497.194 182.871C502.93 175.043 508.665 175.043 514.401 182.871C520.136 190.698 525.872 190.698 531.607 182.871C537.343 175.043 543.078 175.043 548.814 182.871C554.549 190.698 560.285 190.698 566.02 182.871C571.756 175.043 577.491 175.043 583.227 182.871C588.962 190.698 594.698 190.698 600.433 182.871C603.508 178.674 606.583 176.727 609.658 177.031C612.733 176.727 615.808 178.674 618.883 182.871C621.543 186.502 624.204 188.448 626.864 188.711C629.525 188.448 632.185 186.502 634.846 182.871C637.921 178.674 640.996 176.727 644.071 177.031C647.146 176.727 650.221 178.674 653.296 182.871C655.956 186.502 658.617 188.448 661.277 188.711C663.938 188.448 666.598 186.502 669.259 182.871C672.334 178.674 675.409 176.727 678.484 177.031C681.559 176.727 684.634 178.674 687.709 182.871C690.369 186.502 693.03 188.448 695.69 188.711C698.351 188.448 701.011 186.502 703.672 182.871C706.747 178.674 709.822 176.727 712.897 177.031C715.972 176.727 719.047 178.674 722.122 182.871C724.782 186.502 727.443 188.448 730.103 188.711C732.764 188.448 735.424 186.502 738.085 182.871C741.16 178.674 744.235 176.727 747.31 177.031C750.385 176.727 753.46 178.674 756.535 182.871C759.195 186.502 761.856 188.448 764.516 188.711C767.177 188.448 769.837 186.502 772.498 182.871C775.573 178.674 778.648 176.727 781.723 177.031C784.798 176.727 787.873 178.674 790.948 182.871C793.608 186.502 796.269 188.448 798.929 188.711C801.59 188.448 804.25 186.502 806.911 182.871C809.986 178.674 813.061 176.727 816.136 177.031C819.211 176.727 822.286 178.674 825.361 182.871C828.021 186.502 830.682 188.448 833.342 188.711C836.417 189.014 839.492 187.067 842.567 182.871C848.302 175.043 854.038 175.043 859.773 182.871C865.509 190.698 871.244 190.698 876.98 182.871C882.715 175.043 888.451 175.043 894.186 182.871C899.922 190.698 905.657 190.698 911.393 182.871C917.128 175.043 922.864 175.043 928.599 182.871C934.335 190.698 940.07 190.698 945.806 182.871C951.541 175.043 957.277 175.043 963.012 182.871C968.748 190.698 974.483 190.698 980.219 182.871C985.954 175.043 991.69 175.043 997.425 182.871C1003.16 190.698 1008.9 190.698 1014.63 182.871C1020.37 175.043 1026.1 175.043 1031.84 182.871C1037.57 190.698 1043.31 190.698 1049.04 182.871C1054.78 175.043 1060.52 175.043 1066.25 182.871C1071.99 190.698 1077.72 190.698 1083.46 182.871C1089.19 175.043 1094.93 175.043 1100.66 182.871C1106.4 190.698 1112.14 190.698 1117.87 182.871C1123.61 175.043 1129.34 175.043 1135.08 182.871C1140.81 190.698 1146.55 190.698 1152.28 182.871C1158.02 175.043 1163.75 175.043 1169.49 182.871C1175.23 190.698 1180.96 190.698 1186.7 182.871C1192.43 175.043 1198.17 175.043 1203.9 182.871C1209.64 190.698 1215.37 190.698 1221.11 182.871C1226.84 175.043 1232.58 175.043 1238.32 182.871C1244.05 190.698 1249.79 190.698 1255.52 182.871C1261.26 175.043 1266.99 175.043 1272.73 182.871C1278.46 190.698 1284.2 190.698 1289.94 182.871C1295.67 175.043 1301.41 175.043 1307.14 182.871C1312.88 190.698 1318.61 190.698 1324.35 182.871C1330.08 175.043 1335.82 175.043 1341.55 182.871C1347.29 190.698 1353.03 190.698 1358.76 182.871C1364.5 175.043 1370.23 175.043 1375.97 182.871C1381.7 190.698 1387.44 190.698 1393.17 182.871C1398.91 175.043 1404.65 175.043 1410.38 182.871C1416.12 190.698 1421.85 190.698 1427.59 182.871C1433.32 175.043 1439.06 175.043 1444.79 182.871C1450.53 190.698 1456.26 190.698 1462 182.871V625H-19V182.871Z" fill="#F6F6F6"/>
<path d="M-17 4.87885C-11.28 -0.292952 -5.56 -0.292952 0.16 4.87885C5.88 10.0507 11.6 10.0507 17.32 4.87885C23.04 -0.292952 28.76 -0.292952 34.48 4.87885C40.2 10.0507 45.92 10.0507 51.64 4.87885C57.36 -0.292952 63.08 -0.292952 68.8 4.87885C74.52 10.0507 80.24 10.0507 85.96 4.87885C91.68 -0.292952 97.4 -0.292952 103.12 4.87885C108.84 10.0507 114.56 10.0507 120.28 4.87885C126 -0.292952 131.72 -0.292952 137.44 4.87885C143.16 10.0507 148.88 10.0507 154.6 4.87885C160.32 -0.292952 166.04 -0.292952 171.76 4.87885C177.48 10.0507 183.2 10.0507 188.92 4.87885C194.64 -0.292952 200.36 -0.292952 206.08 4.87885C211.8 10.0507 217.52 10.0507 223.24 4.87885C228.96 -0.292952 234.68 -0.292952 240.4 4.87885C246.12 10.0507 251.84 10.0507 257.56 4.87885C263.28 -0.292952 269 -0.292952 274.72 4.87885C280.44 10.0507 286.16 10.0507 291.88 4.87885C297.6 -0.292952 303.32 -0.292952 309.04 4.87885C314.76 10.0507 320.48 10.0507 326.2 4.87885C331.92 -0.292952 337.64 -0.292952 343.36 4.87885C349.08 10.0507 354.8 10.0507 360.52 4.87885C366.24 -0.292952 371.96 -0.292952 377.68 4.87885C383.4 10.0507 389.12 10.0507 394.84 4.87885C400.56 -0.292952 406.28 -0.292952 412 4.87885C417.72 10.0507 423.44 10.0507 429.16 4.87885C434.88 -0.292952 440.6 -0.292952 446.32 4.87885C452.04 10.0507 457.76 10.0507 463.48 4.87885C469.2 -0.292952 474.92 -0.292952 480.64 4.87885C486.36 10.0507 492.08 10.0507 497.8 4.87885C503.52 -0.292952 509.24 -0.292952 514.96 4.87885C520.68 10.0507 526.4 10.0507 532.12 4.87885C537.84 -0.292952 543.56 -0.292952 549.28 4.87885C555 10.0507 560.72 10.0507 566.44 4.87885C572.16 -0.292952 577.88 -0.292952 583.6 4.87885C589.32 10.0507 595.04 10.0507 600.76 4.87885C603.827 2.10609 606.893 0.819893 609.96 1.02025C613.027 0.819893 616.093 2.10609 619.16 4.87885C621.813 7.2779 624.467 8.5641 627.12 8.73746C629.773 8.5641 632.427 7.2779 635.08 4.87885C638.147 2.10609 641.213 0.819889 644.28 1.02025C647.347 0.819889 650.413 2.10609 653.48 4.87885C656.133 7.27789 658.787 8.56409 661.44 8.73745C664.093 8.56409 666.747 7.27789 669.4 4.87885C672.467 2.10609 675.533 0.819888 678.6 1.02025C681.667 0.819888 684.733 2.10609 687.8 4.87885C690.453 7.27789 693.107 8.56409 695.76 8.73745C698.413 8.56409 701.067 7.27789 703.72 4.87885C706.787 2.10608 709.853 0.819885 712.92 1.02026C715.987 0.819885 719.053 2.10608 722.12 4.87885C724.773 7.27789 727.427 8.56409 730.08 8.73745C732.733 8.56409 735.387 7.27789 738.04 4.87885C741.107 2.10609 744.173 0.819891 747.24 1.02025C750.307 0.819891 753.373 2.10609 756.44 4.87885C759.093 7.27789 761.747 8.56409 764.4 8.73745C767.053 8.5641 769.707 7.2779 772.36 4.87885C775.427 2.10609 778.493 0.819892 781.56 1.02025C784.627 0.819892 787.693 2.10609 790.76 4.87885C793.413 7.27789 796.067 8.5641 798.72 8.73745C801.373 8.5641 804.027 7.2779 806.68 4.87885C809.747 2.10609 812.813 0.819888 815.88 1.02025C818.947 0.819888 822.013 2.10609 825.08 4.87885C827.733 7.27789 830.387 8.56409 833.04 8.73745C836.107 8.93782 839.173 7.65162 842.24 4.87885C847.96 -0.292952 853.68 -0.292952 859.4 4.87885C865.12 10.0507 870.84 10.0507 876.56 4.87885C882.28 -0.292952 888 -0.292952 893.72 4.87885C899.44 10.0507 905.16 10.0507 910.88 4.87885C916.6 -0.292952 922.32 -0.292952 928.04 4.87885C933.76 10.0507 939.48 10.0507 945.2 4.87885C950.92 -0.292952 956.64 -0.292952 962.36 4.87885C968.08 10.0507 973.8 10.0507 979.52 4.87885C985.24 -0.292952 990.96 -0.292952 996.68 4.87885C1002.4 10.0507 1008.12 10.0507 1013.84 4.87885C1019.56 -0.292952 1025.28 -0.292952 1031 4.87885C1036.72 10.0507 1042.44 10.0507 1048.16 4.87885C1053.88 -0.292952 1059.6 -0.292952 1065.32 4.87885C1071.04 10.0507 1076.76 10.0507 1082.48 4.87885C1088.2 -0.292952 1093.92 -0.292952 1099.64 4.87885C1105.36 10.0507 1111.08 10.0507 1116.8 4.87885C1122.52 -0.292952 1128.24 -0.292952 1133.96 4.87885C1139.68 10.0507 1145.4 10.0507 1151.12 4.87885C1156.84 -0.292952 1162.56 -0.292952 1168.28 4.87885C1174 10.0507 1179.72 10.0507 1185.44 4.87885C1191.16 -0.292952 1196.88 -0.292952 1202.6 4.87885C1208.32 10.0507 1214.04 10.0507 1219.76 4.87885C1225.48 -0.292952 1231.2 -0.292952 1236.92 4.87885C1242.64 10.0507 1248.36 10.0507 1254.08 4.87885C1259.8 -0.292952 1265.52 -0.292952 1271.24 4.87885C1276.96 10.0507 1282.68 10.0507 1288.4 4.87885C1294.12 -0.292952 1299.84 -0.292952 1305.56 4.87885C1311.28 10.0507 1317 10.0507 1322.72 4.87885C1328.44 -0.292952 1334.16 -0.292952 1339.88 4.87885C1345.6 10.0507 1351.32 10.0507 1357.04 4.87885C1362.76 -0.292952 1368.48 -0.292952 1374.2 4.87885C1379.92 10.0507 1385.64 10.0507 1391.36 4.87885C1397.08 -0.292952 1402.8 -0.292952 1408.52 4.87885C1414.24 10.0507 1419.96 10.0507 1425.68 4.87885C1431.4 -0.292952 1437.12 -0.292952 1442.84 4.87885C1448.56 10.0507 1454.28 10.0507 1460 4.87885V297H-17V4.87885Z" stroke="#F6F6F6" stroke-width="1.9126"/>
<path d="M-19 182.871C-13.2645 175.043 -7.52902 175.043 -1.79353 182.871C3.94196 190.698 9.67745 190.698 15.4129 182.871C21.1484 175.043 26.8839 175.043 32.6194 182.871C38.3549 190.698 44.0904 190.698 49.8259 182.871C55.5614 175.043 61.2969 175.043 67.0324 182.871C72.7679 190.698 78.5033 190.698 84.2388 182.871C89.9743 175.043 95.7098 175.043 101.445 182.871C107.181 190.698 112.916 190.698 118.652 182.871C124.387 175.043 130.123 175.043 135.858 182.871C141.594 190.698 147.329 190.698 153.065 182.871C158.8 175.043 164.536 175.043 170.271 182.871C176.007 190.698 181.742 190.698 187.478 182.871C193.213 175.043 198.949 175.043 204.684 182.871C210.42 190.698 216.155 190.698 221.891 182.871C227.626 175.043 233.362 175.043 239.097 182.871C244.833 190.698 250.568 190.698 256.304 182.871C262.039 175.043 267.775 175.043 273.51 182.871C279.246 190.698 284.981 190.698 290.717 182.871C296.452 175.043 302.188 175.043 307.923 182.871C313.658 190.698 319.394 190.698 325.129 182.871C330.865 175.043 336.6 175.043 342.336 182.871C348.071 190.698 353.807 190.698 359.542 182.871C365.278 175.043 371.013 175.043 376.749 182.871C382.484 190.698 388.22 190.698 393.955 182.871C399.691 175.043 405.426 175.043 411.162 182.871C416.897 190.698 422.633 190.698 428.368 182.871C434.104 175.043 439.839 175.043 445.575 182.871C451.31 190.698 457.046 190.698 462.781 182.871C468.517 175.043 474.252 175.043 479.988 182.871C485.723 190.698 491.459 190.698 497.194 182.871C502.93 175.043 508.665 175.043 514.401 182.871C520.136 190.698 525.872 190.698 531.607 182.871C537.343 175.043 543.078 175.043 548.814 182.871C554.549 190.698 560.285 190.698 566.02 182.871C571.756 175.043 577.491 175.043 583.227 182.871C588.962 190.698 594.698 190.698 600.433 182.871C603.508 178.674 606.583 176.727 609.658 177.031C612.733 176.727 615.808 178.674 618.883 182.871C621.543 186.502 624.204 188.448 626.864 188.711C629.525 188.448 632.185 186.502 634.846 182.871C637.921 178.674 640.996 176.727 644.071 177.031C647.146 176.727 650.221 178.674 653.296 182.871C655.956 186.502 658.617 188.448 661.277 188.711C663.938 188.448 666.598 186.502 669.259 182.871C672.334 178.674 675.409 176.727 678.484 177.031C681.559 176.727 684.634 178.674 687.709 182.871C690.369 186.502 693.03 188.448 695.69 188.711C698.351 188.448 701.011 186.502 703.672 182.871C706.747 178.674 709.822 176.727 712.897 177.031C715.972 176.727 719.047 178.674 722.122 182.871C724.782 186.502 727.443 188.448 730.103 188.711C732.764 188.448 735.424 186.502 738.085 182.871C741.16 178.674 744.235 176.727 747.31 177.031C750.385 176.727 753.46 178.674 756.535 182.871C759.195 186.502 761.856 188.448 764.516 188.711C767.177 188.448 769.837 186.502 772.498 182.871C775.573 178.674 778.648 176.727 781.723 177.031C784.798 176.727 787.873 178.674 790.948 182.871C793.608 186.502 796.269 188.448 798.929 188.711C801.59 188.448 804.25 186.502 806.911 182.871C809.986 178.674 813.061 176.727 816.136 177.031C819.211 176.727 822.286 178.674 825.361 182.871C828.021 186.502 830.682 188.448 833.342 188.711C836.417 189.014 839.492 187.067 842.567 182.871C848.302 175.043 854.038 175.043 859.773 182.871C865.509 190.698 871.244 190.698 876.98 182.871C882.715 175.043 888.451 175.043 894.186 182.871C899.922 190.698 905.657 190.698 911.393 182.871C917.128 175.043 922.864 175.043 928.599 182.871C934.335 190.698 940.07 190.698 945.806 182.871C951.541 175.043 957.277 175.043 963.012 182.871C968.748 190.698 974.483 190.698 980.219 182.871C985.954 175.043 991.69 175.043 997.425 182.871C1003.16 190.698 1008.9 190.698 1014.63 182.871C1020.37 175.043 1026.1 175.043 1031.84 182.871C1037.57 190.698 1043.31 190.698 1049.04 182.871C1054.78 175.043 1060.52 175.043 1066.25 182.871C1071.99 190.698 1077.72 190.698 1083.46 182.871C1089.19 175.043 1094.93 175.043 1100.66 182.871C1106.4 190.698 1112.14 190.698 1117.87 182.871C1123.61 175.043 1129.34 175.043 1135.08 182.871C1140.81 190.698 1146.55 190.698 1152.28 182.871C1158.02 175.043 1163.75 175.043 1169.49 182.871C1175.23 190.698 1180.96 190.698 1186.7 182.871C1192.43 175.043 1198.17 175.043 1203.9 182.871C1209.64 190.698 1215.37 190.698 1221.11 182.871C1226.84 175.043 1232.58 175.043 1238.32 182.871C1244.05 190.698 1249.79 190.698 1255.52 182.871C1261.26 175.043 1266.99 175.043 1272.73 182.871C1278.46 190.698 1284.2 190.698 1289.94 182.871C1295.67 175.043 1301.41 175.043 1307.14 182.871C1312.88 190.698 1318.61 190.698 1324.35 182.871C1330.08 175.043 1335.82 175.043 1341.55 182.871C1347.29 190.698 1353.03 190.698 1358.76 182.871C1364.5 175.043 1370.23 175.043 1375.97 182.871C1381.7 190.698 1387.44 190.698 1393.17 182.871C1398.91 175.043 1404.65 175.043 1410.38 182.871C1416.12 190.698 1421.85 190.698 1427.59 182.871C1433.32 175.043 1439.06 175.043 1444.79 182.871C1450.53 190.698 1456.26 190.698 1462 182.871V625H-19V182.871Z" stroke="#F6F6F6" stroke-width="1.9126"/>
</svg>
