<svg width="52" height="61" viewBox="0 0 52 61" fill="none" xmlns="http://www.w3.org/2000/svg">
<rect x="-0.723884" y="0.723884" width="10.1344" height="7.23884" transform="matrix(-1 0 0 1 30.0037 34.2988)" fill="white" stroke="#002D56" stroke-width="1.44777"/>
<path fill-rule="evenodd" clip-rule="evenodd" d="M25.6604 35.7465C16.0654 35.7465 8.28715 27.9682 8.28715 18.3732C8.28715 8.77826 16.0654 1 25.6604 1C34.8447 1 42.3645 8.12671 42.9913 17.1517C49.6522 18.7286 48.424 26.7298 41.3474 25.849C38.5529 31.7023 32.5789 35.7465 25.6604 35.7465Z" fill="white"/>
<path d="M42.9913 17.1517L42.8246 17.8561L42.3061 17.7334L42.2692 17.2019L42.9913 17.1517ZM41.3474 25.849L40.6941 25.5371L40.9189 25.0662L41.4368 25.1307L41.3474 25.849ZM9.01104 18.3732C9.01104 27.5684 16.4652 35.0226 25.6604 35.0226V36.4703C15.6656 36.4703 7.56327 28.368 7.56327 18.3732H9.01104ZM25.6604 1.72388C16.4652 1.72388 9.01104 9.17805 9.01104 18.3732H7.56327C7.56327 8.37847 15.6656 0.276116 25.6604 0.276116V1.72388ZM42.2692 17.2019C41.6685 8.55362 34.4617 1.72388 25.6604 1.72388V0.276116C35.2277 0.276116 43.0605 7.6998 43.7135 17.1016L42.2692 17.2019ZM41.4368 25.1307C44.6791 25.5342 46.328 23.924 46.6075 22.2993C46.8899 20.6577 45.8551 18.5736 42.8246 17.8561L43.1581 16.4473C46.7885 17.3068 48.47 20.0117 48.0343 22.5447C47.5957 25.0946 45.0923 27.0446 41.258 26.5674L41.4368 25.1307ZM25.6604 35.0226C32.2896 35.0226 38.0153 31.1482 40.6941 25.5371L42.0006 26.1609C39.0906 32.2564 32.8683 36.4703 25.6604 36.4703V35.0226Z" fill="#002D56"/>
<path d="M38.6903 29.9554C34.2574 29.6889 32.4859 27.5822 31.4515 24.8882" stroke="#002D56" stroke-width="1.44777"/>
<mask id="mask0" mask-type="alpha" maskUnits="userSpaceOnUse" x="7" y="0" width="42" height="37">
<path fill-rule="evenodd" clip-rule="evenodd" d="M25.6604 35.7465C16.0654 35.7465 8.28715 27.9682 8.28715 18.3732C8.28715 8.77826 16.0654 1 25.6604 1C34.8447 1 42.3645 8.12671 42.9913 17.1517C49.6522 18.7286 48.424 26.7298 41.3474 25.849C38.5529 31.7023 32.5789 35.7465 25.6604 35.7465Z" fill="white"/>
<path d="M42.9913 17.1517L42.8246 17.8561L42.3061 17.7334L42.2692 17.2019L42.9913 17.1517ZM41.3474 25.849L40.6941 25.5371L40.9189 25.0662L41.4368 25.1307L41.3474 25.849ZM9.01104 18.3732C9.01104 27.5684 16.4652 35.0226 25.6604 35.0226V36.4703C15.6656 36.4703 7.56327 28.368 7.56327 18.3732H9.01104ZM25.6604 1.72388C16.4652 1.72388 9.01104 9.17805 9.01104 18.3732H7.56327C7.56327 8.37847 15.6656 0.276116 25.6604 0.276116V1.72388ZM42.2692 17.2019C41.6685 8.55362 34.4617 1.72388 25.6604 1.72388V0.276116C35.2277 0.276116 43.0605 7.6998 43.7135 17.1016L42.2692 17.2019ZM41.4368 25.1307C44.6791 25.5342 46.328 23.924 46.6075 22.2993C46.8899 20.6577 45.8551 18.5736 42.8246 17.8561L43.1581 16.4473C46.7885 17.3068 48.47 20.0117 48.0343 22.5447C47.5957 25.0946 45.0923 27.0446 41.258 26.5674L41.4368 25.1307ZM25.6604 35.0226C32.2896 35.0226 38.0153 31.1482 40.6941 25.5371L42.0006 26.1609C39.0906 32.2564 32.8683 36.4703 25.6604 36.4703V35.0226Z" fill="#002D56"/>
</mask>
<g mask="url(#mask0)">
<circle r="2.17165" transform="matrix(-1 0 0 1 32.1753 14.7539)" fill="#002D56"/>
<path d="M22.7649 10.4105C29.1944 10.207 32.5384 9.29437 37.9664 6.06721V-1.17163H6.8394V20.5449H22.7649V10.4105Z" fill="#002D56"/>
</g>
<path d="M0.174179 48.6376C14.8426 39.3576 36.6956 39.0583 51.0646 48.6377V60.0131H0.174179V48.6376Z" fill="#002D56"/>
</svg>
