<svg width="305" height="200" viewBox="0 0 305 200" fill="none" xmlns="http://www.w3.org/2000/svg">
<rect x="0.660375" y="54.811" width="33.0187" height="35.6602" fill="white" stroke="#002D56" stroke-width="1.32075"/>
<rect x="-0.423921" y="0.423921" width="5.9349" height="4.23921" transform="matrix(-1 0 0 1 19.9754 78.9337)" fill="white" stroke="#002D56" stroke-width="0.847842"/>
<path fill-rule="evenodd" clip-rule="evenodd" d="M17.432 79.7813C11.8129 79.7813 7.25785 75.2262 7.25785 69.6071C7.25785 63.9881 11.8129 59.433 17.432 59.433C22.8104 59.433 27.214 63.6064 27.5813 68.8915C31.482 69.815 30.7628 74.5005 26.6187 73.9848C24.9823 77.4128 21.4837 79.7813 17.432 79.7813Z" fill="white"/>
<path d="M27.5813 68.8915L27.4836 69.304L27.18 69.2322L27.1584 68.9209L27.5813 68.8915ZM26.6187 73.9848L26.2361 73.8022L26.3678 73.5264L26.6711 73.5642L26.6187 73.9848ZM7.68177 69.6071C7.68177 74.992 12.0471 79.3573 17.432 79.3573V80.2052C11.5788 80.2052 6.83393 75.4603 6.83393 69.6071H7.68177ZM17.432 59.857C12.0471 59.857 7.68177 64.2223 7.68177 69.6071H6.83393C6.83393 63.754 11.5788 59.0091 17.432 59.0091V59.857ZM27.1584 68.9209C26.8065 63.8564 22.5861 59.857 17.432 59.857V59.0091C23.0346 59.0091 27.6216 63.3564 28.0042 68.8621L27.1584 68.9209ZM26.6711 73.5642C28.5697 73.8004 29.5353 72.8575 29.699 71.906C29.8643 70.9447 29.2583 69.7242 27.4836 69.304L27.6789 68.479C29.8049 68.9823 30.7897 70.5663 30.5346 72.0497C30.2777 73.5429 28.8117 74.6849 26.5664 74.4055L26.6711 73.5642ZM17.432 79.3573C21.3142 79.3573 24.6674 77.0883 26.2361 73.8022L27.0013 74.1675C25.2971 77.7373 21.6532 80.2052 17.432 80.2052V79.3573Z" fill="#002D56"/>
<path d="M25.0625 76.3902C22.4665 76.2341 21.4291 75.0004 20.8233 73.4227" stroke="#002D56" stroke-width="0.847842"/>
<rect x="6.83395" y="69.6075" width="8.47842" height="14.4133" fill="#152F55"/>
<mask id="mask0" mask-type="alpha" maskUnits="userSpaceOnUse" x="6" y="59" width="25" height="22">
<path fill-rule="evenodd" clip-rule="evenodd" d="M17.432 79.7813C11.8129 79.7813 7.25785 75.2262 7.25785 69.6071C7.25785 63.9881 11.8129 59.433 17.432 59.433C22.8104 59.433 27.214 63.6064 27.5813 68.8915C31.482 69.815 30.7628 74.5005 26.6187 73.9848C24.9823 77.4128 21.4837 79.7813 17.432 79.7813Z" fill="white"/>
<path d="M27.5813 68.8915L27.4836 69.304L27.18 69.2322L27.1584 68.9209L27.5813 68.8915ZM26.6187 73.9848L26.2361 73.8022L26.3678 73.5264L26.6711 73.5642L26.6187 73.9848ZM7.68177 69.6071C7.68177 74.992 12.0471 79.3573 17.432 79.3573V80.2052C11.5788 80.2052 6.83393 75.4603 6.83393 69.6071H7.68177ZM17.432 59.857C12.0471 59.857 7.68177 64.2223 7.68177 69.6071H6.83393C6.83393 63.754 11.5788 59.0091 17.432 59.0091V59.857ZM27.1584 68.9209C26.8065 63.8564 22.5861 59.857 17.432 59.857V59.0091C23.0346 59.0091 27.6216 63.3564 28.0042 68.8621L27.1584 68.9209ZM26.6711 73.5642C28.5697 73.8004 29.5353 72.8575 29.699 71.906C29.8643 70.9447 29.2583 69.7242 27.4836 69.304L27.6789 68.479C29.8049 68.9823 30.7897 70.5663 30.5346 72.0497C30.2777 73.5429 28.8117 74.6849 26.5664 74.4055L26.6711 73.5642ZM17.432 79.3573C21.3142 79.3573 24.6674 77.0883 26.2361 73.8022L27.0013 74.1675C25.2971 77.7373 21.6532 80.2052 17.432 80.2052V79.3573Z" fill="#002D56"/>
</mask>
<g mask="url(#mask0)">
<circle r="1.27176" transform="matrix(-1 0 0 1 21.2473 67.4879)" fill="#002D56"/>
<path d="M15.7363 64.9446C19.5016 64.8254 21.4599 64.291 24.6386 62.4011V58.1619H6.41004L5.13827 76.8144L15.7363 83.1732V64.9446Z" fill="#002D56"/>
</g>
<rect x="0.660375" y="107.641" width="33.0187" height="35.6602" fill="white" stroke="#002D56" stroke-width="1.32075"/>
<rect x="-0.423921" y="0.423921" width="5.9349" height="4.23921" transform="matrix(-1 0 0 1 19.9754 131.764)" fill="white" stroke="#002D56" stroke-width="0.847842"/>
<path fill-rule="evenodd" clip-rule="evenodd" d="M17.432 132.611C11.8129 132.611 7.25785 128.056 7.25785 122.437C7.25785 116.818 11.8129 112.263 17.432 112.263C22.8104 112.263 27.214 116.436 27.5813 121.721C31.482 122.645 30.7628 127.33 26.6187 126.815C24.9823 130.243 21.4837 132.611 17.432 132.611Z" fill="white"/>
<path d="M27.5813 121.721L27.4836 122.134L27.18 122.062L27.1584 121.751L27.5813 121.721ZM26.6187 126.815L26.2361 126.632L26.3678 126.356L26.6711 126.394L26.6187 126.815ZM7.68177 122.437C7.68177 127.822 12.0471 132.187 17.432 132.187V133.035C11.5788 133.035 6.83393 128.29 6.83393 122.437H7.68177ZM17.432 112.687C12.0471 112.687 7.68177 117.052 7.68177 122.437H6.83393C6.83393 116.584 11.5788 111.839 17.432 111.839V112.687ZM27.1584 121.751C26.8065 116.686 22.5861 112.687 17.432 112.687V111.839C23.0346 111.839 27.6216 116.186 28.0042 121.692L27.1584 121.751ZM26.6711 126.394C28.5697 126.63 29.5353 125.687 29.699 124.736C29.8643 123.775 29.2583 122.554 27.4836 122.134L27.6789 121.309C29.8049 121.812 30.7897 123.396 30.5346 124.88C30.2777 126.373 28.8117 127.515 26.5664 127.235L26.6711 126.394ZM17.432 132.187C21.3142 132.187 24.6674 129.918 26.2361 126.632L27.0013 126.997C25.2971 130.567 21.6532 133.035 17.432 133.035V132.187Z" fill="#002D56"/>
<path d="M25.0625 129.22C22.4665 129.064 21.4291 127.83 20.8233 126.253" stroke="#002D56" stroke-width="0.847842"/>
<rect x="6.83395" y="122.438" width="8.47842" height="14.4133" fill="#152F55"/>
<mask id="mask1" mask-type="alpha" maskUnits="userSpaceOnUse" x="6" y="111" width="25" height="23">
<path fill-rule="evenodd" clip-rule="evenodd" d="M17.432 132.611C11.8129 132.611 7.25785 128.056 7.25785 122.437C7.25785 116.818 11.8129 112.263 17.432 112.263C22.8104 112.263 27.214 116.436 27.5813 121.721C31.482 122.645 30.7628 127.33 26.6187 126.815C24.9823 130.243 21.4837 132.611 17.432 132.611Z" fill="white"/>
<path d="M27.5813 121.721L27.4836 122.134L27.18 122.062L27.1584 121.751L27.5813 121.721ZM26.6187 126.815L26.2361 126.632L26.3678 126.356L26.6711 126.394L26.6187 126.815ZM7.68177 122.437C7.68177 127.822 12.0471 132.187 17.432 132.187V133.035C11.5788 133.035 6.83393 128.29 6.83393 122.437H7.68177ZM17.432 112.687C12.0471 112.687 7.68177 117.052 7.68177 122.437H6.83393C6.83393 116.584 11.5788 111.839 17.432 111.839V112.687ZM27.1584 121.751C26.8065 116.686 22.5861 112.687 17.432 112.687V111.839C23.0346 111.839 27.6216 116.186 28.0042 121.692L27.1584 121.751ZM26.6711 126.394C28.5697 126.63 29.5353 125.687 29.699 124.736C29.8643 123.775 29.2583 122.554 27.4836 122.134L27.6789 121.309C29.8049 121.812 30.7897 123.396 30.5346 124.88C30.2777 126.373 28.8117 127.515 26.5664 127.235L26.6711 126.394ZM17.432 132.187C21.3142 132.187 24.6674 129.918 26.2361 126.632L27.0013 126.997C25.2971 130.567 21.6532 133.035 17.432 133.035V132.187Z" fill="#002D56"/>
</mask>
<g mask="url(#mask1)">
<circle r="1.27176" transform="matrix(-1 0 0 1 21.2473 120.318)" fill="#002D56"/>
<path d="M15.7363 117.775C19.5016 117.655 21.4599 117.121 24.6386 115.231V110.992H6.41004L5.13827 129.644L15.7363 136.003V117.775Z" fill="#002D56"/>
</g>
<rect x="0.660375" y="0.660375" width="33.0187" height="35.6602" fill="white" stroke="#002D56" stroke-width="1.32075"/>
<rect x="-0.423921" y="0.423921" width="5.9349" height="4.23921" transform="matrix(-1 0 0 1 19.9754 24.783)" fill="white" stroke="#002D56" stroke-width="0.847842"/>
<path fill-rule="evenodd" clip-rule="evenodd" d="M17.4319 25.6306C11.8129 25.6306 7.25782 21.0755 7.25782 15.4565C7.25782 9.83751 11.8129 5.28241 17.4319 5.28241C22.8103 5.28241 27.214 9.45581 27.5812 14.7409C31.482 15.6644 30.7627 20.3499 26.6187 19.8342C24.9822 23.2622 21.4837 25.6306 17.4319 25.6306Z" fill="white"/>
<path d="M27.5812 14.7409L27.4836 15.1534L27.18 15.0816L27.1583 14.7703L27.5812 14.7409ZM26.6187 19.8342L26.2361 19.6516L26.3677 19.3758L26.671 19.4136L26.6187 19.8342ZM7.68174 15.4565C7.68174 20.8414 12.047 25.2067 17.4319 25.2067V26.0545C11.5788 26.0545 6.83389 21.3096 6.83389 15.4565H7.68174ZM17.4319 5.70633C12.047 5.70633 7.68174 10.0716 7.68174 15.4565H6.83389C6.83389 9.60339 11.5788 4.85849 17.4319 4.85849V5.70633ZM27.1583 14.7703C26.8065 9.70583 22.5861 5.70633 17.4319 5.70633V4.85849C23.0346 4.85849 27.6216 9.2058 28.0042 14.7115L27.1583 14.7703ZM26.671 19.4136C28.5697 19.6498 29.5353 18.7069 29.699 17.7554C29.8643 16.7941 29.2583 15.5736 27.4836 15.1534L27.6789 14.3284C29.8049 14.8317 30.7896 16.4157 30.5345 17.8991C30.2777 19.3923 28.8117 20.5343 26.5663 20.2549L26.671 19.4136ZM17.4319 25.2067C21.3142 25.2067 24.6674 22.9377 26.2361 19.6516L27.0012 20.0169C25.2971 23.5866 21.6531 26.0545 17.4319 26.0545V25.2067Z" fill="#002D56"/>
<path d="M25.0625 22.2395C22.4665 22.0834 21.4291 20.8497 20.8233 19.272" stroke="#002D56" stroke-width="0.847842"/>
<rect x="6.83395" y="15.4568" width="8.47842" height="14.4133" fill="#152F55"/>
<mask id="mask2" mask-type="alpha" maskUnits="userSpaceOnUse" x="6" y="4" width="25" height="23">
<path fill-rule="evenodd" clip-rule="evenodd" d="M17.4319 25.6306C11.8129 25.6306 7.25782 21.0755 7.25782 15.4565C7.25782 9.83751 11.8129 5.28241 17.4319 5.28241C22.8103 5.28241 27.214 9.45581 27.5812 14.7409C31.482 15.6644 30.7627 20.3499 26.6187 19.8342C24.9822 23.2622 21.4837 25.6306 17.4319 25.6306Z" fill="white"/>
<path d="M27.5812 14.7409L27.4836 15.1534L27.18 15.0816L27.1583 14.7703L27.5812 14.7409ZM26.6187 19.8342L26.2361 19.6516L26.3677 19.3758L26.671 19.4136L26.6187 19.8342ZM7.68174 15.4565C7.68174 20.8414 12.047 25.2067 17.4319 25.2067V26.0545C11.5788 26.0545 6.83389 21.3096 6.83389 15.4565H7.68174ZM17.4319 5.70633C12.047 5.70633 7.68174 10.0716 7.68174 15.4565H6.83389C6.83389 9.60339 11.5788 4.85849 17.4319 4.85849V5.70633ZM27.1583 14.7703C26.8065 9.70583 22.5861 5.70633 17.4319 5.70633V4.85849C23.0346 4.85849 27.6216 9.2058 28.0042 14.7115L27.1583 14.7703ZM26.671 19.4136C28.5697 19.6498 29.5353 18.7069 29.699 17.7554C29.8643 16.7941 29.2583 15.5736 27.4836 15.1534L27.6789 14.3284C29.8049 14.8317 30.7896 16.4157 30.5345 17.8991C30.2777 19.3923 28.8117 20.5343 26.5663 20.2549L26.671 19.4136ZM17.4319 25.2067C21.3142 25.2067 24.6674 22.9377 26.2361 19.6516L27.0012 20.0169C25.2971 23.5866 21.6531 26.0545 17.4319 26.0545V25.2067Z" fill="#002D56"/>
</mask>
<g mask="url(#mask2)">
<circle r="1.27176" transform="matrix(-1 0 0 1 21.2473 13.3372)" fill="#002D56"/>
<path d="M15.7363 10.7939C19.5016 10.6747 21.4599 10.1403 24.6386 8.25038V4.01117H6.41004L5.13827 22.6637L15.7363 29.0225V10.7939Z" fill="#002D56"/>
</g>
<rect x="146.24" y="31.0356" width="157.442" height="155.371" fill="white" stroke="#002D56" stroke-width="1.3167"/>
<path d="M145.581 64.1998H304.34" stroke="#002D56" stroke-width="1.3167"/>
<rect x="117.547" y="68.6789" width="138.679" height="9.24524" fill="#002D56"/>
<rect x="153.621" y="145.589" width="30.2842" height="34.2343" fill="white" stroke="#002D56" stroke-width="1.3167"/>
<rect x="153.621" y="145.589" width="30.2842" height="34.2343" fill="white" stroke="#002D56" stroke-width="1.3167"/>
<rect x="153.621" y="145.589" width="30.2842" height="34.2343" fill="white" stroke="#002D56" stroke-width="1.3167"/>
<rect x="153.621" y="145.589" width="30.2842" height="34.2343" fill="white" stroke="#002D56" stroke-width="1.3167"/>
<path d="M172.059 167.135C169.249 168.634 165.743 167.567 164.243 164.757C162.744 161.947 163.81 158.441 166.62 156.942C169.43 155.442 172.936 156.509 174.435 159.319C175.935 162.129 174.869 165.635 172.059 167.135ZM166.701 157.095C163.976 158.549 162.942 161.95 164.397 164.676C165.851 167.401 169.252 168.436 171.977 166.981C174.703 165.527 175.737 162.126 174.282 159.401C172.828 156.675 169.427 155.64 166.701 157.095Z" fill="#152F55"/>
<path d="M165.081 161.089C165.106 161.092 165.135 161.095 165.167 161.099C165.198 161.103 165.23 161.111 165.262 161.122C165.294 161.134 165.325 161.151 165.354 161.172C165.384 161.194 165.408 161.223 165.429 161.258C165.451 161.295 165.467 161.34 165.477 161.395C165.487 161.449 165.489 161.515 165.483 161.592L165.694 161.609L165.68 161.785L165.469 161.768C165.46 161.884 165.437 161.973 165.401 162.034C165.364 162.095 165.322 162.138 165.274 162.163C165.226 162.189 165.176 162.202 165.124 162.203C165.073 162.205 165.027 162.203 164.987 162.2L164.478 162.16L164.492 161.982L164.98 162.021C165.008 162.023 165.04 162.024 165.075 162.024C165.11 162.024 165.144 162.016 165.176 162.001C165.208 161.986 165.236 161.961 165.259 161.925C165.283 161.89 165.297 161.837 165.302 161.769C165.302 161.768 165.298 161.765 165.288 161.761C165.277 161.758 165.272 161.755 165.272 161.753L164.515 161.692L164.529 161.516L165.286 161.576C165.286 161.574 165.291 161.572 165.302 161.571C165.313 161.569 165.319 161.567 165.319 161.565C165.324 161.496 165.318 161.442 165.301 161.403C165.283 161.363 165.26 161.333 165.231 161.314C165.201 161.294 165.169 161.281 165.134 161.276C165.1 161.27 165.069 161.266 165.041 161.264L164.553 161.225L164.566 161.049L165.081 161.089Z" fill="#152F55"/>
<path d="M166.17 160.132L165.685 159.886L165.458 160.334L165.943 160.58L165.864 160.738L164.823 160.211L164.902 160.053L165.31 160.259L165.536 159.811L165.129 159.605L165.209 159.448L166.25 159.974L166.17 160.132Z" fill="#152F55"/>
<path d="M166.941 158.432C166.984 158.482 167.017 158.537 167.038 158.597C167.058 158.657 167.067 158.718 167.064 158.78C167.062 158.843 167.046 158.904 167.017 158.963C166.988 159.023 166.944 159.078 166.887 159.128L166.967 159.218L166.834 159.335L166.754 159.244C166.698 159.293 166.639 159.328 166.577 159.348C166.514 159.368 166.453 159.376 166.39 159.37C166.329 159.365 166.269 159.348 166.213 159.319C166.156 159.29 166.106 159.251 166.063 159.2C166.02 159.151 165.988 159.097 165.968 159.037C165.947 158.978 165.939 158.917 165.942 158.856C165.946 158.795 165.962 158.734 165.99 158.676C166.019 158.617 166.06 158.563 166.116 158.515L166.064 158.455L166.197 158.339L166.248 158.398C166.305 158.349 166.364 158.314 166.427 158.293C166.49 158.272 166.552 158.263 166.614 158.268C166.676 158.272 166.735 158.288 166.792 158.316C166.848 158.344 166.898 158.383 166.941 158.432ZM166.225 158.64C166.184 158.676 166.154 158.714 166.136 158.753C166.118 158.793 166.109 158.832 166.109 158.871C166.109 158.91 166.117 158.948 166.133 158.985C166.149 159.021 166.17 159.054 166.195 159.084C166.226 159.118 166.259 159.146 166.296 159.166C166.332 159.187 166.37 159.2 166.41 159.204C166.449 159.208 166.488 159.204 166.529 159.19C166.569 159.177 166.608 159.153 166.646 159.12L166.225 158.64ZM166.807 158.548C166.779 158.515 166.746 158.489 166.709 158.469C166.673 158.45 166.635 158.438 166.596 158.436C166.556 158.434 166.516 158.439 166.476 158.453C166.435 158.467 166.396 158.491 166.358 158.523L166.779 159.004C166.816 158.971 166.844 158.935 166.864 158.896C166.882 158.857 166.892 158.817 166.893 158.776C166.895 158.736 166.889 158.695 166.873 158.656C166.859 158.618 166.837 158.582 166.807 158.548Z" fill="#152F55"/>
<path d="M167.719 158.718L167.216 157.665L167.376 157.588L167.879 158.641L167.719 158.718Z" fill="#152F55"/>
<path d="M169.099 158.311L168.928 158.054L168.437 158.144L168.359 158.446L168.173 158.48L168.519 157.156L169.289 158.276L169.099 158.311ZM168.586 157.545L168.48 157.967L168.828 157.903L168.586 157.545Z" fill="#152F55"/>
<path d="M170.226 158.402L169.892 157.826L169.85 157.855L169.776 158.332L169.601 158.305L169.78 157.152L169.955 157.179L169.883 157.639L170.411 157.25L170.634 157.285L170.033 157.726L170.459 158.438L170.226 158.402Z" fill="#152F55"/>
<path d="M171.367 158.869L171.621 158.388L171.177 158.153L170.922 158.634L170.767 158.551L171.312 157.52L171.468 157.603L171.255 158.006L171.699 158.241L171.912 157.838L172.068 157.92L171.523 158.952L171.367 158.869Z" fill="#152F55"/>
<path d="M168.516 166.859L168.203 166.271L168.161 166.299L168.07 166.773L167.896 166.739L168.117 165.593L168.29 165.627L168.202 166.084L168.744 165.714L168.965 165.757L168.348 166.176L168.748 166.904L168.516 166.859Z" fill="#152F55"/>
<path d="M170.334 166.798L170.173 166.535L169.68 166.605L169.59 166.905L169.403 166.932L169.799 165.622L170.525 166.772L170.334 166.798ZM169.852 166.014L169.729 166.431L170.079 166.381L169.852 166.014Z" fill="#152F55"/>
<path d="M171.954 166.146L171.258 165.61L171.299 166.488L171.126 166.578L171.074 165.248L172.128 166.056L171.954 166.146Z" fill="#152F55"/>
<path d="M173.246 165.015L172.509 164.336L172.102 164.779L172.839 165.458L172.718 165.589L171.859 164.797L172.506 164.093L173.366 164.885L173.246 165.015Z" fill="#152F55"/>
<path d="M174.112 163.487L173.61 163.277L173.416 163.741L173.919 163.95L173.851 164.113L172.774 163.664L172.842 163.501L173.263 163.677L173.457 163.213L173.035 163.038L173.103 162.874L174.181 163.323L174.112 163.487Z" fill="#152F55"/>
<path d="M172.057 162.119L167.898 164.338L166.626 161.954L170.785 159.735L172.057 162.119ZM167.97 164.103L171.822 162.047L170.714 159.97L166.861 162.026L167.97 164.103Z" fill="#152F55"/>
<path d="M169.562 162.448L166.732 162.076L166.755 161.904L169.461 162.26L170.671 159.814L170.827 159.891L169.562 162.448Z" fill="#152F55"/>
<path d="M171.906 162.163L170.009 161.359L170.077 161.2L171.974 162.003L171.906 162.163Z" fill="#152F55"/>
<path d="M168.015 164.24L167.844 164.207L168.232 162.184L168.403 162.217L168.015 164.24Z" fill="#152F55"/>
<path d="M153.34 180.546C153.761 180.488 153.965 180.259 153.953 179.859C153.94 179.459 154.145 179.23 154.565 179.172C154.986 179.114 155.19 178.885 155.177 178.484C155.165 178.084 155.369 177.855 155.79 177.797C156.21 177.739 156.414 177.51 156.402 177.11C156.39 176.71 156.594 176.48 157.015 176.422C157.435 176.364 157.639 176.135 157.627 175.735C157.615 175.335 157.819 175.106 158.239 175.048C158.66 174.99 158.864 174.761 158.852 174.36C158.839 173.96 159.043 173.731 159.464 173.673C159.884 173.615 160.089 173.386 160.076 172.986C160.064 172.586 160.268 172.356 160.689 172.298C161.109 172.24 161.313 172.011 161.301 171.611C161.289 171.211 161.493 170.982 161.913 170.924C162.334 170.866 162.538 170.637 162.526 170.236C162.513 169.836 162.718 169.607 163.138 169.549C163.559 169.491 163.763 169.262 163.75 168.862C163.738 168.462 163.942 168.232 164.363 168.174C164.783 168.116 164.987 167.887 164.975 167.487C164.963 167.087 165.167 166.858 165.587 166.8C166.008 166.742 166.212 166.513 166.2 166.113C166.188 165.712 166.392 165.483 166.812 165.425C167.233 165.367 167.437 165.138 167.425 164.738C167.412 164.338 167.616 164.109 168.037 164.051C168.457 163.993 168.662 163.763 168.649 163.363C168.637 162.963 168.841 162.734 169.262 162.676C169.682 162.618 169.886 162.389 169.874 161.989C169.862 161.588 170.066 161.359 170.486 161.301C170.907 161.243 171.111 161.014 171.099 160.614C171.086 160.214 171.291 159.985 171.711 159.927C172.132 159.869 172.336 159.639 172.323 159.239C172.311 158.839 172.515 158.61 172.936 158.552C173.356 158.494 173.56 158.265 173.548 157.865C173.536 157.464 173.74 157.235 174.16 157.177C174.581 157.119 174.785 156.89 174.773 156.49C174.761 156.09 174.965 155.861 175.385 155.803C175.806 155.745 176.01 155.515 175.998 155.115C175.985 154.715 176.189 154.486 176.61 154.428C177.03 154.37 177.234 154.141 177.222 153.741C177.21 153.34 177.414 153.111 177.835 153.053C178.255 152.995 178.459 152.766 178.447 152.366C178.435 151.966 178.639 151.737 179.059 151.679C179.48 151.621 179.684 151.392 179.672 150.991C179.659 150.591 179.863 150.362 180.284 150.304C180.704 150.246 180.909 150.017 180.896 149.617C180.884 149.216 181.088 148.987 181.509 148.929C181.929 148.871 182.133 148.642 182.121 148.242C182.109 147.842 182.313 147.613 182.733 147.555C183.154 147.497 183.358 147.268 183.346 146.867C183.333 146.467 183.538 146.238 183.958 146.18" stroke="#002D56" stroke-width="0.141605"/>
<line y1="-0.0708023" x2="44.7996" y2="-0.0708023" transform="matrix(0.665211 -0.746655 -0.784408 -0.620245 153.351 179.448)" stroke="#002D56" stroke-width="0.141605"/>
<line y1="-0.0708023" x2="44.7996" y2="-0.0708023" transform="matrix(0.665211 -0.746655 -0.784408 -0.620245 153.107 179.256)" stroke="#002D56" stroke-width="0.141605"/>
<line y1="-0.0708023" x2="44.7996" y2="-0.0708023" transform="matrix(0.665211 -0.746655 -0.784408 -0.620245 154.568 180.411)" stroke="#002D56" stroke-width="0.141605"/>
<line y1="-0.0708023" x2="44.7996" y2="-0.0708023" transform="matrix(0.665211 -0.746655 -0.784408 -0.620245 154.324 180.218)" stroke="#002D56" stroke-width="0.141605"/>
<circle cx="169.339" cy="162.038" r="6.13214" stroke="#002D56" stroke-width="0.961904"/>
<rect x="175.494" y="163.37" width="30.2842" height="34.2343" transform="rotate(-53.7935 175.494 163.37)" fill="white" stroke="#002D56" stroke-width="1.3167"/>
<path d="M203.77 161.22C203.32 164.373 200.389 166.572 197.235 166.122C194.082 165.672 191.883 162.74 192.333 159.588C192.783 156.434 195.714 154.235 198.868 154.685C202.021 155.135 204.22 158.067 203.77 161.22ZM192.504 159.612C192.068 162.67 194.201 165.513 197.26 165.95C200.319 166.386 203.162 164.254 203.598 161.195C204.035 158.137 201.902 155.294 198.843 154.857C195.784 154.421 192.941 156.554 192.504 159.612Z" fill="#152F55"/>
<path d="M194.77 163.28C194.787 163.26 194.807 163.239 194.829 163.216C194.851 163.193 194.876 163.172 194.904 163.152C194.932 163.133 194.964 163.119 194.998 163.108C195.033 163.097 195.071 163.094 195.113 163.098C195.155 163.102 195.201 163.116 195.251 163.14C195.301 163.164 195.355 163.201 195.414 163.252L195.552 163.091L195.685 163.206L195.547 163.367C195.636 163.443 195.694 163.514 195.722 163.579C195.749 163.644 195.759 163.704 195.751 163.758C195.743 163.812 195.724 163.86 195.695 163.902C195.666 163.945 195.637 163.981 195.611 164.011L195.278 164.398L195.143 164.282L195.462 163.91C195.481 163.889 195.5 163.864 195.521 163.836C195.542 163.807 195.555 163.776 195.562 163.741C195.569 163.706 195.565 163.669 195.55 163.629C195.535 163.589 195.502 163.546 195.449 163.502C195.448 163.501 195.444 163.504 195.435 163.509C195.426 163.516 195.42 163.518 195.419 163.516L194.923 164.092L194.789 163.977L195.284 163.401C195.283 163.4 195.284 163.395 195.289 163.385C195.295 163.375 195.296 163.37 195.294 163.368C195.242 163.324 195.195 163.296 195.153 163.287C195.111 163.278 195.073 163.279 195.04 163.291C195.006 163.303 194.977 163.321 194.952 163.346C194.927 163.371 194.905 163.393 194.887 163.415L194.568 163.786L194.434 163.671L194.77 163.28Z" fill="#152F55"/>
<path d="M194.641 161.835L194.156 162.081L194.384 162.529L194.869 162.282L194.949 162.44L193.909 162.969L193.829 162.812L194.236 162.604L194.008 162.157L193.601 162.364L193.521 162.206L194.561 161.677L194.641 161.835Z" fill="#152F55"/>
<path d="M193.725 160.208C193.791 160.203 193.854 160.21 193.915 160.228C193.976 160.247 194.031 160.276 194.079 160.315C194.128 160.354 194.167 160.403 194.198 160.462C194.229 160.52 194.248 160.587 194.254 160.663L194.375 160.653L194.39 160.829L194.27 160.839C194.276 160.914 194.269 160.982 194.249 161.044C194.229 161.106 194.198 161.16 194.157 161.207C194.116 161.254 194.067 161.292 194.011 161.32C193.954 161.349 193.893 161.366 193.826 161.371C193.761 161.377 193.698 161.371 193.638 161.352C193.578 161.333 193.524 161.304 193.477 161.265C193.43 161.226 193.391 161.177 193.36 161.12C193.329 161.062 193.31 160.996 193.304 160.923L193.226 160.93L193.21 160.754L193.289 160.747C193.282 160.673 193.289 160.604 193.309 160.541C193.33 160.478 193.359 160.423 193.399 160.375C193.439 160.328 193.487 160.29 193.543 160.26C193.599 160.232 193.66 160.214 193.725 160.208ZM193.47 160.909C193.474 160.963 193.488 161.01 193.509 161.048C193.53 161.086 193.557 161.116 193.588 161.139C193.62 161.162 193.654 161.178 193.693 161.187C193.732 161.196 193.771 161.199 193.811 161.196C193.856 161.191 193.898 161.18 193.936 161.163C193.974 161.146 194.007 161.123 194.034 161.093C194.061 161.064 194.08 161.03 194.093 160.989C194.106 160.949 194.11 160.903 194.106 160.854L193.47 160.909ZM193.74 160.385C193.696 160.388 193.655 160.4 193.618 160.418C193.581 160.436 193.55 160.459 193.524 160.489C193.499 160.52 193.48 160.556 193.467 160.597C193.454 160.638 193.45 160.683 193.454 160.733L194.09 160.677C194.086 160.627 194.073 160.584 194.054 160.545C194.033 160.507 194.007 160.476 193.975 160.451C193.943 160.425 193.907 160.406 193.866 160.396C193.826 160.385 193.785 160.381 193.74 160.385Z" fill="#152F55"/>
<path d="M194.415 159.749L193.269 159.533L193.301 159.359L194.448 159.576L194.415 159.749Z" fill="#152F55"/>
<path d="M194.902 158.396L194.594 158.382L194.376 158.831L194.574 159.073L194.492 159.243L193.627 158.181L194.986 158.222L194.902 158.396ZM193.981 158.357L194.258 158.692L194.413 158.374L193.981 158.357Z" fill="#152F55"/>
<path d="M195.641 157.541L194.979 157.47L194.978 157.521L195.319 157.862L195.194 157.987L194.369 157.162L194.495 157.037L194.823 157.366L194.821 156.71L194.981 156.551L194.982 157.297L195.808 157.374L195.641 157.541Z" fill="#152F55"/>
<path d="M196.692 156.896L196.454 156.407L196.002 156.626L196.24 157.115L196.081 157.192L195.571 156.143L195.73 156.066L195.929 156.477L196.381 156.257L196.182 155.846L196.34 155.769L196.851 156.819L196.692 156.896Z" fill="#152F55"/>
<path d="M201.455 163.915L200.796 163.821L200.793 163.872L201.122 164.225L200.992 164.346L200.198 163.49L200.327 163.37L200.644 163.711L200.666 163.056L200.831 162.902L200.805 163.648L201.628 163.754L201.455 163.915Z" fill="#152F55"/>
<path d="M202.48 162.413L202.172 162.388L201.938 162.827L202.126 163.076L202.037 163.243L201.215 162.15L202.571 162.243L202.48 162.413ZM201.562 162.339L201.826 162.684L201.992 162.373L201.562 162.339Z" fill="#152F55"/>
<path d="M202.911 160.72L202.067 160.965L202.799 161.45L202.77 161.644L201.666 160.9L202.941 160.527L202.911 160.72Z" fill="#152F55"/>
<path d="M202.761 159.009L201.778 159.203L201.894 159.794L202.878 159.6L202.912 159.774L201.766 160.001L201.58 159.062L202.727 158.836L202.761 159.009Z" fill="#152F55"/>
<path d="M202.039 157.408L201.574 157.69L201.834 158.12L202.299 157.838L202.391 157.989L201.392 158.593L201.301 158.442L201.692 158.205L201.432 157.775L201.041 158.012L200.949 157.861L201.948 157.256L202.039 157.408Z" fill="#152F55"/>
<path d="M199.722 158.258L199.056 162.925L196.381 162.543L197.047 157.877L199.722 158.258ZM198.909 162.728L199.526 158.406L197.194 158.073L196.578 162.396L198.909 162.728Z" fill="#152F55"/>
<path d="M198.514 160.467L196.542 162.53L196.417 162.41L198.303 160.436L197.044 158.015L197.198 157.935L198.514 160.467Z" fill="#152F55"/>
<path d="M199.668 158.407L197.9 159.462L197.811 159.313L199.579 158.258L199.668 158.407Z" fill="#152F55"/>
<path d="M199.045 162.773L198.918 162.891L197.515 161.383L197.642 161.265L199.045 162.773Z" fill="#152F55"/>
<path d="M203.535 184.246C203.737 183.872 203.672 183.572 203.342 183.346C203.012 183.119 202.948 182.819 203.149 182.445C203.351 182.072 203.287 181.772 202.956 181.545C202.626 181.319 202.562 181.019 202.764 180.645C202.965 180.272 202.901 179.972 202.571 179.745C202.241 179.519 202.176 179.219 202.378 178.845C202.579 178.471 202.515 178.171 202.185 177.945C201.855 177.718 201.79 177.418 201.992 177.045C202.194 176.671 202.129 176.371 201.799 176.145C201.469 175.918 201.405 175.618 201.606 175.245C201.808 174.871 201.744 174.571 201.413 174.345C201.083 174.118 201.019 173.818 201.22 173.444C201.422 173.071 201.358 172.771 201.028 172.544C200.697 172.318 200.633 172.018 200.835 171.644C201.036 171.271 200.972 170.971 200.642 170.744C200.312 170.518 200.247 170.218 200.449 169.844C200.651 169.47 200.586 169.17 200.256 168.944C199.926 168.717 199.862 168.417 200.063 168.044C200.265 167.67 200.2 167.37 199.87 167.144C199.54 166.917 199.476 166.617 199.677 166.244C199.879 165.87 199.815 165.57 199.485 165.343C199.154 165.117 199.09 164.817 199.292 164.443C199.493 164.07 199.429 163.77 199.099 163.543C198.769 163.317 198.704 163.017 198.906 162.643C199.107 162.27 199.043 161.97 198.713 161.743C198.383 161.517 198.319 161.217 198.52 160.843C198.722 160.469 198.657 160.169 198.327 159.943C197.997 159.716 197.933 159.416 198.134 159.043C198.336 158.669 198.272 158.369 197.941 158.143C197.611 157.916 197.547 157.616 197.749 157.243C197.95 156.869 197.886 156.569 197.556 156.342C197.226 156.116 197.161 155.816 197.363 155.442C197.564 155.069 197.5 154.769 197.17 154.542C196.84 154.316 196.775 154.016 196.977 153.642C197.179 153.269 197.114 152.968 196.784 152.742C196.454 152.515 196.39 152.215 196.591 151.842C196.793 151.468 196.729 151.168 196.398 150.942C196.068 150.715 196.004 150.415 196.206 150.042C196.407 149.668 196.343 149.368 196.013 149.142C195.682 148.915 195.618 148.615 195.82 148.241C196.021 147.868 195.957 147.568 195.627 147.341C195.297 147.115 195.232 146.815 195.434 146.441C195.636 146.068 195.571 145.768 195.241 145.541C194.911 145.315 194.847 145.015 195.048 144.641C195.25 144.267 195.186 143.967 194.855 143.741C194.525 143.514 194.461 143.214 194.662 142.841C194.864 142.467 194.8 142.167 194.47 141.941C194.139 141.714 194.075 141.414 194.277 141.041C194.478 140.667 194.414 140.367 194.084 140.141C193.754 139.914 193.689 139.614 193.891 139.24" stroke="#002D56" stroke-width="0.141605"/>
<line y1="-0.0708023" x2="44.7996" y2="-0.0708023" transform="matrix(-0.209533 -0.977802 -0.963819 0.266558 202.655 183.589)" stroke="#002D56" stroke-width="0.141605"/>
<line y1="-0.0708023" x2="44.7996" y2="-0.0708023" transform="matrix(-0.209533 -0.977802 -0.963819 0.266558 202.356 183.671)" stroke="#002D56" stroke-width="0.141605"/>
<line y1="-0.0708023" x2="44.7996" y2="-0.0708023" transform="matrix(-0.209533 -0.977802 -0.963819 0.266558 204.151 183.175)" stroke="#002D56" stroke-width="0.141605"/>
<line y1="-0.0708023" x2="44.7996" y2="-0.0708023" transform="matrix(-0.209533 -0.977802 -0.963819 0.266558 203.851 183.258)" stroke="#002D56" stroke-width="0.141605"/>
<circle cx="198.051" cy="160.403" r="6.13214" transform="rotate(-53.7935 198.051 160.403)" stroke="#002D56" stroke-width="0.961904"/>
<rect x="220.16" y="149.196" width="30.2842" height="34.2343" fill="white" stroke="#002D56" stroke-width="1.3167"/>
<path d="M238.597 170.742C235.787 172.241 232.281 171.175 230.782 168.364C229.282 165.554 230.348 162.048 233.158 160.549C235.968 159.049 239.474 160.116 240.974 162.926C242.473 165.736 241.407 169.242 238.597 170.742ZM233.24 160.702C230.514 162.156 229.48 165.557 230.935 168.283C232.389 171.009 235.79 172.043 238.515 170.589C241.241 169.134 242.275 165.733 240.821 163.008C239.366 160.282 235.965 159.247 233.24 160.702Z" fill="#152F55"/>
<path d="M231.619 164.696C231.645 164.699 231.673 164.702 231.705 164.706C231.737 164.71 231.769 164.718 231.801 164.729C231.832 164.741 231.863 164.758 231.892 164.779C231.922 164.801 231.946 164.83 231.968 164.865C231.989 164.902 232.005 164.947 232.015 165.002C232.025 165.056 232.027 165.122 232.021 165.199L232.232 165.216L232.218 165.392L232.007 165.375C231.998 165.491 231.975 165.58 231.939 165.641C231.903 165.702 231.86 165.745 231.812 165.77C231.764 165.796 231.714 165.809 231.662 165.81C231.611 165.812 231.565 165.81 231.525 165.807L231.016 165.767L231.03 165.589L231.519 165.628C231.547 165.63 231.578 165.631 231.613 165.631C231.649 165.631 231.682 165.623 231.714 165.608C231.746 165.593 231.774 165.568 231.798 165.532C231.821 165.497 231.836 165.444 231.84 165.376C231.841 165.375 231.836 165.372 231.826 165.368C231.815 165.365 231.81 165.362 231.811 165.36L231.053 165.299L231.067 165.123L231.824 165.183C231.824 165.181 231.83 165.179 231.841 165.178C231.851 165.176 231.857 165.174 231.857 165.172C231.862 165.103 231.856 165.049 231.839 165.01C231.821 164.97 231.798 164.941 231.769 164.921C231.739 164.901 231.707 164.888 231.673 164.883C231.638 164.877 231.607 164.873 231.579 164.871L231.091 164.832L231.104 164.656L231.619 164.696Z" fill="#152F55"/>
<path d="M232.708 163.739L232.223 163.493L231.997 163.941L232.482 164.187L232.402 164.345L231.361 163.818L231.44 163.66L231.848 163.866L232.074 163.418L231.667 163.212L231.747 163.055L232.788 163.581L232.708 163.739Z" fill="#152F55"/>
<path d="M233.479 162.039C233.523 162.089 233.555 162.144 233.576 162.204C233.596 162.264 233.606 162.325 233.603 162.387C233.6 162.45 233.584 162.511 233.555 162.57C233.526 162.63 233.483 162.685 233.425 162.735L233.505 162.825L233.372 162.942L233.292 162.851C233.236 162.9 233.177 162.935 233.115 162.955C233.053 162.976 232.991 162.983 232.929 162.977C232.867 162.972 232.807 162.955 232.751 162.926C232.694 162.897 232.645 162.858 232.601 162.808C232.558 162.758 232.526 162.704 232.506 162.644C232.485 162.585 232.477 162.524 232.48 162.463C232.484 162.402 232.5 162.342 232.529 162.283C232.557 162.224 232.599 162.17 232.654 162.122L232.602 162.062L232.735 161.946L232.787 162.005C232.843 161.956 232.903 161.921 232.966 161.9C233.029 161.879 233.091 161.871 233.153 161.875C233.214 161.879 233.273 161.895 233.33 161.923C233.386 161.951 233.436 161.99 233.479 162.039ZM232.763 162.247C232.722 162.283 232.693 162.321 232.674 162.36C232.657 162.4 232.647 162.44 232.648 162.478C232.648 162.517 232.655 162.555 232.671 162.592C232.687 162.628 232.708 162.661 232.734 162.691C232.764 162.726 232.797 162.753 232.834 162.773C232.871 162.794 232.909 162.807 232.948 162.811C232.987 162.815 233.027 162.811 233.067 162.797C233.107 162.784 233.147 162.76 233.184 162.727L232.763 162.247ZM233.346 162.155C233.317 162.122 233.284 162.096 233.248 162.076C233.211 162.057 233.174 162.046 233.134 162.043C233.095 162.041 233.054 162.046 233.014 162.06C232.973 162.074 232.934 162.098 232.896 162.13L233.317 162.611C233.355 162.578 233.382 162.542 233.402 162.503C233.42 162.464 233.431 162.424 233.432 162.383C233.433 162.343 233.427 162.302 233.412 162.264C233.397 162.225 233.376 162.189 233.346 162.155Z" fill="#152F55"/>
<path d="M234.258 162.325L233.755 161.272L233.914 161.195L234.417 162.249L234.258 162.325Z" fill="#152F55"/>
<path d="M235.638 161.918L235.467 161.661L234.976 161.751L234.897 162.053L234.712 162.087L235.057 160.763L235.827 161.884L235.638 161.918ZM235.125 161.152L235.018 161.574L235.366 161.51L235.125 161.152Z" fill="#152F55"/>
<path d="M236.764 162.009L236.43 161.434L236.388 161.462L236.315 161.939L236.139 161.913L236.318 160.759L236.493 160.786L236.422 161.246L236.95 160.857L237.173 160.892L236.571 161.333L236.997 162.045L236.764 162.009Z" fill="#152F55"/>
<path d="M237.905 162.476L238.159 161.995L237.715 161.76L237.461 162.241L237.305 162.158L237.85 161.127L238.007 161.21L237.793 161.613L238.237 161.848L238.45 161.445L238.607 161.527L238.061 162.559L237.905 162.476Z" fill="#152F55"/>
<path d="M235.054 170.466L234.742 169.879L234.699 169.906L234.608 170.38L234.434 170.346L234.655 169.2L234.828 169.234L234.74 169.691L235.282 169.321L235.503 169.364L234.887 169.783L235.287 170.511L235.054 170.466Z" fill="#152F55"/>
<path d="M236.873 170.405L236.711 170.142L236.218 170.212L236.128 170.512L235.941 170.539L236.337 169.229L237.063 170.379L236.873 170.405ZM236.39 169.621L236.267 170.038L236.617 169.988L236.39 169.621Z" fill="#152F55"/>
<path d="M238.493 169.753L237.796 169.217L237.838 170.095L237.664 170.185L237.612 168.855L238.666 169.663L238.493 169.753Z" fill="#152F55"/>
<path d="M239.785 168.622L239.047 167.943L238.64 168.386L239.377 169.065L239.257 169.196L238.397 168.404L239.044 167.7L239.905 168.492L239.785 168.622Z" fill="#152F55"/>
<path d="M240.65 167.094L240.148 166.885L239.955 167.348L240.457 167.557L240.389 167.72L239.312 167.271L239.38 167.108L239.802 167.284L239.995 166.82L239.573 166.645L239.641 166.481L240.719 166.931L240.65 167.094Z" fill="#152F55"/>
<path d="M238.595 165.726L234.436 167.945L233.165 165.562L237.324 163.342L238.595 165.726ZM234.508 167.71L238.361 165.655L237.252 163.577L233.399 165.633L234.508 167.71Z" fill="#152F55"/>
<path d="M236.1 166.056L233.27 165.683L233.293 165.511L236 165.867L237.21 163.421L237.365 163.498L236.1 166.056Z" fill="#152F55"/>
<path d="M238.444 165.77L236.548 164.967L236.616 164.807L238.512 165.61L238.444 165.77Z" fill="#152F55"/>
<path d="M234.553 167.847L234.382 167.814L234.77 165.791L234.941 165.824L234.553 167.847Z" fill="#152F55"/>
<path d="M219.879 184.153C220.299 184.095 220.503 183.866 220.491 183.466C220.479 183.066 220.683 182.837 221.103 182.779C221.524 182.721 221.728 182.492 221.716 182.091C221.703 181.691 221.908 181.462 222.328 181.404C222.749 181.346 222.953 181.117 222.94 180.717C222.928 180.317 223.132 180.088 223.553 180.03C223.973 179.972 224.177 179.742 224.165 179.342C224.153 178.942 224.357 178.713 224.778 178.655C225.198 178.597 225.402 178.368 225.39 177.968C225.378 177.567 225.582 177.338 226.002 177.28C226.423 177.222 226.627 176.993 226.615 176.593C226.602 176.193 226.806 175.964 227.227 175.906C227.647 175.848 227.852 175.618 227.839 175.218C227.827 174.818 228.031 174.589 228.452 174.531C228.872 174.473 229.076 174.244 229.064 173.844C229.052 173.443 229.256 173.214 229.676 173.156C230.097 173.098 230.301 172.869 230.289 172.469C230.276 172.069 230.481 171.84 230.901 171.782C231.322 171.724 231.526 171.494 231.513 171.094C231.501 170.694 231.705 170.465 232.126 170.407C232.546 170.349 232.75 170.12 232.738 169.72C232.726 169.319 232.93 169.09 233.35 169.032C233.771 168.974 233.975 168.745 233.963 168.345C233.951 167.945 234.155 167.716 234.575 167.658C234.996 167.6 235.2 167.371 235.188 166.97C235.175 166.57 235.379 166.341 235.8 166.283C236.22 166.225 236.425 165.996 236.412 165.596C236.4 165.195 236.604 164.966 237.025 164.908C237.445 164.85 237.649 164.621 237.637 164.221C237.625 163.821 237.829 163.592 238.249 163.534C238.67 163.476 238.874 163.247 238.862 162.846C238.849 162.446 239.054 162.217 239.474 162.159C239.895 162.101 240.099 161.872 240.086 161.472C240.074 161.071 240.278 160.842 240.699 160.784C241.119 160.726 241.323 160.497 241.311 160.097C241.299 159.697 241.503 159.468 241.923 159.41C242.344 159.352 242.548 159.123 242.536 158.722C242.524 158.322 242.728 158.093 243.148 158.035C243.569 157.977 243.773 157.748 243.76 157.348C243.748 156.948 243.952 156.718 244.373 156.66C244.793 156.602 244.997 156.373 244.985 155.973C244.973 155.573 245.177 155.344 245.598 155.286C246.018 155.228 246.222 154.999 246.21 154.598C246.198 154.198 246.402 153.969 246.822 153.911C247.243 153.853 247.447 153.624 247.435 153.224C247.422 152.824 247.626 152.594 248.047 152.536C248.467 152.478 248.672 152.249 248.659 151.849C248.647 151.449 248.851 151.22 249.272 151.162C249.692 151.104 249.896 150.875 249.884 150.474C249.872 150.074 250.076 149.845 250.496 149.787" stroke="#002D56" stroke-width="0.141605"/>
<line y1="-0.0708023" x2="44.7996" y2="-0.0708023" transform="matrix(0.665211 -0.746655 -0.784408 -0.620245 219.889 183.055)" stroke="#002D56" stroke-width="0.141605"/>
<line y1="-0.0708023" x2="44.7996" y2="-0.0708023" transform="matrix(0.665211 -0.746655 -0.784408 -0.620245 219.646 182.863)" stroke="#002D56" stroke-width="0.141605"/>
<line y1="-0.0708023" x2="44.7996" y2="-0.0708023" transform="matrix(0.665211 -0.746655 -0.784408 -0.620245 221.106 184.018)" stroke="#002D56" stroke-width="0.141605"/>
<line y1="-0.0708023" x2="44.7996" y2="-0.0708023" transform="matrix(0.665211 -0.746655 -0.784408 -0.620245 220.863 183.825)" stroke="#002D56" stroke-width="0.141605"/>
<circle cx="235.878" cy="165.645" r="6.13214" stroke="#002D56" stroke-width="0.961904"/>
<rect x="258.657" y="138.225" width="30.2842" height="34.2343" transform="rotate(43.4001 258.657 138.225)" fill="white" stroke="#002D56" stroke-width="1.3167"/>
<path d="M257.25 166.548C254.178 165.706 252.363 162.523 253.205 159.451C254.046 156.378 257.23 154.563 260.301 155.405C263.373 156.246 265.188 159.43 264.347 162.502C263.505 165.574 260.322 167.389 257.25 166.548ZM260.256 155.572C257.276 154.756 254.188 156.517 253.372 159.496C252.556 162.476 254.316 165.564 257.296 166.38C260.275 167.196 263.363 165.436 264.179 162.456C264.995 159.476 263.235 156.388 260.256 155.572Z" fill="#152F55"/>
<path d="M256.333 157.361C256.35 157.38 256.369 157.402 256.389 157.427C256.409 157.452 256.427 157.48 256.443 157.51C256.458 157.54 256.468 157.573 256.475 157.609C256.482 157.645 256.48 157.683 256.471 157.723C256.461 157.764 256.441 157.808 256.411 157.855C256.381 157.902 256.338 157.951 256.28 158.003L256.422 158.16L256.291 158.278L256.149 158.121C256.063 158.199 255.985 158.248 255.917 158.267C255.849 158.286 255.788 158.289 255.736 158.274C255.683 158.259 255.638 158.235 255.6 158.2C255.561 158.166 255.529 158.133 255.502 158.104L255.16 157.725L255.292 157.605L255.62 157.969C255.639 157.99 255.661 158.012 255.687 158.036C255.713 158.06 255.743 158.078 255.776 158.089C255.809 158.1 255.847 158.101 255.889 158.091C255.93 158.081 255.977 158.053 256.027 158.007C256.028 158.006 256.027 158.001 256.022 157.991C256.017 157.981 256.015 157.976 256.017 157.974L255.508 157.41L255.639 157.292L256.148 157.856C256.15 157.854 256.155 157.856 256.164 157.863C256.172 157.869 256.178 157.871 256.18 157.87C256.23 157.824 256.264 157.78 256.278 157.74C256.292 157.699 256.296 157.661 256.288 157.627C256.28 157.592 256.266 157.561 256.244 157.533C256.223 157.505 256.203 157.481 256.184 157.46L255.856 157.097L255.987 156.978L256.333 157.361Z" fill="#152F55"/>
<path d="M257.782 157.413L257.599 156.902L257.126 157.072L257.31 157.584L257.144 157.643L256.749 156.545L256.915 156.485L257.07 156.915L257.542 156.745L257.388 156.315L257.554 156.256L257.949 157.354L257.782 157.413Z" fill="#152F55"/>
<path d="M259.511 156.708C259.508 156.775 259.494 156.836 259.468 156.894C259.441 156.952 259.406 157.003 259.361 157.046C259.316 157.09 259.263 157.123 259.201 157.146C259.139 157.17 259.07 157.18 258.994 157.176L258.989 157.297L258.812 157.291L258.817 157.17C258.742 157.167 258.675 157.152 258.617 157.124C258.557 157.096 258.507 157.059 258.466 157.012C258.425 156.965 258.393 156.912 258.372 156.853C258.351 156.792 258.342 156.73 258.345 156.663C258.347 156.598 258.361 156.536 258.388 156.479C258.414 156.422 258.449 156.372 258.494 156.33C258.539 156.288 258.592 156.255 258.653 156.232C258.714 156.209 258.781 156.198 258.855 156.201L258.858 156.123L259.034 156.129L259.031 156.208C259.106 156.211 259.173 156.226 259.233 156.254C259.293 156.282 259.344 156.319 259.386 156.364C259.429 156.41 259.46 156.462 259.482 156.521C259.504 156.58 259.513 156.643 259.511 156.708ZM258.848 156.367C258.793 156.365 258.745 156.373 258.705 156.389C258.665 156.405 258.631 156.428 258.605 156.456C258.578 156.484 258.558 156.517 258.544 156.555C258.53 156.592 258.523 156.63 258.521 156.67C258.519 156.715 258.525 156.758 258.537 156.798C258.55 156.838 258.569 156.874 258.594 156.904C258.62 156.934 258.652 156.958 258.691 156.976C258.729 156.994 258.773 157.004 258.823 157.006L258.848 156.367ZM259.334 156.701C259.336 156.657 259.33 156.615 259.317 156.576C259.303 156.537 259.284 156.503 259.257 156.474C259.23 156.445 259.197 156.422 259.158 156.404C259.119 156.386 259.074 156.376 259.025 156.374L259 157.012C259.05 157.014 259.095 157.007 259.136 156.992C259.176 156.977 259.211 156.955 259.24 156.926C259.269 156.897 259.292 156.864 259.307 156.825C259.323 156.787 259.333 156.746 259.334 156.701Z" fill="#152F55"/>
<path d="M259.88 157.451L260.238 156.34L260.407 156.394L260.048 157.505L259.88 157.451Z" fill="#152F55"/>
<path d="M261.162 158.103L261.214 157.799L260.796 157.527L260.531 157.693L260.373 157.59L261.534 156.865L261.324 158.208L261.162 158.103ZM261.315 157.195L260.948 157.427L261.245 157.62L261.315 157.195Z" fill="#152F55"/>
<path d="M261.918 158.943L262.071 158.296L262.02 158.288L261.64 158.584L261.531 158.444L262.453 157.729L262.561 157.869L262.193 158.154L262.844 158.234L262.983 158.412L262.242 158.32L262.063 159.13L261.918 158.943Z" fill="#152F55"/>
<path d="M262.426 160.067L262.941 159.892L262.78 159.416L262.265 159.591L262.208 159.423L263.313 159.049L263.37 159.216L262.938 159.363L263.099 159.839L263.531 159.692L263.588 159.859L262.483 160.234L262.426 160.067Z" fill="#152F55"/>
<path d="M254.865 163.913L255.041 163.272L254.992 163.262L254.6 163.544L254.496 163.4L255.444 162.719L255.547 162.863L255.169 163.134L255.817 163.238L255.948 163.421L255.212 163.302L255.003 164.105L254.865 163.913Z" fill="#152F55"/>
<path d="M256.228 165.119L256.291 164.817L255.885 164.529L255.614 164.684L255.459 164.575L256.647 163.896L256.384 165.23L256.228 165.119ZM256.416 164.217L256.04 164.435L256.329 164.64L256.416 164.217Z" fill="#152F55"/>
<path d="M257.853 165.758L257.716 164.89L257.143 165.556L256.954 165.503L257.83 164.5L258.041 165.812L257.853 165.758Z" fill="#152F55"/>
<path d="M259.569 165.824L259.5 164.823L258.899 164.865L258.969 165.865L258.791 165.877L258.71 164.712L259.664 164.645L259.745 165.811L259.569 165.824Z" fill="#152F55"/>
<path d="M261.248 165.308L261.027 164.811L260.568 165.015L260.789 165.512L260.628 165.584L260.154 164.517L260.315 164.446L260.501 164.863L260.96 164.659L260.774 164.242L260.936 164.17L261.41 165.237L261.248 165.308Z" fill="#152F55"/>
<path d="M260.695 162.902L256.148 161.657L256.862 159.052L261.408 160.297L260.695 162.902ZM256.362 161.536L260.573 162.689L261.195 160.418L256.984 159.265L256.362 161.536Z" fill="#152F55"/>
<path d="M258.655 161.427L256.855 159.212L256.989 159.103L258.712 161.221L261.271 160.276L261.331 160.438L258.655 161.427Z" fill="#152F55"/>
<path d="M260.554 162.83L259.729 160.943L259.888 160.874L260.713 162.761L260.554 162.83Z" fill="#152F55"/>
<path d="M256.301 161.666L256.199 161.525L257.871 160.322L257.972 160.463L256.301 161.666Z" fill="#152F55"/>
<path d="M234.434 163.431C234.78 163.678 235.085 163.652 235.352 163.353C235.618 163.053 235.923 163.027 236.269 163.274C236.614 163.521 236.92 163.494 237.186 163.195C237.452 162.896 237.758 162.87 238.103 163.117C238.448 163.363 238.754 163.337 239.02 163.038C239.286 162.739 239.592 162.712 239.937 162.959C240.283 163.206 240.589 163.18 240.855 162.881C241.121 162.581 241.426 162.555 241.772 162.802C242.117 163.049 242.423 163.023 242.689 162.723C242.955 162.424 243.261 162.398 243.606 162.645C243.952 162.891 244.257 162.865 244.523 162.566C244.789 162.267 245.095 162.241 245.44 162.487C245.786 162.734 246.092 162.708 246.358 162.409C246.624 162.11 246.929 162.083 247.275 162.33C247.62 162.577 247.926 162.551 248.192 162.251C248.458 161.952 248.764 161.926 249.109 162.173C249.455 162.42 249.76 162.393 250.026 162.094C250.292 161.795 250.598 161.769 250.944 162.015C251.289 162.262 251.595 162.236 251.861 161.937C252.127 161.638 252.432 161.611 252.778 161.858C253.123 162.105 253.429 162.079 253.695 161.78C253.961 161.48 254.267 161.454 254.612 161.701C254.958 161.948 255.263 161.921 255.529 161.622C255.795 161.323 256.101 161.297 256.447 161.544C256.792 161.79 257.098 161.764 257.364 161.465C257.63 161.166 257.936 161.139 258.281 161.386C258.626 161.633 258.932 161.607 259.198 161.308C259.464 161.008 259.77 160.982 260.115 161.229C260.461 161.476 260.766 161.45 261.032 161.15C261.299 160.851 261.604 160.825 261.95 161.072C262.295 161.318 262.601 161.292 262.867 160.993C263.133 160.694 263.439 160.668 263.784 160.914C264.129 161.161 264.435 161.135 264.701 160.836C264.967 160.536 265.273 160.51 265.618 160.757C265.964 161.004 266.269 160.978 266.535 160.678C266.802 160.379 267.107 160.353 267.453 160.6C267.798 160.847 268.104 160.82 268.37 160.521C268.636 160.222 268.942 160.196 269.287 160.442C269.632 160.689 269.938 160.663 270.204 160.364C270.47 160.065 270.776 160.038 271.121 160.285C271.467 160.532 271.772 160.506 272.039 160.206C272.305 159.907 272.61 159.881 272.956 160.128C273.301 160.375 273.607 160.348 273.873 160.049C274.139 159.75 274.445 159.724 274.79 159.971C275.135 160.217 275.441 160.191 275.707 159.892C275.973 159.593 276.279 159.566 276.624 159.813C276.97 160.06 277.276 160.034 277.542 159.735C277.808 159.435 278.113 159.409 278.459 159.656C278.804 159.903 279.11 159.876 279.376 159.577C279.642 159.278 279.948 159.252 280.293 159.499" stroke="#002D56" stroke-width="0.141605"/>
<line y1="-0.0708023" x2="44.7996" y2="-0.0708023" transform="matrix(0.996343 -0.0854403 -0.143767 -0.989612 235.197 162.64)" stroke="#002D56" stroke-width="0.141605"/>
<line y1="-0.0708023" x2="44.7996" y2="-0.0708023" transform="matrix(0.996343 -0.0854403 -0.143767 -0.989612 235.152 162.333)" stroke="#002D56" stroke-width="0.141605"/>
<line y1="-0.0708023" x2="44.7996" y2="-0.0708023" transform="matrix(0.996343 -0.0854403 -0.143767 -0.989612 235.42 164.176)" stroke="#002D56" stroke-width="0.141605"/>
<line y1="-0.0708023" x2="44.7996" y2="-0.0708023" transform="matrix(0.996343 -0.0854403 -0.143767 -0.989612 235.375 163.869)" stroke="#002D56" stroke-width="0.141605"/>
<circle cx="258.776" cy="160.976" r="6.13214" transform="rotate(43.4001 258.776 160.976)" stroke="#002D56" stroke-width="0.961904"/>
<rect x="220.181" y="139.764" width="30.2842" height="34.2343" transform="rotate(43.4001 220.181 139.764)" fill="white" stroke="#002D56" stroke-width="1.3167"/>
<path d="M218.774 168.086C215.702 167.245 213.887 164.061 214.729 160.989C215.57 157.917 218.753 156.102 221.825 156.944C224.897 157.785 226.712 160.969 225.871 164.041C225.029 167.113 221.846 168.928 218.774 168.086ZM221.779 157.111C218.8 156.295 215.712 158.055 214.896 161.035C214.08 164.015 215.84 167.103 218.819 167.919C221.799 168.735 224.887 166.975 225.703 163.995C226.519 161.015 224.759 157.927 221.779 157.111Z" fill="#152F55"/>
<path d="M217.857 158.899C217.874 158.919 217.892 158.941 217.913 158.966C217.933 158.991 217.951 159.018 217.966 159.048C217.982 159.078 217.992 159.112 217.999 159.147C218.006 159.183 218.003 159.222 217.994 159.262C217.985 159.303 217.965 159.347 217.935 159.394C217.905 159.44 217.861 159.489 217.804 159.541L217.946 159.698L217.815 159.817L217.673 159.66C217.587 159.738 217.509 159.786 217.441 159.806C217.373 159.825 217.312 159.827 217.26 159.813C217.207 159.798 217.162 159.773 217.123 159.739C217.085 159.705 217.053 159.672 217.026 159.643L216.684 159.264L216.816 159.144L217.144 159.507C217.163 159.528 217.185 159.551 217.211 159.575C217.237 159.599 217.266 159.616 217.3 159.628C217.333 159.639 217.371 159.639 217.413 159.63C217.454 159.62 217.501 159.592 217.551 159.545C217.552 159.545 217.55 159.54 217.546 159.53C217.54 159.52 217.539 159.514 217.541 159.513L217.032 158.949L217.163 158.831L217.672 159.394C217.674 159.393 217.678 159.395 217.688 159.401C217.696 159.408 217.702 159.41 217.704 159.409C217.754 159.362 217.787 159.319 217.802 159.279C217.816 159.238 217.82 159.2 217.812 159.166C217.804 159.131 217.79 159.1 217.768 159.072C217.747 159.044 217.727 159.019 217.708 158.999L217.38 158.635L217.511 158.517L217.857 158.899Z" fill="#152F55"/>
<path d="M219.306 158.952L219.123 158.44L218.65 158.61L218.834 159.122L218.668 159.182L218.273 158.084L218.439 158.024L218.594 158.454L219.066 158.284L218.912 157.854L219.078 157.795L219.473 158.892L219.306 158.952Z" fill="#152F55"/>
<path d="M221.035 158.247C221.032 158.313 221.017 158.375 220.992 158.433C220.965 158.491 220.93 158.542 220.885 158.585C220.84 158.628 220.787 158.662 220.724 158.685C220.662 158.708 220.593 158.718 220.517 158.715L220.513 158.836L220.336 158.829L220.341 158.709C220.266 158.706 220.199 158.69 220.141 158.663C220.081 158.634 220.031 158.597 219.99 158.55C219.949 158.504 219.917 158.451 219.896 158.391C219.875 158.331 219.866 158.269 219.868 158.202C219.871 158.137 219.885 158.075 219.911 158.018C219.937 157.96 219.973 157.911 220.017 157.869C220.063 157.827 220.115 157.794 220.176 157.771C220.237 157.748 220.305 157.737 220.378 157.74L220.381 157.661L220.558 157.668L220.555 157.747C220.63 157.75 220.697 157.765 220.757 157.793C220.817 157.821 220.868 157.858 220.91 157.903C220.952 157.949 220.984 158.001 221.006 158.06C221.028 158.119 221.037 158.182 221.035 158.247ZM220.372 157.906C220.317 157.904 220.269 157.911 220.229 157.928C220.189 157.944 220.155 157.966 220.128 157.995C220.102 158.023 220.082 158.056 220.068 158.093C220.054 158.131 220.046 158.169 220.045 158.208C220.043 158.254 220.049 158.297 220.061 158.337C220.074 158.377 220.093 158.413 220.118 158.443C220.144 158.473 220.176 158.497 220.214 158.515C220.253 158.533 220.297 158.542 220.347 158.544L220.372 157.906ZM220.858 158.24C220.86 158.196 220.854 158.154 220.841 158.115C220.827 158.076 220.808 158.042 220.781 158.013C220.754 157.984 220.721 157.96 220.682 157.943C220.643 157.925 220.598 157.915 220.548 157.913L220.524 158.551C220.574 158.553 220.619 158.546 220.66 158.531C220.7 158.515 220.734 158.494 220.763 158.465C220.792 158.436 220.816 158.402 220.831 158.364C220.847 158.326 220.856 158.285 220.858 158.24Z" fill="#152F55"/>
<path d="M221.404 158.99L221.762 157.879L221.93 157.933L221.572 159.044L221.404 158.99Z" fill="#152F55"/>
<path d="M222.686 159.642L222.738 159.338L222.32 159.066L222.055 159.232L221.897 159.129L223.058 158.404L222.847 159.747L222.686 159.642ZM222.839 158.733L222.472 158.966L222.769 159.159L222.839 158.733Z" fill="#152F55"/>
<path d="M223.442 160.482L223.595 159.835L223.544 159.827L223.163 160.123L223.054 159.983L223.977 159.268L224.085 159.408L223.717 159.693L224.368 159.773L224.506 159.951L223.766 159.859L223.586 160.669L223.442 160.482Z" fill="#152F55"/>
<path d="M223.95 161.605L224.465 161.431L224.304 160.955L223.789 161.129L223.732 160.962L224.837 160.588L224.894 160.755L224.461 160.901L224.623 161.377L225.055 161.231L225.112 161.398L224.006 161.773L223.95 161.605Z" fill="#152F55"/>
<path d="M216.389 165.452L216.565 164.81L216.515 164.801L216.124 165.083L216.02 164.939L216.968 164.258L217.071 164.402L216.693 164.673L217.341 164.777L217.472 164.96L216.736 164.841L216.527 165.644L216.389 165.452Z" fill="#152F55"/>
<path d="M217.752 166.658L217.815 166.355L217.409 166.068L217.138 166.223L216.983 166.114L218.171 165.435L217.908 166.769L217.752 166.658ZM217.94 165.756L217.564 165.974L217.852 166.179L217.94 165.756Z" fill="#152F55"/>
<path d="M219.377 167.297L219.24 166.428L218.666 167.095L218.478 167.041L219.354 166.039L219.565 167.351L219.377 167.297Z" fill="#152F55"/>
<path d="M221.093 167.362L221.024 166.362L220.423 166.404L220.493 167.404L220.315 167.416L220.234 166.251L221.188 166.184L221.269 167.35L221.093 167.362Z" fill="#152F55"/>
<path d="M222.772 166.847L222.551 166.35L222.092 166.554L222.313 167.051L222.152 167.123L221.678 166.056L221.839 165.985L222.024 166.402L222.484 166.198L222.298 165.781L222.459 165.709L222.934 166.775L222.772 166.847Z" fill="#152F55"/>
<path d="M222.219 164.441L217.672 163.196L218.386 160.59L222.932 161.836L222.219 164.441ZM217.885 163.075L222.097 164.228L222.719 161.957L218.507 160.803L217.885 163.075Z" fill="#152F55"/>
<path d="M220.179 162.966L218.379 160.751L218.513 160.642L220.235 162.76L222.795 161.815L222.855 161.977L220.179 162.966Z" fill="#152F55"/>
<path d="M222.078 164.369L221.252 162.482L221.412 162.413L222.237 164.3L222.078 164.369Z" fill="#152F55"/>
<path d="M217.824 163.204L217.723 163.064L219.395 161.861L219.496 162.001L217.824 163.204Z" fill="#152F55"/>
<path d="M195.958 164.97C196.304 165.217 196.609 165.19 196.875 164.891C197.141 164.592 197.447 164.566 197.793 164.813C198.138 165.059 198.444 165.033 198.71 164.734C198.976 164.435 199.282 164.409 199.627 164.655C199.972 164.902 200.278 164.876 200.544 164.577C200.81 164.277 201.116 164.251 201.461 164.498C201.807 164.745 202.112 164.719 202.378 164.419C202.645 164.12 202.95 164.094 203.296 164.341C203.641 164.588 203.947 164.561 204.213 164.262C204.479 163.963 204.785 163.937 205.13 164.183C205.475 164.43 205.781 164.404 206.047 164.105C206.313 163.806 206.619 163.779 206.964 164.026C207.31 164.273 207.615 164.247 207.881 163.947C208.148 163.648 208.453 163.622 208.799 163.869C209.144 164.116 209.45 164.089 209.716 163.79C209.982 163.491 210.288 163.465 210.633 163.712C210.978 163.958 211.284 163.932 211.55 163.633C211.816 163.334 212.122 163.307 212.467 163.554C212.813 163.801 213.118 163.775 213.385 163.476C213.651 163.176 213.956 163.15 214.302 163.397C214.647 163.644 214.953 163.617 215.219 163.318C215.485 163.019 215.791 162.993 216.136 163.24C216.481 163.486 216.787 163.46 217.053 163.161C217.319 162.862 217.625 162.836 217.97 163.082C218.316 163.329 218.622 163.303 218.888 163.004C219.154 162.704 219.459 162.678 219.805 162.925C220.15 163.172 220.456 163.146 220.722 162.846C220.988 162.547 221.294 162.521 221.639 162.768C221.984 163.014 222.29 162.988 222.556 162.689C222.822 162.39 223.128 162.364 223.473 162.61C223.819 162.857 224.125 162.831 224.391 162.532C224.657 162.233 224.962 162.206 225.308 162.453C225.653 162.7 225.959 162.674 226.225 162.374C226.491 162.075 226.797 162.049 227.142 162.296C227.488 162.543 227.793 162.516 228.059 162.217C228.325 161.918 228.631 161.892 228.976 162.138C229.322 162.385 229.628 162.359 229.894 162.06C230.16 161.761 230.465 161.734 230.811 161.981C231.156 162.228 231.462 162.202 231.728 161.903C231.994 161.603 232.3 161.577 232.645 161.824C232.991 162.071 233.296 162.044 233.562 161.745C233.828 161.446 234.134 161.42 234.48 161.667C234.825 161.913 235.131 161.887 235.397 161.588C235.663 161.289 235.969 161.263 236.314 161.509C236.659 161.756 236.965 161.73 237.231 161.431C237.497 161.131 237.803 161.105 238.148 161.352C238.494 161.599 238.799 161.573 239.065 161.273C239.331 160.974 239.637 160.948 239.983 161.195C240.328 161.441 240.634 161.415 240.9 161.116C241.166 160.817 241.472 160.791 241.817 161.037" stroke="#002D56" stroke-width="0.141605"/>
<line y1="-0.0708023" x2="44.7996" y2="-0.0708023" transform="matrix(0.996343 -0.0854403 -0.143767 -0.989612 196.72 164.179)" stroke="#002D56" stroke-width="0.141605"/>
<line y1="-0.0708023" x2="44.7996" y2="-0.0708023" transform="matrix(0.996343 -0.0854403 -0.143767 -0.989612 196.676 163.872)" stroke="#002D56" stroke-width="0.141605"/>
<line y1="-0.0708023" x2="44.7996" y2="-0.0708023" transform="matrix(0.996343 -0.0854403 -0.143767 -0.989612 196.943 165.715)" stroke="#002D56" stroke-width="0.141605"/>
<line y1="-0.0708023" x2="44.7996" y2="-0.0708023" transform="matrix(0.996343 -0.0854403 -0.143767 -0.989612 196.899 165.408)" stroke="#002D56" stroke-width="0.141605"/>
<circle cx="220.3" cy="162.515" r="6.13214" transform="rotate(43.4001 220.3 162.515)" stroke="#002D56" stroke-width="0.961904"/>
<path fill-rule="evenodd" clip-rule="evenodd" d="M228.075 78.7732C243.035 78.7732 255.162 66.1654 255.162 50.6129C255.162 35.0604 243.035 22.4526 228.075 22.4526C213.115 22.4526 200.987 35.0604 200.987 50.6129C200.987 66.1654 213.115 78.7732 228.075 78.7732ZM228.238 74.4821C240.919 74.4821 251.198 63.7955 251.198 50.6129C251.198 37.4303 240.919 26.7437 228.238 26.7437C215.558 26.7437 205.278 37.4303 205.278 50.6129C205.278 63.7955 215.558 74.4821 228.238 74.4821Z" fill="#002D56"/>
<rect x="199.11" y="51.1493" width="57.3934" height="45.5929" fill="#002D56" stroke="#002D56" stroke-width="1.60916"/>
<circle cx="228.314" cy="67.1821" r="7.7484" fill="white"/>
<circle cx="228.314" cy="78.8047" r="3.8742" fill="white"/>
<circle cx="228.314" cy="85.9073" r="2.5828" fill="white"/>
<rect x="227.022" y="73.5314" width="2.5828" height="11.1921" fill="white"/>
<rect x="263.973" y="144.388" width="30.2842" height="34.2343" transform="rotate(10.8844 263.973 144.388)" fill="white" stroke="#002D56" stroke-width="1.3167"/>
<path d="M278.011 169.028C274.968 169.97 271.727 168.26 270.785 165.218C269.843 162.175 271.552 158.933 274.594 157.991C277.637 157.05 280.879 158.759 281.821 161.802C282.762 164.844 281.053 168.086 278.011 169.028ZM274.646 158.157C271.695 159.071 270.037 162.215 270.951 165.166C271.864 168.118 275.008 169.776 277.959 168.862C280.911 167.949 282.568 164.804 281.655 161.853C280.741 158.901 277.597 157.244 274.646 158.157Z" fill="#152F55"/>
<path d="M272.3 161.774C272.324 161.781 272.352 161.79 272.383 161.8C272.413 161.81 272.443 161.823 272.472 161.84C272.501 161.857 272.528 161.88 272.553 161.906C272.577 161.933 272.596 161.966 272.61 162.006C272.624 162.045 272.631 162.093 272.631 162.149C272.631 162.204 272.62 162.269 272.6 162.343L272.804 162.399L272.757 162.57L272.553 162.514C272.522 162.626 272.483 162.709 272.436 162.762C272.389 162.814 272.339 162.849 272.287 162.865C272.235 162.881 272.183 162.884 272.132 162.876C272.081 162.868 272.037 162.857 271.998 162.847L271.506 162.711L271.553 162.539L272.025 162.669C272.053 162.677 272.083 162.684 272.118 162.69C272.153 162.697 272.187 162.696 272.221 162.687C272.255 162.679 272.287 162.659 272.318 162.628C272.347 162.598 272.371 162.549 272.389 162.483C272.389 162.482 272.385 162.478 272.376 162.473C272.366 162.467 272.362 162.463 272.363 162.461L271.63 162.259L271.678 162.089L272.41 162.291C272.41 162.288 272.415 162.288 272.427 162.288C272.437 162.289 272.443 162.288 272.444 162.285C272.462 162.219 272.466 162.165 272.457 162.123C272.447 162.081 272.43 162.047 272.405 162.022C272.379 161.997 272.35 161.979 272.317 161.967C272.284 161.955 272.254 161.945 272.227 161.937L271.755 161.807L271.802 161.637L272.3 161.774Z" fill="#152F55"/>
<path d="M273.55 161.039L273.12 160.706L272.813 161.104L273.243 161.437L273.135 161.576L272.212 160.863L272.32 160.723L272.681 161.002L272.988 160.605L272.627 160.326L272.735 160.186L273.658 160.899L273.55 161.039Z" fill="#152F55"/>
<path d="M274.629 159.515C274.662 159.573 274.683 159.633 274.692 159.696C274.701 159.759 274.698 159.82 274.684 159.881C274.669 159.942 274.642 159.998 274.602 160.052C274.563 160.105 274.51 160.15 274.444 160.188L274.505 160.293L274.352 160.382L274.292 160.278C274.227 160.315 274.162 160.338 274.098 160.346C274.033 160.355 273.971 160.35 273.911 160.333C273.851 160.316 273.796 160.288 273.746 160.249C273.696 160.21 273.654 160.162 273.621 160.104C273.588 160.048 273.567 159.989 273.558 159.926C273.549 159.864 273.553 159.803 273.567 159.743C273.583 159.684 273.61 159.628 273.649 159.575C273.688 159.523 273.739 159.478 273.803 159.441L273.763 159.373L273.915 159.284L273.955 159.352C274.019 159.314 274.084 159.291 274.15 159.282C274.216 159.273 274.278 159.277 274.339 159.293C274.399 159.308 274.453 159.335 274.504 159.373C274.554 159.411 274.595 159.459 274.629 159.515ZM273.886 159.584C273.839 159.612 273.803 159.644 273.777 159.679C273.752 159.715 273.736 159.752 273.729 159.79C273.721 159.828 273.722 159.867 273.73 159.906C273.739 159.945 273.753 159.981 273.773 160.015C273.796 160.055 273.824 160.088 273.856 160.115C273.888 160.142 273.923 160.162 273.961 160.173C273.999 160.185 274.038 160.188 274.081 160.182C274.123 160.177 274.165 160.161 274.208 160.136L273.886 159.584ZM274.475 159.605C274.453 159.566 274.426 159.534 274.394 159.508C274.362 159.483 274.327 159.464 274.289 159.454C274.25 159.445 274.21 159.442 274.167 159.448C274.125 159.454 274.082 159.47 274.039 159.495L274.361 160.046C274.404 160.021 274.438 159.991 274.465 159.957C274.49 159.922 274.508 159.885 274.517 159.845C274.526 159.805 274.527 159.764 274.52 159.723C274.513 159.683 274.498 159.643 274.475 159.605Z" fill="#152F55"/>
<path d="M275.339 159.943L275.044 158.814L275.215 158.769L275.51 159.898L275.339 159.943Z" fill="#152F55"/>
<path d="M276.771 159.804L276.651 159.52L276.152 159.515L276.018 159.797L275.829 159.795L276.419 158.56L276.963 159.806L276.771 159.804ZM276.411 158.956L276.227 159.349L276.581 159.353L276.411 158.956Z" fill="#152F55"/>
<path d="M277.86 160.106L277.641 159.478L277.594 159.498L277.432 159.953L277.265 159.894L277.658 158.795L277.825 158.855L277.667 159.292L278.26 159.01L278.472 159.086L277.798 159.406L278.082 160.186L277.86 160.106Z" fill="#152F55"/>
<path d="M278.892 160.78L279.232 160.356L278.841 160.042L278.5 160.466L278.363 160.355L279.093 159.445L279.231 159.556L278.945 159.912L279.337 160.226L279.622 159.871L279.76 159.981L279.029 160.891L278.892 160.78Z" fill="#152F55"/>
<path d="M274.584 168.088L274.388 167.452L274.341 167.471L274.162 167.919L273.997 167.854L274.431 166.77L274.594 166.836L274.422 167.268L275.024 167.007L275.233 167.091L274.548 167.386L274.804 168.176L274.584 168.088Z" fill="#152F55"/>
<path d="M276.381 168.372L276.272 168.083L275.775 168.059L275.629 168.336L275.441 168.327L276.077 167.116L276.573 168.382L276.381 168.372ZM276.055 167.511L275.855 167.897L276.208 167.914L276.055 167.511Z" fill="#152F55"/>
<path d="M278.095 168.038L277.513 167.379L277.387 168.249L277.2 168.306L277.4 166.989L278.283 167.982L278.095 168.038Z" fill="#152F55"/>
<path d="M279.577 167.171L278.981 166.365L278.498 166.723L279.093 167.528L278.95 167.634L278.256 166.695L279.024 166.126L279.72 167.066L279.577 167.171Z" fill="#152F55"/>
<path d="M280.716 165.834L280.263 165.533L279.985 165.952L280.439 166.252L280.341 166.399L279.368 165.755L279.466 165.608L279.847 165.86L280.124 165.441L279.743 165.189L279.841 165.042L280.814 165.686L280.716 165.834Z" fill="#152F55"/>
<path d="M278.956 164.102L274.453 165.496L273.654 162.915L278.157 161.521L278.956 164.102ZM274.568 165.279L278.739 163.988L278.043 161.738L273.871 163.03L274.568 165.279Z" fill="#152F55"/>
<path d="M276.443 163.955L273.735 163.055L273.79 162.89L276.38 163.751L278.031 161.578L278.169 161.682L276.443 163.955Z" fill="#152F55"/>
<path d="M278.799 164.117L277.089 162.97L277.186 162.826L278.896 163.973L278.799 164.117Z" fill="#152F55"/>
<path d="M274.586 165.421L274.425 165.357L275.188 163.444L275.349 163.508L274.586 165.421Z" fill="#152F55"/>
<path d="M257.097 178.664C257.521 178.686 257.764 178.5 257.828 178.105C257.891 177.709 258.135 177.523 258.559 177.545C258.983 177.568 259.227 177.381 259.29 176.986C259.354 176.591 259.597 176.404 260.021 176.427C260.445 176.449 260.689 176.263 260.752 175.867C260.816 175.472 261.06 175.286 261.483 175.308C261.907 175.33 262.151 175.144 262.215 174.749C262.278 174.353 262.522 174.167 262.946 174.189C263.37 174.212 263.613 174.025 263.677 173.63C263.74 173.235 263.984 173.048 264.408 173.071C264.832 173.093 265.076 172.907 265.139 172.511C265.203 172.116 265.446 171.93 265.87 171.952C266.294 171.974 266.538 171.788 266.601 171.393C266.665 170.997 266.909 170.811 267.332 170.833C267.756 170.856 268 170.669 268.064 170.274C268.127 169.879 268.371 169.692 268.795 169.715C269.219 169.737 269.462 169.551 269.526 169.155C269.589 168.76 269.833 168.574 270.257 168.596C270.681 168.618 270.925 168.432 270.988 168.037C271.052 167.641 271.295 167.455 271.719 167.477C272.143 167.5 272.387 167.313 272.45 166.918C272.514 166.523 272.758 166.336 273.181 166.359C273.605 166.381 273.849 166.195 273.913 165.799C273.976 165.404 274.22 165.218 274.644 165.24C275.068 165.262 275.311 165.076 275.375 164.681C275.438 164.285 275.682 164.099 276.106 164.121C276.53 164.144 276.774 163.957 276.837 163.562C276.901 163.167 277.144 162.98 277.568 163.003C277.992 163.025 278.236 162.839 278.299 162.443C278.363 162.048 278.607 161.862 279.03 161.884C279.454 161.906 279.698 161.72 279.762 161.325C279.825 160.929 280.069 160.743 280.493 160.765C280.917 160.788 281.16 160.601 281.224 160.206C281.287 159.811 281.531 159.624 281.955 159.647C282.379 159.669 282.623 159.483 282.686 159.087C282.75 158.692 282.993 158.506 283.417 158.528C283.841 158.55 284.085 158.364 284.148 157.969C284.212 157.573 284.456 157.387 284.879 157.409C285.303 157.432 285.547 157.245 285.611 156.85C285.674 156.455 285.918 156.268 286.342 156.291C286.766 156.313 287.009 156.127 287.073 155.731C287.136 155.336 287.38 155.15 287.804 155.172C288.228 155.194 288.472 155.008 288.535 154.613C288.599 154.217 288.842 154.031 289.266 154.053C289.69 154.076 289.934 153.889 289.997 153.494C290.061 153.099 290.305 152.912 290.728 152.935C291.152 152.957 291.396 152.771 291.46 152.375C291.523 151.98 291.767 151.794 292.191 151.816C292.615 151.838 292.858 151.652 292.922 151.257C292.985 150.861 293.229 150.675 293.653 150.697" stroke="#002D56" stroke-width="0.141605"/>
<line y1="-0.0708023" x2="44.7996" y2="-0.0708023" transform="matrix(0.794233 -0.607613 -0.653178 -0.757205 257.314 177.587)" stroke="#002D56" stroke-width="0.141605"/>
<line y1="-0.0708023" x2="44.7996" y2="-0.0708023" transform="matrix(0.794233 -0.607613 -0.653178 -0.757205 257.112 177.352)" stroke="#002D56" stroke-width="0.141605"/>
<line y1="-0.0708023" x2="44.7996" y2="-0.0708023" transform="matrix(0.794233 -0.607613 -0.653178 -0.757205 258.328 178.762)" stroke="#002D56" stroke-width="0.141605"/>
<line y1="-0.0708023" x2="44.7996" y2="-0.0708023" transform="matrix(0.794233 -0.607613 -0.653178 -0.757205 258.125 178.527)" stroke="#002D56" stroke-width="0.141605"/>
<circle cx="276.303" cy="163.509" r="6.13214" transform="rotate(10.8844 276.303 163.509)" stroke="#002D56" stroke-width="0.961904"/>
<rect x="212.534" y="97.5186" width="30.2842" height="34.2343" fill="white" stroke="#002D56" stroke-width="1.3167"/>
<path d="M230.971 119.064C228.162 120.563 224.656 119.497 223.156 116.687C221.657 113.877 222.723 110.371 225.533 108.871C228.343 107.372 231.849 108.438 233.348 111.249C234.848 114.059 233.782 117.565 230.971 119.064ZM225.614 109.024C222.889 110.479 221.855 113.879 223.309 116.605C224.764 119.331 228.164 120.365 230.89 118.911C233.615 117.457 234.65 114.056 233.195 111.33C231.741 108.604 228.34 107.57 225.614 109.024Z" fill="#152F55"/>
<path d="M223.993 113.019C224.019 113.022 224.047 113.025 224.08 113.029C224.111 113.033 224.143 113.041 224.175 113.052C224.207 113.063 224.237 113.08 224.267 113.101C224.296 113.123 224.321 113.152 224.342 113.188C224.363 113.225 224.379 113.27 224.39 113.324C224.4 113.379 224.402 113.445 224.396 113.522L224.607 113.538L224.593 113.714L224.382 113.698C224.373 113.814 224.35 113.902 224.314 113.964C224.277 114.024 224.235 114.068 224.187 114.093C224.139 114.119 224.089 114.132 224.037 114.133C223.986 114.134 223.94 114.133 223.9 114.13L223.391 114.09L223.405 113.912L223.893 113.95C223.921 113.953 223.953 113.954 223.988 113.953C224.023 113.953 224.057 113.946 224.089 113.931C224.121 113.916 224.148 113.89 224.172 113.855C224.196 113.819 224.21 113.767 224.215 113.698C224.215 113.697 224.21 113.695 224.2 113.691C224.19 113.687 224.185 113.684 224.185 113.682L223.428 113.622L223.442 113.446L224.199 113.506C224.199 113.503 224.204 113.502 224.215 113.5C224.226 113.499 224.231 113.497 224.232 113.494C224.237 113.426 224.231 113.372 224.214 113.332C224.196 113.293 224.173 113.263 224.143 113.243C224.114 113.223 224.082 113.211 224.047 113.205C224.012 113.2 223.981 113.195 223.953 113.193L223.465 113.155L223.479 112.979L223.993 113.019Z" fill="#152F55"/>
<path d="M225.083 112.061L224.597 111.816L224.371 112.264L224.856 112.51L224.777 112.667L223.735 112.141L223.815 111.983L224.223 112.189L224.449 111.741L224.041 111.535L224.121 111.377L225.163 111.903L225.083 112.061Z" fill="#152F55"/>
<path d="M225.854 110.361C225.897 110.412 225.929 110.467 225.95 110.527C225.971 110.587 225.98 110.648 225.977 110.71C225.974 110.772 225.959 110.833 225.929 110.893C225.9 110.953 225.857 111.007 225.8 111.057L225.879 111.148L225.746 111.265L225.667 111.174C225.611 111.223 225.551 111.258 225.49 111.278C225.427 111.298 225.365 111.306 225.303 111.3C225.241 111.295 225.182 111.278 225.126 111.249C225.069 111.22 225.019 111.18 224.976 111.13C224.933 111.081 224.901 111.027 224.88 110.967C224.86 110.907 224.851 110.847 224.855 110.786C224.859 110.724 224.875 110.664 224.903 110.605C224.931 110.547 224.973 110.493 225.029 110.444L224.977 110.385L225.11 110.269L225.161 110.328C225.218 110.279 225.277 110.243 225.34 110.223C225.403 110.202 225.465 110.193 225.527 110.197C225.589 110.201 225.648 110.218 225.704 110.245C225.761 110.274 225.811 110.313 225.854 110.361ZM225.138 110.569C225.097 110.605 225.067 110.644 225.049 110.683C225.031 110.723 225.022 110.762 225.022 110.801C225.022 110.84 225.03 110.878 225.046 110.914C225.061 110.951 225.082 110.984 225.108 111.014C225.138 111.048 225.172 111.075 225.208 111.096C225.245 111.116 225.283 111.129 225.322 111.133C225.362 111.138 225.401 111.134 225.442 111.12C225.482 111.106 225.521 111.083 225.558 111.05L225.138 110.569ZM225.72 110.478C225.691 110.444 225.658 110.418 225.622 110.399C225.586 110.38 225.548 110.368 225.509 110.366C225.469 110.363 225.429 110.369 225.388 110.383C225.348 110.396 225.308 110.42 225.271 110.453L225.692 110.933C225.729 110.9 225.757 110.864 225.776 110.826C225.795 110.787 225.805 110.747 225.806 110.706C225.808 110.665 225.801 110.625 225.786 110.586C225.772 110.548 225.75 110.511 225.72 110.478Z" fill="#152F55"/>
<path d="M226.632 110.647L226.129 109.595L226.289 109.518L226.792 110.571L226.632 110.647Z" fill="#152F55"/>
<path d="M228.012 110.241L227.841 109.984L227.35 110.073L227.272 110.376L227.086 110.41L227.432 109.085L228.202 110.206L228.012 110.241ZM227.499 109.475L227.392 109.896L227.74 109.833L227.499 109.475Z" fill="#152F55"/>
<path d="M229.138 110.332L228.805 109.756L228.762 109.785L228.689 110.262L228.514 110.235L228.693 109.082L228.868 109.109L228.796 109.569L229.324 109.18L229.547 109.214L228.946 109.656L229.372 110.368L229.138 110.332Z" fill="#152F55"/>
<path d="M230.279 110.799L230.533 110.318L230.09 110.083L229.835 110.564L229.679 110.481L230.225 109.45L230.381 109.532L230.167 109.936L230.612 110.171L230.825 109.767L230.981 109.85L230.435 110.881L230.279 110.799Z" fill="#152F55"/>
<path d="M227.429 118.788L227.116 118.201L227.073 118.229L226.983 118.702L226.808 118.669L227.029 117.523L227.203 117.557L227.115 118.013L227.656 117.644L227.878 117.687L227.261 118.106L227.661 118.833L227.429 118.788Z" fill="#152F55"/>
<path d="M229.247 118.728L229.086 118.465L228.593 118.535L228.502 118.834L228.315 118.861L228.712 117.552L229.437 118.701L229.247 118.728ZM228.764 117.944L228.641 118.36L228.991 118.311L228.764 117.944Z" fill="#152F55"/>
<path d="M230.867 118.076L230.171 117.539L230.212 118.417L230.039 118.508L229.987 117.178L231.041 117.986L230.867 118.076Z" fill="#152F55"/>
<path d="M232.159 116.945L231.422 116.265L231.014 116.708L231.752 117.387L231.631 117.518L230.771 116.727L231.419 116.023L232.279 116.815L232.159 116.945Z" fill="#152F55"/>
<path d="M233.025 115.417L232.523 115.207L232.329 115.671L232.832 115.88L232.764 116.043L231.686 115.594L231.754 115.431L232.176 115.607L232.37 115.143L231.948 114.968L232.016 114.804L233.093 115.253L233.025 115.417Z" fill="#152F55"/>
<path d="M230.97 114.048L226.811 116.268L225.539 113.884L229.698 111.665L230.97 114.048ZM226.883 116.033L230.735 113.977L229.627 111.9L225.774 113.955L226.883 116.033Z" fill="#152F55"/>
<path d="M228.475 114.378L225.645 114.006L225.667 113.834L228.374 114.19L229.584 111.744L229.739 111.821L228.475 114.378Z" fill="#152F55"/>
<path d="M230.819 114.093L228.922 113.289L228.99 113.129L230.886 113.933L230.819 114.093Z" fill="#152F55"/>
<path d="M226.928 116.169L226.757 116.136L227.145 114.114L227.316 114.146L226.928 116.169Z" fill="#152F55"/>
<path d="M212.253 132.476C212.674 132.418 212.878 132.189 212.866 131.789C212.853 131.389 213.057 131.159 213.478 131.101C213.898 131.043 214.103 130.814 214.09 130.414C214.078 130.014 214.282 129.785 214.703 129.727C215.123 129.669 215.327 129.44 215.315 129.039C215.303 128.639 215.507 128.41 215.927 128.352C216.348 128.294 216.552 128.065 216.54 127.665C216.527 127.265 216.732 127.035 217.152 126.977C217.573 126.919 217.777 126.69 217.764 126.29C217.752 125.89 217.956 125.661 218.377 125.603C218.797 125.545 219.001 125.316 218.989 124.915C218.977 124.515 219.181 124.286 219.601 124.228C220.022 124.17 220.226 123.941 220.214 123.541C220.202 123.141 220.406 122.911 220.826 122.853C221.247 122.795 221.451 122.566 221.439 122.166C221.426 121.766 221.63 121.537 222.051 121.479C222.471 121.421 222.675 121.192 222.663 120.791C222.651 120.391 222.855 120.162 223.276 120.104C223.696 120.046 223.9 119.817 223.888 119.417C223.876 119.017 224.08 118.788 224.5 118.73C224.921 118.672 225.125 118.442 225.113 118.042C225.1 117.642 225.304 117.413 225.725 117.355C226.146 117.297 226.35 117.068 226.337 116.668C226.325 116.267 226.529 116.038 226.95 115.98C227.37 115.922 227.574 115.693 227.562 115.293C227.55 114.893 227.754 114.664 228.174 114.606C228.595 114.548 228.799 114.318 228.787 113.918C228.775 113.518 228.979 113.289 229.399 113.231C229.82 113.173 230.024 112.944 230.011 112.544C229.999 112.143 230.203 111.914 230.624 111.856C231.044 111.798 231.248 111.569 231.236 111.169C231.224 110.769 231.428 110.54 231.849 110.482C232.269 110.424 232.473 110.194 232.461 109.794C232.449 109.394 232.653 109.165 233.073 109.107C233.494 109.049 233.698 108.82 233.686 108.42C233.673 108.019 233.877 107.79 234.298 107.732C234.718 107.674 234.923 107.445 234.91 107.045C234.898 106.645 235.102 106.416 235.523 106.358C235.943 106.3 236.147 106.071 236.135 105.67C236.123 105.27 236.327 105.041 236.747 104.983C237.168 104.925 237.372 104.696 237.36 104.296C237.347 103.895 237.552 103.666 237.972 103.608C238.393 103.55 238.597 103.321 238.584 102.921C238.572 102.521 238.776 102.292 239.197 102.234C239.617 102.176 239.821 101.947 239.809 101.546C239.797 101.146 240.001 100.917 240.421 100.859C240.842 100.801 241.046 100.572 241.034 100.172C241.022 99.7715 241.226 99.5424 241.646 99.4844C242.067 99.4264 242.271 99.1973 242.259 98.7971C242.246 98.3968 242.45 98.1677 242.871 98.1097" stroke="#002D56" stroke-width="0.141605"/>
<line y1="-0.0708023" x2="44.7996" y2="-0.0708023" transform="matrix(0.665211 -0.746655 -0.784408 -0.620245 212.264 131.378)" stroke="#002D56" stroke-width="0.141605"/>
<line y1="-0.0708023" x2="44.7996" y2="-0.0708023" transform="matrix(0.665211 -0.746655 -0.784408 -0.620245 212.02 131.185)" stroke="#002D56" stroke-width="0.141605"/>
<line y1="-0.0708023" x2="44.7996" y2="-0.0708023" transform="matrix(0.665211 -0.746655 -0.784408 -0.620245 213.481 132.34)" stroke="#002D56" stroke-width="0.141605"/>
<line y1="-0.0708023" x2="44.7996" y2="-0.0708023" transform="matrix(0.665211 -0.746655 -0.784408 -0.620245 213.237 132.148)" stroke="#002D56" stroke-width="0.141605"/>
<circle cx="228.252" cy="113.967" r="6.13214" stroke="#002D56" stroke-width="0.961904"/>
<circle cx="118.207" cy="73.66" r="12.5471" fill="#002D56"/>
<path d="M33.6791 125.471H91.1317L118.867 73.962" stroke="#002D56" stroke-width="2.6415" stroke-dasharray="13.21 6.6"/>
<path d="M33.6791 27.7356H91.1317L118.867 79.2448" stroke="#002D56" stroke-width="2.6415" stroke-dasharray="13.21 6.6"/>
<path d="M116.226 74.6223L33.0187 73.9619" stroke="#002D56" stroke-width="2.6415" stroke-dasharray="13.21 6.6"/>
<circle cx="118.207" cy="73.6601" r="4.62262" fill="white"/>
</svg>
