<svg width="1440" height="37" viewBox="0 0 1440 37" fill="none" xmlns="http://www.w3.org/2000/svg">
<path d="M641 17.2533C646.72 12.1688 652.44 12.1688 658.16 17.2533C663.88 22.3377 669.6 22.3377 675.32 17.2533C681.04 12.1688 686.76 12.1688 692.48 17.2533C698.2 22.3377 703.92 22.3377 709.64 17.2533C715.36 12.1688 721.08 12.1688 726.8 17.2533C732.52 22.3377 738.24 22.3377 743.96 17.2533C749.68 12.1688 755.4 12.1688 761.12 17.2533C766.84 22.3377 772.56 22.3377 778.28 17.2533C784 12.1688 789.72 12.1688 795.44 17.2533C801.16 22.3377 806.88 22.3377 812.6 17.2533C818.32 12.1688 824.04 12.1688 829.76 17.2533C835.48 22.3377 841.2 22.3377 846.92 17.2533C852.64 12.1688 858.36 12.1688 864.08 17.2533C869.8 22.3377 875.52 22.3377 881.24 17.2533C886.96 12.1688 892.68 12.1688 898.4 17.2533C904.12 22.3377 909.84 22.3377 915.56 17.2533C921.28 12.1688 927 12.1688 932.72 17.2533C938.44 22.3377 944.16 22.3377 949.88 17.2533C955.6 12.1688 961.32 12.1688 967.04 17.2533C972.76 22.3377 978.48 22.3377 984.2 17.2533C989.92 12.1688 995.64 12.1688 1001.36 17.2533C1007.08 22.3377 1012.8 22.3377 1018.52 17.2533C1024.24 12.1688 1029.96 12.1688 1035.68 17.2533C1041.4 22.3377 1047.12 22.3377 1052.84 17.2533C1058.56 12.1688 1064.28 12.1688 1070 17.2533C1075.72 22.3377 1081.44 22.3377 1087.16 17.2533C1092.88 12.1688 1098.6 12.1688 1104.32 17.2533C1110.04 22.3377 1115.76 22.3377 1121.48 17.2533C1127.2 12.1688 1132.92 12.1688 1138.64 17.2533C1144.36 22.3377 1150.08 22.3377 1155.8 17.2533C1161.52 12.1688 1167.24 12.1688 1172.96 17.2533C1178.68 22.3377 1184.4 22.3377 1190.12 17.2533C1195.84 12.1688 1201.56 12.1688 1207.28 17.2533C1213 22.3377 1218.72 22.3377 1224.44 17.2533C1230.16 12.1688 1235.88 12.1688 1241.6 17.2533C1247.32 22.3377 1253.04 22.3377 1258.76 17.2533C1264.48 12.1688 1270.2 12.1688 1275.92 17.2533C1281.64 22.3377 1287.36 22.3377 1293.08 17.2533C1298.8 12.1688 1304.52 12.1688 1310.24 17.2533C1315.96 22.3377 1321.68 22.3377 1327.4 17.2533C1333.12 12.1688 1338.84 12.1688 1344.56 17.2533C1350.28 22.3377 1356 22.3377 1361.72 17.2533C1367.44 12.1688 1373.16 12.1688 1378.88 17.2533C1384.6 22.3377 1390.32 22.3377 1396.04 17.2533C1401.76 12.1688 1407.48 12.1688 1413.2 17.2533C1418.92 22.3377 1424.64 22.3377 1430.36 17.2533C1436.08 12.1688 1441.8 12.1688 1447.52 17.2533C1453.24 22.3377 1458.96 22.3377 1464.68 17.2533C1470.4 12.1688 1476.12 12.1688 1481.84 17.2533C1487.56 22.3377 1493.28 22.3377 1499 17.2533" stroke="#002D56" stroke-width="1.90667"/>
<line x1="657.207" y1="29.6468" x2="1492.33" y2="29.6468" stroke="#002D56" stroke-width="1.90667"/>
<line x1="657.207" y1="35.3667" x2="1492.33" y2="35.3667" stroke="#002D56" stroke-width="1.90667"/>
<line x1="657.207" y1="1.04667" x2="1492.33" y2="1.04667" stroke="#002D56" stroke-width="1.90667"/>
<line x1="657.207" y1="6.76664" x2="1492.33" y2="6.76664" stroke="#002D56" stroke-width="1.90667"/>
<path d="M-114 17.2533C-108.28 12.1688 -102.56 12.1688 -96.84 17.2533C-91.12 22.3377 -85.4 22.3377 -79.68 17.2533C-73.96 12.1688 -68.24 12.1688 -62.52 17.2533C-56.8 22.3377 -51.08 22.3377 -45.36 17.2533C-39.64 12.1688 -33.92 12.1688 -28.2 17.2533C-22.48 22.3377 -16.76 22.3377 -11.04 17.2533C-5.32 12.1688 0.399998 12.1688 6.12 17.2533C11.84 22.3377 17.56 22.3377 23.28 17.2533C29 12.1688 34.72 12.1688 40.44 17.2533C46.16 22.3377 51.88 22.3377 57.6 17.2533C63.32 12.1688 69.04 12.1688 74.76 17.2533C80.48 22.3377 86.2 22.3377 91.92 17.2533C97.64 12.1688 103.36 12.1688 109.08 17.2533C114.8 22.3377 120.52 22.3377 126.24 17.2533C131.96 12.1688 137.68 12.1688 143.4 17.2533C149.12 22.3377 154.84 22.3377 160.56 17.2533C166.28 12.1688 172 12.1688 177.72 17.2533C183.44 22.3377 189.16 22.3377 194.88 17.2533C200.6 12.1688 206.32 12.1688 212.04 17.2533C217.76 22.3377 223.48 22.3377 229.2 17.2533C234.92 12.1688 240.64 12.1688 246.36 17.2533C252.08 22.3377 257.8 22.3377 263.52 17.2533C269.24 12.1688 274.96 12.1688 280.68 17.2533C286.4 22.3377 292.12 22.3377 297.84 17.2533C303.56 12.1688 309.28 12.1688 315 17.2533C320.72 22.3377 326.44 22.3377 332.16 17.2533C337.88 12.1688 343.6 12.1688 349.32 17.2533C355.04 22.3377 360.76 22.3377 366.48 17.2533C372.2 12.1688 377.92 12.1688 383.64 17.2533C389.36 22.3377 395.08 22.3377 400.8 17.2533C406.52 12.1688 412.24 12.1688 417.96 17.2533C423.68 22.3377 429.4 22.3377 435.12 17.2533C440.84 12.1688 446.56 12.1688 452.28 17.2533C458 22.3377 463.72 22.3377 469.44 17.2533C475.16 12.1688 480.88 12.1688 486.6 17.2533C492.32 22.3377 498.04 22.3377 503.76 17.2533C509.48 12.1688 515.2 12.1688 520.92 17.2533C526.64 22.3377 532.36 22.3377 538.08 17.2533C543.8 12.1688 549.52 12.1688 555.24 17.2533C560.96 22.3377 566.68 22.3377 572.4 17.2533C578.12 12.1688 583.84 12.1688 589.56 17.2533C595.28 22.3377 601 22.3377 606.72 17.2533C612.44 12.1688 618.16 12.1688 623.88 17.2533C629.6 22.3377 635.32 22.3377 641.04 17.2533C646.76 12.1688 652.48 12.1688 658.2 17.2533C663.92 22.3377 669.64 22.3377 675.36 17.2533C681.08 12.1688 686.8 12.1688 692.52 17.2533C698.24 22.3377 703.96 22.3377 709.68 17.2533C715.4 12.1688 721.12 12.1688 726.84 17.2533C732.56 22.3377 738.28 22.3377 744 17.2533" stroke="#002D56" stroke-width="1.90667"/>
<line x1="-97.7933" y1="29.6468" x2="737.327" y2="29.6468" stroke="#002D56" stroke-width="1.90667"/>
<line x1="-97.7933" y1="35.3667" x2="737.327" y2="35.3667" stroke="#002D56" stroke-width="1.90667"/>
<line x1="-97.7933" y1="1.04667" x2="737.327" y2="1.04667" stroke="#002D56" stroke-width="1.90667"/>
<line x1="-97.7933" y1="6.76664" x2="737.327" y2="6.76664" stroke="#002D56" stroke-width="1.90667"/>
</svg>
