<svg width="385" height="177" viewBox="0 0 385 177" fill="none" xmlns="http://www.w3.org/2000/svg">
<path d="M380.394 152.472H378.599H376.413V153.721H380.394V152.472Z" fill="white" stroke="#002D56" stroke-width="0.288058"/>
<path d="M374.929 152.472H373.134H370.948V153.721H374.929V152.472Z" fill="white" stroke="#002D56" stroke-width="0.288058"/>
<circle r="1.2191" transform="matrix(-1 0 0 1 367.747 137.093)" fill="white" stroke="#002D56" stroke-width="0.216044"/>
<rect x="-0.108022" y="0.108022" width="1.96981" height="1.81368" transform="matrix(-1 0 0 1 376.665 121.089)" fill="white" stroke="#002D56" stroke-width="0.216044"/>
<circle r="3.05669" transform="matrix(-1 0 0 1 375.866 118.201)" fill="white" stroke="#002D56" stroke-width="0.288058"/>
<circle r="1.2191" transform="matrix(-1 0 0 1 383.673 136.78)" fill="white" stroke="#002D56" stroke-width="0.216044"/>
<path d="M378.833 152.55L378.599 133.424H372.822L372.978 152.55C373.831 153.142 374.31 153.216 375.164 152.55V134.517C375.621 134.712 375.877 134.743 376.335 134.517V152.55C377.259 153.266 377.804 153.292 378.833 152.55Z" fill="#002D56"/>
<path d="M379.77 123.275C379.486 122.724 379.109 122.662 378.208 122.807H375.71V133.502H378.599C379.129 132.193 379.313 131.033 379.379 127.959L382.424 137.093C383.514 137.051 384.071 136.961 384.297 135.844L379.77 123.275Z" fill="#002D56"/>
<path d="M371.651 123.275C371.934 122.724 372.312 122.662 373.212 122.807H375.71V133.502H372.822C372.292 132.193 372.107 131.033 372.041 127.959L368.996 137.093C367.906 137.051 367.349 136.961 367.123 135.844L371.651 123.275Z" fill="#002D56"/>
<circle r="0.288058" transform="matrix(-1 0 0 1 377.15 117.943)" fill="#002D56"/>
<path d="M376.358 118.952C376.004 119.211 375.8 119.222 375.422 118.952" stroke="#002D56" stroke-width="0.216044"/>
<path d="M376.79 120.032C376.11 120.314 375.717 120.326 374.99 120.032" stroke="#002D56" stroke-width="0.216044"/>
<circle r="0.288058" transform="matrix(-1 0 0 1 374.774 117.943)" fill="#002D56"/>
<path d="M378.231 117.943L378.915 118.412C378.594 116.206 377.762 115.501 375.854 115.027C373.91 115.491 372.938 116.503 372.722 118.52L373.55 118.051C373.73 115.639 377.474 115.027 378.231 117.943Z" fill="#002D56"/>
<path d="M342.442 152.463H340.647H338.461V153.712H342.442V152.463Z" fill="white" stroke="#002D56" stroke-width="0.288058"/>
<path d="M336.978 152.463H335.182H332.996V153.712H336.978V152.463Z" fill="white" stroke="#002D56" stroke-width="0.288058"/>
<circle r="1.2191" transform="matrix(-1 0 0 1 329.796 137.084)" fill="white" stroke="#002D56" stroke-width="0.216044"/>
<rect x="-0.108022" y="0.108022" width="1.96981" height="1.81368" transform="matrix(-1 0 0 1 338.713 121.08)" fill="white" stroke="#002D56" stroke-width="0.216044"/>
<circle r="3.05669" transform="matrix(-1 0 0 1 337.915 118.192)" fill="white" stroke="#002D56" stroke-width="0.288058"/>
<circle r="1.2191" transform="matrix(-1 0 0 1 345.721 136.771)" fill="white" stroke="#002D56" stroke-width="0.216044"/>
<path d="M340.881 152.541L340.647 133.415H334.87L335.026 152.541C335.88 153.133 336.359 153.207 337.212 152.541V134.508C337.669 134.703 337.926 134.734 338.383 134.508V152.541C339.308 153.257 339.852 153.283 340.881 152.541Z" fill="#002D56"/>
<path d="M341.818 123.266C341.535 122.715 341.157 122.653 340.257 122.797H337.758V133.493H340.647C341.177 132.183 341.361 131.024 341.428 127.95L344.472 137.084C345.562 137.042 346.12 136.952 346.346 135.835L341.818 123.266Z" fill="#002D56"/>
<path d="M333.699 123.266C333.982 122.715 334.36 122.653 335.26 122.797H337.758V133.493H334.87C334.34 132.183 334.155 131.024 334.089 127.95L331.045 137.084C329.955 137.042 329.397 136.952 329.171 135.835L333.699 123.266Z" fill="#002D56"/>
<circle r="0.288058" transform="matrix(-1 0 0 1 339.199 117.934)" fill="#002D56"/>
<path d="M338.407 118.943C338.053 119.201 337.848 119.212 337.47 118.943" stroke="#002D56" stroke-width="0.216044"/>
<path d="M338.839 120.023C338.158 120.305 337.765 120.317 337.038 120.023" stroke="#002D56" stroke-width="0.216044"/>
<circle r="0.288058" transform="matrix(-1 0 0 1 336.822 117.934)" fill="#002D56"/>
<path d="M340.315 118.15H341.035L340.675 116.566L340.027 116.998L340.315 118.15Z" fill="#002D56"/>
<path d="M335.598 118.223H334.878L335.238 116.638L335.886 117.07L335.598 118.223Z" fill="#002D56"/>
<circle r="1.2191" transform="matrix(-1 0 0 1 349.816 138.245)" fill="white" stroke="#002D56" stroke-width="0.216044"/>
<rect x="-0.108022" y="0.108022" width="1.96981" height="1.81368" transform="matrix(-1 0 0 1 356.285 123.033)" fill="white" stroke="#002D56" stroke-width="0.216044"/>
<circle r="3.05669" transform="matrix(-1 0 0 1 355.486 120.145)" fill="white" stroke="#002D56" stroke-width="0.288058"/>
<circle r="1.2191" transform="matrix(-1 0 0 1 360.916 138.653)" fill="white" stroke="#002D56" stroke-width="0.216044"/>
<path fill-rule="evenodd" clip-rule="evenodd" d="M356.708 153.66H360.014V152.534H358.218H357.844L358.211 135.371H352.434L352.944 152.537H352.746H350.56V153.663H354.541V153.468C354.552 153.461 354.563 153.453 354.574 153.446L354.776 136.356C355.233 136.532 355.489 136.56 355.947 136.356L356.045 152.534H356.033V153.66H356.452C356.552 153.689 356.634 153.687 356.708 153.66Z" fill="white"/>
<path d="M360.014 153.66H360.122V153.768H360.014V153.66ZM356.708 153.66L356.671 153.559L356.689 153.552H356.708V153.66ZM360.014 152.534V152.426H360.122V152.534H360.014ZM357.844 152.534V152.642H357.734L357.736 152.532L357.844 152.534ZM358.211 135.371V135.263H358.321L358.319 135.373L358.211 135.371ZM352.434 135.371L352.326 135.374L352.322 135.263H352.434V135.371ZM352.944 152.537L353.052 152.534L353.055 152.645H352.944V152.537ZM350.56 152.537H350.452V152.429H350.56V152.537ZM350.56 153.663V153.771H350.452V153.663H350.56ZM354.541 153.663H354.649V153.771H354.541V153.663ZM354.541 153.468H354.433V153.411L354.481 153.378L354.541 153.468ZM354.574 153.446L354.682 153.447L354.681 153.502L354.636 153.534L354.574 153.446ZM354.776 136.356L354.668 136.355L354.67 136.2L354.814 136.255L354.776 136.356ZM355.947 136.356L355.903 136.257L356.054 136.19L356.055 136.355L355.947 136.356ZM356.045 152.534L356.153 152.534L356.153 152.642H356.045V152.534ZM356.033 152.534H355.925V152.426H356.033V152.534ZM356.033 153.66V153.768H355.925V153.66H356.033ZM356.452 153.66V153.552H356.467L356.482 153.556L356.452 153.66ZM360.014 153.768H356.708V153.552H360.014V153.768ZM360.122 152.534V153.66H359.906V152.534H360.122ZM358.218 152.426H360.014V152.642H358.218V152.426ZM357.844 152.426H358.218V152.642H357.844V152.426ZM357.736 152.532L358.103 135.369L358.319 135.373L357.952 152.537L357.736 152.532ZM358.211 135.479H352.434V135.263H358.211V135.479ZM352.542 135.368L353.052 152.534L352.836 152.54L352.326 135.374L352.542 135.368ZM352.746 152.429H352.944V152.645H352.746V152.429ZM350.56 152.429H352.746V152.645H350.56V152.429ZM350.452 153.663V152.537H350.668V153.663H350.452ZM354.541 153.771H350.56V153.555H354.541V153.771ZM354.649 153.468V153.663H354.433V153.468H354.649ZM354.481 153.378C354.491 153.372 354.501 153.365 354.512 153.357L354.636 153.534C354.625 153.542 354.613 153.55 354.602 153.557L354.481 153.378ZM354.466 153.444L354.668 136.355L354.884 136.357L354.682 153.447L354.466 153.444ZM354.814 136.255C355.04 136.342 355.204 136.387 355.363 136.39C355.521 136.393 355.683 136.355 355.903 136.257L355.991 136.455C355.753 136.56 355.559 136.61 355.359 136.606C355.161 136.602 354.969 136.546 354.737 136.457L354.814 136.255ZM356.055 136.355L356.153 152.534L355.937 152.535L355.839 136.357L356.055 136.355ZM356.033 152.426H356.045V152.642H356.033V152.426ZM355.925 153.66V152.534H356.141V153.66H355.925ZM356.452 153.768H356.033V153.552H356.452V153.768ZM356.482 153.556C356.564 153.58 356.622 153.576 356.671 153.559L356.745 153.761C356.646 153.798 356.54 153.798 356.422 153.764L356.482 153.556Z" fill="black"/>
<path d="M359.389 125.219C359.106 124.669 358.729 124.607 357.828 124.751H355.33V135.446H358.218C358.749 134.137 358.152 133.044 358.218 129.97L358.999 138.9C360.089 138.858 362.378 138.937 362.603 137.82L359.389 125.219Z" fill="#002D56"/>
<path d="M351.271 125.219C351.554 124.669 351.931 124.607 352.832 124.751H355.33V135.446H352.442C351.911 134.137 352.508 132.612 352.442 129.538L351.729 137.892C350.639 137.85 348.354 138.433 348.129 137.315L351.271 125.219Z" fill="#002D56"/>
<circle r="0.288058" transform="matrix(-1 0 0 1 356.77 119.888)" fill="#002D56"/>
<path d="M355.978 120.896C355.624 121.155 355.42 121.166 355.042 120.896" stroke="#002D56" stroke-width="0.216044"/>
<path d="M356.41 121.976C355.73 122.258 355.337 122.27 354.61 121.976" stroke="#002D56" stroke-width="0.216044"/>
<circle r="0.288058" transform="matrix(-1 0 0 1 354.394 119.888)" fill="#002D56"/>
<path d="M357.851 119.888L358.607 120.284C359.039 117.944 357.454 116.611 355.366 116.359C353.386 116.539 351.477 118.484 352.341 120.464L353.17 119.996C353.35 117.584 357.094 116.971 357.851 119.888Z" fill="#002D56"/>
<path d="M358.427 134.471H352.197L352.593 147.902C354.787 148.583 356.017 148.564 358.211 147.902L358.427 134.471Z" fill="#002D56"/>
<ellipse rx="1.87238" ry="1.26026" transform="matrix(-1 0 0 1 355.402 115.675)" fill="#002D56"/>
<path d="M323.283 121.175L316.874 121.031V127.8H323.283V121.175Z" fill="#002D56"/>
<path d="M324.655 152.823H322.859H320.673V154.072H324.655V152.823Z" fill="white" stroke="#002D56" stroke-width="0.288058"/>
<path d="M319.19 152.823H317.395H315.209V154.072H319.19V152.823Z" fill="white" stroke="#002D56" stroke-width="0.288058"/>
<circle r="1.2191" transform="matrix(-1 0 0 1 311.936 140.036)" fill="white" stroke="#002D56" stroke-width="0.216044"/>
<rect x="-0.108022" y="0.108022" width="1.96981" height="1.81368" transform="matrix(-1 0 0 1 320.854 124.033)" fill="white" stroke="#002D56" stroke-width="0.216044"/>
<circle r="3.05669" transform="matrix(-1 0 0 1 320.055 121.144)" fill="white" stroke="#002D56" stroke-width="0.288058"/>
<circle r="1.2191" transform="matrix(-1 0 0 1 327.862 139.724)" fill="white" stroke="#002D56" stroke-width="0.216044"/>
<path d="M322.995 152.753L322.763 136.37H317.018L317.173 152.753C318.022 153.26 318.498 153.324 319.347 152.753V137.306C319.802 137.473 320.057 137.5 320.511 137.306V152.753C321.431 153.367 321.972 153.389 322.995 152.753Z" fill="#002D56"/>
<path d="M323.958 126.219C323.675 125.668 323.297 125.606 322.397 125.75H319.899V136.445H322.787C323.317 135.136 323.502 133.976 323.568 130.903L326.612 140.036C327.703 139.995 328.26 139.905 328.486 138.787L323.958 126.219Z" fill="#002D56"/>
<path d="M315.839 126.219C316.123 125.668 316.5 125.606 317.401 125.75H319.899V136.445H317.01C316.48 135.136 316.296 133.976 316.23 130.903L313.185 140.036C312.095 139.995 311.537 139.905 311.311 138.787L315.839 126.219Z" fill="#002D56"/>
<circle r="0.288058" transform="matrix(-1 0 0 1 321.339 120.887)" fill="#002D56"/>
<path d="M320.547 121.895C320.193 122.154 319.989 122.165 319.611 121.895" stroke="#002D56" stroke-width="0.216044"/>
<path d="M320.979 122.975C320.298 123.257 319.906 123.269 319.179 122.975" stroke="#002D56" stroke-width="0.216044"/>
<circle r="0.288058" transform="matrix(-1 0 0 1 318.963 120.887)" fill="#002D56"/>
<path d="M322.419 120.887L323.103 121.355C322.783 119.149 321.951 118.444 320.043 117.97C318.099 118.435 317.126 119.447 316.91 121.463L317.738 120.995C317.918 118.583 321.663 117.97 322.419 120.887Z" fill="#002D56"/>
<path d="M74.3941 153.472H72.5986H70.4127V154.721H74.3941V153.472Z" fill="white" stroke="#002D56" stroke-width="0.288058"/>
<path d="M68.9294 153.472H67.1339H64.948V154.721H68.9294V153.472Z" fill="white" stroke="#002D56" stroke-width="0.288058"/>
<circle r="1.2191" transform="matrix(-1 0 0 1 61.7474 138.093)" fill="white" stroke="#002D56" stroke-width="0.216044"/>
<rect x="-0.108022" y="0.108022" width="1.96981" height="1.81368" transform="matrix(-1 0 0 1 70.6651 122.089)" fill="white" stroke="#002D56" stroke-width="0.216044"/>
<circle r="3.05669" transform="matrix(-1 0 0 1 69.8663 119.201)" fill="white" stroke="#002D56" stroke-width="0.288058"/>
<circle r="1.2191" transform="matrix(-1 0 0 1 77.6729 137.78)" fill="white" stroke="#002D56" stroke-width="0.216044"/>
<path d="M72.8328 153.55L72.5986 134.424H66.8217L66.9779 153.55C67.8313 154.142 68.3103 154.216 69.1637 153.55V135.517C69.621 135.712 69.8774 135.743 70.3347 135.517V153.55C71.2593 154.266 71.8038 154.292 72.8328 153.55Z" fill="#002D56"/>
<path d="M73.7696 124.275C73.4863 123.724 73.1087 123.662 72.2082 123.807H69.7101V134.502H72.5986C73.1287 133.193 73.3131 132.033 73.3792 128.959L76.4238 138.093C77.514 138.051 78.0715 137.961 78.2974 136.844L73.7696 124.275Z" fill="#002D56"/>
<path d="M65.6507 124.275C65.9339 123.724 66.3116 123.662 67.212 123.807H69.7101V134.502H66.8217C66.2915 133.193 66.1072 132.033 66.041 128.959L62.9964 138.093C61.9063 138.051 61.3488 137.961 61.1228 136.844L65.6507 124.275Z" fill="#002D56"/>
<circle r="0.288058" transform="matrix(-1 0 0 1 71.1504 118.943)" fill="#002D56"/>
<path d="M70.3582 119.952C70.0043 120.211 69.8 120.222 69.422 119.952" stroke="#002D56" stroke-width="0.216044"/>
<path d="M70.7903 121.032C70.1098 121.314 69.7168 121.326 68.99 121.032" stroke="#002D56" stroke-width="0.216044"/>
<circle r="0.288058" transform="matrix(-1 0 0 1 68.7739 118.943)" fill="#002D56"/>
<path d="M72.2306 118.943L72.9148 119.412C72.5945 117.206 71.7623 116.501 69.8541 116.027C67.9103 116.491 66.9376 117.503 66.7215 119.52L67.5497 119.051C67.7297 116.639 71.4745 116.027 72.2306 118.943Z" fill="#002D56"/>
<path d="M36.4424 153.463H34.6469H32.461V154.712H36.4424V153.463Z" fill="white" stroke="#002D56" stroke-width="0.288058"/>
<path d="M30.9777 153.463H29.1822H26.9963V154.712H30.9777V153.463Z" fill="white" stroke="#002D56" stroke-width="0.288058"/>
<circle r="1.2191" transform="matrix(-1 0 0 1 23.7957 138.084)" fill="white" stroke="#002D56" stroke-width="0.216044"/>
<rect x="-0.108022" y="0.108022" width="1.96981" height="1.81368" transform="matrix(-1 0 0 1 32.7134 122.08)" fill="white" stroke="#002D56" stroke-width="0.216044"/>
<circle r="3.05669" transform="matrix(-1 0 0 1 31.9146 119.192)" fill="white" stroke="#002D56" stroke-width="0.288058"/>
<circle r="1.2191" transform="matrix(-1 0 0 1 39.7212 137.771)" fill="white" stroke="#002D56" stroke-width="0.216044"/>
<path d="M34.8811 153.541L34.6469 134.415H28.87L29.0262 153.541C29.8796 154.133 30.3586 154.207 31.212 153.541V135.508C31.6693 135.703 31.9257 135.734 32.383 135.508V153.541C33.3077 154.257 33.8521 154.283 34.8811 153.541Z" fill="#002D56"/>
<path d="M35.8179 124.266C35.5347 123.715 35.157 123.653 34.2566 123.797H31.7584V134.493H34.6469C35.177 133.183 35.3614 132.024 35.4276 128.95L38.4721 138.084C39.5623 138.042 40.1198 137.952 40.3457 136.835L35.8179 124.266Z" fill="#002D56"/>
<path d="M27.699 124.266C27.9822 123.715 28.3599 123.653 29.2603 123.797H31.7584V134.493H28.87C28.3398 133.183 28.1555 132.024 28.0893 128.95L25.0447 138.084C23.9546 138.042 23.3971 137.952 23.1711 136.835L27.699 124.266Z" fill="#002D56"/>
<circle r="0.288058" transform="matrix(-1 0 0 1 33.1987 118.934)" fill="#002D56"/>
<path d="M32.4066 119.943C32.0527 120.201 31.8483 120.212 31.4704 119.943" stroke="#002D56" stroke-width="0.216044"/>
<path d="M32.8386 121.023C32.1581 121.305 31.7651 121.317 31.0383 121.023" stroke="#002D56" stroke-width="0.216044"/>
<circle r="0.288058" transform="matrix(-1 0 0 1 30.8222 118.934)" fill="#002D56"/>
<path d="M34.3149 119.15H35.0351L34.675 117.566L34.0269 117.998L34.3149 119.15Z" fill="#002D56"/>
<path d="M29.598 119.223H28.8779L29.2379 117.638L29.8861 118.07L29.598 119.223Z" fill="#002D56"/>
<circle r="1.2191" transform="matrix(-1 0 0 1 43.8158 139.245)" fill="white" stroke="#002D56" stroke-width="0.216044"/>
<rect x="-0.108022" y="0.108022" width="1.96981" height="1.81368" transform="matrix(-1 0 0 1 50.2849 124.033)" fill="white" stroke="#002D56" stroke-width="0.216044"/>
<circle r="3.05669" transform="matrix(-1 0 0 1 49.4862 121.145)" fill="white" stroke="#002D56" stroke-width="0.288058"/>
<circle r="1.2191" transform="matrix(-1 0 0 1 54.9163 139.653)" fill="white" stroke="#002D56" stroke-width="0.216044"/>
<path fill-rule="evenodd" clip-rule="evenodd" d="M50.7079 154.66H54.014V153.534H52.2185H51.8442L52.2106 136.371H46.4337L46.9435 153.537H46.7459H44.56V154.663H48.5414V154.468C48.5521 154.461 48.5629 154.453 48.5739 154.446L48.7757 137.356C49.233 137.532 49.4894 137.56 49.9467 137.356L50.0447 153.534H50.0326V154.66H50.4519C50.5523 154.689 50.6343 154.687 50.7079 154.66Z" fill="white"/>
<path d="M54.014 154.66H54.122V154.768H54.014V154.66ZM50.7079 154.66L50.6708 154.559L50.6888 154.552H50.7079V154.66ZM54.014 153.534V153.426H54.122V153.534H54.014ZM51.8442 153.534V153.642H51.7338L51.7362 153.532L51.8442 153.534ZM52.2106 136.371V136.263H52.321L52.3186 136.373L52.2106 136.371ZM46.4337 136.371L46.3257 136.374L46.3224 136.263H46.4337V136.371ZM46.9435 153.537L47.0515 153.534L47.0548 153.645H46.9435V153.537ZM44.56 153.537H44.452V153.429H44.56V153.537ZM44.56 154.663V154.771H44.452V154.663H44.56ZM48.5414 154.663H48.6494V154.771H48.5414V154.663ZM48.5414 154.468H48.4334V154.411L48.4808 154.378L48.5414 154.468ZM48.5739 154.446L48.6819 154.447L48.6812 154.502L48.636 154.534L48.5739 154.446ZM48.7757 137.356L48.6677 137.355L48.6695 137.2L48.8144 137.255L48.7757 137.356ZM49.9467 137.356L49.9028 137.257L50.0537 137.19L50.0547 137.355L49.9467 137.356ZM50.0447 153.534L50.1527 153.534L50.1533 153.642H50.0447V153.534ZM50.0326 153.534H49.9246V153.426H50.0326V153.534ZM50.0326 154.66V154.768H49.9246V154.66H50.0326ZM50.4519 154.66V154.552H50.4674L50.4822 154.556L50.4519 154.66ZM54.014 154.768H50.7079V154.552H54.014V154.768ZM54.122 153.534V154.66H53.906V153.534H54.122ZM52.2185 153.426H54.014V153.642H52.2185V153.426ZM51.8442 153.426H52.2185V153.642H51.8442V153.426ZM51.7362 153.532L52.1026 136.369L52.3186 136.373L51.9522 153.537L51.7362 153.532ZM52.2106 136.479H46.4337V136.263H52.2106V136.479ZM46.5417 136.368L47.0515 153.534L46.8356 153.54L46.3257 136.374L46.5417 136.368ZM46.7459 153.429H46.9435V153.645H46.7459V153.429ZM44.56 153.429H46.7459V153.645H44.56V153.429ZM44.452 154.663V153.537H44.668V154.663H44.452ZM48.5414 154.771H44.56V154.555H48.5414V154.771ZM48.6494 154.468V154.663H48.4334V154.468H48.6494ZM48.4808 154.378C48.491 154.372 48.5013 154.365 48.5117 154.357L48.636 154.534C48.6245 154.542 48.6132 154.55 48.6019 154.557L48.4808 154.378ZM48.4659 154.444L48.6677 137.355L48.8837 137.357L48.6819 154.447L48.4659 154.444ZM48.8144 137.255C49.04 137.342 49.2041 137.387 49.3633 137.39C49.5206 137.393 49.6828 137.355 49.9028 137.257L49.9906 137.455C49.7533 137.56 49.5586 137.61 49.3591 137.606C49.1614 137.602 48.9687 137.546 48.737 137.457L48.8144 137.255ZM50.0547 137.355L50.1527 153.534L49.9366 153.535L49.8387 137.357L50.0547 137.355ZM50.0326 153.426H50.0447V153.642H50.0326V153.426ZM49.9246 154.66V153.534H50.1407V154.66H49.9246ZM50.4519 154.768H50.0326V154.552H50.4519V154.768ZM50.4822 154.556C50.5644 154.58 50.6224 154.576 50.6708 154.559L50.745 154.761C50.6461 154.798 50.5402 154.798 50.4216 154.764L50.4822 154.556Z" fill="black"/>
<path d="M53.3894 126.219C53.1062 125.669 52.7286 125.607 51.8281 125.751H49.33V136.446H52.2185C52.7486 135.137 52.1523 134.044 52.2185 130.97L52.9991 139.9C54.0893 139.858 56.3775 139.937 56.6035 138.82L53.3894 126.219Z" fill="#002D56"/>
<path d="M45.2706 126.219C45.5538 125.669 45.9315 125.607 46.8319 125.751H49.33V136.446H46.4416C45.9114 135.137 46.5077 133.612 46.4416 130.538L45.7293 138.892C44.6391 138.85 42.3545 139.433 42.1286 138.315L45.2706 126.219Z" fill="#002D56"/>
<circle r="0.288058" transform="matrix(-1 0 0 1 50.7703 120.888)" fill="#002D56"/>
<path d="M49.9781 121.896C49.6243 122.155 49.4199 122.166 49.042 121.896" stroke="#002D56" stroke-width="0.216044"/>
<path d="M50.4102 122.976C49.7297 123.258 49.3367 123.27 48.6099 122.976" stroke="#002D56" stroke-width="0.216044"/>
<circle r="0.288058" transform="matrix(-1 0 0 1 48.3938 120.888)" fill="#002D56"/>
<path d="M51.8505 120.888L52.6067 121.284C53.0388 118.944 51.4544 117.611 49.366 117.359C47.3856 117.539 45.4772 119.484 46.3414 121.464L47.1696 120.996C47.3496 118.584 51.0944 117.971 51.8505 120.888Z" fill="#002D56"/>
<path d="M52.4267 135.471H46.1974L46.5935 148.902C48.787 149.583 50.0171 149.564 52.2106 148.902L52.4267 135.471Z" fill="#002D56"/>
<ellipse rx="1.87238" ry="1.26026" transform="matrix(-1 0 0 1 49.402 116.675)" fill="#002D56"/>
<path d="M17.2835 122.175L10.8742 122.031V128.8H17.2835V122.175Z" fill="#002D56"/>
<path d="M18.6548 153.823H16.8593H14.6734V155.072H18.6548V153.823Z" fill="white" stroke="#002D56" stroke-width="0.288058"/>
<path d="M13.1901 153.823H11.3945H9.20869V155.072H13.1901V153.823Z" fill="white" stroke="#002D56" stroke-width="0.288058"/>
<circle r="1.2191" transform="matrix(-1 0 0 1 5.93607 141.036)" fill="white" stroke="#002D56" stroke-width="0.216044"/>
<rect x="-0.108022" y="0.108022" width="1.96981" height="1.81368" transform="matrix(-1 0 0 1 14.8537 125.033)" fill="white" stroke="#002D56" stroke-width="0.216044"/>
<circle r="3.05669" transform="matrix(-1 0 0 1 14.055 122.144)" fill="white" stroke="#002D56" stroke-width="0.288058"/>
<circle r="1.2191" transform="matrix(-1 0 0 1 21.8615 140.724)" fill="white" stroke="#002D56" stroke-width="0.216044"/>
<path d="M16.9954 153.753L16.7625 137.37H11.0182L11.1735 153.753C12.0221 154.26 12.4984 154.324 13.347 153.753V138.306C13.8017 138.473 14.0567 138.5 14.5114 138.306V153.753C15.4308 154.367 15.9722 154.389 16.9954 153.753Z" fill="#002D56"/>
<path d="M17.9582 127.219C17.675 126.668 17.2973 126.606 16.3969 126.75H13.8988V137.445H16.7872C17.3174 136.136 17.5017 134.976 17.5679 131.903L20.6125 141.036C21.7026 140.995 22.2601 140.905 22.4861 139.787L17.9582 127.219Z" fill="#002D56"/>
<path d="M9.83933 127.219C10.1226 126.668 10.5002 126.606 11.4007 126.75H13.8988V137.445H11.0103C10.4802 136.136 10.2958 134.976 10.2297 131.903L7.18508 141.036C6.09492 140.995 5.53743 140.905 5.31149 139.787L9.83933 127.219Z" fill="#002D56"/>
<circle r="0.288058" transform="matrix(-1 0 0 1 15.3391 121.887)" fill="#002D56"/>
<path d="M14.5469 122.895C14.193 123.154 13.9887 123.165 13.6107 122.895" stroke="#002D56" stroke-width="0.216044"/>
<path d="M14.979 123.975C14.2985 124.257 13.9055 124.269 13.1786 123.975" stroke="#002D56" stroke-width="0.216044"/>
<circle r="0.288058" transform="matrix(-1 0 0 1 12.9626 121.887)" fill="#002D56"/>
<path d="M16.4193 121.887L17.1034 122.355C16.7831 120.149 15.951 119.444 14.0428 118.97C12.099 119.435 11.1262 120.447 10.9102 122.463L11.7383 121.995C11.9184 119.583 15.6631 118.97 16.4193 121.887Z" fill="#002D56"/>
<path d="M124.419 66.3251L80.0188 89.9126V98.9313H168.819V89.9126L124.419 66.3251Z" stroke="#002D56" stroke-width="1.68182"/>
<rect x="81.5534" y="142.091" width="85.7307" height="12.1932" stroke="#002D56" stroke-width="1.68182"/>
<path d="M89.8784 104.628H102.072V136.247H89.8784V104.628Z" stroke="#002D56" stroke-width="1.68182"/>
<path d="M117.628 104.628H129.822V136.247H117.628V104.628Z" stroke="#002D56" stroke-width="1.68182"/>
<path d="M145.378 104.628H157.572V136.247H145.378V104.628Z" stroke="#002D56" stroke-width="1.68182"/>
<path d="M152.013 67L168.676 72.2111L153.337 76.9778L153.333 81.1973L152 81.1961L152.013 67Z" fill="#002D56"/>
<rect x="237.65" y="54.1" width="71.0125" height="99.775" stroke="#002D56" stroke-width="2"/>
<rect x="173.488" y="18.7" width="71.0125" height="135.175" fill="white" stroke="#002D56" stroke-width="2"/>
<rect x="184.55" y="31.975" width="20.125" height="20.125" stroke="#002D56" stroke-width="2"/>
<rect x="184.55" y="65.1625" width="20.125" height="20.125" stroke="#002D56" stroke-width="2"/>
<rect x="211.1" y="31.975" width="20.125" height="20.125" stroke="#002D56" stroke-width="2"/>
<rect x="211.1" y="65.1625" width="20.125" height="20.125" stroke="#002D56" stroke-width="2"/>
<rect x="184.55" y="133.75" width="20.125" height="20.125" stroke="#002D56" stroke-width="2"/>
<rect x="254.35" y="68.5875" width="39.825" height="6.6375" fill="#002D56"/>
<rect x="254.35" y="86.2875" width="39.825" height="6.6375" fill="#002D56"/>
<rect x="254.35" y="103.988" width="39.825" height="6.6375" fill="#002D56"/>
</svg>
