<svg width="258" height="171" viewBox="0 0 258 171" fill="none" xmlns="http://www.w3.org/2000/svg">
<rect width="232.255" height="147.478" fill="#002D56"/>
<rect x="7.06485" y="7.94778" width="219.009" height="127.166" fill="white"/>
<rect width="206.122" height="4.52023" transform="matrix(1 0 0 -1 13.5607 18.985)" fill="#E5E5E5"/>
<rect width="206.122" height="4.52023" transform="matrix(1 0 0 -1 13.5607 28.0254)" fill="#E5E5E5"/>
<rect width="206.122" height="4.52023" transform="matrix(1 0 0 -1 13.5607 37.0659)" fill="#E5E5E5"/>
<rect width="206.122" height="4.52023" transform="matrix(1 0 0 -1 13.5607 46.1063)" fill="#E5E5E5"/>
<rect width="206.122" height="4.52023" transform="matrix(1 0 0 -1 13.5607 55.1468)" fill="#E5E5E5"/>
<rect width="206.122" height="4.52023" transform="matrix(1 0 0 -1 13.5607 64.1873)" fill="#E5E5E5"/>
<rect width="206.122" height="4.52023" transform="matrix(1 0 0 -1 13.5607 73.2277)" fill="#E5E5E5"/>
<rect width="206.122" height="4.52023" transform="matrix(1 0 0 -1 13.5607 82.2682)" fill="#E5E5E5"/>
<rect width="206.122" height="4.52023" transform="matrix(1 0 0 -1 13.5607 91.3087)" fill="#E5E5E5"/>
<rect width="206.122" height="4.52023" transform="matrix(1 0 0 -1 13.5607 100.349)" fill="#E5E5E5"/>
<rect width="206.122" height="4.52023" transform="matrix(1 0 0 -1 13.5607 109.39)" fill="#E5E5E5"/>
<rect width="206.122" height="4.52023" transform="matrix(1 0 0 -1 13.5607 118.43)" fill="#E5E5E5"/>
<rect width="206.122" height="4.52023" transform="matrix(1 0 0 -1 13.5607 127.471)" fill="#E5E5E5"/>
<rect x="92.8381" y="147.023" width="54.3782" height="19.4687" fill="#002D56"/>
<rect x="43.1592" y="160.64" width="149.3" height="6.38033" fill="#002D56"/>
<path d="M92.6456 77.4965C92.7199 76.8773 92.7695 76.2332 92.7695 75.5644C92.7695 74.8956 92.7199 74.2515 92.6209 73.6323L96.8071 70.3625C97.1787 70.0652 97.2778 69.5203 97.0549 69.0992L93.0915 62.2376C92.8438 61.7917 92.3236 61.6431 91.8777 61.7917L86.9483 63.7734C85.9079 62.9807 84.818 62.3367 83.6042 61.8413L82.8611 56.5898C82.7868 56.0944 82.3657 55.7476 81.8703 55.7476H73.9436C73.4481 55.7476 73.0518 56.0944 72.9775 56.5898L72.2344 61.8413C71.0206 62.3367 69.9059 63.0055 68.8903 63.7734L63.9609 61.7917C63.515 61.6183 62.9948 61.7917 62.7471 62.2376L58.7837 69.0992C58.536 69.545 58.6351 70.0652 59.0314 70.3625L63.2177 73.6323C63.1186 74.2515 63.0443 74.9203 63.0443 75.5644C63.0443 76.2084 63.0939 76.8773 63.193 77.4965L59.0067 80.7663C58.6351 81.0635 58.536 81.6085 58.759 82.0296L62.7223 88.8912C62.97 89.337 63.4902 89.4857 63.9361 89.3371L68.8655 87.3554C69.9059 88.148 70.9958 88.7921 72.2096 89.2875L72.9527 94.539C73.0518 95.0344 73.4481 95.3812 73.9436 95.3812H81.8703C82.3657 95.3812 82.7868 95.0344 82.8363 94.539L83.5795 89.2875C84.7932 88.7921 85.9079 88.1233 86.9235 87.3554L91.853 89.3371C92.2988 89.5104 92.819 89.337 93.0667 88.8912L97.0301 82.0296C97.2778 81.5837 97.1787 81.0635 96.7824 80.7663L92.6456 77.4965ZM77.9069 82.9957C73.8197 82.9957 70.4756 79.6516 70.4756 75.5644C70.4756 71.4772 73.8197 68.1331 77.9069 68.1331C81.9941 68.1331 85.3382 71.4772 85.3382 75.5644C85.3382 79.6516 81.9941 82.9957 77.9069 82.9957Z" fill="#002D56"/>
<g clip-path="url(#clip0)">
<path d="M98.1608 106.441C98.3676 106.208 98.5713 105.957 98.7617 105.682C98.9521 105.407 99.1151 105.128 99.2506 104.845L101.902 104.693C102.14 104.677 102.335 104.481 102.364 104.244L102.688 100.296C102.713 100.042 102.541 99.8326 102.316 99.7668L99.7253 99.1781C99.5233 98.5562 99.2586 97.9812 98.9007 97.432L100.09 95.0618C100.201 94.837 100.126 94.5746 99.9226 94.4336L96.6642 92.1771C96.4606 92.0361 96.1989 92.0658 96.0274 92.2483L94.227 94.1954C93.5871 94.0536 92.9385 94.0112 92.3024 94.0377L90.8402 91.8199C90.7063 91.6217 90.4431 91.5449 90.2144 91.6577L86.632 93.35C86.4033 93.4627 86.2959 93.7048 86.3742 93.9398L87.1642 96.4755C86.9472 96.7019 86.7263 96.9556 86.543 97.2204C86.3596 97.4851 86.1896 97.7741 86.054 98.0569L83.4025 98.2093C83.1651 98.2257 82.9693 98.4215 82.941 98.6581L82.617 102.607C82.5919 102.861 82.7634 103.07 82.989 103.136L85.5794 103.724C85.7814 104.346 86.0461 104.921 86.404 105.47L85.2145 107.841C85.1143 108.072 85.1784 108.328 85.3821 108.469L88.6404 110.725C88.8441 110.866 89.1159 110.844 89.2773 110.654L91.0776 108.707C91.7176 108.849 92.3662 108.891 93.0022 108.865L94.4644 111.082C94.5983 111.281 94.8615 111.357 95.0903 111.245L98.6726 109.552C98.9014 109.44 99.0087 109.198 98.9304 108.963L98.1608 106.441ZM90.5369 104.506C88.8568 103.342 88.4342 101.016 89.5976 99.3358C90.7611 97.6557 93.0876 97.233 94.7677 98.3965C96.4478 99.56 96.8705 101.886 95.707 103.567C94.5435 105.247 92.217 105.669 90.5369 104.506Z" fill="#002D56"/>
</g>
<path d="M99.8706 55.6745C102.983 54.3796 105.55 52.0456 107.134 49.0703C108.718 46.0951 109.221 42.6625 108.558 39.3576C107.895 36.0527 106.107 33.0799 103.498 30.9458C100.889 28.8116 97.6207 27.6481 94.2499 27.6535C90.8792 27.659 87.6146 28.833 85.0125 30.9756C82.4103 33.1181 80.6315 36.0967 79.9793 39.4037C79.327 42.7108 79.8416 46.1416 81.4353 49.1118C83.0291 52.082 85.6034 54.4076 88.7196 55.6925L91.9504 47.857C90.6469 47.3196 89.5702 46.3468 88.9035 45.1045C88.2369 43.8621 88.0217 42.427 88.2945 41.0438C88.5673 39.6605 89.3113 38.4147 90.3998 37.5185C91.4882 36.6223 92.8537 36.1312 94.2636 36.1289C95.6735 36.1267 97.0406 36.6133 98.1319 37.506C99.2232 38.3987 99.9712 39.6421 100.249 41.0245C100.526 42.4069 100.315 43.8426 99.6526 45.0871C98.99 46.3316 97.9163 47.3079 96.6146 47.8495L99.8706 55.6745Z" fill="#002D56"/>
<circle cx="162.571" cy="74.2783" r="51.7355" fill="white" stroke="#002D56" stroke-width="10.3471"/>
<path d="M201.373 120.307L199.303 118.076L204.994 111.35L207.581 113.937H214.307L257.765 157.395L244.831 170.329L201.373 126.871V120.307Z" fill="#002D56"/>
<path d="M140.367 49.7734L140.395 50.2617C140.707 49.8841 141.117 49.6953 141.625 49.6953C142.505 49.6953 142.953 50.1992 142.969 51.207V54H142.02V51.2617C142.02 50.9935 141.961 50.7956 141.844 50.668C141.729 50.5378 141.54 50.4727 141.277 50.4727C140.895 50.4727 140.609 50.6458 140.422 50.9922V54H139.473V49.7734H140.367ZM149.379 50.9531H146.012V50.1641H149.379V50.9531ZM149.379 52.6094H146.012V51.8242H149.379V52.6094ZM154.023 48.1875H153.379V54.5273H154.023V55.2656H152.43V47.4453H154.023V48.1875ZM156.219 48.1875H155.574V54.5273H156.219V55.2656H154.625V47.4453H156.219V48.1875ZM160.438 51.6055C160.438 52.4232 160.284 53.0404 159.977 53.457C159.672 53.8711 159.207 54.0781 158.582 54.0781C157.967 54.0781 157.504 53.8763 157.191 53.4727C156.882 53.0664 156.723 52.4661 156.715 51.6719V50.6875C156.715 49.8698 156.867 49.2565 157.172 48.8477C157.479 48.4388 157.947 48.2344 158.574 48.2344C159.197 48.2344 159.66 48.4336 159.965 48.832C160.272 49.2305 160.43 49.8268 160.438 50.6211V51.6055ZM159.488 50.543C159.488 50.0091 159.415 49.6185 159.27 49.3711C159.124 49.1211 158.892 48.9961 158.574 48.9961C158.264 48.9961 158.036 49.1146 157.891 49.3516C157.745 49.5859 157.668 49.9531 157.66 50.4531V51.7422C157.66 52.2734 157.734 52.6693 157.883 52.9297C158.031 53.1901 158.264 53.3203 158.582 53.3203C158.887 53.3203 159.112 53.2005 159.258 52.9609C159.404 52.7188 159.48 52.3411 159.488 51.8281V50.543ZM161.473 55.2812L160.961 54.9766C161.112 54.7396 161.215 54.5326 161.27 54.3555C161.327 54.181 161.357 54.0026 161.359 53.8203V53.082H162.215L162.211 53.7656C162.208 54.0417 162.138 54.3177 162 54.5938C161.865 54.8724 161.689 55.1016 161.473 55.2812ZM166.742 51.6055C166.742 52.4232 166.589 53.0404 166.281 53.457C165.977 53.8711 165.512 54.0781 164.887 54.0781C164.272 54.0781 163.809 53.8763 163.496 53.4727C163.186 53.0664 163.027 52.4661 163.02 51.6719V50.6875C163.02 49.8698 163.172 49.2565 163.477 48.8477C163.784 48.4388 164.251 48.2344 164.879 48.2344C165.501 48.2344 165.965 48.4336 166.27 48.832C166.577 49.2305 166.734 49.8268 166.742 50.6211V51.6055ZM165.793 50.543C165.793 50.0091 165.72 49.6185 165.574 49.3711C165.428 49.1211 165.197 48.9961 164.879 48.9961C164.569 48.9961 164.341 49.1146 164.195 49.3516C164.049 49.5859 163.973 49.9531 163.965 50.4531V51.7422C163.965 52.2734 164.039 52.6693 164.188 52.9297C164.336 53.1901 164.569 53.3203 164.887 53.3203C165.191 53.3203 165.417 53.2005 165.562 52.9609C165.708 52.7188 165.785 52.3411 165.793 51.8281V50.543ZM167.777 55.2812L167.266 54.9766C167.417 54.7396 167.52 54.5326 167.574 54.3555C167.632 54.181 167.661 54.0026 167.664 53.8203V53.082H168.52L168.516 53.7656C168.513 54.0417 168.443 54.3177 168.305 54.5938C168.169 54.8724 167.993 55.1016 167.777 55.2812ZM173.047 51.6055C173.047 52.4232 172.893 53.0404 172.586 53.457C172.281 53.8711 171.816 54.0781 171.191 54.0781C170.577 54.0781 170.113 53.8763 169.801 53.4727C169.491 53.0664 169.332 52.4661 169.324 51.6719V50.6875C169.324 49.8698 169.477 49.2565 169.781 48.8477C170.089 48.4388 170.556 48.2344 171.184 48.2344C171.806 48.2344 172.27 48.4336 172.574 48.832C172.882 49.2305 173.039 49.8268 173.047 50.6211V51.6055ZM172.098 50.543C172.098 50.0091 172.025 49.6185 171.879 49.3711C171.733 49.1211 171.501 48.9961 171.184 48.9961C170.874 48.9961 170.646 49.1146 170.5 49.3516C170.354 49.5859 170.277 49.9531 170.27 50.4531V51.7422C170.27 52.2734 170.344 52.6693 170.492 52.9297C170.641 53.1901 170.874 53.3203 171.191 53.3203C171.496 53.3203 171.721 53.2005 171.867 52.9609C172.013 52.7188 172.09 52.3411 172.098 51.8281V50.543ZM174.082 55.2812L173.57 54.9766C173.721 54.7396 173.824 54.5326 173.879 54.3555C173.936 54.181 173.966 54.0026 173.969 53.8203V53.082H174.824L174.82 53.7656C174.818 54.0417 174.747 54.3177 174.609 54.5938C174.474 54.8724 174.298 55.1016 174.082 55.2812ZM179.352 51.6055C179.352 52.4232 179.198 53.0404 178.891 53.457C178.586 53.8711 178.121 54.0781 177.496 54.0781C176.882 54.0781 176.418 53.8763 176.105 53.4727C175.796 53.0664 175.637 52.4661 175.629 51.6719V50.6875C175.629 49.8698 175.781 49.2565 176.086 48.8477C176.393 48.4388 176.861 48.2344 177.488 48.2344C178.111 48.2344 178.574 48.4336 178.879 48.832C179.186 49.2305 179.344 49.8268 179.352 50.6211V51.6055ZM178.402 50.543C178.402 50.0091 178.329 49.6185 178.184 49.3711C178.038 49.1211 177.806 48.9961 177.488 48.9961C177.178 48.9961 176.951 49.1146 176.805 49.3516C176.659 49.5859 176.582 49.9531 176.574 50.4531V51.7422C176.574 52.2734 176.648 52.6693 176.797 52.9297C176.945 53.1901 177.178 53.3203 177.496 53.3203C177.801 53.3203 178.026 53.2005 178.172 52.9609C178.318 52.7188 178.395 52.3411 178.402 51.8281V50.543ZM179.812 47.4453H181.414V55.2656H179.812V54.5273H180.465V48.1875H179.812V47.4453ZM184.773 54V50.4766H184.129V49.7734H184.773V49.3867C184.773 48.918 184.904 48.556 185.164 48.3008C185.424 48.0456 185.789 47.918 186.258 47.918C186.424 47.918 186.602 47.9414 186.789 47.9883L186.766 48.7305C186.661 48.7096 186.54 48.6992 186.402 48.6992C185.949 48.6992 185.723 48.9323 185.723 49.3984V49.7734H186.582V50.4766H185.723V54H184.773ZM187.098 51.8477C187.098 51.4336 187.18 51.0612 187.344 50.7305C187.508 50.3971 187.738 50.1419 188.035 49.9648C188.332 49.7852 188.673 49.6953 189.059 49.6953C189.629 49.6953 190.091 49.8789 190.445 50.2461C190.802 50.6133 190.995 51.1003 191.023 51.707L191.027 51.9297C191.027 52.3464 190.947 52.7188 190.785 53.0469C190.626 53.375 190.397 53.6289 190.098 53.8086C189.801 53.9883 189.457 54.0781 189.066 54.0781C188.47 54.0781 187.992 53.8802 187.633 53.4844C187.276 53.0859 187.098 52.556 187.098 51.8945V51.8477ZM188.047 51.9297C188.047 52.3646 188.137 52.7057 188.316 52.9531C188.496 53.1979 188.746 53.3203 189.066 53.3203C189.387 53.3203 189.635 53.1953 189.812 52.9453C189.992 52.6953 190.082 52.3294 190.082 51.8477C190.082 51.4206 189.99 51.082 189.805 50.832C189.622 50.582 189.374 50.457 189.059 50.457C188.749 50.457 188.503 50.5807 188.32 50.8281C188.138 51.0729 188.047 51.4401 188.047 51.9297ZM194.043 50.6406C193.918 50.6198 193.789 50.6094 193.656 50.6094C193.221 50.6094 192.928 50.776 192.777 51.1094V54H191.828V49.7734H192.734L192.758 50.2461C192.987 49.8789 193.305 49.6953 193.711 49.6953C193.846 49.6953 193.958 49.7135 194.047 49.75L194.043 50.6406ZM198.152 51.1641L198.957 49.7734H200.012L198.719 51.8555L200.055 54H199.008L198.164 52.5547L197.324 54H196.27L197.605 51.8555L196.316 49.7734H197.363L198.152 51.1641ZM139.82 63V59.4766H139.176V58.7734H139.82V58.3867C139.82 57.918 139.951 57.556 140.211 57.3008C140.471 57.0456 140.836 56.918 141.305 56.918C141.471 56.918 141.648 56.9414 141.836 56.9883L141.812 57.7305C141.708 57.7096 141.587 57.6992 141.449 57.6992C140.996 57.6992 140.77 57.9323 140.77 58.3984V58.7734H141.629V59.4766H140.77V63H139.82ZM142.145 60.8477C142.145 60.4336 142.227 60.0612 142.391 59.7305C142.555 59.3971 142.785 59.1419 143.082 58.9648C143.379 58.7852 143.72 58.6953 144.105 58.6953C144.676 58.6953 145.138 58.8789 145.492 59.2461C145.849 59.6133 146.042 60.1003 146.07 60.707L146.074 60.9297C146.074 61.3464 145.993 61.7188 145.832 62.0469C145.673 62.375 145.444 62.6289 145.145 62.8086C144.848 62.9883 144.504 63.0781 144.113 63.0781C143.517 63.0781 143.039 62.8802 142.68 62.4844C142.323 62.0859 142.145 61.556 142.145 60.8945V60.8477ZM143.094 60.9297C143.094 61.3646 143.184 61.7057 143.363 61.9531C143.543 62.1979 143.793 62.3203 144.113 62.3203C144.434 62.3203 144.682 62.1953 144.859 61.9453C145.039 61.6953 145.129 61.3294 145.129 60.8477C145.129 60.4206 145.036 60.082 144.852 59.832C144.669 59.582 144.421 59.457 144.105 59.457C143.796 59.457 143.549 59.5807 143.367 59.8281C143.185 60.0729 143.094 60.4401 143.094 60.9297ZM149.09 59.6406C148.965 59.6198 148.836 59.6094 148.703 59.6094C148.268 59.6094 147.975 59.776 147.824 60.1094V63H146.875V58.7734H147.781L147.805 59.2461C148.034 58.8789 148.352 58.6953 148.758 58.6953C148.893 58.6953 149.005 58.7135 149.094 58.75L149.09 59.6406ZM152.691 63H151.742V58.7734H152.691V63ZM151.684 57.6758C151.684 57.5299 151.729 57.4089 151.82 57.3125C151.914 57.2161 152.047 57.168 152.219 57.168C152.391 57.168 152.523 57.2161 152.617 57.3125C152.711 57.4089 152.758 57.5299 152.758 57.6758C152.758 57.819 152.711 57.9388 152.617 58.0352C152.523 58.1289 152.391 58.1758 152.219 58.1758C152.047 58.1758 151.914 58.1289 151.82 58.0352C151.729 57.9388 151.684 57.819 151.684 57.6758ZM153.863 64.2812L153.352 63.9766C153.503 63.7396 153.605 63.5326 153.66 63.3555C153.717 63.181 153.747 63.0026 153.75 62.8203V62.082H154.605L154.602 62.7656C154.599 63.0417 154.529 63.3177 154.391 63.5938C154.255 63.8724 154.079 64.1016 153.863 64.2812ZM156.977 61.7969L157.871 58.7734H158.852L157.387 63H156.562L155.086 58.7734H156.07L156.977 61.7969ZM162.449 63H161.5V58.7734H162.449V63ZM161.441 57.6758C161.441 57.5299 161.487 57.4089 161.578 57.3125C161.672 57.2161 161.805 57.168 161.977 57.168C162.148 57.168 162.281 57.2161 162.375 57.3125C162.469 57.4089 162.516 57.5299 162.516 57.6758C162.516 57.819 162.469 57.9388 162.375 58.0352C162.281 58.1289 162.148 58.1758 161.977 58.1758C161.805 58.1758 161.672 58.1289 161.578 58.0352C161.487 57.9388 161.441 57.819 161.441 57.6758ZM164.367 58.7734L164.395 59.2617C164.707 58.8841 165.117 58.6953 165.625 58.6953C166.505 58.6953 166.953 59.1992 166.969 60.207V63H166.02V60.2617C166.02 59.9935 165.961 59.7956 165.844 59.668C165.729 59.5378 165.54 59.4727 165.277 59.4727C164.895 59.4727 164.609 59.6458 164.422 59.9922V63H163.473V58.7734H164.367ZM171.793 63.0781C171.191 63.0781 170.703 62.8893 170.328 62.5117C169.956 62.1315 169.77 61.6263 169.77 60.9961V60.8789C169.77 60.457 169.85 60.0807 170.012 59.75C170.176 59.4167 170.405 59.1576 170.699 58.9727C170.993 58.7878 171.322 58.6953 171.684 58.6953C172.259 58.6953 172.703 58.8789 173.016 59.2461C173.331 59.6133 173.488 60.1328 173.488 60.8047V61.1875H170.727C170.755 61.5365 170.871 61.8125 171.074 62.0156C171.28 62.2188 171.538 62.3203 171.848 62.3203C172.283 62.3203 172.637 62.1445 172.91 61.793L173.422 62.2812C173.253 62.5339 173.026 62.7305 172.742 62.8711C172.461 63.0091 172.145 63.0781 171.793 63.0781ZM171.68 59.457C171.419 59.457 171.208 59.5482 171.047 59.7305C170.888 59.9128 170.786 60.1667 170.742 60.4922H172.551V60.4219C172.53 60.1042 172.445 59.8646 172.297 59.7031C172.148 59.5391 171.943 59.457 171.68 59.457ZM175.109 58.7734L175.137 59.2617C175.449 58.8841 175.859 58.6953 176.367 58.6953C177.247 58.6953 177.695 59.1992 177.711 60.207V63H176.762V60.2617C176.762 59.9935 176.703 59.7956 176.586 59.668C176.471 59.5378 176.283 59.4727 176.02 59.4727C175.637 59.4727 175.352 59.6458 175.164 59.9922V63H174.215V58.7734H175.109ZM181.242 62.5859C180.964 62.9141 180.568 63.0781 180.055 63.0781C179.596 63.0781 179.249 62.944 179.012 62.6758C178.777 62.4076 178.66 62.0195 178.66 61.5117V58.7734H179.609V61.5C179.609 62.0365 179.832 62.3047 180.277 62.3047C180.738 62.3047 181.049 62.1393 181.211 61.8086V58.7734H182.16V63H181.266L181.242 62.5859ZM184.02 58.7734L184.047 59.2148C184.344 58.8685 184.75 58.6953 185.266 58.6953C185.831 58.6953 186.217 58.9115 186.426 59.3438C186.733 58.9115 187.165 58.6953 187.723 58.6953C188.189 58.6953 188.535 58.8242 188.762 59.082C188.991 59.3398 189.108 59.7201 189.113 60.2227V63H188.164V60.25C188.164 59.9818 188.105 59.7852 187.988 59.6602C187.871 59.5352 187.677 59.4727 187.406 59.4727C187.19 59.4727 187.013 59.5312 186.875 59.6484C186.74 59.763 186.645 59.9141 186.59 60.1016L186.594 63H185.645V60.2188C185.632 59.7214 185.378 59.4727 184.883 59.4727C184.503 59.4727 184.233 59.6276 184.074 59.9375V63H183.125V58.7734H184.02ZM191.949 63.0781C191.348 63.0781 190.859 62.8893 190.484 62.5117C190.112 62.1315 189.926 61.6263 189.926 60.9961V60.8789C189.926 60.457 190.007 60.0807 190.168 59.75C190.332 59.4167 190.561 59.1576 190.855 58.9727C191.15 58.7878 191.478 58.6953 191.84 58.6953C192.415 58.6953 192.859 58.8789 193.172 59.2461C193.487 59.6133 193.645 60.1328 193.645 60.8047V61.1875H190.883C190.911 61.5365 191.027 61.8125 191.23 62.0156C191.436 62.2188 191.694 62.3203 192.004 62.3203C192.439 62.3203 192.793 62.1445 193.066 61.793L193.578 62.2812C193.409 62.5339 193.182 62.7305 192.898 62.8711C192.617 63.0091 192.301 63.0781 191.949 63.0781ZM191.836 59.457C191.576 59.457 191.365 59.5482 191.203 59.7305C191.044 59.9128 190.943 60.1667 190.898 60.4922H192.707V60.4219C192.686 60.1042 192.602 59.8646 192.453 59.7031C192.305 59.5391 192.099 59.457 191.836 59.457ZM196.598 59.6406C196.473 59.6198 196.344 59.6094 196.211 59.6094C195.776 59.6094 195.483 59.776 195.332 60.1094V63H194.383V58.7734H195.289L195.312 59.2461C195.542 58.8789 195.859 58.6953 196.266 58.6953C196.401 58.6953 196.513 58.7135 196.602 58.75L196.598 59.6406ZM199.605 63C199.564 62.9193 199.527 62.7878 199.496 62.6055C199.194 62.9206 198.824 63.0781 198.387 63.0781C197.962 63.0781 197.616 62.957 197.348 62.7148C197.079 62.4727 196.945 62.1732 196.945 61.8164C196.945 61.3659 197.112 61.0208 197.445 60.7812C197.781 60.5391 198.26 60.418 198.883 60.418H199.465V60.1406C199.465 59.9219 199.404 59.7474 199.281 59.6172C199.159 59.4844 198.973 59.418 198.723 59.418C198.507 59.418 198.329 59.4727 198.191 59.582C198.053 59.6888 197.984 59.8255 197.984 59.9922H197.035C197.035 59.7604 197.112 59.5443 197.266 59.3438C197.419 59.1406 197.628 58.9818 197.891 58.8672C198.156 58.7526 198.452 58.6953 198.777 58.6953C199.272 58.6953 199.667 58.8203 199.961 59.0703C200.255 59.3177 200.406 59.6667 200.414 60.1172V62.0234C200.414 62.4036 200.467 62.707 200.574 62.9336V63H199.605ZM198.562 62.3164C198.75 62.3164 198.926 62.2708 199.09 62.1797C199.257 62.0885 199.382 61.9661 199.465 61.8125V61.0156H198.953C198.602 61.0156 198.337 61.0768 198.16 61.1992C197.983 61.3216 197.895 61.4948 197.895 61.7188C197.895 61.901 197.954 62.0469 198.074 62.1562C198.197 62.263 198.359 62.3164 198.562 62.3164ZM202.598 57.7461V58.7734H203.344V59.4766H202.598V61.8359C202.598 61.9974 202.629 62.1146 202.691 62.1875C202.757 62.2578 202.871 62.293 203.035 62.293C203.145 62.293 203.255 62.2799 203.367 62.2539V62.9883C203.151 63.0482 202.943 63.0781 202.742 63.0781C202.013 63.0781 201.648 62.6758 201.648 61.8711V59.4766H200.953V58.7734H201.648V57.7461H202.598ZM205.934 63.0781C205.332 63.0781 204.844 62.8893 204.469 62.5117C204.096 62.1315 203.91 61.6263 203.91 60.9961V60.8789C203.91 60.457 203.991 60.0807 204.152 59.75C204.316 59.4167 204.546 59.1576 204.84 58.9727C205.134 58.7878 205.462 58.6953 205.824 58.6953C206.4 58.6953 206.844 58.8789 207.156 59.2461C207.471 59.6133 207.629 60.1328 207.629 60.8047V61.1875H204.867C204.896 61.5365 205.012 61.8125 205.215 62.0156C205.421 62.2188 205.678 62.3203 205.988 62.3203C206.423 62.3203 206.777 62.1445 207.051 61.793L207.562 62.2812C207.393 62.5339 207.167 62.7305 206.883 62.8711C206.602 63.0091 206.285 63.0781 205.934 63.0781ZM205.82 59.457C205.56 59.457 205.349 59.5482 205.188 59.7305C205.029 59.9128 204.927 60.1667 204.883 60.4922H206.691V60.4219C206.671 60.1042 206.586 59.8646 206.438 59.7031C206.289 59.5391 206.083 59.457 205.82 59.457ZM148.465 72H147.516V67.7734H148.465V72ZM147.457 66.6758C147.457 66.5299 147.503 66.4089 147.594 66.3125C147.688 66.2161 147.82 66.168 147.992 66.168C148.164 66.168 148.297 66.2161 148.391 66.3125C148.484 66.4089 148.531 66.5299 148.531 66.6758C148.531 66.819 148.484 66.9388 148.391 67.0352C148.297 67.1289 148.164 67.1758 147.992 67.1758C147.82 67.1758 147.688 67.1289 147.594 67.0352C147.503 66.9388 147.457 66.819 147.457 66.6758ZM149.836 72V68.4766H149.191V67.7734H149.836V67.3867C149.836 66.918 149.966 66.556 150.227 66.3008C150.487 66.0456 150.852 65.918 151.32 65.918C151.487 65.918 151.664 65.9414 151.852 65.9883L151.828 66.7305C151.724 66.7096 151.603 66.6992 151.465 66.6992C151.012 66.6992 150.785 66.9323 150.785 67.3984V67.7734H151.645V68.4766H150.785V72H149.836ZM155.82 70.7969L156.715 67.7734H157.695L156.23 72H155.406L153.93 67.7734H154.914L155.82 70.7969ZM161.293 72H160.344V67.7734H161.293V72ZM160.285 66.6758C160.285 66.5299 160.331 66.4089 160.422 66.3125C160.516 66.2161 160.648 66.168 160.82 66.168C160.992 66.168 161.125 66.2161 161.219 66.3125C161.312 66.4089 161.359 66.5299 161.359 66.6758C161.359 66.819 161.312 66.9388 161.219 67.0352C161.125 67.1289 160.992 67.1758 160.82 67.1758C160.648 67.1758 160.516 67.1289 160.422 67.0352C160.331 66.9388 160.285 66.819 160.285 66.6758ZM163.211 67.7734L163.238 68.2617C163.551 67.8841 163.961 67.6953 164.469 67.6953C165.349 67.6953 165.797 68.1992 165.812 69.207V72H164.863V69.2617C164.863 68.9935 164.805 68.7956 164.688 68.668C164.573 68.5378 164.384 68.4727 164.121 68.4727C163.738 68.4727 163.453 68.6458 163.266 68.9922V72H162.316V67.7734H163.211ZM168.598 69.8477C168.598 69.4336 168.68 69.0612 168.844 68.7305C169.008 68.3971 169.238 68.1419 169.535 67.9648C169.832 67.7852 170.173 67.6953 170.559 67.6953C171.129 67.6953 171.591 67.8789 171.945 68.2461C172.302 68.6133 172.495 69.1003 172.523 69.707L172.527 69.9297C172.527 70.3464 172.447 70.7188 172.285 71.0469C172.126 71.375 171.897 71.6289 171.598 71.8086C171.301 71.9883 170.957 72.0781 170.566 72.0781C169.97 72.0781 169.492 71.8802 169.133 71.4844C168.776 71.0859 168.598 70.556 168.598 69.8945V69.8477ZM169.547 69.9297C169.547 70.3646 169.637 70.7057 169.816 70.9531C169.996 71.1979 170.246 71.3203 170.566 71.3203C170.887 71.3203 171.135 71.1953 171.312 70.9453C171.492 70.6953 171.582 70.3294 171.582 69.8477C171.582 69.4206 171.49 69.082 171.305 68.832C171.122 68.582 170.874 68.457 170.559 68.457C170.249 68.457 170.003 68.5807 169.82 68.8281C169.638 69.0729 169.547 69.4401 169.547 69.9297ZM174.211 67.7734L174.238 68.2617C174.551 67.8841 174.961 67.6953 175.469 67.6953C176.349 67.6953 176.797 68.1992 176.812 69.207V72H175.863V69.2617C175.863 68.9935 175.805 68.7956 175.688 68.668C175.573 68.5378 175.384 68.4727 175.121 68.4727C174.738 68.4727 174.453 68.6458 174.266 68.9922V72H173.316V67.7734H174.211ZM179.645 72.0781C179.043 72.0781 178.555 71.8893 178.18 71.5117C177.807 71.1315 177.621 70.6263 177.621 69.9961V69.8789C177.621 69.457 177.702 69.0807 177.863 68.75C178.027 68.4167 178.257 68.1576 178.551 67.9727C178.845 67.7878 179.173 67.6953 179.535 67.6953C180.111 67.6953 180.555 67.8789 180.867 68.2461C181.182 68.6133 181.34 69.1328 181.34 69.8047V70.1875H178.578C178.607 70.5365 178.723 70.8125 178.926 71.0156C179.132 71.2188 179.389 71.3203 179.699 71.3203C180.134 71.3203 180.488 71.1445 180.762 70.793L181.273 71.2812C181.104 71.5339 180.878 71.7305 180.594 71.8711C180.312 72.0091 179.996 72.0781 179.645 72.0781ZM179.531 68.457C179.271 68.457 179.06 68.5482 178.898 68.7305C178.74 68.9128 178.638 69.1667 178.594 69.4922H180.402V69.4219C180.382 69.1042 180.297 68.8646 180.148 68.7031C180 68.5391 179.794 68.457 179.531 68.457ZM185.188 72.7461H181.605V72H185.188V72.7461ZM187.426 71.3203C187.663 71.3203 187.859 71.2513 188.016 71.1133C188.172 70.9753 188.255 70.8047 188.266 70.6016H189.16C189.15 70.8646 189.068 71.1107 188.914 71.3398C188.76 71.5664 188.552 71.7461 188.289 71.8789C188.026 72.0117 187.742 72.0781 187.438 72.0781C186.846 72.0781 186.378 71.8867 186.031 71.5039C185.685 71.1211 185.512 70.5924 185.512 69.918V69.8203C185.512 69.1771 185.684 68.6628 186.027 68.2773C186.371 67.8893 186.84 67.6953 187.434 67.6953C187.936 67.6953 188.345 67.8424 188.66 68.1367C188.978 68.4284 189.145 68.8125 189.16 69.2891H188.266C188.255 69.0469 188.172 68.8477 188.016 68.6914C187.862 68.5352 187.665 68.457 187.426 68.457C187.118 68.457 186.882 68.569 186.715 68.793C186.548 69.0143 186.464 69.3516 186.461 69.8047V69.957C186.461 70.4154 186.543 70.7578 186.707 70.9844C186.874 71.2083 187.113 71.3203 187.426 71.3203ZM191.738 72.0781C191.137 72.0781 190.648 71.8893 190.273 71.5117C189.901 71.1315 189.715 70.6263 189.715 69.9961V69.8789C189.715 69.457 189.796 69.0807 189.957 68.75C190.121 68.4167 190.35 68.1576 190.645 67.9727C190.939 67.7878 191.267 67.6953 191.629 67.6953C192.204 67.6953 192.648 67.8789 192.961 68.2461C193.276 68.6133 193.434 69.1328 193.434 69.8047V70.1875H190.672C190.701 70.5365 190.816 70.8125 191.02 71.0156C191.225 71.2188 191.483 71.3203 191.793 71.3203C192.228 71.3203 192.582 71.1445 192.855 70.793L193.367 71.2812C193.198 71.5339 192.971 71.7305 192.688 71.8711C192.406 72.0091 192.09 72.0781 191.738 72.0781ZM191.625 68.457C191.365 68.457 191.154 68.5482 190.992 68.7305C190.833 68.9128 190.732 69.1667 190.688 69.4922H192.496V69.4219C192.475 69.1042 192.391 68.8646 192.242 68.7031C192.094 68.5391 191.888 68.457 191.625 68.457ZM195.184 72H194.234V66H195.184V72ZM197.23 72H196.281V66H197.23V72ZM198.84 71C199.017 71 199.154 71.0508 199.25 71.1523C199.346 71.2513 199.395 71.3763 199.395 71.5273C199.395 71.6758 199.346 71.7995 199.25 71.8984C199.154 71.9948 199.017 72.043 198.84 72.043C198.671 72.043 198.536 71.9948 198.438 71.8984C198.339 71.8021 198.289 71.6784 198.289 71.5273C198.289 71.3763 198.337 71.2513 198.434 71.1523C198.53 71.0508 198.665 71 198.84 71ZM198.84 67.6836C199.017 67.6836 199.154 67.7344 199.25 67.8359C199.346 67.9349 199.395 68.0599 199.395 68.2109C199.395 68.3594 199.346 68.4831 199.25 68.582C199.154 68.6784 199.017 68.7266 198.84 68.7266C198.671 68.7266 198.536 68.6784 198.438 68.582C198.339 68.4857 198.289 68.362 198.289 68.2109C198.289 68.0599 198.337 67.9349 198.434 67.8359C198.53 67.7344 198.665 67.6836 198.84 67.6836ZM156.305 76.7734L156.332 77.2617C156.645 76.8841 157.055 76.6953 157.562 76.6953C158.443 76.6953 158.891 77.1992 158.906 78.207V81H157.957V78.2617C157.957 77.9935 157.898 77.7956 157.781 77.668C157.667 77.5378 157.478 77.4727 157.215 77.4727C156.832 77.4727 156.547 77.6458 156.359 77.9922V81H155.41V76.7734H156.305ZM161.5 75.1875H160.855V81.5273H161.5V82.2656H159.906V74.4453H161.5V75.1875ZM163.082 81H162.133V76.7734H163.082V81ZM162.074 75.6758C162.074 75.5299 162.12 75.4089 162.211 75.3125C162.305 75.2161 162.438 75.168 162.609 75.168C162.781 75.168 162.914 75.2161 163.008 75.3125C163.102 75.4089 163.148 75.5299 163.148 75.6758C163.148 75.819 163.102 75.9388 163.008 76.0352C162.914 76.1289 162.781 76.1758 162.609 76.1758C162.438 76.1758 162.305 76.1289 162.211 76.0352C162.12 75.9388 162.074 75.819 162.074 75.6758ZM164.02 76.4062C164.02 76.0625 164.13 75.7812 164.352 75.5625C164.573 75.3411 164.863 75.2305 165.223 75.2305C165.587 75.2305 165.879 75.3411 166.098 75.5625C166.319 75.7812 166.43 76.069 166.43 76.4258V76.707C166.43 77.0482 166.319 77.3281 166.098 77.5469C165.879 77.7656 165.59 77.875 165.23 77.875C164.879 77.875 164.589 77.7682 164.359 77.5547C164.133 77.3385 164.02 77.0482 164.02 76.6836V76.4062ZM164.684 76.707C164.684 76.8867 164.733 77.0326 164.832 77.1445C164.934 77.2539 165.066 77.3086 165.23 77.3086C165.392 77.3086 165.522 77.2539 165.621 77.1445C165.72 77.0326 165.77 76.8815 165.77 76.6914V76.4062C165.77 76.2266 165.719 76.0807 165.617 75.9688C165.518 75.8568 165.387 75.8008 165.223 75.8008C165.059 75.8008 164.927 75.8581 164.828 75.9727C164.732 76.0846 164.684 76.2331 164.684 76.418V76.707ZM166.754 79.6055C166.754 79.2565 166.867 78.974 167.094 78.7578C167.32 78.5417 167.609 78.4336 167.961 78.4336C168.315 78.4336 168.604 78.5417 168.828 78.7578C169.055 78.974 169.168 79.2656 169.168 79.6328V79.9102C169.168 80.2487 169.059 80.5286 168.84 80.75C168.624 80.9688 168.333 81.0781 167.969 81.0781C167.604 81.0781 167.31 80.9701 167.086 80.7539C166.865 80.5352 166.754 80.2474 166.754 79.8906V79.6055ZM167.418 79.9102C167.418 80.0872 167.469 80.2331 167.57 80.3477C167.674 80.4596 167.807 80.5156 167.969 80.5156C168.135 80.5156 168.266 80.4622 168.359 80.3555C168.456 80.2461 168.504 80.0938 168.504 79.8984V79.6055C168.504 79.4232 168.453 79.2773 168.352 79.168C168.25 79.0586 168.12 79.0039 167.961 79.0039C167.799 79.0039 167.668 79.0586 167.566 79.168C167.467 79.2773 167.418 79.4284 167.418 79.6211V79.9102ZM165.426 80.5742L164.938 80.293L167.715 75.8477L168.203 76.1289L165.426 80.5742ZM173.145 78.9727H173.852V79.7344H173.145V81H172.195V79.7344H169.738L169.711 79.1562L172.164 75.3125H173.145V78.9727ZM170.707 78.9727H172.195V76.5977L172.125 76.7227L170.707 78.9727ZM174.102 74.4453H175.703V82.2656H174.102V81.5273H174.754V75.1875H174.102V74.4453ZM178.359 75.1875H177.715V81.5273H178.359V82.2656H176.766V74.4453H178.359V75.1875ZM179.941 81H178.992V76.7734H179.941V81ZM178.934 75.6758C178.934 75.5299 178.979 75.4089 179.07 75.3125C179.164 75.2161 179.297 75.168 179.469 75.168C179.641 75.168 179.773 75.2161 179.867 75.3125C179.961 75.4089 180.008 75.5299 180.008 75.6758C180.008 75.819 179.961 75.9388 179.867 76.0352C179.773 76.1289 179.641 76.1758 179.469 76.1758C179.297 76.1758 179.164 76.1289 179.07 76.0352C178.979 75.9388 178.934 75.819 178.934 75.6758ZM181.246 81.4883H180.5L182.738 75.3125H183.484L181.246 81.4883ZM183.441 81.4883H182.695L184.934 75.3125H185.68L183.441 81.4883ZM189.488 78.9727H190.195V79.7344H189.488V81H188.539V79.7344H186.082L186.055 79.1562L188.508 75.3125H189.488V78.9727ZM187.051 78.9727H188.539V76.5977L188.469 76.7227L187.051 78.9727ZM190.445 74.4453H192.047V82.2656H190.445V81.5273H191.098V75.1875H190.445V74.4453ZM196.527 77.9531H193.16V77.1641H196.527V77.9531ZM196.527 79.6094H193.16V78.8242H196.527V79.6094ZM200.066 81H199.121V76.4336L197.727 76.9102V76.1094L199.945 75.293H200.066V81ZM139.309 87.8555C139.309 87.2044 139.46 86.6823 139.762 86.2891C140.064 85.8932 140.469 85.6953 140.977 85.6953C141.424 85.6953 141.786 85.8516 142.062 86.1641V84H143.012V90H142.152L142.105 89.5625C141.822 89.9062 141.443 90.0781 140.969 90.0781C140.474 90.0781 140.073 89.8789 139.766 89.4805C139.461 89.082 139.309 88.5404 139.309 87.8555ZM140.258 87.9375C140.258 88.3672 140.34 88.7031 140.504 88.9453C140.671 89.1849 140.906 89.3047 141.211 89.3047C141.599 89.3047 141.883 89.1315 142.062 88.7852V86.9805C141.888 86.6419 141.607 86.4727 141.219 86.4727C140.911 86.4727 140.674 86.5951 140.508 86.8398C140.341 87.082 140.258 87.4479 140.258 87.9375ZM145.863 90.0781C145.262 90.0781 144.773 89.8893 144.398 89.5117C144.026 89.1315 143.84 88.6263 143.84 87.9961V87.8789C143.84 87.457 143.921 87.0807 144.082 86.75C144.246 86.4167 144.475 86.1576 144.77 85.9727C145.064 85.7878 145.392 85.6953 145.754 85.6953C146.329 85.6953 146.773 85.8789 147.086 86.2461C147.401 86.6133 147.559 87.1328 147.559 87.8047V88.1875H144.797C144.826 88.5365 144.941 88.8125 145.145 89.0156C145.35 89.2188 145.608 89.3203 145.918 89.3203C146.353 89.3203 146.707 89.1445 146.98 88.793L147.492 89.2812C147.323 89.5339 147.096 89.7305 146.812 89.8711C146.531 90.0091 146.215 90.0781 145.863 90.0781ZM145.75 86.457C145.49 86.457 145.279 86.5482 145.117 86.7305C144.958 86.9128 144.857 87.1667 144.812 87.4922H146.621V87.4219C146.6 87.1042 146.516 86.8646 146.367 86.7031C146.219 86.5391 146.013 86.457 145.75 86.457ZM148.633 90V86.4766H147.988V85.7734H148.633V85.3867C148.633 84.918 148.763 84.556 149.023 84.3008C149.284 84.0456 149.648 83.918 150.117 83.918C150.284 83.918 150.461 83.9414 150.648 83.9883L150.625 84.7305C150.521 84.7096 150.4 84.6992 150.262 84.6992C149.809 84.6992 149.582 84.9323 149.582 85.3984V85.7734H150.441V86.4766H149.582V90H148.633ZM155.34 86.6406C155.215 86.6198 155.086 86.6094 154.953 86.6094C154.518 86.6094 154.225 86.776 154.074 87.1094V90H153.125V85.7734H154.031L154.055 86.2461C154.284 85.8789 154.602 85.6953 155.008 85.6953C155.143 85.6953 155.255 85.7135 155.344 85.75L155.34 86.6406ZM155.621 87.8477C155.621 87.4336 155.703 87.0612 155.867 86.7305C156.031 86.3971 156.262 86.1419 156.559 85.9648C156.855 85.7852 157.197 85.6953 157.582 85.6953C158.152 85.6953 158.615 85.8789 158.969 86.2461C159.326 86.6133 159.518 87.1003 159.547 87.707L159.551 87.9297C159.551 88.3464 159.47 88.7188 159.309 89.0469C159.15 89.375 158.921 89.6289 158.621 89.8086C158.324 89.9883 157.98 90.0781 157.59 90.0781C156.993 90.0781 156.516 89.8802 156.156 89.4844C155.799 89.0859 155.621 88.556 155.621 87.8945V87.8477ZM156.57 87.9297C156.57 88.3646 156.66 88.7057 156.84 88.9531C157.02 89.1979 157.27 89.3203 157.59 89.3203C157.91 89.3203 158.159 89.1953 158.336 88.9453C158.516 88.6953 158.605 88.3294 158.605 87.8477C158.605 87.4206 158.513 87.082 158.328 86.832C158.146 86.582 157.897 86.457 157.582 86.457C157.272 86.457 157.026 86.5807 156.844 86.8281C156.661 87.0729 156.57 87.4401 156.57 87.9297ZM164.066 88.6914L164.738 85.7734H165.664L164.512 90H163.73L162.824 87.0977L161.934 90H161.152L159.996 85.7734H160.922L161.605 88.6602L162.473 85.7734H163.188L164.066 88.6914ZM169.406 90.7461H165.824V90H169.406V90.7461ZM171.098 84.7461V85.7734H171.844V86.4766H171.098V88.8359C171.098 88.9974 171.129 89.1146 171.191 89.1875C171.257 89.2578 171.371 89.293 171.535 89.293C171.645 89.293 171.755 89.2799 171.867 89.2539V89.9883C171.651 90.0482 171.443 90.0781 171.242 90.0781C170.513 90.0781 170.148 89.6758 170.148 88.8711V86.4766H169.453V85.7734H170.148V84.7461H171.098ZM172.277 87.8477C172.277 87.4336 172.359 87.0612 172.523 86.7305C172.688 86.3971 172.918 86.1419 173.215 85.9648C173.512 85.7852 173.853 85.6953 174.238 85.6953C174.809 85.6953 175.271 85.8789 175.625 86.2461C175.982 86.6133 176.174 87.1003 176.203 87.707L176.207 87.9297C176.207 88.3464 176.126 88.7188 175.965 89.0469C175.806 89.375 175.577 89.6289 175.277 89.8086C174.98 89.9883 174.637 90.0781 174.246 90.0781C173.65 90.0781 173.172 89.8802 172.812 89.4844C172.456 89.0859 172.277 88.556 172.277 87.8945V87.8477ZM173.227 87.9297C173.227 88.3646 173.316 88.7057 173.496 88.9531C173.676 89.1979 173.926 89.3203 174.246 89.3203C174.566 89.3203 174.815 89.1953 174.992 88.9453C175.172 88.6953 175.262 88.3294 175.262 87.8477C175.262 87.4206 175.169 87.082 174.984 86.832C174.802 86.582 174.553 86.457 174.238 86.457C173.928 86.457 173.682 86.5807 173.5 86.8281C173.318 87.0729 173.227 87.4401 173.227 87.9297ZM180.117 90.7461H176.535V90H180.117V90.7461ZM182.355 89.3203C182.592 89.3203 182.789 89.2513 182.945 89.1133C183.102 88.9753 183.185 88.8047 183.195 88.6016H184.09C184.079 88.8646 183.997 89.1107 183.844 89.3398C183.69 89.5664 183.482 89.7461 183.219 89.8789C182.956 90.0117 182.672 90.0781 182.367 90.0781C181.776 90.0781 181.307 89.8867 180.961 89.5039C180.615 89.1211 180.441 88.5924 180.441 87.918V87.8203C180.441 87.1771 180.613 86.6628 180.957 86.2773C181.301 85.8893 181.77 85.6953 182.363 85.6953C182.866 85.6953 183.275 85.8424 183.59 86.1367C183.908 86.4284 184.074 86.8125 184.09 87.2891H183.195C183.185 87.0469 183.102 86.8477 182.945 86.6914C182.792 86.5352 182.595 86.457 182.355 86.457C182.048 86.457 181.811 86.569 181.645 86.793C181.478 87.0143 181.393 87.3516 181.391 87.8047V87.957C181.391 88.4154 181.473 88.7578 181.637 88.9844C181.803 89.2083 182.043 89.3203 182.355 89.3203ZM184.629 87.8477C184.629 87.4336 184.711 87.0612 184.875 86.7305C185.039 86.3971 185.27 86.1419 185.566 85.9648C185.863 85.7852 186.204 85.6953 186.59 85.6953C187.16 85.6953 187.622 85.8789 187.977 86.2461C188.333 86.6133 188.526 87.1003 188.555 87.707L188.559 87.9297C188.559 88.3464 188.478 88.7188 188.316 89.0469C188.158 89.375 187.928 89.6289 187.629 89.8086C187.332 89.9883 186.988 90.0781 186.598 90.0781C186.001 90.0781 185.523 89.8802 185.164 89.4844C184.807 89.0859 184.629 88.556 184.629 87.8945V87.8477ZM185.578 87.9297C185.578 88.3646 185.668 88.7057 185.848 88.9531C186.027 89.1979 186.277 89.3203 186.598 89.3203C186.918 89.3203 187.167 89.1953 187.344 88.9453C187.523 88.6953 187.613 88.3294 187.613 87.8477C187.613 87.4206 187.521 87.082 187.336 86.832C187.154 86.582 186.905 86.457 186.59 86.457C186.28 86.457 186.034 86.5807 185.852 86.8281C185.669 87.0729 185.578 87.4401 185.578 87.9297ZM190.371 90H189.422V84H190.371V90ZM195.172 90H191.348V89.3477L193.242 87.2812C193.516 86.9766 193.71 86.7227 193.824 86.5195C193.941 86.3138 194 86.1081 194 85.9023C194 85.6315 193.923 85.4128 193.77 85.2461C193.618 85.0794 193.414 84.9961 193.156 84.9961C192.849 84.9961 192.611 85.0898 192.441 85.2773C192.272 85.4648 192.188 85.7214 192.188 86.0469H191.238C191.238 85.7005 191.316 85.3893 191.473 85.1133C191.632 84.8346 191.857 84.6185 192.148 84.4648C192.443 84.3112 192.781 84.2344 193.164 84.2344C193.716 84.2344 194.151 84.3737 194.469 84.6523C194.789 84.9284 194.949 85.3112 194.949 85.8008C194.949 86.0846 194.868 86.3828 194.707 86.6953C194.548 87.0052 194.286 87.3581 193.922 87.7539L192.531 89.2422H195.172V90ZM195.969 87.6875C195.969 87.0859 196.049 86.5156 196.211 85.9766C196.372 85.4349 196.609 84.9518 196.922 84.5273C197.234 84.1003 197.565 83.8008 197.914 83.6289L198.102 84.1836C197.734 84.4622 197.436 84.888 197.207 85.4609C196.98 86.0312 196.857 86.6849 196.836 87.4219L196.832 87.7578C196.832 88.5469 196.943 89.2513 197.164 89.8711C197.388 90.4883 197.701 90.9583 198.102 91.2812L197.914 91.8086C197.565 91.6367 197.233 91.3359 196.918 90.9062C196.605 90.4792 196.368 89.9974 196.207 89.4609C196.048 88.9219 195.969 88.3307 195.969 87.6875ZM199.625 85.7734L199.652 86.2617C199.965 85.8841 200.375 85.6953 200.883 85.6953C201.763 85.6953 202.211 86.1992 202.227 87.207V90H201.277V87.2617C201.277 86.9935 201.219 86.7956 201.102 86.668C200.987 86.5378 200.798 86.4727 200.535 86.4727C200.152 86.4727 199.867 86.6458 199.68 86.9922V90H198.73V85.7734H199.625ZM205.027 87.75C205.027 88.3281 204.948 88.8867 204.789 89.4258C204.63 89.9622 204.389 90.4505 204.066 90.8906C203.743 91.3333 203.406 91.6393 203.055 91.8086L202.867 91.2812C203.258 90.9792 203.566 90.5182 203.793 89.8984C204.022 89.276 204.137 88.5664 204.137 87.7695V87.6797C204.137 86.9557 204.038 86.2969 203.84 85.7031C203.642 85.1068 203.358 84.6289 202.988 84.2695L202.867 84.1602L203.055 83.6289C203.388 83.7904 203.711 84.0768 204.023 84.4883C204.336 84.8997 204.576 85.3607 204.742 85.8711C204.909 86.3789 205.003 86.9036 205.023 87.4453L205.027 87.75ZM206.59 89C206.767 89 206.904 89.0508 207 89.1523C207.096 89.2513 207.145 89.3763 207.145 89.5273C207.145 89.6758 207.096 89.7995 207 89.8984C206.904 89.9948 206.767 90.043 206.59 90.043C206.421 90.043 206.286 89.9948 206.188 89.8984C206.089 89.8021 206.039 89.6784 206.039 89.5273C206.039 89.3763 206.087 89.2513 206.184 89.1523C206.28 89.0508 206.415 89 206.59 89ZM206.59 85.6836C206.767 85.6836 206.904 85.7344 207 85.8359C207.096 85.9349 207.145 86.0599 207.145 86.2109C207.145 86.3594 207.096 86.4831 207 86.582C206.904 86.6784 206.767 86.7266 206.59 86.7266C206.421 86.7266 206.286 86.6784 206.188 86.582C206.089 86.4857 206.039 86.362 206.039 86.2109C206.039 86.0599 206.087 85.9349 206.184 85.8359C206.28 85.7344 206.415 85.6836 206.59 85.6836ZM154.441 99H153.492V93H154.441V99ZM156.488 99H155.539V94.7734H156.488V99ZM155.48 93.6758C155.48 93.5299 155.526 93.4089 155.617 93.3125C155.711 93.2161 155.844 93.168 156.016 93.168C156.188 93.168 156.32 93.2161 156.414 93.3125C156.508 93.4089 156.555 93.5299 156.555 93.6758C156.555 93.819 156.508 93.9388 156.414 94.0352C156.32 94.1289 156.188 94.1758 156.016 94.1758C155.844 94.1758 155.711 94.1289 155.617 94.0352C155.526 93.9388 155.48 93.819 155.48 93.6758ZM159.895 97.8516C159.895 97.6823 159.824 97.5534 159.684 97.4648C159.546 97.3763 159.315 97.2982 158.992 97.2305C158.669 97.1628 158.4 97.0768 158.184 96.9727C157.71 96.7435 157.473 96.4115 157.473 95.9766C157.473 95.612 157.626 95.3073 157.934 95.0625C158.241 94.8177 158.632 94.6953 159.105 94.6953C159.611 94.6953 160.018 94.8203 160.328 95.0703C160.641 95.3203 160.797 95.6445 160.797 96.043H159.848C159.848 95.8607 159.78 95.7096 159.645 95.5898C159.509 95.4674 159.329 95.4062 159.105 95.4062C158.897 95.4062 158.727 95.4544 158.594 95.5508C158.464 95.6471 158.398 95.776 158.398 95.9375C158.398 96.0833 158.46 96.1966 158.582 96.2773C158.704 96.3581 158.952 96.4401 159.324 96.5234C159.697 96.6042 159.988 96.7018 160.199 96.8164C160.413 96.9284 160.57 97.0638 160.672 97.2227C160.776 97.3815 160.828 97.5742 160.828 97.8008C160.828 98.181 160.671 98.4896 160.355 98.7266C160.04 98.9609 159.628 99.0781 159.117 99.0781C158.771 99.0781 158.462 99.0156 158.191 98.8906C157.921 98.7656 157.71 98.5938 157.559 98.375C157.408 98.1562 157.332 97.9206 157.332 97.668H158.254C158.267 97.8919 158.352 98.0651 158.508 98.1875C158.664 98.3073 158.871 98.3672 159.129 98.3672C159.379 98.3672 159.569 98.3203 159.699 98.2266C159.829 98.1302 159.895 98.0052 159.895 97.8516ZM162.848 93.7461V94.7734H163.594V95.4766H162.848V97.8359C162.848 97.9974 162.879 98.1146 162.941 98.1875C163.007 98.2578 163.121 98.293 163.285 98.293C163.395 98.293 163.505 98.2799 163.617 98.2539V98.9883C163.401 99.0482 163.193 99.0781 162.992 99.0781C162.263 99.0781 161.898 98.6758 161.898 97.8711V95.4766H161.203V94.7734H161.898V93.7461H162.848ZM169.762 95.9531H166.395V95.1641H169.762V95.9531ZM169.762 97.6094H166.395V96.8242H169.762V97.6094ZM174.406 93.1875H173.762V99.5273H174.406V100.266H172.812V92.4453H174.406V93.1875ZM176.602 93.1875H175.957V99.5273H176.602V100.266H175.008V92.4453H176.602V93.1875ZM180.82 96.6055C180.82 97.4232 180.667 98.0404 180.359 98.457C180.055 98.8711 179.59 99.0781 178.965 99.0781C178.35 99.0781 177.887 98.8763 177.574 98.4727C177.264 98.0664 177.105 97.4661 177.098 96.6719V95.6875C177.098 94.8698 177.25 94.2565 177.555 93.8477C177.862 93.4388 178.329 93.2344 178.957 93.2344C179.579 93.2344 180.043 93.4336 180.348 93.832C180.655 94.2305 180.812 94.8268 180.82 95.6211V96.6055ZM179.871 95.543C179.871 95.0091 179.798 94.6185 179.652 94.3711C179.507 94.1211 179.275 93.9961 178.957 93.9961C178.647 93.9961 178.419 94.1146 178.273 94.3516C178.128 94.5859 178.051 94.9531 178.043 95.4531V96.7422C178.043 97.2734 178.117 97.6693 178.266 97.9297C178.414 98.1901 178.647 98.3203 178.965 98.3203C179.27 98.3203 179.495 98.2005 179.641 97.9609C179.786 97.7188 179.863 97.3411 179.871 96.8281V95.543ZM181.855 100.281L181.344 99.9766C181.495 99.7396 181.598 99.5326 181.652 99.3555C181.71 99.181 181.74 99.0026 181.742 98.8203V98.082H182.598L182.594 98.7656C182.591 99.0417 182.521 99.3177 182.383 99.5938C182.247 99.8724 182.072 100.102 181.855 100.281ZM187.125 96.6055C187.125 97.4232 186.971 98.0404 186.664 98.457C186.359 98.8711 185.895 99.0781 185.27 99.0781C184.655 99.0781 184.191 98.8763 183.879 98.4727C183.569 98.0664 183.41 97.4661 183.402 96.6719V95.6875C183.402 94.8698 183.555 94.2565 183.859 93.8477C184.167 93.4388 184.634 93.2344 185.262 93.2344C185.884 93.2344 186.348 93.4336 186.652 93.832C186.96 94.2305 187.117 94.8268 187.125 95.6211V96.6055ZM186.176 95.543C186.176 95.0091 186.103 94.6185 185.957 94.3711C185.811 94.1211 185.579 93.9961 185.262 93.9961C184.952 93.9961 184.724 94.1146 184.578 94.3516C184.432 94.5859 184.355 94.9531 184.348 95.4531V96.7422C184.348 97.2734 184.422 97.6693 184.57 97.9297C184.719 98.1901 184.952 98.3203 185.27 98.3203C185.574 98.3203 185.799 98.2005 185.945 97.9609C186.091 97.7188 186.168 97.3411 186.176 96.8281V95.543ZM188.16 100.281L187.648 99.9766C187.799 99.7396 187.902 99.5326 187.957 99.3555C188.014 99.181 188.044 99.0026 188.047 98.8203V98.082H188.902L188.898 98.7656C188.896 99.0417 188.826 99.3177 188.688 99.5938C188.552 99.8724 188.376 100.102 188.16 100.281ZM193.43 96.6055C193.43 97.4232 193.276 98.0404 192.969 98.457C192.664 98.8711 192.199 99.0781 191.574 99.0781C190.96 99.0781 190.496 98.8763 190.184 98.4727C189.874 98.0664 189.715 97.4661 189.707 96.6719V95.6875C189.707 94.8698 189.859 94.2565 190.164 93.8477C190.471 93.4388 190.939 93.2344 191.566 93.2344C192.189 93.2344 192.652 93.4336 192.957 93.832C193.264 94.2305 193.422 94.8268 193.43 95.6211V96.6055ZM192.48 95.543C192.48 95.0091 192.408 94.6185 192.262 94.3711C192.116 94.1211 191.884 93.9961 191.566 93.9961C191.257 93.9961 191.029 94.1146 190.883 94.3516C190.737 94.5859 190.66 94.9531 190.652 95.4531V96.7422C190.652 97.2734 190.727 97.6693 190.875 97.9297C191.023 98.1901 191.257 98.3203 191.574 98.3203C191.879 98.3203 192.104 98.2005 192.25 97.9609C192.396 97.7188 192.473 97.3411 192.48 96.8281V95.543ZM194.465 100.281L193.953 99.9766C194.104 99.7396 194.207 99.5326 194.262 99.3555C194.319 99.181 194.349 99.0026 194.352 98.8203V98.082H195.207L195.203 98.7656C195.201 99.0417 195.13 99.3177 194.992 99.5938C194.857 99.8724 194.681 100.102 194.465 100.281ZM199.734 96.6055C199.734 97.4232 199.581 98.0404 199.273 98.457C198.969 98.8711 198.504 99.0781 197.879 99.0781C197.264 99.0781 196.801 98.8763 196.488 98.4727C196.178 98.0664 196.02 97.4661 196.012 96.6719V95.6875C196.012 94.8698 196.164 94.2565 196.469 93.8477C196.776 93.4388 197.243 93.2344 197.871 93.2344C198.493 93.2344 198.957 93.4336 199.262 93.832C199.569 94.2305 199.727 94.8268 199.734 95.6211V96.6055ZM198.785 95.543C198.785 95.0091 198.712 94.6185 198.566 94.3711C198.421 94.1211 198.189 93.9961 197.871 93.9961C197.561 93.9961 197.333 94.1146 197.188 94.3516C197.042 94.5859 196.965 94.9531 196.957 95.4531V96.7422C196.957 97.2734 197.031 97.6693 197.18 97.9297C197.328 98.1901 197.561 98.3203 197.879 98.3203C198.184 98.3203 198.409 98.2005 198.555 97.9609C198.701 97.7188 198.777 97.3411 198.785 96.8281V95.543ZM200.195 92.4453H201.797V100.266H200.195V99.5273H200.848V93.1875H200.195V92.4453ZM153.766 108V104.477H153.121V103.773H153.766V103.387C153.766 102.918 153.896 102.556 154.156 102.301C154.417 102.046 154.781 101.918 155.25 101.918C155.417 101.918 155.594 101.941 155.781 101.988L155.758 102.73C155.654 102.71 155.533 102.699 155.395 102.699C154.941 102.699 154.715 102.932 154.715 103.398V103.773H155.574V104.477H154.715V108H153.766ZM156.09 105.848C156.09 105.434 156.172 105.061 156.336 104.73C156.5 104.397 156.73 104.142 157.027 103.965C157.324 103.785 157.665 103.695 158.051 103.695C158.621 103.695 159.083 103.879 159.438 104.246C159.794 104.613 159.987 105.1 160.016 105.707L160.02 105.93C160.02 106.346 159.939 106.719 159.777 107.047C159.618 107.375 159.389 107.629 159.09 107.809C158.793 107.988 158.449 108.078 158.059 108.078C157.462 108.078 156.984 107.88 156.625 107.484C156.268 107.086 156.09 106.556 156.09 105.895V105.848ZM157.039 105.93C157.039 106.365 157.129 106.706 157.309 106.953C157.488 107.198 157.738 107.32 158.059 107.32C158.379 107.32 158.628 107.195 158.805 106.945C158.984 106.695 159.074 106.329 159.074 105.848C159.074 105.421 158.982 105.082 158.797 104.832C158.615 104.582 158.366 104.457 158.051 104.457C157.741 104.457 157.495 104.581 157.312 104.828C157.13 105.073 157.039 105.44 157.039 105.93ZM163.035 104.641C162.91 104.62 162.781 104.609 162.648 104.609C162.214 104.609 161.921 104.776 161.77 105.109V108H160.82V103.773H161.727L161.75 104.246C161.979 103.879 162.297 103.695 162.703 103.695C162.839 103.695 162.951 103.714 163.039 103.75L163.035 104.641ZM166.637 108H165.688V103.773H166.637V108ZM165.629 102.676C165.629 102.53 165.674 102.409 165.766 102.312C165.859 102.216 165.992 102.168 166.164 102.168C166.336 102.168 166.469 102.216 166.562 102.312C166.656 102.409 166.703 102.53 166.703 102.676C166.703 102.819 166.656 102.939 166.562 103.035C166.469 103.129 166.336 103.176 166.164 103.176C165.992 103.176 165.859 103.129 165.766 103.035C165.674 102.939 165.629 102.819 165.629 102.676ZM167.809 109.281L167.297 108.977C167.448 108.74 167.551 108.533 167.605 108.355C167.663 108.181 167.693 108.003 167.695 107.82V107.082H168.551L168.547 107.766C168.544 108.042 168.474 108.318 168.336 108.594C168.201 108.872 168.025 109.102 167.809 109.281ZM172.941 105.164L173.746 103.773H174.801L173.508 105.855L174.844 108H173.797L172.953 106.555L172.113 108H171.059L172.395 105.855L171.105 103.773H172.152L172.941 105.164ZM178.449 108H177.5V103.773H178.449V108ZM177.441 102.676C177.441 102.53 177.487 102.409 177.578 102.312C177.672 102.216 177.805 102.168 177.977 102.168C178.148 102.168 178.281 102.216 178.375 102.312C178.469 102.409 178.516 102.53 178.516 102.676C178.516 102.819 178.469 102.939 178.375 103.035C178.281 103.129 178.148 103.176 177.977 103.176C177.805 103.176 177.672 103.129 177.578 103.035C177.487 102.939 177.441 102.819 177.441 102.676ZM180.367 103.773L180.395 104.262C180.707 103.884 181.117 103.695 181.625 103.695C182.505 103.695 182.953 104.199 182.969 105.207V108H182.02V105.262C182.02 104.993 181.961 104.796 181.844 104.668C181.729 104.538 181.54 104.473 181.277 104.473C180.895 104.473 180.609 104.646 180.422 104.992V108H179.473V103.773H180.367ZM187.793 108.078C187.191 108.078 186.703 107.889 186.328 107.512C185.956 107.132 185.77 106.626 185.77 105.996V105.879C185.77 105.457 185.85 105.081 186.012 104.75C186.176 104.417 186.405 104.158 186.699 103.973C186.993 103.788 187.322 103.695 187.684 103.695C188.259 103.695 188.703 103.879 189.016 104.246C189.331 104.613 189.488 105.133 189.488 105.805V106.188H186.727C186.755 106.536 186.871 106.812 187.074 107.016C187.28 107.219 187.538 107.32 187.848 107.32C188.283 107.32 188.637 107.145 188.91 106.793L189.422 107.281C189.253 107.534 189.026 107.73 188.742 107.871C188.461 108.009 188.145 108.078 187.793 108.078ZM187.68 104.457C187.419 104.457 187.208 104.548 187.047 104.73C186.888 104.913 186.786 105.167 186.742 105.492H188.551V105.422C188.53 105.104 188.445 104.865 188.297 104.703C188.148 104.539 187.943 104.457 187.68 104.457ZM191.109 103.773L191.137 104.262C191.449 103.884 191.859 103.695 192.367 103.695C193.247 103.695 193.695 104.199 193.711 105.207V108H192.762V105.262C192.762 104.993 192.703 104.796 192.586 104.668C192.471 104.538 192.283 104.473 192.02 104.473C191.637 104.473 191.352 104.646 191.164 104.992V108H190.215V103.773H191.109ZM197.242 107.586C196.964 107.914 196.568 108.078 196.055 108.078C195.596 108.078 195.249 107.944 195.012 107.676C194.777 107.408 194.66 107.02 194.66 106.512V103.773H195.609V106.5C195.609 107.036 195.832 107.305 196.277 107.305C196.738 107.305 197.049 107.139 197.211 106.809V103.773H198.16V108H197.266L197.242 107.586ZM200.02 103.773L200.047 104.215C200.344 103.868 200.75 103.695 201.266 103.695C201.831 103.695 202.217 103.911 202.426 104.344C202.733 103.911 203.165 103.695 203.723 103.695C204.189 103.695 204.535 103.824 204.762 104.082C204.991 104.34 205.108 104.72 205.113 105.223V108H204.164V105.25C204.164 104.982 204.105 104.785 203.988 104.66C203.871 104.535 203.677 104.473 203.406 104.473C203.19 104.473 203.013 104.531 202.875 104.648C202.74 104.763 202.645 104.914 202.59 105.102L202.594 108H201.645V105.219C201.632 104.721 201.378 104.473 200.883 104.473C200.503 104.473 200.233 104.628 200.074 104.938V108H199.125V103.773H200.02Z" fill="#002D56"/>
<defs>
<clipPath id="clip0">
<rect x="89.5214" y="84.2176" width="24.771" height="24.771" transform="rotate(34.703 89.5214 84.2176)" fill="white"/>
</clipPath>
</defs>
</svg>
