<svg width="1440" height="267" viewBox="0 0 1440 267" fill="none" xmlns="http://www.w3.org/2000/svg">
<path d="M270 95.4193C270 95.4193 401 70.4193 496 95.4193C591 120.419 780.542 192.545 957.834 167.71C1075.18 151.271 1243 82.4193 1243 82.4193" stroke="#152F55" stroke-width="1.86237" stroke-dasharray="9.31 4.66"/>
<ellipse cx="720.681" cy="121.887" rx="47.0247" ry="48.8871" fill="#002D56"/>
<ellipse cx="720.964" cy="121.887" rx="39.8591" ry="41.4376" fill="white"/>
<rect x="670.397" y="122.818" width="99.6366" height="79.1505" fill="white" stroke="#002D56" stroke-width="2.79355"/>
<circle cx="722.077" cy="152.151" r="11.1742" fill="#152F55"/>
<circle cx="722.077" cy="152.151" r="11.1742" fill="#152F55"/>
<circle cx="722.077" cy="152.151" r="11.1742" fill="#152F55"/>
<circle cx="722.077" cy="168.912" r="5.5871" fill="#152F55"/>
<circle cx="722.077" cy="168.912" r="5.5871" fill="#152F55"/>
<circle cx="722.077" cy="168.912" r="5.5871" fill="#152F55"/>
<circle cx="722.077" cy="179.155" r="3.72473" fill="#152F55"/>
<circle cx="722.077" cy="179.155" r="3.72473" fill="#152F55"/>
<circle cx="722.077" cy="179.155" r="3.72473" fill="#152F55"/>
<rect x="720.215" y="161.307" width="3.72473" height="16.1405" fill="#152F55"/>
<path d="M1013.55 175.6L937.233 191.659L928.029 147.92L1004.35 131.861L1013.55 175.6ZM939.452 188.259L1010.15 173.383L1002.13 135.258L931.43 150.134L939.452 188.259Z" fill="#152F55"/>
<path d="M939.452 188.259L1010.15 173.383L1002.13 135.258L931.43 150.134L939.452 188.259Z" fill="#152F55"/>
<path d="M928.221 148.831L971.669 165.381L1004.76 132.725" stroke="white" stroke-width="0.931183"/>
<path d="M935.794 193.865L959.201 160.392" stroke="white" stroke-width="0.931183"/>
<path d="M1015.98 176.991L981.07 155.79" stroke="white" stroke-width="0.931183"/>
<rect x="1221.22" y="46.4669" width="197.104" height="194.522" fill="white" stroke="#002D56" stroke-width="0.860717"/>
<path d="M1220.79 88.2117H1418.76" stroke="#002D56" stroke-width="0.860717"/>
<rect x="1284.49" y="63.2509" width="74.0217" height="10.3286" fill="#002D56"/>
<path d="M1243.06 112.15L1245.38 122.302L1247.37 129.517L1243.76 130.421L1242.25 123.495L1240.51 116.701L1236.53 118.965L1236.16 118.833L1235.45 115.993L1242.44 111.896L1243.06 112.15Z" fill="white"/>
<path d="M1243.06 112.15L1243.9 111.958L1243.8 111.522L1243.39 111.353L1243.06 112.15ZM1245.38 122.302L1244.54 122.493L1244.54 122.512L1244.55 122.531L1245.38 122.302ZM1247.37 129.517L1247.58 130.352L1248.44 130.138L1248.2 129.288L1247.37 129.517ZM1243.76 130.421L1242.92 130.605L1243.11 131.472L1243.97 131.256L1243.76 130.421ZM1242.25 123.495L1243.09 123.312L1243.09 123.297L1243.08 123.282L1242.25 123.495ZM1240.51 116.701L1241.35 116.488L1241.07 115.396L1240.09 115.953L1240.51 116.701ZM1236.53 118.965L1236.24 119.775L1236.61 119.908L1236.96 119.713L1236.53 118.965ZM1236.16 118.833L1235.33 119.042L1235.44 119.489L1235.87 119.644L1236.16 118.833ZM1235.45 115.993L1235.02 115.25L1234.46 115.577L1234.62 116.202L1235.45 115.993ZM1242.44 111.896L1242.76 111.099L1242.37 110.938L1242 111.153L1242.44 111.896ZM1242.22 112.341L1244.54 122.493L1246.22 122.11L1243.9 111.958L1242.22 112.341ZM1244.55 122.531L1246.54 129.746L1248.2 129.288L1246.21 122.073L1244.55 122.531ZM1247.16 128.682L1243.55 129.586L1243.97 131.256L1247.58 130.352L1247.16 128.682ZM1244.6 130.238L1243.09 123.312L1241.41 123.679L1242.92 130.605L1244.6 130.238ZM1243.08 123.282L1241.35 116.488L1239.68 116.915L1241.42 123.709L1243.08 123.282ZM1240.09 115.953L1236.11 118.217L1236.96 119.713L1240.94 117.449L1240.09 115.953ZM1236.82 118.154L1236.45 118.023L1235.87 119.644L1236.24 119.775L1236.82 118.154ZM1237 118.624L1236.29 115.784L1234.62 116.202L1235.33 119.042L1237 118.624ZM1235.89 116.735L1242.87 112.638L1242 111.153L1235.02 115.25L1235.89 116.735ZM1242.11 112.693L1242.74 112.947L1243.39 111.353L1242.76 111.099L1242.11 112.693Z" fill="#002D56"/>
<path d="M1247.01 206.276L1243.43 216.053L1241.17 223.189L1237.65 221.98L1240.15 215.349L1242.4 208.704L1237.83 208.435L1237.59 208.124L1238.54 205.355L1246.63 205.724L1247.01 206.276Z" fill="white"/>
<path d="M1247.01 206.276L1247.82 206.572L1247.98 206.152L1247.72 205.785L1247.01 206.276ZM1243.43 216.053L1242.62 215.756L1242.61 215.775L1242.61 215.793L1243.43 216.053ZM1241.17 223.189L1240.89 224.003L1241.72 224.29L1241.99 223.449L1241.17 223.189ZM1237.65 221.98L1236.84 221.676L1236.53 222.506L1237.37 222.794L1237.65 221.98ZM1240.15 215.349L1240.96 215.653L1240.96 215.639L1240.97 215.624L1240.15 215.349ZM1242.4 208.704L1243.21 208.979L1243.57 207.911L1242.45 207.845L1242.4 208.704ZM1237.83 208.435L1237.14 208.957L1237.38 209.271L1237.77 209.294L1237.83 208.435ZM1237.59 208.124L1236.77 207.845L1236.62 208.28L1236.9 208.646L1237.59 208.124ZM1238.54 205.355L1238.58 204.495L1237.93 204.465L1237.72 205.075L1238.54 205.355ZM1246.63 205.724L1247.34 205.232L1247.09 204.883L1246.67 204.864L1246.63 205.724ZM1246.2 205.98L1242.62 215.756L1244.24 216.349L1247.82 206.572L1246.2 205.98ZM1242.61 215.793L1240.35 222.93L1241.99 223.449L1244.25 216.312L1242.61 215.793ZM1241.45 222.375L1237.93 221.166L1237.37 222.794L1240.89 224.003L1241.45 222.375ZM1238.45 222.285L1240.96 215.653L1239.35 215.045L1236.84 221.676L1238.45 222.285ZM1240.97 215.624L1243.21 208.979L1241.58 208.429L1239.34 215.074L1240.97 215.624ZM1242.45 207.845L1237.88 207.576L1237.77 209.294L1242.34 209.563L1242.45 207.845ZM1238.51 207.913L1238.27 207.602L1236.9 208.646L1237.14 208.957L1238.51 207.913ZM1238.4 208.404L1239.35 205.634L1237.72 205.075L1236.77 207.845L1238.4 208.404ZM1238.5 206.214L1246.59 206.584L1246.67 204.864L1238.58 204.495L1238.5 206.214ZM1245.92 206.215L1246.31 206.767L1247.72 205.785L1247.34 205.232L1245.92 206.215Z" fill="#002D56"/>
<path d="M1311.63 176.056L1310.82 186.438L1310.58 193.919L1306.86 193.707L1307.48 186.645L1307.84 179.641L1303.37 180.617L1303.06 180.382L1303.23 177.458L1311.12 175.628L1311.63 176.056Z" fill="white"/>
<path d="M1311.63 176.056L1312.49 176.123L1312.53 175.676L1312.18 175.392L1311.63 176.056ZM1310.82 186.438L1309.97 186.371L1309.96 186.39L1309.96 186.409L1310.82 186.438ZM1310.58 193.919L1310.53 194.778L1311.41 194.828L1311.44 193.947L1310.58 193.919ZM1306.86 193.707L1306 193.631L1305.93 194.515L1306.81 194.566L1306.86 193.707ZM1307.48 186.645L1308.34 186.72L1308.34 186.705L1308.34 186.69L1307.48 186.645ZM1307.84 179.641L1308.7 179.686L1308.76 178.56L1307.66 178.8L1307.84 179.641ZM1303.37 180.617L1302.85 181.305L1303.17 181.542L1303.55 181.458L1303.37 180.617ZM1303.06 180.382L1302.2 180.333L1302.17 180.793L1302.54 181.07L1303.06 180.382ZM1303.23 177.458L1303.03 176.62L1302.4 176.766L1302.37 177.409L1303.23 177.458ZM1311.12 175.628L1311.66 174.964L1311.33 174.693L1310.92 174.789L1311.12 175.628ZM1310.78 175.989L1309.97 186.371L1311.68 186.504L1312.49 176.123L1310.78 175.989ZM1309.96 186.409L1309.72 193.89L1311.44 193.947L1311.68 186.466L1309.96 186.409ZM1310.63 193.059L1306.91 192.847L1306.81 194.566L1310.53 194.778L1310.63 193.059ZM1307.72 193.782L1308.34 186.72L1306.62 186.57L1306 193.631L1307.72 193.782ZM1308.34 186.69L1308.7 179.686L1306.98 179.597L1306.62 186.6L1308.34 186.69ZM1307.66 178.8L1303.19 179.776L1303.55 181.458L1308.03 180.482L1307.66 178.8ZM1303.89 179.929L1303.58 179.694L1302.54 181.07L1302.85 181.305L1303.89 179.929ZM1303.92 180.431L1304.08 177.508L1302.37 177.409L1302.2 180.333L1303.92 180.431ZM1303.42 178.297L1311.31 176.466L1310.92 174.789L1303.03 176.62L1303.42 178.297ZM1310.57 176.292L1311.09 176.72L1312.18 175.392L1311.66 174.964L1310.57 176.292Z" fill="#002D56"/>
<path d="M1398.76 212.825L1399.01 223.235L1399.52 230.703L1395.8 230.869L1395.7 223.781L1395.35 216.776L1391 218.201L1390.67 217.999L1390.54 215.074L1398.2 212.451L1398.76 212.825Z" fill="white"/>
<path d="M1398.76 212.825L1399.62 212.804L1399.61 212.357L1399.24 212.108L1398.76 212.825ZM1399.01 223.235L1398.15 223.256L1398.15 223.275L1398.15 223.294L1399.01 223.235ZM1399.52 230.703L1399.56 231.563L1400.44 231.523L1400.38 230.643L1399.52 230.703ZM1395.8 230.869L1394.94 230.881L1394.95 231.768L1395.84 231.729L1395.8 230.869ZM1395.7 223.781L1396.56 223.769L1396.56 223.753L1396.56 223.738L1395.7 223.781ZM1395.35 216.776L1396.21 216.733L1396.16 215.607L1395.08 215.958L1395.35 216.776ZM1391 218.201L1390.56 218.938L1390.89 219.142L1391.27 219.019L1391 218.201ZM1390.67 217.999L1389.81 218.037L1389.83 218.497L1390.22 218.736L1390.67 217.999ZM1390.54 215.074L1390.26 214.259L1389.65 214.468L1389.68 215.112L1390.54 215.074ZM1398.2 212.451L1398.68 211.735L1398.32 211.499L1397.92 211.637L1398.2 212.451ZM1397.9 212.845L1398.15 223.256L1399.87 223.215L1399.62 212.804L1397.9 212.845ZM1398.15 223.294L1398.66 230.762L1400.38 230.643L1399.87 223.176L1398.15 223.294ZM1399.48 229.843L1395.76 230.009L1395.84 231.729L1399.56 231.563L1399.48 229.843ZM1396.66 230.857L1396.56 223.769L1394.84 223.793L1394.94 230.881L1396.66 230.857ZM1396.56 223.738L1396.21 216.733L1394.49 216.819L1394.84 223.824L1396.56 223.738ZM1395.08 215.958L1390.73 217.383L1391.27 219.019L1395.62 217.594L1395.08 215.958ZM1391.45 217.464L1391.11 217.262L1390.22 218.736L1390.56 218.938L1391.45 217.464ZM1391.53 217.96L1391.4 215.035L1389.68 215.112L1389.81 218.037L1391.53 217.96ZM1390.81 215.888L1398.48 213.266L1397.92 211.637L1390.26 214.259L1390.81 215.888ZM1397.72 213.168L1398.28 213.541L1399.24 212.108L1398.68 211.735L1397.72 213.168Z" fill="#002D56"/>
<path d="M1373.83 143.01L1375.09 153.347L1376.32 160.73L1372.64 161.256L1371.85 154.211L1370.82 147.274L1366.63 149.114L1366.28 148.945L1365.86 146.046L1373.24 142.693L1373.83 143.01Z" fill="white"/>
<path d="M1373.83 143.01L1374.68 142.906L1374.63 142.462L1374.23 142.251L1373.83 143.01ZM1375.09 153.347L1374.23 153.451L1374.23 153.47L1374.24 153.49L1375.09 153.347ZM1376.32 160.73L1376.44 161.582L1377.32 161.457L1377.17 160.587L1376.32 160.73ZM1372.64 161.256L1371.78 161.352L1371.88 162.234L1372.76 162.108L1372.64 161.256ZM1371.85 154.211L1372.71 154.116L1372.7 154.1L1372.7 154.085L1371.85 154.211ZM1370.82 147.274L1371.67 147.147L1371.51 146.032L1370.48 146.485L1370.82 147.274ZM1366.63 149.114L1366.26 149.89L1366.61 150.061L1366.98 149.902L1366.63 149.114ZM1366.28 148.945L1365.43 149.067L1365.49 149.523L1365.91 149.722L1366.28 148.945ZM1365.86 146.046L1365.51 145.263L1364.92 145.53L1365.01 146.168L1365.86 146.046ZM1373.24 142.693L1373.64 141.934L1373.27 141.733L1372.88 141.909L1373.24 142.693ZM1372.97 143.114L1374.23 153.451L1375.94 153.243L1374.68 142.906L1372.97 143.114ZM1374.24 153.49L1375.47 160.872L1377.17 160.587L1375.93 153.205L1374.24 153.49ZM1376.2 159.878L1372.51 160.404L1372.76 162.108L1376.44 161.582L1376.2 159.878ZM1373.49 161.16L1372.71 154.116L1370.99 154.307L1371.78 161.352L1373.49 161.16ZM1372.7 154.085L1371.67 147.147L1369.97 147.4L1371 154.337L1372.7 154.085ZM1370.48 146.485L1366.28 148.326L1366.98 149.902L1371.17 148.062L1370.48 146.485ZM1367 148.337L1366.65 148.169L1365.91 149.722L1366.26 149.89L1367 148.337ZM1367.13 148.823L1366.72 145.925L1365.01 146.168L1365.43 149.067L1367.13 148.823ZM1366.22 146.83L1373.59 143.476L1372.88 141.909L1365.51 145.263L1366.22 146.83ZM1372.83 143.452L1373.42 143.769L1374.23 142.251L1373.64 141.934L1372.83 143.452Z" fill="#002D56"/>
<path d="M1312.31 127.933C1314.71 128.335 1316.43 129.431 1317.48 131.218C1318.55 132.986 1318.84 135.308 1318.36 138.184C1317.86 141.179 1316.77 143.379 1315.09 144.784C1313.44 146.193 1311.33 146.682 1308.76 146.252C1306.34 145.846 1304.59 144.759 1303.52 142.991C1302.45 141.199 1302.15 138.889 1302.63 136.06C1303.13 133.042 1304.23 130.83 1305.9 129.425C1307.61 128 1309.74 127.503 1312.31 127.933ZM1311.46 131.237C1308.16 130.683 1306.18 132.367 1305.52 136.289C1304.86 140.258 1306.19 142.522 1309.51 143.079C1311.15 143.354 1312.47 143.086 1313.46 142.275C1314.48 141.444 1315.15 140.065 1315.47 138.14C1315.81 136.12 1315.64 134.539 1314.95 133.397C1314.27 132.232 1313.1 131.512 1311.46 131.237Z" fill="white"/>
<path d="M1317.48 131.218L1316.73 131.653L1316.74 131.665L1317.48 131.218ZM1315.09 144.784L1314.54 144.124L1314.54 144.129L1315.09 144.784ZM1303.52 142.991L1302.78 143.431L1302.78 143.437L1303.52 142.991ZM1305.9 129.425L1305.35 128.764L1305.35 128.765L1305.9 129.425ZM1313.46 142.275L1312.92 141.608L1312.92 141.609L1313.46 142.275ZM1314.95 133.397L1314.21 133.833L1314.21 133.842L1314.95 133.397ZM1312.17 128.782C1314.37 129.15 1315.84 130.125 1316.73 131.653L1318.22 130.784C1317.02 128.736 1315.06 127.521 1312.45 127.084L1312.17 128.782ZM1316.74 131.665C1317.67 133.196 1317.98 135.287 1317.51 138.042L1319.21 138.327C1319.71 135.33 1319.43 132.777 1318.21 130.772L1316.74 131.665ZM1317.51 138.042C1317.03 140.913 1316.01 142.894 1314.54 144.124L1315.65 145.444C1317.53 143.864 1318.69 141.446 1319.21 138.327L1317.51 138.042ZM1314.54 144.129C1313.11 145.34 1311.28 145.801 1308.91 145.403L1308.62 147.101C1311.38 147.564 1313.77 147.046 1315.65 145.439L1314.54 144.129ZM1308.91 145.403C1306.68 145.03 1305.17 144.057 1304.25 142.544L1302.78 143.437C1304.01 145.46 1306 146.662 1308.62 147.101L1308.91 145.403ZM1304.26 142.55C1303.33 140.989 1303.02 138.905 1303.48 136.202L1301.78 135.918C1301.28 138.872 1301.57 141.408 1302.78 143.431L1304.26 142.55ZM1303.48 136.202C1303.96 133.306 1304.99 131.314 1306.45 130.085L1305.35 128.765C1303.46 130.346 1302.31 132.777 1301.78 135.918L1303.48 136.202ZM1306.45 130.085C1307.93 128.85 1309.8 128.385 1312.17 128.782L1312.45 127.084C1309.68 126.62 1307.28 127.15 1305.35 128.764L1306.45 130.085ZM1311.61 130.388C1309.78 130.082 1308.18 130.377 1306.94 131.429C1305.73 132.456 1305.02 134.087 1304.67 136.146L1306.37 136.431C1306.68 134.569 1307.29 133.397 1308.06 132.74C1308.8 132.107 1309.84 131.838 1311.32 132.086L1311.61 130.388ZM1304.67 136.146C1304.32 138.229 1304.47 140.022 1305.28 141.4C1306.11 142.81 1307.53 143.62 1309.37 143.928L1309.66 142.23C1308.17 141.981 1307.26 141.38 1306.76 140.527C1306.24 139.641 1306.05 138.318 1306.37 136.431L1304.67 136.146ZM1309.37 143.928C1311.18 144.231 1312.77 143.953 1314.01 142.941L1312.92 141.609C1312.17 142.219 1311.13 142.477 1309.66 142.23L1309.37 143.928ZM1314.01 142.942C1315.25 141.927 1315.98 140.317 1316.32 138.282L1314.63 137.998C1314.32 139.814 1313.71 140.96 1312.92 141.608L1314.01 142.942ZM1316.32 138.282C1316.68 136.164 1316.53 134.344 1315.69 132.953L1314.21 133.842C1314.75 134.734 1314.95 136.076 1314.63 137.998L1316.32 138.282ZM1315.69 132.961C1314.85 131.526 1313.43 130.694 1311.61 130.388L1311.32 132.086C1312.77 132.329 1313.68 132.937 1314.21 133.833L1315.69 132.961Z" fill="#002D56"/>
<path d="M1396.66 107.276C1399.06 107.678 1400.78 108.773 1401.83 110.561C1402.9 112.329 1403.19 114.651 1402.71 117.527C1402.21 120.522 1401.12 122.722 1399.44 124.127C1397.79 125.536 1395.68 126.025 1393.11 125.595C1390.69 125.189 1388.94 124.101 1387.87 122.333C1386.8 120.542 1386.5 118.231 1386.98 115.403C1387.48 112.384 1388.58 110.173 1390.25 108.768C1391.96 107.343 1394.09 106.846 1396.66 107.276ZM1395.81 110.579C1392.51 110.026 1390.53 111.71 1389.87 115.631C1389.21 119.601 1390.54 121.864 1393.87 122.422C1395.51 122.697 1396.82 122.429 1397.81 121.618C1398.83 120.786 1399.5 119.408 1399.82 117.483C1400.16 115.463 1399.99 113.882 1399.3 112.74C1398.62 111.574 1397.45 110.854 1395.81 110.579Z" fill="white"/>
<path d="M1401.83 110.561L1401.08 110.995L1401.09 111.007L1401.83 110.561ZM1399.44 124.127L1398.89 123.467L1398.89 123.472L1399.44 124.127ZM1387.87 122.333L1387.13 122.774L1387.13 122.78L1387.87 122.333ZM1390.25 108.768L1389.7 108.107L1389.7 108.108L1390.25 108.768ZM1397.81 121.618L1397.27 120.95L1397.27 120.951L1397.81 121.618ZM1399.3 112.74L1398.56 113.176L1398.56 113.184L1399.3 112.74ZM1396.52 108.125C1398.72 108.493 1400.19 109.468 1401.08 110.995L1402.57 110.127C1401.37 108.079 1399.41 106.863 1396.8 106.427L1396.52 108.125ZM1401.09 111.007C1402.02 112.539 1402.33 114.63 1401.86 117.385L1403.56 117.67C1404.06 114.673 1403.78 112.12 1402.56 110.115L1401.09 111.007ZM1401.86 117.385C1401.38 120.256 1400.36 122.237 1398.89 123.467L1400 124.787C1401.88 123.207 1403.04 120.789 1403.56 117.67L1401.86 117.385ZM1398.89 123.472C1397.46 124.683 1395.63 125.144 1393.26 124.746L1392.97 126.444C1395.73 126.907 1398.12 126.389 1400 124.782L1398.89 123.472ZM1393.26 124.746C1391.03 124.373 1389.52 123.4 1388.6 121.887L1387.13 122.78C1388.36 124.803 1390.35 126.005 1392.97 126.444L1393.26 124.746ZM1388.61 121.893C1387.68 120.332 1387.37 118.248 1387.83 115.545L1386.13 115.261C1385.63 118.215 1385.92 120.751 1387.13 122.774L1388.61 121.893ZM1387.83 115.545C1388.31 112.649 1389.34 110.657 1390.81 109.427L1389.7 108.108C1387.81 109.689 1386.66 112.12 1386.13 115.261L1387.83 115.545ZM1390.8 109.428C1392.28 108.193 1394.15 107.728 1396.52 108.125L1396.8 106.427C1394.03 105.963 1391.63 106.493 1389.7 108.107L1390.8 109.428ZM1395.96 109.731C1394.13 109.425 1392.53 109.72 1391.29 110.771C1390.08 111.799 1389.37 113.43 1389.02 115.489L1390.72 115.774C1391.03 113.912 1391.64 112.739 1392.41 112.083C1393.15 111.45 1394.19 111.18 1395.67 111.428L1395.96 109.731ZM1389.02 115.489C1388.67 117.572 1388.82 119.364 1389.63 120.742C1390.46 122.153 1391.89 122.963 1393.72 123.271L1394.01 121.573C1392.52 121.324 1391.61 120.723 1391.11 119.87C1390.59 118.984 1390.4 117.66 1390.72 115.774L1389.02 115.489ZM1393.72 123.271C1395.53 123.574 1397.12 123.296 1398.36 122.284L1397.27 120.951C1396.52 121.562 1395.48 121.82 1394.01 121.573L1393.72 123.271ZM1398.36 122.285C1399.6 121.27 1400.33 119.659 1400.67 117.625L1398.98 117.341C1398.67 119.157 1398.06 120.303 1397.27 120.95L1398.36 122.285ZM1400.67 117.625C1401.03 115.506 1400.88 113.686 1400.04 112.296L1398.56 113.184C1399.1 114.077 1399.3 115.419 1398.98 117.341L1400.67 117.625ZM1400.04 112.304C1399.2 110.869 1397.78 110.037 1395.96 109.731L1395.67 111.428C1397.12 111.672 1398.03 112.28 1398.56 113.176L1400.04 112.304Z" fill="#002D56"/>
<path d="M1269.38 147.371C1271.8 147.195 1273.74 147.853 1275.17 149.344C1276.63 150.809 1277.47 152.995 1277.68 155.904C1277.9 158.933 1277.36 161.328 1276.06 163.089C1274.78 164.848 1272.85 165.822 1270.25 166.01C1267.8 166.187 1265.85 165.544 1264.39 164.079C1262.93 162.589 1262.09 160.415 1261.88 157.554C1261.66 154.502 1262.2 152.095 1263.5 150.333C1264.82 148.546 1266.78 147.559 1269.38 147.371ZM1269.33 150.781C1265.99 151.023 1264.46 153.127 1264.75 157.093C1265.04 161.107 1266.87 162.993 1270.23 162.749C1271.89 162.629 1273.11 162.058 1273.88 161.035C1274.67 159.987 1275 158.49 1274.86 156.543C1274.71 154.5 1274.17 153.005 1273.23 152.058C1272.29 151.087 1270.99 150.661 1269.33 150.781Z" fill="white"/>
<path d="M1275.17 149.344L1274.55 149.941L1274.56 149.951L1275.17 149.344ZM1276.06 163.089L1275.37 162.578L1275.36 162.584L1276.06 163.089ZM1264.39 164.079L1263.77 164.681L1263.78 164.686L1264.39 164.079ZM1263.5 150.333L1262.81 149.822L1262.81 149.823L1263.5 150.333ZM1273.88 161.035L1273.19 160.516L1273.19 160.517L1273.88 161.035ZM1273.23 152.058L1272.61 152.656L1272.62 152.663L1273.23 152.058ZM1269.44 148.23C1271.66 148.069 1273.32 148.667 1274.55 149.941L1275.79 148.746C1274.15 147.039 1271.95 146.322 1269.31 146.513L1269.44 148.23ZM1274.56 149.951C1275.83 151.22 1276.62 153.18 1276.82 155.966L1278.54 155.842C1278.32 152.811 1277.44 150.397 1275.78 148.736L1274.56 149.951ZM1276.82 155.966C1277.03 158.869 1276.5 161.036 1275.37 162.578L1276.75 163.599C1278.21 161.619 1278.76 158.996 1278.54 155.842L1276.82 155.966ZM1275.36 162.584C1274.27 164.096 1272.59 164.978 1270.19 165.151L1270.32 166.868C1273.11 166.666 1275.3 165.6 1276.76 163.594L1275.36 162.584ZM1270.19 165.151C1267.94 165.314 1266.25 164.725 1265 163.471L1263.78 164.686C1265.45 166.362 1267.67 167.06 1270.32 166.868L1270.19 165.151ZM1265 163.476C1263.73 162.179 1262.94 160.225 1262.74 157.492L1261.03 157.616C1261.24 160.604 1262.12 163 1263.77 164.681L1265 163.476ZM1262.74 157.492C1262.53 154.563 1263.06 152.385 1264.19 150.844L1262.81 149.823C1261.35 151.804 1260.8 154.44 1261.03 157.616L1262.74 157.492ZM1264.19 150.845C1265.34 149.295 1267.04 148.403 1269.44 148.23L1269.31 146.513C1266.51 146.715 1264.3 147.797 1262.81 149.822L1264.19 150.845ZM1269.27 149.923C1267.42 150.056 1265.94 150.721 1264.98 152.035C1264.05 153.319 1263.74 155.072 1263.89 157.155L1265.61 157.031C1265.47 155.148 1265.78 153.866 1266.38 153.046C1266.95 152.256 1267.9 151.748 1269.39 151.64L1269.27 149.923ZM1263.89 157.155C1264.04 159.261 1264.61 160.969 1265.72 162.117C1266.86 163.292 1268.44 163.742 1270.3 163.608L1270.17 161.891C1268.67 162 1267.65 161.629 1266.96 160.919C1266.24 160.181 1265.75 158.939 1265.61 157.031L1263.89 157.155ZM1270.3 163.608C1272.12 163.475 1273.6 162.83 1274.57 161.554L1273.19 160.517C1272.61 161.286 1271.66 161.783 1270.17 161.891L1270.3 163.608ZM1274.57 161.555C1275.54 160.276 1275.87 158.538 1275.72 156.481L1274 156.605C1274.13 158.442 1273.81 159.699 1273.19 160.516L1274.57 161.555ZM1275.72 156.481C1275.56 154.338 1274.98 152.605 1273.84 151.452L1272.62 152.663C1273.35 153.404 1273.86 154.661 1274 156.605L1275.72 156.481ZM1273.85 151.459C1272.69 150.263 1271.12 149.789 1269.27 149.923L1269.39 151.64C1270.86 151.533 1271.89 151.91 1272.61 152.656L1273.85 151.459Z" fill="#002D56"/>
<path d="M1340.72 205.863C1343.08 205.291 1345.1 205.622 1346.76 206.856C1348.44 208.061 1349.62 210.081 1350.31 212.916C1351.02 215.867 1350.88 218.318 1349.89 220.269C1348.92 222.214 1347.18 223.492 1344.65 224.104C1342.26 224.682 1340.22 224.369 1338.54 223.163C1336.86 221.935 1335.68 219.927 1335 217.139C1334.28 214.164 1334.42 211.702 1335.41 209.751C1336.42 207.771 1338.19 206.475 1340.72 205.863ZM1341.23 209.234C1337.98 210.022 1336.82 212.348 1337.75 216.213C1338.7 220.125 1340.81 221.684 1344.09 220.891C1345.71 220.5 1346.81 219.737 1347.41 218.601C1348.02 217.437 1348.09 215.906 1347.63 214.009C1347.15 212.018 1346.37 210.632 1345.29 209.852C1344.2 209.049 1342.85 208.843 1341.23 209.234Z" fill="white"/>
<path d="M1346.76 206.856L1346.25 207.547L1346.26 207.556L1346.76 206.856ZM1349.89 220.269L1349.12 219.879L1349.12 219.885L1349.89 220.269ZM1338.54 223.163L1338.03 223.859L1338.04 223.863L1338.54 223.163ZM1335.41 209.751L1334.64 209.36L1334.64 209.361L1335.41 209.751ZM1347.41 218.601L1346.64 218.202L1346.64 218.203L1347.41 218.601ZM1345.29 209.852L1344.78 210.545L1344.79 210.551L1345.29 209.852ZM1340.92 206.7C1343.08 206.176 1344.82 206.493 1346.25 207.547L1347.27 206.165C1345.37 204.751 1343.08 204.406 1340.51 205.027L1340.92 206.7ZM1346.26 207.556C1347.71 208.599 1348.81 210.403 1349.47 213.118L1351.14 212.713C1350.43 209.76 1349.17 207.523 1347.26 206.157L1346.26 207.556ZM1349.47 213.118C1350.16 215.947 1349.99 218.171 1349.12 219.879L1350.66 220.659C1351.77 218.465 1351.89 215.787 1351.14 212.713L1349.47 213.118ZM1349.12 219.885C1348.29 221.557 1346.78 222.702 1344.44 223.268L1344.85 224.941C1347.57 224.282 1349.56 222.87 1350.66 220.652L1349.12 219.885ZM1344.44 223.268C1342.25 223.799 1340.48 223.495 1339.04 222.464L1338.04 223.863C1339.96 225.242 1342.27 225.566 1344.85 224.941L1344.44 223.268ZM1339.05 222.468C1337.58 221.398 1336.48 219.6 1335.84 216.937L1334.16 217.342C1334.87 220.253 1336.13 222.472 1338.03 223.859L1339.05 222.468ZM1335.84 216.937C1335.15 214.082 1335.31 211.847 1336.18 210.141L1334.64 209.361C1333.53 211.556 1333.42 214.246 1334.16 217.342L1335.84 216.937ZM1336.18 210.142C1337.05 208.425 1338.59 207.264 1340.92 206.7L1340.51 205.027C1337.79 205.687 1335.78 207.117 1334.64 209.36L1336.18 210.142ZM1341.03 208.398C1339.23 208.833 1337.88 209.733 1337.15 211.185C1336.44 212.605 1336.43 214.386 1336.92 216.416L1338.59 216.011C1338.15 214.176 1338.24 212.861 1338.69 211.954C1339.13 211.08 1339.98 210.423 1341.44 210.071L1341.03 208.398ZM1336.92 216.416C1337.41 218.468 1338.25 220.06 1339.54 221.009C1340.85 221.981 1342.48 222.166 1344.29 221.728L1343.89 220.054C1342.42 220.41 1341.35 220.212 1340.56 219.624C1339.73 219.014 1339.04 217.87 1338.59 216.011L1336.92 216.416ZM1344.29 221.728C1346.07 221.297 1347.43 220.417 1348.17 219L1346.64 218.203C1346.2 219.057 1345.34 219.703 1343.89 220.054L1344.29 221.728ZM1348.17 219.001C1348.91 217.58 1348.95 215.811 1348.47 213.806L1346.8 214.211C1347.23 216.001 1347.12 217.294 1346.64 218.202L1348.17 219.001ZM1348.47 213.806C1347.96 211.718 1347.11 210.104 1345.79 209.154L1344.79 210.551C1345.63 211.16 1346.34 212.317 1346.8 214.211L1348.47 213.806ZM1345.8 209.16C1344.46 208.171 1342.83 207.962 1341.03 208.398L1341.44 210.071C1342.87 209.724 1343.94 209.927 1344.78 210.545L1345.8 209.16Z" fill="#002D56"/>
<path d="M1278.05 124.694L1274.91 123.83L1279.09 108.673L1274.02 108.98L1274.76 106.322L1282.87 105.64L1283.27 105.751L1278.05 124.694Z" fill="#152F55"/>
<path d="M1372.1 204.225L1368.84 204.337L1368.3 188.625L1363.56 190.43L1363.47 187.674L1371 184.602L1371.42 184.588L1372.1 204.225Z" fill="#152F55"/>
<path d="M1348.86 119.014L1345.61 119.126L1345.06 103.413L1340.32 105.219L1340.23 102.463L1347.77 99.3911L1348.18 99.3768L1348.86 119.014Z" fill="#152F55"/>
<path d="M1243.67 165.391C1244.48 168.088 1244.59 170.275 1243.99 171.953C1243.39 173.62 1242.06 174.763 1240 175.381C1237.97 175.989 1236.25 175.782 1234.82 174.761C1233.39 173.728 1232.27 171.905 1231.46 169.294L1230.49 166.048C1229.68 163.351 1229.58 161.178 1230.18 159.528C1230.78 157.876 1232.12 156.739 1234.19 156.119C1236.25 155.503 1237.97 155.701 1239.37 156.713C1240.78 157.723 1241.89 159.534 1242.7 162.145L1243.67 165.391ZM1239.49 162.827C1238.96 161.067 1238.34 159.851 1237.61 159.179C1236.88 158.499 1235.99 158.316 1234.95 158.63C1233.92 158.937 1233.29 159.553 1233.04 160.479C1232.8 161.396 1232.91 162.683 1233.37 164.34L1234.65 168.59C1235.18 170.342 1235.81 171.574 1236.56 172.286C1237.31 172.998 1238.2 173.197 1239.25 172.882C1240.26 172.581 1240.88 171.963 1241.12 171.029C1241.37 170.086 1241.24 168.764 1240.76 167.065L1239.49 162.827Z" fill="#152F55"/>
<path d="M1348.68 166.252C1349.49 168.949 1349.59 171.136 1348.99 172.814C1348.4 174.481 1347.07 175.624 1345.01 176.242C1342.98 176.85 1341.25 176.643 1339.82 175.621C1338.4 174.588 1337.28 172.766 1336.47 170.155L1335.5 166.908C1334.69 164.212 1334.58 162.039 1335.18 160.389C1335.79 158.737 1337.13 157.6 1339.2 156.979C1341.25 156.363 1342.98 156.562 1344.38 157.574C1345.79 158.584 1346.89 160.395 1347.71 163.006L1348.68 166.252ZM1344.5 163.688C1343.97 161.927 1343.34 160.711 1342.62 160.04C1341.89 159.36 1341 159.177 1339.95 159.491C1338.93 159.798 1338.3 160.414 1338.05 161.34C1337.8 162.257 1337.91 163.544 1338.38 165.2L1339.66 169.451C1340.18 171.203 1340.82 172.435 1341.57 173.147C1342.31 173.859 1343.21 174.057 1344.26 173.743C1345.26 173.442 1345.89 172.824 1346.13 171.889C1346.37 170.946 1346.25 169.625 1345.77 167.926L1344.5 163.688Z" fill="#152F55"/>
<path d="M1403.29 175.191C1402.84 177.97 1401.97 179.982 1400.7 181.227C1399.43 182.465 1397.74 182.911 1395.62 182.564C1393.53 182.223 1392.06 181.28 1391.23 179.735C1390.4 178.183 1390.19 176.055 1390.61 173.352L1391.15 170.007C1391.61 167.229 1392.46 165.229 1393.73 164.009C1395 162.79 1396.7 162.355 1398.83 162.703C1400.95 163.048 1402.41 163.982 1403.22 165.505C1404.05 167.03 1404.25 169.143 1403.84 171.846L1403.29 175.191ZM1400.66 171.054C1400.95 169.241 1400.92 167.873 1400.56 166.951C1400.21 166.021 1399.49 165.468 1398.41 165.291C1397.36 165.119 1396.52 165.396 1395.89 166.12C1395.26 166.835 1394.8 168.041 1394.49 169.735L1393.78 174.115C1393.48 175.92 1393.52 177.307 1393.88 178.274C1394.24 179.241 1394.96 179.813 1396.04 179.989C1397.07 180.158 1397.9 179.876 1398.53 179.143C1399.16 178.401 1399.63 177.16 1399.94 175.421L1400.66 171.054Z" fill="#152F55"/>
<path d="M1309.12 224.208C1309.07 227.023 1308.5 229.139 1307.42 230.556C1306.35 231.963 1304.74 232.649 1302.59 232.614C1300.47 232.578 1298.89 231.857 1297.83 230.45C1296.79 229.033 1296.28 226.958 1296.3 224.223L1296.35 220.835C1296.4 218.02 1296.96 215.917 1298.03 214.527C1299.11 213.138 1300.73 212.461 1302.89 212.497C1305.04 212.532 1306.62 213.245 1307.65 214.634C1308.68 216.023 1309.19 218.085 1309.17 220.82L1309.12 224.208ZM1305.91 220.496C1305.94 218.658 1305.71 217.31 1305.22 216.45C1304.74 215.581 1303.94 215.137 1302.85 215.119C1301.78 215.101 1300.99 215.496 1300.48 216.303C1299.96 217.102 1299.68 218.361 1299.62 220.082L1299.55 224.52C1299.52 226.348 1299.75 227.715 1300.25 228.62C1300.74 229.525 1301.54 229.987 1302.63 230.005C1303.68 230.022 1304.46 229.623 1304.98 228.807C1305.49 227.981 1305.78 226.686 1305.84 224.92L1305.91 220.496Z" fill="#152F55"/>
<path d="M1274.17 206.706L1270.98 207.345L1267.89 191.93L1263.51 194.482L1262.97 191.779L1269.9 187.522L1270.31 187.44L1274.17 206.706Z" fill="#152F55"/>
<path d="M296.513 196.012L189.893 201.961V1.94177L296.513 16.1273V196.012Z" fill="white" stroke="#002D56" stroke-width="1.86237"/>
<rect x="-0.465591" y="0.465591" width="6.51828" height="4.65591" transform="matrix(-1 0 0 1 262.059 46.972)" fill="white" stroke="#002D56" stroke-width="0.931183"/>
<path fill-rule="evenodd" clip-rule="evenodd" d="M259.266 47.9032C253.094 47.9032 248.091 42.9004 248.091 36.729C248.091 30.5577 253.094 25.5548 259.266 25.5548C265.173 25.5548 270.009 30.1386 270.413 35.9434C274.697 36.9576 273.907 42.1038 269.355 41.5373C267.558 45.3021 263.716 47.9032 259.266 47.9032Z" fill="white"/>
<path d="M270.413 35.9434L270.305 36.3964L269.972 36.3175L269.948 35.9756L270.413 35.9434ZM269.355 41.5373L268.935 41.3367L269.08 41.0338L269.413 41.0753L269.355 41.5373ZM248.557 36.729C248.557 42.6432 253.351 47.4376 259.266 47.4376V48.3688C252.837 48.3688 247.626 43.1575 247.626 36.729H248.557ZM259.266 26.0204C253.351 26.0204 248.557 30.8148 248.557 36.729H247.626C247.626 30.3006 252.837 25.0892 259.266 25.0892V26.0204ZM269.948 35.9756C269.562 30.4132 264.927 26.0204 259.266 26.0204V25.0892C265.419 25.0892 270.457 29.864 270.877 35.9111L269.948 35.9756ZM269.413 41.0753C271.498 41.3348 272.559 40.2992 272.739 39.2542C272.92 38.1984 272.255 36.8579 270.305 36.3964L270.52 35.4903C272.855 36.0431 273.936 37.7828 273.656 39.412C273.374 41.0521 271.764 42.3063 269.298 41.9994L269.413 41.0753ZM259.266 47.4376C263.529 47.4376 267.212 44.9457 268.935 41.3367L269.775 41.7379C267.904 45.6585 263.902 48.3688 259.266 48.3688V47.4376Z" fill="#002D56"/>
<path d="M267.646 44.1785C264.795 44.0071 263.656 42.6521 262.99 40.9194" stroke="#002D56" stroke-width="0.931183"/>
<mask id="mask0" mask-type="alpha" maskUnits="userSpaceOnUse" x="247" y="25" width="27" height="24">
<path fill-rule="evenodd" clip-rule="evenodd" d="M259.266 47.9032C253.094 47.9032 248.091 42.9004 248.091 36.729C248.091 30.5577 253.094 25.5548 259.266 25.5548C265.173 25.5548 270.009 30.1386 270.413 35.9434C274.697 36.9576 273.907 42.1038 269.355 41.5373C267.558 45.3021 263.716 47.9032 259.266 47.9032Z" fill="white"/>
<path d="M270.413 35.9434L270.305 36.3964L269.972 36.3175L269.948 35.9756L270.413 35.9434ZM269.355 41.5373L268.935 41.3367L269.08 41.0338L269.413 41.0753L269.355 41.5373ZM248.557 36.729C248.557 42.6432 253.351 47.4376 259.266 47.4376V48.3688C252.837 48.3688 247.626 43.1575 247.626 36.729H248.557ZM259.266 26.0204C253.351 26.0204 248.557 30.8148 248.557 36.729H247.626C247.626 30.3006 252.837 25.0892 259.266 25.0892V26.0204ZM269.948 35.9756C269.562 30.4132 264.927 26.0204 259.266 26.0204V25.0892C265.419 25.0892 270.457 29.864 270.877 35.9111L269.948 35.9756ZM269.413 41.0753C271.498 41.3348 272.559 40.2992 272.739 39.2542C272.92 38.1984 272.255 36.8579 270.305 36.3964L270.52 35.4903C272.855 36.0431 273.936 37.7828 273.656 39.412C273.374 41.0521 271.764 42.3063 269.298 41.9994L269.413 41.0753ZM259.266 47.4376C263.529 47.4376 267.212 44.9457 268.935 41.3367L269.775 41.7379C267.904 45.6585 263.902 48.3688 259.266 48.3688V47.4376Z" fill="#002D56"/>
</mask>
<g mask="url(#mask0)">
<circle r="1.39677" transform="matrix(-1 0 0 1 263.456 34.4011)" fill="#002D56"/>
<path d="M257.403 31.6075C261.539 31.4767 263.689 30.8896 267.181 28.814V24.1581H247.16V38.1258H257.403V31.6075Z" fill="#002D56"/>
</g>
<rect x="211.775" y="36.2634" width="13.9677" height="13.9677" stroke="#002D56" stroke-width="0.931183"/>
<path d="M212.241 36.729L219.69 47.9032L229.933 26.486" stroke="#002D56" stroke-width="1.86237"/>
<rect x="-0.465591" y="0.465591" width="6.51828" height="4.65591" transform="matrix(-1 0 0 1 262.059 95.3935)" fill="white" stroke="#002D56" stroke-width="0.931183"/>
<path fill-rule="evenodd" clip-rule="evenodd" d="M259.266 96.3247C253.094 96.3247 248.091 91.3219 248.091 85.1505C248.091 78.9792 253.094 73.9763 259.266 73.9763C265.173 73.9763 270.009 78.5601 270.413 84.3649C274.697 85.3791 273.907 90.5253 269.355 89.9588C267.558 93.7236 263.716 96.3247 259.266 96.3247Z" fill="white"/>
<path d="M270.413 84.3649L270.305 84.8179L269.972 84.739L269.948 84.3971L270.413 84.3649ZM269.355 89.9588L268.935 89.7582L269.08 89.4553L269.413 89.4968L269.355 89.9588ZM248.557 85.1505C248.557 91.0647 253.351 95.8591 259.266 95.8591V96.7903C252.837 96.7903 247.626 91.579 247.626 85.1505H248.557ZM259.266 74.4419C253.351 74.4419 248.557 79.2363 248.557 85.1505H247.626C247.626 78.7221 252.837 73.5107 259.266 73.5107V74.4419ZM269.948 84.3971C269.562 78.8347 264.927 74.4419 259.266 74.4419V73.5107C265.419 73.5107 270.457 78.2855 270.877 84.3326L269.948 84.3971ZM269.413 89.4968C271.498 89.7563 272.559 88.7207 272.739 87.6757C272.92 86.6199 272.255 85.2794 270.305 84.8179L270.52 83.9118C272.855 84.4646 273.936 86.2043 273.656 87.8335C273.374 89.4736 271.764 90.7278 269.298 90.4209L269.413 89.4968ZM259.266 95.8591C263.529 95.8591 267.212 93.3672 268.935 89.7582L269.775 90.1594C267.904 94.08 263.902 96.7903 259.266 96.7903V95.8591Z" fill="#002D56"/>
<path d="M267.646 92.6C264.795 92.4286 263.656 91.0736 262.99 89.3409" stroke="#002D56" stroke-width="0.931183"/>
<mask id="mask1" mask-type="alpha" maskUnits="userSpaceOnUse" x="247" y="73" width="27" height="24">
<path fill-rule="evenodd" clip-rule="evenodd" d="M259.266 96.3247C253.094 96.3247 248.091 91.3219 248.091 85.1505C248.091 78.9792 253.094 73.9763 259.266 73.9763C265.173 73.9763 270.009 78.5601 270.413 84.3649C274.697 85.3791 273.907 90.5253 269.355 89.9588C267.558 93.7236 263.716 96.3247 259.266 96.3247Z" fill="white"/>
<path d="M270.413 84.3649L270.305 84.8179L269.972 84.739L269.948 84.3971L270.413 84.3649ZM269.355 89.9588L268.935 89.7582L269.08 89.4553L269.413 89.4968L269.355 89.9588ZM248.557 85.1505C248.557 91.0647 253.351 95.8591 259.266 95.8591V96.7903C252.837 96.7903 247.626 91.579 247.626 85.1505H248.557ZM259.266 74.4419C253.351 74.4419 248.557 79.2363 248.557 85.1505H247.626C247.626 78.7221 252.837 73.5107 259.266 73.5107V74.4419ZM269.948 84.3971C269.562 78.8347 264.927 74.4419 259.266 74.4419V73.5107C265.419 73.5107 270.457 78.2855 270.877 84.3326L269.948 84.3971ZM269.413 89.4968C271.498 89.7563 272.559 88.7207 272.739 87.6757C272.92 86.6199 272.255 85.2794 270.305 84.8179L270.52 83.9118C272.855 84.4646 273.936 86.2043 273.656 87.8335C273.374 89.4736 271.764 90.7278 269.298 90.4209L269.413 89.4968ZM259.266 95.8591C263.529 95.8591 267.212 93.3672 268.935 89.7582L269.775 90.1594C267.904 94.08 263.902 96.7903 259.266 96.7903V95.8591Z" fill="#002D56"/>
</mask>
<g mask="url(#mask1)">
<circle r="1.39677" transform="matrix(-1 0 0 1 263.456 82.8226)" fill="#002D56"/>
<path d="M257.403 80.029C261.539 79.8982 263.689 79.3111 267.181 77.2355V72.5796H247.16L245.763 93.0656L257.403 100.049V80.029Z" fill="#002D56"/>
</g>
<rect x="211.775" y="84.6849" width="13.9677" height="13.9677" stroke="#002D56" stroke-width="0.931183"/>
<rect x="247.626" y="85.1505" width="9.31183" height="15.8301" fill="#152F55"/>
<rect x="-0.465591" y="0.465591" width="6.51828" height="4.65591" transform="matrix(-1 0 0 1 262.059 143.815)" fill="white" stroke="#002D56" stroke-width="0.931183"/>
<path fill-rule="evenodd" clip-rule="evenodd" d="M259.266 144.746C253.094 144.746 248.091 139.743 248.091 133.572C248.091 127.401 253.094 122.398 259.266 122.398C265.173 122.398 270.009 126.982 270.413 132.786C274.697 133.801 273.907 138.947 269.355 138.38C267.558 142.145 263.716 144.746 259.266 144.746Z" fill="white"/>
<path d="M270.413 132.786L270.305 133.239L269.972 133.161L269.948 132.819L270.413 132.786ZM269.355 138.38L268.935 138.18L269.08 137.877L269.413 137.918L269.355 138.38ZM248.557 133.572C248.557 139.486 253.351 144.281 259.266 144.281V145.212C252.837 145.212 247.626 140.001 247.626 133.572H248.557ZM259.266 122.863C253.351 122.863 248.557 127.658 248.557 133.572H247.626C247.626 127.144 252.837 121.932 259.266 121.932V122.863ZM269.948 132.819C269.562 127.256 264.927 122.863 259.266 122.863V121.932C265.419 121.932 270.457 126.707 270.877 132.754L269.948 132.819ZM269.413 137.918C271.498 138.178 272.559 137.142 272.739 136.097C272.92 135.041 272.255 133.701 270.305 133.239L270.52 132.333C272.855 132.886 273.936 134.626 273.656 136.255C273.374 137.895 271.764 139.149 269.298 138.842L269.413 137.918ZM259.266 144.281C263.529 144.281 267.212 141.789 268.935 138.18L269.775 138.581C267.904 142.501 263.902 145.212 259.266 145.212V144.281Z" fill="#002D56"/>
<path d="M267.646 141.022C264.795 140.85 263.656 139.495 262.99 137.762" stroke="#002D56" stroke-width="0.931183"/>
<mask id="mask2" mask-type="alpha" maskUnits="userSpaceOnUse" x="247" y="121" width="27" height="25">
<path fill-rule="evenodd" clip-rule="evenodd" d="M259.266 144.746C253.094 144.746 248.091 139.743 248.091 133.572C248.091 127.401 253.094 122.398 259.266 122.398C265.173 122.398 270.009 126.982 270.413 132.786C274.697 133.801 273.907 138.947 269.355 138.38C267.558 142.145 263.716 144.746 259.266 144.746Z" fill="white"/>
<path d="M270.413 132.786L270.305 133.239L269.972 133.161L269.948 132.819L270.413 132.786ZM269.355 138.38L268.935 138.18L269.08 137.877L269.413 137.918L269.355 138.38ZM248.557 133.572C248.557 139.486 253.351 144.281 259.266 144.281V145.212C252.837 145.212 247.626 140.001 247.626 133.572H248.557ZM259.266 122.863C253.351 122.863 248.557 127.658 248.557 133.572H247.626C247.626 127.144 252.837 121.932 259.266 121.932V122.863ZM269.948 132.819C269.562 127.256 264.927 122.863 259.266 122.863V121.932C265.419 121.932 270.457 126.707 270.877 132.754L269.948 132.819ZM269.413 137.918C271.498 138.178 272.559 137.142 272.739 136.097C272.92 135.041 272.255 133.701 270.305 133.239L270.52 132.333C272.855 132.886 273.936 134.626 273.656 136.255C273.374 137.895 271.764 139.149 269.298 138.842L269.413 137.918ZM259.266 144.281C263.529 144.281 267.212 141.789 268.935 138.18L269.775 138.581C267.904 142.501 263.902 145.212 259.266 145.212V144.281Z" fill="#002D56"/>
</mask>
<g mask="url(#mask2)">
<circle r="1.39677" transform="matrix(-1 0 0 1 263.456 131.244)" fill="#002D56"/>
<path d="M244.367 126.588C243.195 127.285 244.743 127.709 247.16 127.969V134.969H257.403V128.451C260.151 128.364 251.949 128.486 247.16 127.969V121.001L236.917 126.588H244.367Z" fill="#002D56"/>
</g>
<rect x="211.775" y="133.106" width="13.9677" height="13.9677" stroke="#002D56" stroke-width="0.931183"/>
<path d="M189.427 162.439H297.444" stroke="#002D56" stroke-width="1.86237"/>
<circle cx="242.97" cy="181.062" r="9.31183" fill="#002D56"/>
<path d="M-1 168.026L121.916 129.847L175.925 207.135L-1 257.419V168.026Z" stroke="#002D56" stroke-width="1.86237"/>
<path fill-rule="evenodd" clip-rule="evenodd" d="M174.994 13.4494L163.89 81.9204C139.249 92.1301 121.916 116.414 121.916 144.746C121.916 182.289 152.35 212.723 189.892 212.723C204.429 212.723 217.899 208.16 228.95 200.389L189.892 201.548V94.4624L190.172 94.4821C190.115 93.5076 190.065 92.5134 190.022 91.499L202.929 17.1742L174.994 13.4494Z" fill="white"/>
<path d="M163.89 81.9204L164.247 82.7807L164.726 82.5819L164.809 82.0695L163.89 81.9204ZM174.994 13.4494L175.117 12.5264L174.219 12.4068L174.074 13.3004L174.994 13.4494ZM228.95 200.389L229.486 201.15L232.023 199.366L228.922 199.458L228.95 200.389ZM189.892 201.548H188.961V202.508L189.92 202.479L189.892 201.548ZM189.892 94.4624L189.958 93.5335L188.961 93.4629V94.4624H189.892ZM190.172 94.4821L190.106 95.411L191.163 95.4859L191.102 94.4278L190.172 94.4821ZM190.022 91.499L189.105 91.3397L189.088 91.4382L189.092 91.5382L190.022 91.499ZM202.929 17.1742L203.846 17.3335L204.012 16.3792L203.052 16.2512L202.929 17.1742ZM164.809 82.0695L175.913 13.5985L174.074 13.3004L162.971 81.7714L164.809 82.0695ZM122.847 144.746C122.847 116.804 139.942 92.8513 164.247 82.7807L163.534 81.0602C138.557 91.409 120.985 116.024 120.985 144.746H122.847ZM189.892 211.791C152.864 211.791 122.847 181.774 122.847 144.746H120.985C120.985 182.803 151.836 213.654 189.892 213.654V211.791ZM228.414 199.627C217.515 207.291 204.231 211.791 189.892 211.791V213.654C204.627 213.654 218.283 209.028 229.486 201.15L228.414 199.627ZM228.922 199.458L189.865 200.618L189.92 202.479L228.978 201.319L228.922 199.458ZM190.824 201.548V94.4624H188.961V201.548H190.824ZM189.827 95.3912L190.106 95.411L190.238 93.5533L189.958 93.5335L189.827 95.3912ZM189.092 91.5382C189.135 92.5574 189.185 93.5568 189.242 94.5365L191.102 94.4278C191.045 93.4585 190.995 92.4693 190.953 91.4598L189.092 91.5382ZM202.012 17.0149L189.105 91.3397L190.94 91.6583L203.846 17.3335L202.012 17.0149ZM174.87 14.3725L202.806 18.0972L203.052 16.2512L175.117 12.5264L174.87 14.3725Z" fill="#002D56"/>
<path d="M300.238 159.18H280.217V129.847H276.492V100.981H272.768V70.7172L280.217 70.9697V42.3161H300.238V71.6484V100.981V129.847V159.18Z" fill="#FFFDFD"/>
<path d="M280.217 129.847V159.18H300.238V129.847M280.217 129.847H300.238M280.217 129.847H276.492V100.981M300.238 129.847V100.981M276.492 100.981H300.238M276.492 100.981H272.768V70.7172L280.217 70.9697M300.238 100.981V71.6484M300.238 71.6484V42.3161H280.217V70.9697M300.238 71.6484L280.217 70.9697" stroke="#152F55" stroke-width="1.86237"/>
<path d="M935.392 219.03L933.799 219.384L932.091 211.684L929.918 213.009L929.619 211.659L933.055 209.453L933.259 209.408L935.392 219.03Z" fill="white"/>
<path d="M935.392 219.03L935.476 219.405L935.85 219.322L935.767 218.947L935.392 219.03ZM933.799 219.384L933.424 219.467L933.507 219.841L933.882 219.758L933.799 219.384ZM932.091 211.684L932.466 211.601L932.35 211.077L931.892 211.357L932.091 211.684ZM929.918 213.009L929.544 213.092L929.66 213.616L930.118 213.337L929.918 213.009ZM929.619 211.659L929.412 211.336L929.186 211.481L929.244 211.742L929.619 211.659ZM933.055 209.453L932.972 209.078L932.905 209.093L932.847 209.13L933.055 209.453ZM933.259 209.408L933.634 209.325L933.55 208.95L933.176 209.033L933.259 209.408ZM935.309 218.656L933.716 219.009L933.882 219.758L935.476 219.405L935.309 218.656ZM934.173 219.301L932.466 211.601L931.717 211.768L933.424 219.467L934.173 219.301ZM931.892 211.357L929.719 212.682L930.118 213.337L932.291 212.012L931.892 211.357ZM930.293 212.926L929.994 211.576L929.244 211.742L929.544 213.092L930.293 212.926ZM929.826 211.982L933.262 209.776L932.847 209.13L929.412 211.336L929.826 211.982ZM933.138 209.828L933.342 209.783L933.176 209.033L932.972 209.078L933.138 209.828ZM932.884 209.491L935.018 219.113L935.767 218.947L933.634 209.325L932.884 209.491Z" fill="#002D56"/>
<path d="M947.718 210.847C947.576 210.732 947.402 210.519 947.197 210.208C946.895 211.034 946.34 211.624 945.533 211.979C944.75 212.323 944.013 212.38 943.322 212.151C942.631 211.921 942.141 211.477 941.852 210.819C941.487 209.988 941.515 209.217 941.936 208.505C942.359 207.786 943.145 207.174 944.293 206.67L945.367 206.198L945.142 205.686C944.965 205.283 944.71 205.011 944.379 204.87C944.046 204.724 943.648 204.752 943.187 204.955C942.789 205.13 942.506 205.374 942.34 205.688C942.172 205.997 942.156 206.305 942.291 206.612L940.54 207.381C940.352 206.954 940.318 206.493 940.439 205.998C940.558 205.499 940.814 205.037 941.206 204.613C941.603 204.186 942.102 203.841 942.703 203.577C943.615 203.176 944.444 203.087 945.19 203.31C945.933 203.528 946.494 204.049 946.874 204.874L948.419 208.39C948.727 209.092 949.071 209.608 949.452 209.94L949.505 210.062L947.718 210.847ZM945.24 210.431C945.586 210.279 945.874 210.053 946.102 209.752C946.336 209.449 946.467 209.121 946.497 208.77L945.851 207.3L944.907 207.715C944.258 208 943.82 208.327 943.593 208.696C943.365 209.066 943.342 209.457 943.524 209.87C943.672 210.206 943.9 210.427 944.21 210.531C944.522 210.629 944.866 210.596 945.24 210.431Z" fill="white"/>
<path d="M947.718 210.847L947.477 211.145L947.659 211.293L947.873 211.199L947.718 210.847ZM947.197 210.208L947.517 209.996L947.098 209.361L946.836 210.076L947.197 210.208ZM943.322 212.151L943.201 212.515L943.322 212.151ZM941.936 208.505L942.266 208.7L942.266 208.699L941.936 208.505ZM945.367 206.198L945.521 206.549L945.872 206.395L945.718 206.044L945.367 206.198ZM944.379 204.87L944.225 205.221L944.229 205.223L944.379 204.87ZM942.34 205.688L942.677 205.871L942.679 205.867L942.34 205.688ZM942.291 206.612L942.445 206.964L942.796 206.809L942.642 206.458L942.291 206.612ZM940.54 207.381L940.188 207.536L940.343 207.887L940.694 207.733L940.54 207.381ZM940.439 205.998L940.812 206.09L940.813 206.087L940.439 205.998ZM941.206 204.613L940.925 204.351L940.924 204.352L941.206 204.613ZM945.19 203.31L945.08 203.678L945.082 203.678L945.19 203.31ZM946.874 204.874L947.225 204.72L947.223 204.714L946.874 204.874ZM949.452 209.94L949.803 209.785L949.768 209.707L949.704 209.65L949.452 209.94ZM949.505 210.062L949.66 210.414L950.011 210.259L949.857 209.908L949.505 210.062ZM946.102 209.752L945.798 209.517L945.797 209.519L946.102 209.752ZM946.497 208.77L946.879 208.802L946.887 208.705L946.848 208.616L946.497 208.77ZM945.851 207.3L946.202 207.146L946.048 206.795L945.697 206.949L945.851 207.3ZM944.21 210.531L944.087 210.895L944.095 210.898L944.21 210.531ZM947.96 210.549C947.866 210.473 947.718 210.301 947.517 209.996L946.877 210.419C947.086 210.737 947.286 210.991 947.477 211.145L947.96 210.549ZM946.836 210.076C946.57 210.804 946.091 211.315 945.379 211.627L945.688 212.33C946.59 211.934 947.219 211.264 947.557 210.34L946.836 210.076ZM945.379 211.627C944.667 211.94 944.029 211.981 943.443 211.786L943.201 212.515C943.998 212.779 944.834 212.705 945.688 212.33L945.379 211.627ZM943.443 211.786C942.854 211.591 942.448 211.222 942.203 210.665L941.501 210.974C941.834 211.733 942.409 212.252 943.201 212.515L943.443 211.786ZM942.203 210.665C941.882 209.934 941.915 209.294 942.266 208.7L941.605 208.309C941.115 209.139 941.092 210.042 941.501 210.974L942.203 210.665ZM942.266 208.699C942.633 208.077 943.338 207.508 944.447 207.021L944.139 206.318C942.952 206.84 942.085 207.494 941.605 208.31L942.266 208.699ZM944.447 207.021L945.521 206.549L945.212 205.847L944.139 206.318L944.447 207.021ZM945.718 206.044L945.493 205.532L944.791 205.841L945.015 206.352L945.718 206.044ZM945.493 205.532C945.286 205.06 944.97 204.704 944.529 204.516L944.229 205.223C944.451 205.317 944.643 205.505 944.791 205.841L945.493 205.532ZM944.533 204.518C944.068 204.315 943.553 204.375 943.033 204.603L943.342 205.306C943.744 205.129 944.023 205.133 944.225 205.221L944.533 204.518ZM943.033 204.603C942.573 204.805 942.216 205.102 942.001 205.508L942.679 205.867C942.796 205.646 943.004 205.455 943.342 205.306L943.033 204.603ZM942.003 205.504C941.781 205.912 941.754 206.344 941.939 206.766L942.642 206.458C942.557 206.265 942.563 206.081 942.677 205.871L942.003 205.504ZM942.136 206.261L940.385 207.03L940.694 207.733L942.445 206.964L942.136 206.261ZM940.891 207.227C940.74 206.884 940.709 206.51 940.812 206.09L940.067 205.907C939.927 206.476 939.963 207.024 940.188 207.536L940.891 207.227ZM940.813 206.087C940.914 205.66 941.135 205.256 941.488 204.873L940.924 204.352C940.493 204.819 940.202 205.338 940.066 205.909L940.813 206.087ZM941.487 204.874C941.844 204.49 942.298 204.174 942.857 203.929L942.548 203.226C941.906 203.508 941.362 203.882 940.925 204.351L941.487 204.874ZM942.857 203.929C943.71 203.554 944.444 203.488 945.08 203.678L945.3 202.942C944.445 202.687 943.52 202.799 942.548 203.226L942.857 203.929ZM945.082 203.678C945.7 203.859 946.183 204.291 946.525 205.034L947.223 204.714C946.806 203.807 946.166 203.196 945.298 202.942L945.082 203.678ZM946.523 205.028L948.067 208.545L948.77 208.236L947.225 204.72L946.523 205.028ZM948.067 208.545C948.387 209.274 948.76 209.846 949.199 210.229L949.704 209.65C949.382 209.37 949.066 208.91 948.77 208.236L948.067 208.545ZM949.1 210.094L949.154 210.216L949.857 209.908L949.803 209.785L949.1 210.094ZM949.351 209.711L947.564 210.496L947.873 211.199L949.66 210.414L949.351 209.711ZM945.395 210.783C945.8 210.604 946.14 210.337 946.408 209.984L945.797 209.519C945.607 209.769 945.372 209.954 945.086 210.08L945.395 210.783ZM946.406 209.986C946.681 209.63 946.843 209.233 946.879 208.802L946.114 208.739C946.092 209.01 945.991 209.267 945.798 209.517L946.406 209.986ZM946.848 208.616L946.202 207.146L945.5 207.455L946.145 208.925L946.848 208.616ZM945.697 206.949L944.753 207.364L945.061 208.066L946.005 207.652L945.697 206.949ZM944.753 207.364C944.074 207.662 943.553 208.029 943.266 208.495L943.92 208.898C944.088 208.625 944.443 208.338 945.061 208.066L944.753 207.364ZM943.266 208.495C942.969 208.977 942.943 209.501 943.173 210.024L943.875 209.716C943.742 209.412 943.761 209.155 943.92 208.898L943.266 208.495ZM943.173 210.024C943.358 210.446 943.662 210.751 944.087 210.895L944.333 210.168C944.139 210.102 943.986 209.967 943.875 209.716L943.173 210.024ZM944.095 210.898C944.517 211.03 944.957 210.975 945.395 210.783L945.086 210.08C944.774 210.217 944.528 210.229 944.325 210.165L944.095 210.898Z" fill="#002D56"/>
<path d="M960.83 203.425L959.244 211.383L957.844 211.693L959.498 204.065L955.365 204.982L955.128 203.912L960.666 202.684L960.83 203.425Z" fill="#002D56"/>
<path d="M971.731 204.846L970.125 205.202L968.199 197.35L970.166 196.914L971.731 204.846ZM970.43 207.666C970.365 207.374 970.406 207.112 970.554 206.88C970.7 206.644 970.937 206.489 971.265 206.416C971.593 206.344 971.873 206.384 972.106 206.536C972.337 206.684 972.486 206.903 972.55 207.195C972.613 207.477 972.573 207.733 972.43 207.964C972.288 208.194 972.048 208.347 971.71 208.422C971.372 208.497 971.089 208.46 970.863 208.311C970.637 208.163 970.492 207.947 970.43 207.666Z" fill="white"/>
<path d="M971.731 204.846L971.814 205.22L972.18 205.139L972.108 204.771L971.731 204.846ZM970.125 205.202L969.752 205.293L969.842 205.658L970.208 205.577L970.125 205.202ZM968.199 197.35L968.116 196.975L967.732 197.06L967.826 197.441L968.199 197.35ZM970.166 196.914L970.542 196.839L970.466 196.454L970.083 196.539L970.166 196.914ZM970.554 206.88L970.877 207.087L970.88 207.082L970.554 206.88ZM972.106 206.536L971.895 206.857L971.9 206.86L972.106 206.536ZM971.648 204.471L970.042 204.827L970.208 205.577L971.814 205.22L971.648 204.471ZM970.498 205.11L968.571 197.258L967.826 197.441L969.752 205.293L970.498 205.11ZM968.282 197.724L970.249 197.288L970.083 196.539L968.116 196.975L968.282 197.724ZM969.789 196.988L971.355 204.92L972.108 204.771L970.542 196.839L969.789 196.988ZM970.804 207.583C970.759 207.38 970.79 207.224 970.877 207.087L970.23 206.674C970.023 207 969.97 207.367 970.055 207.749L970.804 207.583ZM970.88 207.082C970.961 206.951 971.099 206.846 971.348 206.791L971.182 206.042C970.775 206.132 970.439 206.336 970.227 206.678L970.88 207.082ZM971.348 206.791C971.597 206.736 971.767 206.773 971.895 206.857L972.316 206.215C971.98 205.994 971.589 205.951 971.182 206.042L971.348 206.791ZM971.9 206.86C972.037 206.948 972.131 207.076 972.176 207.279L972.925 207.112C972.84 206.731 972.638 206.42 972.312 206.213L971.9 206.86ZM972.176 207.279C972.218 207.47 972.19 207.623 972.104 207.762L972.757 208.165C972.956 207.844 973.008 207.485 972.925 207.112L972.176 207.279ZM972.104 207.762C972.03 207.881 971.893 207.988 971.627 208.047L971.793 208.796C972.202 208.706 972.546 208.507 972.757 208.165L972.104 207.762ZM971.627 208.047C971.36 208.106 971.191 208.067 971.074 207.99L970.652 208.632C970.988 208.852 971.383 208.887 971.793 208.796L971.627 208.047ZM971.074 207.99C970.937 207.9 970.847 207.774 970.804 207.583L970.055 207.749C970.137 208.121 970.337 208.425 970.652 208.632L971.074 207.99Z" fill="#002D56"/>
<path d="M984.534 201.335C984.511 200.832 984.314 200.452 983.945 200.196C983.582 199.94 982.932 199.694 981.997 199.459C981.061 199.224 980.313 198.949 979.752 198.634C978.679 198.027 978.118 197.196 978.069 196.143C978.027 195.22 978.366 194.443 979.088 193.811C979.815 193.178 980.779 192.834 981.979 192.779C982.776 192.742 983.493 192.856 984.13 193.12C984.767 193.385 985.277 193.782 985.658 194.31C986.04 194.834 986.246 195.426 986.276 196.086L984.295 196.178C984.267 195.58 984.057 195.122 983.664 194.804C983.276 194.481 982.734 194.335 982.037 194.368C981.387 194.398 980.887 194.56 980.539 194.855C980.195 195.149 980.035 195.545 980.058 196.043C980.077 196.462 980.288 196.804 980.689 197.07C981.089 197.329 981.741 197.572 982.645 197.798C983.548 198.019 984.277 198.287 984.833 198.603C985.388 198.914 985.802 199.283 986.074 199.712C986.346 200.135 986.495 200.64 986.522 201.227C986.566 202.181 986.235 202.958 985.527 203.558C984.825 204.153 983.847 204.479 982.594 204.537C981.766 204.575 980.996 204.459 980.285 204.187C979.579 203.91 979.02 203.51 978.607 202.988C978.199 202.466 977.979 201.846 977.945 201.128L979.935 201.036C979.965 201.686 980.203 202.179 980.649 202.516C981.095 202.852 981.72 203.002 982.521 202.965C983.213 202.933 983.726 202.77 984.059 202.476C984.397 202.177 984.555 201.796 984.534 201.335Z" fill="white"/>
<path d="M983.945 200.196L983.724 200.51L983.727 200.512L983.945 200.196ZM979.752 198.634L979.564 198.968L979.564 198.968L979.752 198.634ZM979.088 193.811L978.836 193.521L978.835 193.522L979.088 193.811ZM985.658 194.31L985.347 194.535L985.348 194.536L985.658 194.31ZM986.276 196.086L986.294 196.469L986.677 196.452L986.66 196.068L986.276 196.086ZM984.295 196.178L983.912 196.195L983.93 196.579L984.313 196.561L984.295 196.178ZM983.664 194.804L983.418 195.099L983.423 195.103L983.664 194.804ZM980.539 194.855L980.291 194.561L980.289 194.563L980.539 194.855ZM980.689 197.07L980.477 197.39L980.48 197.392L980.689 197.07ZM982.645 197.798L982.552 198.171L982.554 198.171L982.645 197.798ZM984.833 198.603L984.643 198.937L984.646 198.938L984.833 198.603ZM986.074 199.712L985.75 199.917L985.751 199.919L986.074 199.712ZM985.527 203.558L985.775 203.851L985.775 203.851L985.527 203.558ZM980.285 204.187L980.145 204.544L980.148 204.546L980.285 204.187ZM978.607 202.988L978.304 203.225L978.306 203.226L978.607 202.988ZM977.945 201.128L977.928 200.745L977.544 200.762L977.562 201.146L977.945 201.128ZM979.935 201.036L980.318 201.018L980.3 200.635L979.917 200.653L979.935 201.036ZM984.059 202.476L984.313 202.764L984.313 202.763L984.059 202.476ZM984.917 201.317C984.889 200.711 984.644 200.214 984.164 199.881L983.727 200.512C983.985 200.691 984.132 200.953 984.151 201.353L984.917 201.317ZM984.166 199.883C983.74 199.582 983.03 199.323 982.09 199.087L981.903 199.832C982.834 200.065 983.423 200.298 983.724 200.51L984.166 199.883ZM982.09 199.087C981.173 198.857 980.461 198.592 979.941 198.299L979.564 198.968C980.166 199.306 980.949 199.592 981.903 199.832L982.09 199.087ZM979.941 198.299C978.96 197.745 978.494 197.023 978.453 196.125L977.686 196.161C977.742 197.37 978.398 198.309 979.564 198.968L979.941 198.299ZM978.453 196.125C978.416 195.325 978.703 194.658 979.341 194.1L978.835 193.522C978.029 194.228 977.638 195.116 977.686 196.161L978.453 196.125ZM979.34 194.1C979.987 193.538 980.861 193.215 981.997 193.162L981.961 192.395C980.696 192.454 979.643 192.819 978.836 193.521L979.34 194.1ZM981.997 193.162C982.746 193.128 983.405 193.235 983.983 193.475L984.277 192.766C983.58 192.477 982.806 192.356 981.961 192.395L981.997 193.162ZM983.983 193.475C984.558 193.714 985.01 194.067 985.347 194.535L985.97 194.086C985.544 193.496 984.976 193.056 984.277 192.766L983.983 193.475ZM985.348 194.536C985.684 194.998 985.866 195.517 985.893 196.104L986.66 196.068C986.626 195.334 986.395 194.67 985.969 194.084L985.348 194.536ZM986.259 195.703L984.277 195.794L984.313 196.561L986.294 196.469L986.259 195.703ZM984.679 196.16C984.647 195.475 984.4 194.906 983.906 194.506L983.423 195.103C983.715 195.339 983.888 195.685 983.912 196.195L984.679 196.16ZM983.91 194.51C983.424 194.105 982.775 193.949 982.019 193.984L982.055 194.751C982.693 194.722 983.128 194.857 983.419 195.099L983.91 194.51ZM982.019 193.984C981.32 194.017 980.727 194.193 980.291 194.561L980.786 195.148C981.048 194.927 981.454 194.779 982.055 194.751L982.019 193.984ZM980.289 194.563C979.846 194.943 979.647 195.458 979.675 196.061L980.441 196.025C980.423 195.632 980.545 195.355 980.788 195.146L980.289 194.563ZM979.675 196.061C979.701 196.621 979.991 197.068 980.477 197.39L980.9 196.749C980.584 196.541 980.454 196.303 980.441 196.025L979.675 196.061ZM980.48 197.392C980.935 197.687 981.638 197.942 982.552 198.171L982.738 197.426C981.844 197.202 981.243 196.972 980.897 196.748L980.48 197.392ZM982.554 198.171C983.436 198.387 984.129 198.645 984.643 198.937L985.022 198.269C984.425 197.93 983.659 197.651 982.736 197.426L982.554 198.171ZM984.646 198.938C985.159 199.225 985.52 199.555 985.75 199.917L986.398 199.506C986.084 199.012 985.617 198.602 985.02 198.268L984.646 198.938ZM985.751 199.919C985.98 200.277 986.114 200.714 986.139 201.245L986.906 201.21C986.876 200.567 986.711 199.994 986.397 199.505L985.751 199.919ZM986.139 201.245C986.178 202.084 985.893 202.745 985.279 203.266L985.775 203.851C986.577 203.171 986.955 202.278 986.906 201.21L986.139 201.245ZM985.279 203.265C984.661 203.788 983.775 204.098 982.576 204.154L982.612 204.921C983.919 204.86 984.988 204.517 985.775 203.851L985.279 203.265ZM982.576 204.154C981.796 204.19 981.08 204.08 980.422 203.829L980.148 204.546C980.913 204.838 981.736 204.961 982.612 204.921L982.576 204.154ZM980.425 203.83C979.773 203.574 979.273 203.212 978.908 202.75L978.306 203.226C978.766 203.809 979.385 204.246 980.145 204.544L980.425 203.83ZM978.909 202.752C978.555 202.298 978.359 201.756 978.329 201.11L977.562 201.146C977.599 201.936 977.843 202.634 978.304 203.225L978.909 202.752ZM977.963 201.511L979.952 201.419L979.917 200.653L977.928 200.745L977.963 201.511ZM979.551 201.054C979.586 201.797 979.865 202.405 980.418 202.822L980.88 202.209C980.541 201.953 980.344 201.575 980.318 201.018L979.551 201.054ZM980.418 202.822C980.961 203.232 981.686 203.388 982.539 203.348L982.504 202.581C981.753 202.616 981.23 202.473 980.88 202.209L980.418 202.822ZM982.539 203.348C983.272 203.314 983.886 203.14 984.313 202.764L983.805 202.188C983.565 202.4 983.154 202.551 982.504 202.581L982.539 203.348ZM984.313 202.763C984.74 202.385 984.944 201.892 984.917 201.317L984.151 201.353C984.167 201.701 984.053 201.968 983.804 202.189L984.313 202.763Z" fill="#002D56"/>
<path d="M995.471 196.125L995.844 197.809L997.067 197.538L997.323 198.691L996.1 198.962L996.957 202.829C997.016 203.094 997.11 203.275 997.239 203.372C997.371 203.463 997.571 203.479 997.84 203.419C998.02 203.38 998.196 203.318 998.37 203.235L998.637 204.439C998.305 204.615 997.974 204.74 997.645 204.813C996.45 205.078 995.706 204.551 995.414 203.232L994.544 199.307L993.404 199.56L993.148 198.407L994.288 198.154L993.915 196.47L995.471 196.125Z" fill="white"/>
<path d="M995.471 196.125L995.845 196.042L995.762 195.667L995.387 195.75L995.471 196.125ZM995.844 197.809L995.469 197.892L995.552 198.267L995.927 198.184L995.844 197.809ZM997.067 197.538L997.442 197.455L997.359 197.08L996.984 197.163L997.067 197.538ZM997.323 198.691L997.406 199.065L997.78 198.982L997.697 198.608L997.323 198.691ZM996.1 198.962L996.016 198.587L995.642 198.67L995.725 199.045L996.1 198.962ZM997.239 203.372L997.008 203.678L997.014 203.683L997.02 203.687L997.239 203.372ZM998.37 203.235L998.745 203.152L998.64 202.68L998.205 202.889L998.37 203.235ZM998.637 204.439L998.817 204.777L999.075 204.64L999.012 204.355L998.637 204.439ZM994.544 199.307L994.918 199.224L994.835 198.849L994.46 198.932L994.544 199.307ZM993.404 199.56L993.029 199.643L993.112 200.017L993.487 199.934L993.404 199.56ZM993.148 198.407L993.065 198.032L992.69 198.115L992.774 198.49L993.148 198.407ZM994.288 198.154L994.371 198.529L994.746 198.446L994.663 198.071L994.288 198.154ZM993.915 196.47L993.831 196.095L993.457 196.179L993.54 196.553L993.915 196.47ZM995.096 196.208L995.469 197.892L996.219 197.726L995.845 196.042L995.096 196.208ZM995.927 198.184L997.15 197.913L996.984 197.163L995.761 197.435L995.927 198.184ZM996.692 197.621L996.948 198.774L997.697 198.608L997.442 197.455L996.692 197.621ZM997.239 198.316L996.016 198.587L996.183 199.336L997.406 199.065L997.239 198.316ZM995.725 199.045L996.582 202.912L997.332 202.746L996.474 198.879L995.725 199.045ZM996.582 202.912C996.648 203.21 996.77 203.5 997.008 203.678L997.469 203.065C997.449 203.05 997.383 202.978 997.332 202.746L996.582 202.912ZM997.02 203.687C997.286 203.871 997.62 203.861 997.923 203.794L997.757 203.045C997.647 203.069 997.57 203.074 997.519 203.07C997.494 203.068 997.478 203.064 997.469 203.061C997.464 203.059 997.461 203.058 997.459 203.057C997.458 203.057 997.458 203.056 997.457 203.056C997.457 203.056 997.457 203.056 997.457 203.056L997.02 203.687ZM997.923 203.794C998.133 203.748 998.337 203.676 998.536 203.581L998.205 202.889C998.056 202.96 997.907 203.012 997.757 203.045L997.923 203.794ZM997.996 203.318L998.263 204.522L999.012 204.355L998.745 203.152L997.996 203.318ZM998.457 204.1C998.152 204.262 997.854 204.374 997.562 204.438L997.729 205.188C998.095 205.106 998.458 204.969 998.817 204.777L998.457 204.1ZM997.562 204.438C997.033 204.556 996.669 204.485 996.413 204.303C996.149 204.116 995.924 203.759 995.789 203.149L995.039 203.315C995.196 204.024 995.489 204.59 995.969 204.93C996.457 205.275 997.063 205.335 997.729 205.188L997.562 204.438ZM995.789 203.149L994.918 199.224L994.169 199.39L995.039 203.315L995.789 203.149ZM994.46 198.932L993.321 199.185L993.487 199.934L994.627 199.681L994.46 198.932ZM993.778 199.476L993.523 198.324L992.774 198.49L993.029 199.643L993.778 199.476ZM993.231 198.782L994.371 198.529L994.205 197.78L993.065 198.032L993.231 198.782ZM994.663 198.071L994.289 196.387L993.54 196.553L993.913 198.237L994.663 198.071ZM993.998 196.845L995.554 196.5L995.387 195.75L993.831 196.095L993.998 196.845Z" fill="#002D56"/>
<path d="M1006.75 196.918L1005.19 197.264L1005.29 200.231L1004.13 200.49L1004.02 197.522L1002.42 197.879L1002.17 196.78L1003.99 196.378L1003.91 194.112L1002.22 194.487L1001.97 193.382L1003.87 192.961L1003.77 189.949L1004.93 189.691L1005.03 192.703L1006.6 192.357L1006.5 189.344L1007.66 189.087L1007.76 192.099L1009.2 191.778L1009.45 192.884L1007.79 193.251L1007.87 195.516L1009.41 195.175L1009.65 196.274L1007.91 196.661L1008.01 199.628L1006.85 199.886L1006.75 196.918ZM1005.16 196.119L1006.71 195.774L1006.63 193.508L1005.08 193.853L1005.16 196.119Z" fill="#002D56"/>
<path d="M1013.93 192.948C1013.65 191.667 1013.72 190.575 1014.14 189.669C1014.56 188.759 1015.27 188.193 1016.27 187.971C1017.15 187.776 1017.93 187.926 1018.61 188.42L1017.67 184.163L1019.54 183.749L1022.15 195.551L1020.46 195.926L1020.18 195.086C1019.77 195.886 1019.1 196.389 1018.17 196.596C1017.2 196.812 1016.32 196.595 1015.54 195.945C1014.77 195.294 1014.23 194.295 1013.93 192.948ZM1015.84 192.695C1016.02 193.541 1016.33 194.166 1016.76 194.571C1017.19 194.969 1017.71 195.102 1018.31 194.969C1019.07 194.8 1019.55 194.335 1019.76 193.576L1018.97 190.026C1018.48 189.436 1017.85 189.226 1017.09 189.395C1016.48 189.529 1016.07 189.873 1015.85 190.427C1015.63 190.976 1015.62 191.732 1015.84 192.695Z" fill="white"/>
<path d="M1014.14 189.669L1014.49 189.832L1014.49 189.831L1014.14 189.669ZM1018.61 188.42L1018.39 188.73L1019.21 189.327L1018.99 188.337L1018.61 188.42ZM1017.67 184.163L1017.59 183.788L1017.21 183.871L1017.3 184.246L1017.67 184.163ZM1019.54 183.749L1019.91 183.666L1019.83 183.291L1019.45 183.374L1019.54 183.749ZM1022.15 195.551L1022.24 195.926L1022.61 195.843L1022.53 195.468L1022.15 195.551ZM1020.46 195.926L1020.1 196.049L1020.21 196.376L1020.55 196.301L1020.46 195.926ZM1020.18 195.086L1020.54 194.964L1020.25 194.1L1019.84 194.912L1020.18 195.086ZM1015.54 195.945L1015.3 196.239L1015.3 196.24L1015.54 195.945ZM1016.76 194.571L1016.5 194.849L1016.5 194.853L1016.76 194.571ZM1019.76 193.576L1020.13 193.674L1020.15 193.584L1020.13 193.493L1019.76 193.576ZM1018.97 190.026L1019.34 189.943L1019.32 189.852L1019.27 189.78L1018.97 190.026ZM1015.85 190.427L1016.21 190.571L1016.21 190.569L1015.85 190.427ZM1014.31 192.865C1014.04 191.641 1014.11 190.639 1014.49 189.832L1013.8 189.507C1013.33 190.51 1013.26 191.694 1013.56 193.031L1014.31 192.865ZM1014.49 189.831C1014.86 189.031 1015.47 188.542 1016.36 188.346L1016.19 187.597C1015.08 187.844 1014.27 188.486 1013.79 189.508L1014.49 189.831ZM1016.36 188.346C1017.14 188.173 1017.81 188.306 1018.39 188.73L1018.84 188.11C1018.06 187.545 1017.17 187.38 1016.19 187.597L1016.36 188.346ZM1018.99 188.337L1018.04 184.08L1017.3 184.246L1018.24 188.503L1018.99 188.337ZM1017.75 184.538L1019.62 184.124L1019.45 183.374L1017.59 183.788L1017.75 184.538ZM1019.16 183.832L1021.78 195.634L1022.53 195.468L1019.91 183.666L1019.16 183.832ZM1022.07 195.177L1020.38 195.551L1020.55 196.301L1022.24 195.926L1022.07 195.177ZM1020.83 195.804L1020.54 194.964L1019.82 195.209L1020.1 196.049L1020.83 195.804ZM1019.84 194.912C1019.49 195.602 1018.92 196.038 1018.09 196.221L1018.25 196.971C1019.29 196.741 1020.06 196.17 1020.52 195.261L1019.84 194.912ZM1018.09 196.221C1017.23 196.411 1016.48 196.226 1015.79 195.651L1015.3 196.24C1016.16 196.964 1017.16 197.213 1018.25 196.971L1018.09 196.221ZM1015.79 195.652C1015.1 195.072 1014.6 194.16 1014.31 192.865L1013.56 193.031C1013.87 194.431 1014.44 195.517 1015.3 196.239L1015.79 195.652ZM1015.46 192.779C1015.66 193.665 1015.99 194.373 1016.5 194.849L1017.02 194.292C1016.67 193.959 1016.39 193.416 1016.21 192.612L1015.46 192.779ZM1016.5 194.853C1017.03 195.341 1017.68 195.502 1018.39 195.344L1018.23 194.594C1017.74 194.701 1017.36 194.597 1017.02 194.288L1016.5 194.853ZM1018.39 195.344C1018.83 195.246 1019.21 195.059 1019.51 194.77C1019.81 194.482 1020.01 194.11 1020.13 193.674L1019.39 193.477C1019.3 193.801 1019.16 194.041 1018.98 194.217C1018.79 194.393 1018.55 194.522 1018.23 194.594L1018.39 195.344ZM1020.13 193.493L1019.34 189.943L1018.6 190.109L1019.38 193.659L1020.13 193.493ZM1019.27 189.78C1018.98 189.44 1018.64 189.193 1018.25 189.062C1017.86 188.931 1017.44 188.923 1017.01 189.02L1017.17 189.77C1017.5 189.697 1017.77 189.71 1018.01 189.79C1018.25 189.869 1018.47 190.022 1018.68 190.271L1019.27 189.78ZM1017.01 189.02C1016.28 189.18 1015.76 189.608 1015.49 190.285L1016.21 190.569C1016.38 190.138 1016.69 189.877 1017.17 189.77L1017.01 189.02ZM1015.49 190.283C1015.23 190.938 1015.24 191.785 1015.46 192.779L1016.21 192.612C1016.01 191.68 1016.03 191.015 1016.21 190.571L1015.49 190.283Z" fill="#002D56"/>
<path d="M1032.17 190.662C1032.44 191.888 1032.41 192.864 1032.09 193.59C1031.77 194.312 1031.14 194.777 1030.21 194.985C1029.29 195.189 1028.53 195.04 1027.92 194.539C1027.32 194.033 1026.89 193.187 1026.61 191.999L1026.28 190.524C1026.01 189.298 1026.04 188.328 1026.36 187.614C1026.68 186.899 1027.31 186.438 1028.25 186.229C1029.19 186.022 1029.95 186.167 1030.54 186.663C1031.13 187.158 1031.56 187.999 1031.84 189.187L1032.17 190.662ZM1030.39 189.385C1030.21 188.585 1029.97 188.024 1029.67 187.702C1029.37 187.375 1028.98 187.265 1028.51 187.371C1028.04 187.474 1027.74 187.727 1027.6 188.131C1027.46 188.53 1027.47 189.106 1027.62 189.858L1028.05 191.79C1028.23 192.586 1028.47 193.155 1028.78 193.496C1029.09 193.837 1029.48 193.954 1029.96 193.849C1030.41 193.748 1030.71 193.493 1030.85 193.086C1030.99 192.674 1030.98 192.083 1030.82 191.311L1030.39 189.385Z" fill="white"/>
<path d="M1032.09 193.59L1031.74 193.435L1031.74 193.435L1032.09 193.59ZM1027.92 194.539L1027.68 194.833L1027.68 194.834L1027.92 194.539ZM1026.61 191.999L1026.24 192.082L1026.24 192.086L1026.61 191.999ZM1026.36 187.614L1026.01 187.456L1026.01 187.457L1026.36 187.614ZM1030.54 186.663L1030.29 186.956L1030.29 186.957L1030.54 186.663ZM1031.84 189.187L1032.21 189.104L1032.21 189.1L1031.84 189.187ZM1029.67 187.702L1029.39 187.962L1029.39 187.964L1029.67 187.702ZM1027.6 188.131L1027.96 188.258L1027.96 188.256L1027.6 188.131ZM1027.62 189.858L1027.25 189.935L1027.25 189.941L1027.62 189.858ZM1030.85 193.086L1031.21 193.21L1031.21 193.208L1030.85 193.086ZM1030.82 191.311L1031.19 191.234L1031.19 191.228L1030.82 191.311ZM1031.79 190.745C1032.06 191.934 1032.02 192.815 1031.74 193.435L1032.44 193.746C1032.81 192.912 1032.82 191.842 1032.54 190.579L1031.79 190.745ZM1031.74 193.435C1031.48 194.021 1030.97 194.422 1030.12 194.61L1030.29 195.359C1031.32 195.132 1032.06 194.603 1032.44 193.746L1031.74 193.435ZM1030.12 194.61C1029.29 194.794 1028.66 194.654 1028.17 194.244L1027.68 194.834C1028.39 195.427 1029.28 195.583 1030.29 195.359L1030.12 194.61ZM1028.17 194.246C1027.66 193.816 1027.25 193.061 1026.98 191.912L1026.24 192.086C1026.52 193.312 1026.99 194.251 1027.68 194.833L1028.17 194.246ZM1026.98 191.916L1026.66 190.44L1025.91 190.607L1026.24 192.082L1026.98 191.916ZM1026.66 190.44C1026.39 189.251 1026.43 188.377 1026.71 187.772L1026.01 187.457C1025.64 188.28 1025.63 189.345 1025.91 190.607L1026.66 190.44ZM1026.71 187.773C1026.97 187.193 1027.48 186.793 1028.34 186.604L1028.17 185.854C1027.14 186.083 1026.39 186.606 1026.01 187.456L1026.71 187.773ZM1028.34 186.604C1029.18 186.416 1029.81 186.556 1030.29 186.956L1030.78 186.369C1030.08 185.778 1029.19 185.629 1028.17 185.854L1028.34 186.604ZM1030.29 186.957C1030.79 187.376 1031.2 188.123 1031.47 189.274L1032.21 189.1C1031.93 187.875 1031.47 186.94 1030.78 186.368L1030.29 186.957ZM1031.47 189.27L1031.79 190.745L1032.54 190.579L1032.21 189.104L1031.47 189.27ZM1030.77 189.302C1030.58 188.484 1030.33 187.839 1029.95 187.44L1029.39 187.964C1029.62 188.209 1029.84 188.687 1030.02 189.468L1030.77 189.302ZM1029.96 187.441C1029.55 187.003 1029.02 186.864 1028.42 186.996L1028.59 187.745C1028.95 187.666 1029.19 187.748 1029.39 187.962L1029.96 187.441ZM1028.42 186.996C1027.85 187.124 1027.43 187.459 1027.24 188.005L1027.96 188.256C1028.05 187.995 1028.24 187.823 1028.59 187.745L1028.42 186.996ZM1027.24 188.003C1027.06 188.503 1027.09 189.163 1027.25 189.935L1028 189.781C1027.85 189.05 1027.86 188.558 1027.96 188.258L1027.24 188.003ZM1027.25 189.941L1027.68 191.873L1028.42 191.707L1028 189.775L1027.25 189.941ZM1027.68 191.873C1027.86 192.691 1028.12 193.338 1028.49 193.754L1029.06 193.238C1028.82 192.971 1028.6 192.481 1028.42 191.707L1027.68 191.873ZM1028.49 193.754C1028.9 194.204 1029.44 194.357 1030.04 194.224L1029.87 193.474C1029.52 193.552 1029.27 193.47 1029.06 193.238L1028.49 193.754ZM1030.04 194.224C1030.61 194.096 1031.03 193.756 1031.21 193.21L1030.49 192.962C1030.39 193.23 1030.21 193.399 1029.87 193.474L1030.04 194.224ZM1031.21 193.208C1031.38 192.699 1031.36 192.026 1031.19 191.234L1030.44 191.389C1030.6 192.14 1030.59 192.65 1030.49 192.964L1031.21 193.208ZM1031.19 191.228L1030.77 189.302L1030.02 189.468L1030.44 191.394L1031.19 191.228Z" fill="#002D56"/>
<path d="M1043.79 187.397L1040.61 188.893L1042.19 192.241L1040.82 192.887L1037.1 184.987L1042.12 182.625L1042.64 183.732L1038.99 185.448L1040.1 187.797L1043.28 186.301L1043.79 187.397Z" fill="#002D56"/>
<path d="M529.749 102.215L434.277 108.233L431.512 88.0751L414.1 85.8991L433.878 65.3878L433.534 41.2466L529.749 102.215Z" fill="#002D56"/>
<path d="M414.1 85.8991L429.977 76.876M414.1 85.8991L431.512 88.0751M414.1 85.8991L433.878 65.3878M429.977 76.876L529.749 102.215M429.977 76.876L431.512 88.0751M529.749 102.215L434.277 108.233L431.512 88.0751M529.749 102.215L433.534 41.2466L433.878 65.3878M529.749 102.215L433.878 65.3878" stroke="white" stroke-width="0.931183"/>
<rect x="-0.547006" y="0.366518" width="6.51828" height="4.65591" transform="matrix(-0.981036 -0.193827 -0.193827 0.981036 488.293 85.3046)" fill="white" stroke="#002D56" stroke-width="0.931183"/>
<path fill-rule="evenodd" clip-rule="evenodd" d="M485.471 85.5952C479.417 84.399 475.479 78.5214 476.675 72.4671C477.871 66.4128 483.749 62.4745 489.803 63.6706C495.598 64.8156 499.455 70.2499 498.725 76.0227C502.731 77.8481 500.959 82.7436 496.603 81.3057C494.11 84.6507 489.837 86.4577 485.471 85.5952Z" fill="white"/>
<path d="M498.725 76.0227L498.532 76.4464L498.22 76.3043L498.263 75.9643L498.725 76.0227ZM496.603 81.3057L496.23 81.0274L496.431 80.7583L496.749 80.8635L496.603 81.3057ZM477.132 72.5573C475.985 78.3593 479.759 83.9921 485.561 85.1384L485.381 86.052C479.074 84.8059 474.972 78.6834 476.218 72.3768L477.132 72.5573ZM489.713 64.1274C483.911 62.9811 478.278 66.7553 477.132 72.5573L476.218 72.3768C477.464 66.0702 483.587 61.9679 489.893 63.2139L489.713 64.1274ZM498.263 75.9643C498.962 70.4325 495.266 65.2246 489.713 64.1274L489.893 63.2139C495.93 64.4066 499.947 70.0673 499.187 76.0811L498.263 75.9643ZM496.749 80.8635C498.745 81.5224 499.986 80.7119 500.365 79.7216C500.748 78.721 500.355 77.2769 498.532 76.4464L498.918 75.599C501.102 76.5939 501.825 78.5103 501.235 80.0543C500.64 81.6086 498.817 82.5269 496.457 81.7478L496.749 80.8635ZM485.561 85.1384C489.744 85.9649 493.84 84.234 496.23 81.0274L496.977 81.5839C494.381 85.0673 489.929 86.9505 485.381 86.052L485.561 85.1384Z" fill="#002D56"/>
<path d="M494.415 83.5655C491.651 82.8447 490.796 81.2946 490.479 79.4657" stroke="#002D56" stroke-width="0.931183"/>
<mask id="mask3" mask-type="alpha" maskUnits="userSpaceOnUse" x="474" y="61" width="30" height="28">
<path fill-rule="evenodd" clip-rule="evenodd" d="M485.471 85.5952C479.417 84.399 475.479 78.5214 476.675 72.4671C477.871 66.4128 483.749 62.4745 489.803 63.6706C495.598 64.8156 499.455 70.2499 498.725 76.0227C502.731 77.8481 500.959 82.7436 496.603 81.3057C494.11 84.6507 489.837 86.4577 485.471 85.5952Z" fill="white"/>
<path d="M498.725 76.0227L498.532 76.4464L498.22 76.3043L498.263 75.9643L498.725 76.0227ZM496.603 81.3057L496.23 81.0274L496.431 80.7583L496.749 80.8635L496.603 81.3057ZM477.132 72.5573C475.985 78.3593 479.759 83.9921 485.561 85.1384L485.381 86.052C479.074 84.8059 474.972 78.6834 476.218 72.3768L477.132 72.5573ZM489.713 64.1274C483.911 62.9811 478.278 66.7553 477.132 72.5573L476.218 72.3768C477.464 66.0702 483.587 61.9679 489.893 63.2139L489.713 64.1274ZM498.263 75.9643C498.962 70.4325 495.266 65.2246 489.713 64.1274L489.893 63.2139C495.93 64.4066 499.947 70.0673 499.187 76.0811L498.263 75.9643ZM496.749 80.8635C498.745 81.5224 499.986 80.7119 500.365 79.7216C500.748 78.721 500.355 77.2769 498.532 76.4464L498.918 75.599C501.102 76.5939 501.825 78.5103 501.235 80.0543C500.64 81.6086 498.817 82.5269 496.457 81.7478L496.749 80.8635ZM485.561 85.1384C489.744 85.9649 493.84 84.234 496.23 81.0274L496.977 81.5839C494.381 85.0673 489.929 86.9505 485.381 86.052L485.561 85.1384Z" fill="#002D56"/>
</mask>
<g mask="url(#mask3)">
<circle r="1.39677" transform="matrix(-0.981036 -0.193827 -0.193827 0.981036 492.199 73.1613)" fill="#002D56"/>
<path d="M486.803 69.2476C490.885 69.9207 493.109 69.7617 496.936 68.4021L497.839 63.8345L478.198 59.954L475.491 73.6569L485.539 75.6422L486.803 69.2476Z" fill="#002D56"/>
</g>
</svg>
