<svg width="375" height="340" viewBox="0 0 375 340" fill="none" xmlns="http://www.w3.org/2000/svg">
<rect x="325.818" y="0.89973" width="82.7883" height="81.7037" transform="rotate(1.08097 325.818 0.89973)" fill="white" stroke="#002D56" stroke-width="0.361521"/>
<path d="M325.306 18.4269L408.441 19.9956" stroke="#002D56" stroke-width="0.361521"/>
<rect x="352.252" y="8.44937" width="31.0908" height="4.33825" transform="rotate(1.08097 352.252 8.44937)" fill="#002D56"/>
<path d="M336.66 36.4378L334.912 36.8407L332.966 28.3951L330.59 29.8709L330.248 28.3898L334.004 25.9342L334.228 25.8826L336.66 36.4378Z" fill="white"/>
<path d="M336.66 36.4378L336.742 36.7901L337.094 36.7089L337.013 36.3566L336.66 36.4378ZM334.912 36.8407L334.56 36.9219L334.641 37.2742L334.993 37.193L334.912 36.8407ZM332.966 28.3951L333.318 28.3139L333.204 27.8212L332.775 28.088L332.966 28.3951ZM330.59 29.8709L330.237 29.9521L330.351 30.4448L330.78 30.178L330.59 29.8709ZM330.248 28.3898L330.05 28.0873L329.839 28.2253L329.896 28.471L330.248 28.3898ZM334.004 25.9342L333.923 25.5819L333.86 25.5964L333.806 25.6316L334.004 25.9342ZM334.228 25.8826L334.58 25.8014L334.499 25.4491L334.147 25.5303L334.228 25.8826ZM336.579 36.0855L334.831 36.4884L334.993 37.193L336.742 36.7901L336.579 36.0855ZM335.264 36.7595L333.318 28.3139L332.613 28.4763L334.56 36.9219L335.264 36.7595ZM332.775 28.088L330.399 29.5638L330.78 30.178L333.156 28.7022L332.775 28.088ZM330.942 29.7897L330.601 28.3087L329.896 28.471L330.237 29.9521L330.942 29.7897ZM330.446 28.6924L334.202 26.2368L333.806 25.6316L330.05 28.0873L330.446 28.6924ZM334.085 26.2865L334.309 26.2349L334.147 25.5303L333.923 25.5819L334.085 26.2865ZM333.876 25.9638L336.308 36.519L337.013 36.3566L334.58 25.8014L333.876 25.9638Z" fill="#002D56"/>
<path d="M332.982 75.9359L331.296 75.3215L334.264 67.1785L331.468 67.1219L331.988 65.694L336.475 65.6802L336.691 65.7589L332.982 75.9359Z" fill="white"/>
<path d="M332.982 75.9359L332.858 76.2755L333.198 76.3993L333.322 76.0596L332.982 75.9359ZM331.296 75.3215L330.957 75.1977L330.833 75.5373L331.172 75.6611L331.296 75.3215ZM334.264 67.1785L334.604 67.3023L334.777 66.8273L334.271 66.817L334.264 67.1785ZM331.468 67.1219L331.128 66.9982L330.955 67.4732L331.46 67.4834L331.468 67.1219ZM331.988 65.694L331.987 65.3325L331.735 65.3332L331.648 65.5702L331.988 65.694ZM336.475 65.6802L336.599 65.3405L336.539 65.3185L336.474 65.3187L336.475 65.6802ZM336.691 65.7589L337.031 65.8827L337.155 65.543L336.815 65.4192L336.691 65.7589ZM333.106 75.5962L331.42 74.9818L331.172 75.6611L332.858 76.2755L333.106 75.5962ZM331.636 75.4453L334.604 67.3023L333.924 67.0547L330.957 75.1977L331.636 75.4453ZM334.271 66.817L331.475 66.7605L331.46 67.4834L334.257 67.5399L334.271 66.817ZM331.807 67.2457L332.328 65.8178L331.648 65.5702L331.128 66.9982L331.807 67.2457ZM331.989 66.0555L336.476 66.0417L336.474 65.3187L331.987 65.3325L331.989 66.0555ZM336.351 66.0198L336.567 66.0985L336.815 65.4192L336.599 65.3405L336.351 66.0198ZM336.352 65.6351L332.642 75.8121L333.322 76.0596L337.031 65.8827L336.352 65.6351Z" fill="#002D56"/>
<path d="M362.534 64.1182L360.745 63.9821L361.402 55.3401L358.695 56.0414L358.81 54.5259L363.126 53.3001L363.355 53.3175L362.534 64.1182Z" fill="white"/>
<path d="M362.534 64.1182L362.507 64.4786L362.867 64.506L362.895 64.1456L362.534 64.1182ZM360.745 63.9821L360.385 63.9547L360.357 64.3152L360.718 64.3426L360.745 63.9821ZM361.402 55.3401L361.763 55.3675L361.801 54.8634L361.312 54.9901L361.402 55.3401ZM358.695 56.0414L358.334 56.0139L358.296 56.5181L358.785 56.3913L358.695 56.0414ZM358.81 54.5259L358.711 54.1781L358.468 54.247L358.449 54.4985L358.81 54.5259ZM363.126 53.3001L363.154 52.9396L363.089 52.9347L363.027 52.9523L363.126 53.3001ZM363.355 53.3175L363.716 53.3449L363.743 52.9844L363.383 52.957L363.355 53.3175ZM362.562 63.7577L360.773 63.6217L360.718 64.3426L362.507 64.4786L362.562 63.7577ZM361.106 64.0095L361.763 55.3675L361.042 55.3127L360.385 63.9547L361.106 64.0095ZM361.312 54.9901L358.604 55.6914L358.785 56.3913L361.493 55.6901L361.312 54.9901ZM359.055 56.0688L359.17 54.5533L358.449 54.4985L358.334 56.0139L359.055 56.0688ZM358.909 54.8736L363.225 53.6478L363.027 52.9523L358.711 54.1781L358.909 54.8736ZM363.099 53.6605L363.328 53.678L363.383 52.957L363.154 52.9396L363.099 53.6605ZM362.995 53.2901L362.174 64.0907L362.895 64.1456L363.716 53.3449L362.995 53.2901Z" fill="#002D56"/>
<path d="M366.098 40.1259C365.813 41.6515 365.311 42.7493 364.592 43.4194C363.879 44.0855 362.94 44.3095 361.774 44.0914C360.627 43.8769 359.833 43.3386 359.391 42.4765C358.954 41.6104 358.867 40.4351 359.13 38.9506L359.474 37.1141C359.759 35.5886 360.257 34.4976 360.968 33.8412C361.684 33.1856 362.628 32.9674 363.799 33.1864C364.96 33.4037 365.755 33.9371 366.184 34.7868C366.619 35.6374 366.704 36.8049 366.442 38.2895L366.098 40.1259ZM364.698 37.8124C364.885 36.8164 364.885 36.0622 364.699 35.5498C364.514 35.0325 364.126 34.7184 363.533 34.6075C362.955 34.4994 362.488 34.6409 362.133 35.0321C361.78 35.4185 361.508 36.0767 361.319 37.0068L360.869 39.4117C360.684 40.4028 360.684 41.1671 360.87 41.7048C361.056 42.2424 361.445 42.5667 362.038 42.6776C362.607 42.7839 363.069 42.6391 363.424 42.243C363.781 41.8421 364.056 41.1644 364.25 40.21L364.698 37.8124Z" fill="white"/>
<path d="M364.592 43.4194L364.346 43.1549L364.345 43.1552L364.592 43.4194ZM359.391 42.4765L359.068 42.6391L359.069 42.6414L359.391 42.4765ZM359.13 38.9506L358.775 38.8841L358.774 38.8876L359.13 38.9506ZM360.968 33.8412L360.724 33.5745L360.723 33.5755L360.968 33.8412ZM366.184 34.7868L365.862 34.9498L365.862 34.9512L366.184 34.7868ZM366.442 38.2895L366.797 38.3559L366.798 38.3524L366.442 38.2895ZM364.699 35.5498L364.359 35.6714L364.359 35.673L364.699 35.5498ZM362.133 35.0321L362.4 35.2763L362.401 35.275L362.133 35.0321ZM361.319 37.0068L360.965 36.9347L360.964 36.9403L361.319 37.0068ZM360.87 41.7048L360.528 41.823L360.87 41.7048ZM363.424 42.243L363.693 42.4845L363.694 42.4832L363.424 42.243ZM364.25 40.21L364.604 40.2819L364.605 40.2765L364.25 40.21ZM365.743 40.0594C365.464 41.5499 364.984 42.5601 364.346 43.1549L364.839 43.6838C365.638 42.9384 366.162 41.753 366.454 40.1924L365.743 40.0594ZM364.345 43.1552C363.735 43.7256 362.921 43.9381 361.84 43.736L361.707 44.4467C362.959 44.6809 364.024 44.4454 364.839 43.6835L364.345 43.1552ZM361.84 43.736C360.778 43.5374 360.093 43.0534 359.712 42.3115L359.069 42.6414C359.573 43.6237 360.476 44.2163 361.707 44.4467L361.84 43.736ZM359.713 42.3138C359.327 41.5465 359.23 40.4612 359.486 39.0135L358.774 38.8876C358.505 40.409 358.582 41.6743 359.068 42.6391L359.713 42.3138ZM359.485 39.017L359.829 37.1806L359.118 37.0476L358.775 38.8841L359.485 39.017ZM359.829 37.1806C360.108 35.6889 360.585 34.6871 361.214 34.1068L360.723 33.5755C359.93 34.3081 359.41 35.4883 359.118 37.0476L359.829 37.1806ZM361.213 34.1078C361.825 33.5466 362.645 33.3384 363.732 33.5418L363.865 32.8311C362.611 32.5964 361.543 32.8247 360.724 33.5745L361.213 34.1078ZM363.732 33.5418C364.812 33.7438 365.495 34.2248 365.862 34.9498L366.507 34.6237C366.015 33.6495 365.107 33.0635 363.865 32.8311L363.732 33.5418ZM365.862 34.9512C366.246 35.7015 366.342 36.7776 366.086 38.2265L366.798 38.3524C367.067 36.8322 366.992 35.5732 366.506 34.6224L365.862 34.9512ZM366.086 38.223L365.743 40.0594L366.454 40.1924L366.797 38.3559L366.086 38.223ZM365.054 37.8789C365.243 36.8656 365.259 36.0324 365.039 35.4266L364.359 35.673C364.511 36.0921 364.526 36.7673 364.343 37.7459L365.054 37.8789ZM365.04 35.4282C364.807 34.7761 364.303 34.3839 363.599 34.2522L363.466 34.9629C363.948 35.0529 364.222 35.2889 364.359 35.6714L365.04 35.4282ZM363.599 34.2522C362.914 34.1241 362.316 34.2931 361.866 34.7892L362.401 35.275C362.661 34.9887 362.995 34.8747 363.466 34.9629L363.599 34.2522ZM361.867 34.7879C361.446 35.2478 361.158 35.9851 360.965 36.9347L361.673 37.0788C361.858 36.1682 362.114 35.5891 362.4 35.2763L361.867 34.7879ZM360.964 36.9403L360.514 39.3452L361.224 39.4781L361.674 37.0732L360.964 36.9403ZM360.514 39.3452C360.324 40.3569 360.311 41.1962 360.528 41.823L361.212 41.5866C361.057 41.1381 361.043 40.4486 361.224 39.4781L360.514 39.3452ZM360.528 41.823C360.76 42.4922 361.261 42.8999 361.972 43.0329L362.105 42.3222C361.63 42.2335 361.352 41.9927 361.212 41.5866L360.528 41.823ZM361.972 43.0329C362.651 43.1601 363.245 42.9838 363.693 42.4845L363.155 42.0014C362.892 42.2943 362.562 42.4078 362.105 42.3222L361.972 43.0329ZM363.694 42.4832C364.116 42.0098 364.407 41.2553 364.604 40.2819L363.895 40.1381C363.706 41.0735 363.446 41.6743 363.154 42.0027L363.694 42.4832ZM364.605 40.2765L365.054 37.8789L364.343 37.7459L363.894 40.1435L364.605 40.2765Z" fill="#002D56"/>
<path d="M348.852 47.196C348.934 48.7457 348.706 49.931 348.165 50.7519C347.63 51.5675 346.77 52.007 345.585 52.0703C344.421 52.1325 343.522 51.7969 342.888 51.0636C342.26 50.325 341.898 49.2034 341.803 47.6988L341.703 45.8332C341.62 44.2834 341.847 43.1056 342.383 42.2999C342.924 41.4939 343.789 41.0591 344.979 40.9955C346.158 40.9325 347.057 41.2631 347.675 41.9874C348.298 42.7114 348.657 43.8257 348.752 45.3303L348.852 47.196ZM346.945 45.2784C346.891 44.2666 346.713 43.5336 346.412 43.0795C346.11 42.6204 345.658 42.407 345.056 42.4392C344.469 42.4706 344.049 42.7182 343.796 43.1821C343.544 43.6411 343.435 44.3448 343.471 45.2932L343.602 47.7364C343.655 48.7432 343.836 49.4859 344.144 49.9645C344.452 50.443 344.906 50.6662 345.509 50.634C346.086 50.6031 346.501 50.3533 346.753 49.8844C347.005 49.4106 347.112 48.6872 347.075 47.7141L346.945 45.2784Z" fill="white"/>
<path d="M348.165 50.7519L347.864 50.5531L347.863 50.5534L348.165 50.7519ZM342.888 51.0636L342.613 51.2979L342.615 51.2998L342.888 51.0636ZM341.803 47.6988L341.442 47.7181L341.442 47.7217L341.803 47.6988ZM342.383 42.2999L342.083 42.0984L342.082 42.0996L342.383 42.2999ZM347.675 41.9874L347.4 42.222L347.401 42.2231L347.675 41.9874ZM348.752 45.3303L349.113 45.311L349.113 45.3074L348.752 45.3303ZM346.412 43.0795L346.11 43.278L346.11 43.2794L346.412 43.0795ZM343.796 43.1821L344.113 43.3565L344.114 43.3549L343.796 43.1821ZM343.471 45.2932L343.11 45.3069L343.11 45.3125L343.471 45.2932ZM346.753 49.8844L347.071 50.0557L347.072 50.0541L346.753 49.8844ZM347.075 47.7141L347.436 47.7003L347.436 47.6948L347.075 47.7141ZM348.491 47.2152C348.571 48.7294 348.343 49.8245 347.864 50.5531L348.467 50.9506C349.068 50.0376 349.297 48.762 349.213 47.1767L348.491 47.2152ZM347.863 50.5534C347.405 51.2518 346.664 51.6506 345.566 51.7092L345.605 52.4313C346.876 52.3633 347.855 51.8831 348.468 50.9503L347.863 50.5534ZM345.566 51.7092C344.488 51.7669 343.707 51.4584 343.162 50.8273L342.615 51.2998C343.336 52.1354 344.354 52.4981 345.605 52.4313L345.566 51.7092ZM343.164 50.8293C342.607 50.1749 342.257 49.1432 342.164 47.676L341.442 47.7217C341.54 49.2637 341.913 50.475 342.613 51.2978L343.164 50.8293ZM342.164 47.6796L342.064 45.8139L341.342 45.8525L341.442 47.7181L342.164 47.6796ZM342.064 45.8139C341.983 44.2985 342.21 43.2124 342.684 42.5001L342.082 42.0996C341.484 42.9988 341.257 44.2683 341.342 45.8525L342.064 45.8139ZM342.683 42.5013C343.146 41.8113 343.893 41.4155 344.998 41.3565L344.959 40.6345C343.685 40.7026 342.702 41.1764 342.083 42.0984L342.683 42.5013ZM344.998 41.3565C346.095 41.2979 346.873 41.6039 347.4 42.222L347.95 41.7528C347.242 40.9223 346.221 40.5671 344.959 40.6345L344.998 41.3565ZM347.401 42.2231C347.95 42.8618 348.298 43.8847 348.391 45.3531L349.113 45.3074C349.015 43.7667 348.645 42.561 347.949 41.7516L347.401 42.2231ZM348.391 45.3496L348.491 47.2152L349.213 47.1767L349.113 45.311L348.391 45.3496ZM347.306 45.2591C347.251 44.2297 347.069 43.4164 346.713 42.8795L346.11 43.2794C346.357 43.6508 346.531 44.3035 346.584 45.2976L347.306 45.2591ZM346.714 42.8809C346.333 42.3023 345.752 42.0399 345.037 42.0782L345.075 42.8002C345.564 42.774 345.886 42.9386 346.11 43.278L346.714 42.8809ZM345.037 42.0782C344.341 42.1153 343.799 42.421 343.479 43.0093L344.114 43.3549C344.299 43.0154 344.596 42.8258 345.075 42.8002L345.037 42.0782ZM343.48 43.0078C343.179 43.5541 343.073 44.3385 343.11 45.3069L343.832 45.2796C343.797 44.3511 343.908 43.728 344.113 43.3565L343.48 43.0078ZM343.11 45.3125L343.241 47.7557L343.963 47.7171L343.832 45.2739L343.11 45.3125ZM343.241 47.7557C343.295 48.7835 343.481 49.6021 343.84 50.16L344.448 49.7689C344.191 49.3698 344.015 48.703 343.963 47.7171L343.241 47.7557ZM343.84 50.16C344.223 50.7556 344.806 51.0336 345.528 50.995L345.489 50.273C345.007 50.2987 344.68 50.1304 344.448 49.7689L343.84 50.16ZM345.528 50.995C346.218 50.9581 346.754 50.6467 347.071 50.0557L346.435 49.7132C346.248 50.0598 345.954 50.2482 345.489 50.273L345.528 50.995ZM347.072 50.0541C347.37 49.4946 347.474 48.6928 347.436 47.7003L346.714 47.7279C346.75 48.6816 346.64 49.3267 346.434 49.7147L347.072 50.0541ZM347.436 47.6948L347.306 45.2591L346.584 45.2976L346.714 47.7334L347.436 47.6948Z" fill="#002D56"/>
<path d="M378.88 71.6831C379.217 73.1982 379.186 74.405 378.788 75.3034C378.394 76.196 377.618 76.7708 376.46 77.028C375.321 77.2808 374.379 77.0976 373.634 76.4782C372.893 75.853 372.351 74.8062 372.01 73.3377L371.605 71.5138C371.269 69.9987 371.299 68.7997 371.695 67.9168C372.096 67.0328 372.878 66.4618 374.041 66.2035C375.194 65.9475 376.135 66.1259 376.864 66.7388C377.597 67.3506 378.134 68.3907 378.475 69.8592L378.88 71.6831ZM376.685 70.105C376.465 69.1158 376.169 68.422 375.797 68.0237C375.424 67.6204 374.943 67.4842 374.354 67.6149C373.78 67.7424 373.407 68.0557 373.234 68.5548C373.06 69.049 373.069 69.761 373.26 70.6906L373.791 73.0791C374.009 74.0634 374.31 74.7663 374.692 75.1877C375.074 75.6092 375.559 75.7546 376.148 75.6238C376.713 75.4985 377.081 75.1838 377.252 74.6799C377.423 74.1712 377.41 73.4399 377.213 72.4862L376.685 70.105Z" fill="white"/>
<path d="M378.788 75.3034L378.458 75.157L378.457 75.1574L378.788 75.3034ZM373.634 76.4782L373.401 76.7546L373.403 76.7563L373.634 76.4782ZM372.01 73.3377L371.657 73.4161L371.658 73.4196L372.01 73.3377ZM371.695 67.9168L371.366 67.7674L371.365 67.7688L371.695 67.9168ZM376.864 66.7388L376.631 67.0154L376.632 67.0164L376.864 66.7388ZM378.475 69.8592L378.828 69.7808L378.828 69.7774L378.475 69.8592ZM375.797 68.0237L375.532 68.2692L375.533 68.2704L375.797 68.0237ZM373.234 68.5548L373.575 68.6747L373.576 68.673L373.234 68.5548ZM373.26 70.6906L372.906 70.7635L372.907 70.769L373.26 70.6906ZM374.692 75.1877L374.424 75.4306L374.692 75.1877ZM377.252 74.6799L377.595 74.7965L377.595 74.7949L377.252 74.6799ZM377.213 72.4862L377.567 72.4132L377.566 72.4078L377.213 72.4862ZM378.527 71.7615C378.856 73.2418 378.811 74.3595 378.458 75.157L379.119 75.4498C379.561 74.4504 379.577 73.1546 379.233 71.6047L378.527 71.7615ZM378.457 75.1574C378.12 75.9216 377.454 76.4368 376.381 76.675L376.538 77.3809C377.781 77.1049 378.668 76.4703 379.119 75.4495L378.457 75.1574ZM376.381 76.675C375.327 76.9092 374.506 76.7332 373.865 76.2002L373.403 76.7563C374.252 77.4619 375.315 77.6525 376.538 77.3809L376.381 76.675ZM373.867 76.2019C373.21 75.648 372.695 74.6878 372.362 73.2559L371.658 73.4196C372.008 74.9245 372.575 76.0581 373.401 76.7546L373.867 76.2019ZM372.363 73.2594L371.958 71.4355L371.252 71.5922L371.657 73.4161L372.363 73.2594ZM371.958 71.4355C371.629 69.9539 371.675 68.8454 372.025 68.0649L371.365 67.7688C370.923 68.7541 370.908 70.0435 371.252 71.5922L371.958 71.4355ZM372.024 68.0662C372.368 67.3094 373.039 66.7963 374.119 66.5565L373.963 65.8506C372.717 66.1272 371.825 66.7563 371.366 67.7674L372.024 68.0662ZM374.119 66.5565C375.192 66.3183 376.009 66.4924 376.631 67.0154L377.096 66.4621C376.261 65.7594 375.197 65.5767 373.963 65.8506L374.119 66.5565ZM376.632 67.0164C377.279 67.5561 377.79 68.5079 378.123 69.941L378.828 69.7774C378.478 68.2736 377.915 67.1451 377.095 66.4612L376.632 67.0164ZM378.122 69.9376L378.527 71.7615L379.233 71.6047L378.828 69.7808L378.122 69.9376ZM377.037 70.0266C376.814 69.0202 376.501 68.2479 376.061 67.7769L375.533 68.2704C375.837 68.5962 376.116 69.2114 376.332 70.1833L377.037 70.0266ZM376.062 67.7781C375.592 67.2699 374.975 67.1067 374.276 67.262L374.433 67.9678C374.911 67.8617 375.256 67.971 375.532 68.2692L376.062 67.7781ZM374.276 67.262C373.596 67.413 373.112 67.8036 372.892 68.4366L373.576 68.673C373.702 68.3078 373.965 68.0718 374.433 67.9678L374.276 67.262ZM372.893 68.4349C372.686 69.0232 372.711 69.8143 372.906 70.7635L373.614 70.6178C373.427 69.7077 373.434 69.0748 373.575 68.6747L372.893 68.4349ZM372.907 70.769L373.438 73.1574L374.144 73.0007L373.613 70.6123L372.907 70.769ZM373.438 73.1574C373.661 74.1622 373.978 74.9392 374.424 75.4306L374.96 74.9449C374.641 74.5934 374.358 73.9646 374.144 73.0007L373.438 73.1574ZM374.424 75.4306C374.9 75.9551 375.52 76.1336 376.226 75.9768L376.07 75.2709C375.598 75.3755 375.248 75.2632 374.96 74.9449L374.424 75.4306ZM376.226 75.9768C376.901 75.8269 377.378 75.4318 377.594 74.7965L376.91 74.5634C376.783 74.9359 376.524 75.1701 376.07 75.2709L376.226 75.9768ZM377.595 74.7949C377.796 74.1941 377.768 73.3859 377.567 72.4132L376.859 72.5592C377.052 73.4939 377.049 74.1483 376.91 74.565L377.595 74.7949ZM377.566 72.4078L377.037 70.0266L376.332 70.1833L376.86 72.5645L377.566 72.4078Z" fill="#002D56"/>
<path d="M349.205 33.7215L347.894 33.3337L349.767 27.0015L347.638 27.0903L347.966 25.9799L351.378 25.758L351.546 25.8076L349.205 33.7215Z" fill="#152F55"/>
<path d="M334.168 50.5377C334.487 51.6765 334.513 52.5958 334.247 53.2958C333.984 53.9911 333.417 54.4604 332.547 54.7038C331.691 54.9431 330.967 54.8425 330.375 54.402C329.785 53.9569 329.33 53.1828 329.01 52.0797L328.626 50.7088C328.308 49.57 328.281 48.6566 328.546 47.9685C328.815 47.2795 329.387 46.8128 330.261 46.5684C331.127 46.326 331.851 46.423 332.43 46.8592C333.013 47.2945 333.465 48.0636 333.785 49.1668L334.168 50.5377ZM332.433 49.4276C332.225 48.6841 331.971 48.1685 331.672 47.8807C331.371 47.5893 331 47.5055 330.557 47.6292C330.126 47.7499 329.854 48.0036 329.744 48.3904C329.632 48.7736 329.668 49.3149 329.852 50.0143L330.354 51.8095C330.56 52.5494 330.818 53.0718 331.126 53.3766C331.434 53.6815 331.809 53.7721 332.252 53.6484C332.676 53.5297 332.943 53.2752 333.053 52.8847C333.162 52.4907 333.122 51.9349 332.933 51.2174L332.433 49.4276Z" fill="#152F55"/>
<path d="M378.259 51.7312C378.578 52.87 378.604 53.7893 378.338 54.4893C378.075 55.1846 377.508 55.6539 376.638 55.8973C375.782 56.1366 375.058 56.036 374.465 55.5955C373.876 55.1504 373.421 54.3763 373.101 53.2732L372.717 51.9023C372.399 50.7635 372.372 49.8501 372.637 49.1621C372.906 48.473 373.478 48.0063 374.352 47.7619C375.218 47.5195 375.941 47.6165 376.521 48.0527C377.104 48.488 377.556 49.2571 377.876 50.3603L378.259 51.7312ZM376.523 50.6211C376.316 49.8776 376.062 49.362 375.763 49.0742C375.462 48.7828 375.091 48.699 374.648 48.8227C374.217 48.9434 373.945 49.1971 373.835 49.584C373.723 49.9671 373.759 50.5084 373.943 51.2078L374.444 53.003C374.651 53.7429 374.909 54.2653 375.217 54.5701C375.525 54.875 375.9 54.9656 376.343 54.8419C376.767 54.7232 377.034 54.4687 377.144 54.0782C377.253 53.6842 377.213 53.1284 377.024 52.4109L376.523 50.6211Z" fill="#152F55"/>
<path d="M361.337 75.738C361.295 76.9197 361.042 77.8038 360.576 78.3902C360.115 78.9729 359.432 79.2482 358.529 79.2161C357.641 79.1845 356.981 78.8691 356.55 78.2697C356.123 77.6667 355.925 76.791 355.954 75.6428L356.005 74.2202C356.047 73.0384 356.298 72.16 356.76 71.5848C357.225 71.0097 357.911 70.7383 358.818 70.7705C359.717 70.8025 360.377 71.1142 360.797 71.7056C361.22 72.2972 361.417 73.1672 361.388 74.3154L361.337 75.738ZM360.02 74.1538C360.048 73.3822 359.962 72.814 359.764 72.449C359.566 72.0802 359.238 71.8876 358.779 71.8713C358.331 71.8554 357.995 72.0149 357.772 72.3499C357.55 72.6811 357.42 73.2078 357.383 73.93L357.317 75.7929C357.289 76.5607 357.376 77.1365 357.577 77.5205C357.779 77.9045 358.109 78.1046 358.568 78.1209C359.008 78.1366 359.34 77.975 359.563 77.6363C359.786 77.2938 359.917 76.752 359.954 76.011L360.02 74.1538Z" fill="#152F55"/>
<path d="M346.695 68.1187L345.35 68.3619L344.175 61.8639L342.313 62.9009L342.107 61.7614L345.055 60.0287L345.227 59.9976L346.695 68.1187Z" fill="#152F55"/>
<path d="M58 241C58 241 102.015 212.077 146.544 211.568C187.128 211.104 202.826 230.879 243.272 227.115C284.141 223.311 317.6 195.94 339.372 157.302C350.593 137.389 362 92 362 92" stroke="#002D56" stroke-dasharray="8 10"/>
<path d="M355.539 170.125L318.827 173.869L316.681 152.829L353.393 149.085L355.539 170.125ZM320.041 172.381L354.049 168.912L352.179 150.573L318.171 154.041L320.041 172.381Z" fill="#152F55"/>
<path d="M320.041 172.381L354.049 168.912L352.179 150.573L318.171 154.041L320.041 172.381Z" fill="#152F55"/>
<path d="M316.726 153.268L336.343 163.225L353.546 149.512" stroke="white" stroke-width="0.440607"/>
<path d="M318.04 174.835L330.725 160.255" stroke="white" stroke-width="0.440607"/>
<path d="M356.613 170.901L341.245 159.182" stroke="white" stroke-width="0.440607"/>
<path d="M189.907 218.126L141.15 225.528L138.82 215.3L129.78 214.969L139.011 203.543L137.744 191.161L189.907 218.126Z" fill="#002D56"/>
<path d="M129.78 214.969L137.526 209.618M129.78 214.969L138.82 215.3M129.78 214.969L139.011 203.543M137.526 209.618L189.907 218.126M137.526 209.618L138.82 215.3M189.907 218.126L141.15 225.528L138.82 215.3M189.907 218.126L137.744 191.161L139.011 203.543M189.907 218.126L139.011 203.543" stroke="white" stroke-width="0.480049"/>
<rect x="-0.264361" y="0.212923" width="3.36034" height="2.40024" transform="matrix(-0.994243 -0.107152 -0.107152 0.994243 167.874 211.292)" fill="white" stroke="#002D56" stroke-width="0.480048"/>
<path fill-rule="evenodd" clip-rule="evenodd" d="M166.418 211.59C163.255 211.249 160.967 208.409 161.308 205.246C161.649 202.082 164.49 199.795 167.653 200.135C170.681 200.462 172.906 203.078 172.792 206.076C174.932 206.832 174.243 209.427 171.941 208.885C170.812 210.715 168.699 211.836 166.418 211.59Z" fill="white"/>
<path d="M172.792 206.076L172.712 206.302L172.546 206.243L172.553 206.067L172.792 206.076ZM171.941 208.885L171.737 208.759L171.828 208.612L171.996 208.651L171.941 208.885ZM161.547 205.271C161.22 208.303 163.413 211.025 166.444 211.352L166.393 211.829C163.098 211.474 160.714 208.515 161.07 205.22L161.547 205.271ZM167.627 200.374C164.596 200.047 161.874 202.24 161.547 205.271L161.07 205.22C161.425 201.925 164.384 199.542 167.679 199.897L167.627 200.374ZM172.553 206.067C172.662 203.194 170.529 200.687 167.627 200.374L167.679 199.897C170.833 200.237 173.151 202.962 173.032 206.085L172.553 206.067ZM171.996 208.651C173.051 208.899 173.652 208.427 173.802 207.901C173.953 207.37 173.686 206.646 172.712 206.302L172.872 205.85C174.039 206.262 174.497 207.213 174.263 208.033C174.028 208.858 173.134 209.412 171.886 209.118L171.996 208.651ZM166.444 211.352C168.629 211.587 170.655 210.513 171.737 208.759L172.146 209.011C170.97 210.917 168.769 212.085 166.393 211.829L166.444 211.352Z" fill="#002D56"/>
<path d="M170.92 210.144C169.468 209.899 168.958 209.141 168.713 208.216" stroke="#002D56" stroke-width="0.480048"/>
<mask id="mask0" mask-type="alpha" maskUnits="userSpaceOnUse" x="161" y="199" width="14" height="13">
<path fill-rule="evenodd" clip-rule="evenodd" d="M166.418 211.59C163.255 211.249 160.967 208.409 161.308 205.246C161.649 202.082 164.49 199.795 167.653 200.135C170.681 200.462 172.906 203.078 172.792 206.076C174.932 206.832 174.243 209.427 171.941 208.885C170.812 210.715 168.699 211.836 166.418 211.59Z" fill="white"/>
<path d="M172.792 206.076L172.712 206.302L172.546 206.243L172.553 206.067L172.792 206.076ZM171.941 208.885L171.737 208.759L171.828 208.612L171.996 208.651L171.941 208.885ZM161.547 205.271C161.22 208.303 163.413 211.025 166.444 211.352L166.393 211.829C163.098 211.474 160.714 208.515 161.07 205.22L161.547 205.271ZM167.627 200.374C164.596 200.047 161.874 202.24 161.547 205.271L161.07 205.22C161.425 201.925 164.384 199.542 167.679 199.897L167.627 200.374ZM172.553 206.067C172.662 203.194 170.529 200.687 167.627 200.374L167.679 199.897C170.833 200.237 173.151 202.962 173.032 206.085L172.553 206.067ZM171.996 208.651C173.051 208.899 173.652 208.427 173.802 207.901C173.953 207.37 173.686 206.646 172.712 206.302L172.872 205.85C174.039 206.262 174.497 207.213 174.263 208.033C174.028 208.858 173.134 209.412 171.886 209.118L171.996 208.651ZM166.444 211.352C168.629 211.587 170.655 210.513 171.737 208.759L172.146 209.011C170.97 210.917 168.769 212.085 166.393 211.829L166.444 211.352Z" fill="#002D56"/>
</mask>
<g mask="url(#mask0)">
<circle r="0.720073" transform="matrix(-0.994243 -0.107152 -0.107152 0.994243 169.312 204.901)" fill="#002D56"/>
<path d="M166.364 203.135C168.491 203.296 169.625 203.114 171.53 202.243L171.787 199.857L161.525 198.751L160.754 205.91L166.004 206.476L166.364 203.135Z" fill="#002D56"/>
</g>
<ellipse cx="263.757" cy="215.635" rx="18.8871" ry="19.6351" fill="#002D56"/>
<ellipse cx="263.871" cy="215.635" rx="16.009" ry="16.6431" fill="white"/>
<rect x="243.561" y="216.009" width="40.0181" height="31.7901" fill="white" stroke="#002D56" stroke-width="1.122"/>
<circle cx="264.318" cy="227.79" r="4.48801" fill="#152F55"/>
<circle cx="264.318" cy="227.79" r="4.48801" fill="#152F55"/>
<circle cx="264.318" cy="227.79" r="4.48801" fill="#152F55"/>
<circle cx="264.318" cy="234.522" r="2.24401" fill="#152F55"/>
<circle cx="264.318" cy="234.522" r="2.24401" fill="#152F55"/>
<circle cx="264.318" cy="234.522" r="2.24401" fill="#152F55"/>
<circle cx="264.318" cy="238.636" r="1.496" fill="#152F55"/>
<circle cx="264.318" cy="238.636" r="1.496" fill="#152F55"/>
<circle cx="264.318" cy="238.636" r="1.496" fill="#152F55"/>
<rect x="263.57" y="231.468" width="1.496" height="6.48269" fill="#152F55"/>
<path d="M94.9301 249.339L50.9922 274.535L8.4555 189.735L56.6753 173.075L94.9301 249.339Z" fill="white" stroke="#002D56" stroke-width="0.883338"/>
<rect x="-0.0983788" y="0.296407" width="3.09168" height="2.20834" transform="matrix(-0.893851 0.448364 0.448364 0.893851 48.7031 193.356)" fill="white" stroke="#002D56" stroke-width="0.441669"/>
<path fill-rule="evenodd" clip-rule="evenodd" d="M47.6412 194.468C45.0248 195.78 41.8399 194.723 40.5275 192.107C39.215 189.49 40.2721 186.305 42.8885 184.993C45.393 183.736 48.4183 184.651 49.8237 187.026C51.8557 186.545 52.6152 188.895 50.5651 189.623C50.6037 191.601 49.5278 193.521 47.6412 194.468Z" fill="white"/>
<path d="M49.8237 187.026L49.8746 187.241L49.7164 187.279L49.6336 187.139L49.8237 187.026ZM50.5651 189.623L50.3443 189.627L50.3412 189.468L50.4912 189.415L50.5651 189.623ZM40.7248 192.007C41.9826 194.515 45.0348 195.528 47.5422 194.27L47.7402 194.665C45.0148 196.032 41.6972 194.931 40.3301 192.206L40.7248 192.007ZM42.9876 185.19C40.4802 186.448 39.4671 189.5 40.7248 192.007L40.3301 192.206C38.963 189.48 40.0641 186.162 42.7895 184.795L42.9876 185.19ZM49.6336 187.139C48.2869 184.863 45.3875 183.986 42.9876 185.19L42.7895 184.795C45.3984 183.487 48.5497 184.44 50.0137 186.914L49.6336 187.139ZM50.4912 189.415C51.4305 189.081 51.6599 188.417 51.5139 187.935C51.3663 187.449 50.7991 187.022 49.8746 187.241L49.7728 186.812C50.8803 186.549 51.7089 187.057 51.9365 187.807C52.1657 188.563 51.7498 189.437 50.6389 189.831L50.4912 189.415ZM47.5422 194.27C49.3499 193.363 50.3813 191.524 50.3443 189.627L50.7859 189.619C50.8261 191.679 49.7058 193.679 47.7402 194.665L47.5422 194.27Z" fill="#002D56"/>
<path d="M50.4022 191.106C49.157 191.64 48.3857 191.308 47.7352 190.715" stroke="#002D56" stroke-width="0.441669"/>
<mask id="mask1" mask-type="alpha" maskUnits="userSpaceOnUse" x="39" y="184" width="13" height="12">
<path fill-rule="evenodd" clip-rule="evenodd" d="M47.6412 194.468C45.0248 195.78 41.8399 194.723 40.5275 192.107C39.215 189.49 40.2721 186.305 42.8885 184.993C45.393 183.736 48.4183 184.651 49.8237 187.026C51.8557 186.545 52.6152 188.895 50.5651 189.623C50.6037 191.601 49.5278 193.521 47.6412 194.468Z" fill="white"/>
<path d="M49.8237 187.026L49.8746 187.241L49.7164 187.279L49.6336 187.139L49.8237 187.026ZM50.5651 189.623L50.3443 189.627L50.3412 189.468L50.4912 189.415L50.5651 189.623ZM40.7248 192.007C41.9826 194.515 45.0348 195.528 47.5422 194.27L47.7402 194.665C45.0148 196.032 41.6972 194.931 40.3301 192.206L40.7248 192.007ZM42.9876 185.19C40.4802 186.448 39.4671 189.5 40.7248 192.007L40.3301 192.206C38.963 189.48 40.0641 186.162 42.7895 184.795L42.9876 185.19ZM49.6336 187.139C48.2869 184.863 45.3875 183.986 42.9876 185.19L42.7895 184.795C45.3984 183.487 48.5497 184.44 50.0137 186.914L49.6336 187.139ZM50.4912 189.415C51.4305 189.081 51.6599 188.417 51.5139 187.935C51.3663 187.449 50.7991 187.022 49.8746 187.241L49.7728 186.812C50.8803 186.549 51.7089 187.057 51.9365 187.807C52.1657 188.563 51.7498 189.437 50.6389 189.831L50.4912 189.415ZM47.5422 194.27C49.3499 193.363 50.3813 191.524 50.3443 189.627L50.7859 189.619C50.8261 191.679 49.7058 193.679 47.7402 194.665L47.5422 194.27Z" fill="#002D56"/>
</mask>
<g mask="url(#mask1)">
<circle r="0.662503" transform="matrix(-0.893851 0.448364 0.448364 0.893851 46.5464 187.852)" fill="#002D56"/>
<path d="M43.3862 187.955C45.1116 187.02 45.8986 186.314 46.9373 184.691L45.9472 182.717L37.4593 186.975L40.4297 192.897L44.7724 190.718L43.3862 187.955Z" fill="#002D56"/>
</g>
<rect x="25.0318" y="199.632" width="6.62503" height="6.62503" transform="rotate(-26.6388 25.0318 199.632)" stroke="#002D56" stroke-width="0.441669"/>
<path d="M25.3282 199.731L30.8628 202.884L30.6508 191.625" stroke="#002D56" stroke-width="0.883338"/>
<rect x="-0.0983788" y="0.296407" width="3.09168" height="2.20834" transform="matrix(-0.893851 0.448364 0.448364 0.893851 59.0005 213.885)" fill="white" stroke="#002D56" stroke-width="0.441669"/>
<path fill-rule="evenodd" clip-rule="evenodd" d="M57.9387 214.997C55.3222 216.309 52.1373 215.252 50.8249 212.635C49.5125 210.019 50.5696 206.834 53.186 205.522C55.6904 204.265 58.7157 205.18 60.1211 207.555C62.1532 207.074 62.9127 209.424 60.8625 210.152C60.9011 212.13 59.8253 214.05 57.9387 214.997Z" fill="white"/>
<path d="M60.1211 207.555L60.172 207.77L60.0138 207.808L59.9311 207.668L60.1211 207.555ZM60.8625 210.152L60.6417 210.156L60.6386 209.997L60.7886 209.944L60.8625 210.152ZM51.0223 212.536C52.28 215.044 55.3322 216.057 57.8396 214.799L58.0377 215.194C55.3122 216.561 51.9946 215.46 50.6275 212.734L51.0223 212.536ZM53.285 205.719C50.7776 206.977 49.7645 210.029 51.0223 212.536L50.6275 212.734C49.2604 210.009 50.3615 206.691 53.087 205.324L53.285 205.719ZM59.9311 207.668C58.5843 205.392 55.685 204.515 53.285 205.719L53.087 205.324C55.6958 204.016 58.8471 204.969 60.3112 207.443L59.9311 207.668ZM60.7886 209.944C61.7279 209.61 61.9573 208.946 61.8113 208.464C61.6638 207.978 61.0965 207.551 60.172 207.77L60.0702 207.341C61.1778 207.078 62.0063 207.586 62.234 208.336C62.4631 209.092 62.0472 209.966 60.9364 210.36L60.7886 209.944ZM57.8396 214.799C59.6473 213.892 60.6787 212.053 60.6417 210.156L61.0833 210.148C61.1235 212.208 60.0032 214.208 58.0377 215.194L57.8396 214.799Z" fill="#002D56"/>
<path d="M60.6996 211.635C59.4544 212.169 58.6832 211.837 58.0326 211.244" stroke="#002D56" stroke-width="0.441669"/>
<mask id="mask2" mask-type="alpha" maskUnits="userSpaceOnUse" x="50" y="204" width="13" height="12">
<path fill-rule="evenodd" clip-rule="evenodd" d="M57.9387 214.997C55.3222 216.309 52.1373 215.252 50.8249 212.635C49.5125 210.019 50.5696 206.834 53.186 205.522C55.6904 204.265 58.7157 205.18 60.1211 207.555C62.1532 207.074 62.9127 209.424 60.8625 210.152C60.9011 212.13 59.8253 214.05 57.9387 214.997Z" fill="white"/>
<path d="M60.1211 207.555L60.172 207.77L60.0138 207.808L59.9311 207.668L60.1211 207.555ZM60.8625 210.152L60.6417 210.156L60.6386 209.997L60.7886 209.944L60.8625 210.152ZM51.0223 212.536C52.28 215.044 55.3322 216.057 57.8396 214.799L58.0377 215.194C55.3122 216.561 51.9946 215.46 50.6275 212.734L51.0223 212.536ZM53.285 205.719C50.7776 206.977 49.7645 210.029 51.0223 212.536L50.6275 212.734C49.2604 210.009 50.3615 206.691 53.087 205.324L53.285 205.719ZM59.9311 207.668C58.5843 205.392 55.685 204.515 53.285 205.719L53.087 205.324C55.6958 204.016 58.8471 204.969 60.3112 207.443L59.9311 207.668ZM60.7886 209.944C61.7279 209.61 61.9573 208.946 61.8113 208.464C61.6638 207.978 61.0965 207.551 60.172 207.77L60.0702 207.341C61.1778 207.078 62.0063 207.586 62.234 208.336C62.4631 209.092 62.0472 209.966 60.9364 210.36L60.7886 209.944ZM57.8396 214.799C59.6473 213.892 60.6787 212.053 60.6417 210.156L61.0833 210.148C61.1235 212.208 60.0032 214.208 58.0377 215.194L57.8396 214.799Z" fill="#002D56"/>
</mask>
<g mask="url(#mask2)">
<circle r="0.662503" transform="matrix(-0.893851 0.448364 0.448364 0.893851 56.8438 208.381)" fill="#002D56"/>
<path d="M53.6836 208.484C55.409 207.549 56.196 206.843 57.2348 205.22L56.2446 203.246L47.7567 207.504L51.5212 216.486L57.9412 216.972L53.6836 208.484Z" fill="#002D56"/>
</g>
<rect x="35.3293" y="220.161" width="6.62503" height="6.62503" transform="rotate(-26.6388 35.3293 220.161)" stroke="#002D56" stroke-width="0.441669"/>
<rect x="50.6276" y="212.734" width="4.41669" height="7.50837" transform="rotate(-26.6388 50.6276 212.734)" fill="#152F55"/>
<rect x="-0.0983788" y="0.296407" width="3.09168" height="2.20834" transform="matrix(-0.893851 0.448364 0.448364 0.893851 69.2983 234.414)" fill="white" stroke="#002D56" stroke-width="0.441669"/>
<path fill-rule="evenodd" clip-rule="evenodd" d="M68.2363 235.525C65.6199 236.838 62.435 235.78 61.1225 233.164C59.8101 230.548 60.8672 227.363 63.4836 226.05C65.9881 224.794 69.0134 225.709 70.4188 228.084C72.4508 227.603 73.2103 229.953 71.1601 230.681C71.1988 232.659 70.1229 234.579 68.2363 235.525Z" fill="white"/>
<path d="M70.4188 228.084L70.4697 228.299L70.3115 228.336L70.2287 228.197L70.4188 228.084ZM71.1601 230.681L70.9394 230.685L70.9362 230.526L71.0863 230.472L71.1601 230.681ZM61.3199 233.065C62.5777 235.572 65.6299 236.586 68.1373 235.328L68.3353 235.723C65.6099 237.09 62.2922 235.989 60.9251 233.263L61.3199 233.065ZM63.5826 226.248C61.0752 227.505 60.0622 230.558 61.3199 233.065L60.9251 233.263C59.558 230.538 60.6592 227.22 63.3846 225.853L63.5826 226.248ZM70.2287 228.197C68.882 225.92 65.9826 225.044 63.5826 226.248L63.3846 225.853C65.9935 224.544 69.1448 225.497 70.6088 227.972L70.2287 228.197ZM71.0863 230.472C72.0256 230.139 72.255 229.474 72.109 228.993C71.9614 228.507 71.3942 228.08 70.4697 228.299L70.3679 227.869C71.4754 227.607 72.304 228.115 72.5316 228.865C72.7608 229.62 72.3449 230.494 71.234 230.889L71.0863 230.472ZM68.1373 235.328C69.945 234.421 70.9764 232.581 70.9394 230.685L71.3809 230.676C71.4212 232.736 70.3008 234.737 68.3353 235.723L68.1373 235.328Z" fill="#002D56"/>
<path d="M70.9974 232.164C69.7521 232.697 68.9809 232.365 68.3303 231.772" stroke="#002D56" stroke-width="0.441669"/>
<mask id="mask3" mask-type="alpha" maskUnits="userSpaceOnUse" x="60" y="225" width="13" height="12">
<path fill-rule="evenodd" clip-rule="evenodd" d="M68.2363 235.525C65.6199 236.838 62.435 235.78 61.1225 233.164C59.8101 230.548 60.8672 227.363 63.4836 226.05C65.9881 224.794 69.0134 225.709 70.4188 228.084C72.4508 227.603 73.2103 229.953 71.1601 230.681C71.1988 232.659 70.1229 234.579 68.2363 235.525Z" fill="white"/>
<path d="M70.4188 228.084L70.4697 228.299L70.3115 228.336L70.2287 228.197L70.4188 228.084ZM71.1601 230.681L70.9394 230.685L70.9362 230.526L71.0863 230.472L71.1601 230.681ZM61.3199 233.065C62.5777 235.572 65.6299 236.586 68.1373 235.328L68.3353 235.723C65.6099 237.09 62.2922 235.989 60.9251 233.263L61.3199 233.065ZM63.5826 226.248C61.0752 227.505 60.0622 230.558 61.3199 233.065L60.9251 233.263C59.558 230.538 60.6592 227.22 63.3846 225.853L63.5826 226.248ZM70.2287 228.197C68.882 225.92 65.9826 225.044 63.5826 226.248L63.3846 225.853C65.9935 224.544 69.1448 225.497 70.6088 227.972L70.2287 228.197ZM71.0863 230.472C72.0256 230.139 72.255 229.474 72.109 228.993C71.9614 228.507 71.3942 228.08 70.4697 228.299L70.3679 227.869C71.4754 227.607 72.304 228.115 72.5316 228.865C72.7608 229.62 72.3449 230.494 71.234 230.889L71.0863 230.472ZM68.1373 235.328C69.945 234.421 70.9764 232.581 70.9394 230.685L71.3809 230.676C71.4212 232.736 70.3008 234.737 68.3353 235.723L68.1373 235.328Z" fill="#002D56"/>
</mask>
<g mask="url(#mask3)">
<circle r="0.662503" transform="matrix(-0.893851 0.448364 0.448364 0.893851 67.1413 228.91)" fill="#002D56"/>
<path d="M58.0583 230.995C57.7098 231.54 58.4559 231.39 59.5364 230.987L61.0249 233.954L65.3675 231.776L63.9813 229.012C65.1279 228.391 61.6764 230.188 59.5364 230.987L58.0544 228.032L54.9 232.579L58.0583 230.995Z" fill="#002D56"/>
</g>
<rect x="45.627" y="240.69" width="6.62503" height="6.62503" transform="rotate(-26.6388 45.627 240.69)" stroke="#002D56" stroke-width="0.441669"/>
<path d="M42.3899 257.878L88.1851 234.907" stroke="#002D56" stroke-width="0.883338"/>
<circle cx="69.0506" cy="254.387" r="4.41669" transform="rotate(-26.6388 69.0506 254.387)" fill="#002D56"/>
<path d="M-37.1557 300.744L6.83692 258.418L46.1709 279.699L-18.1449 338.643L-37.1557 300.744Z" fill="white" stroke="#002D56" stroke-width="0.883338"/>
<path fill-rule="evenodd" clip-rule="evenodd" d="M4.58607 197.782L14.4399 229.172C6.16439 238.741 3.98003 252.723 10.0053 264.735C17.9891 280.651 37.3642 287.082 53.2807 279.098C59.4435 276.007 64.1842 271.207 67.2167 265.563L50.9044 274.36L28.1311 228.96L28.2538 228.909C28.0224 228.508 27.7898 228.097 27.556 227.676L17.2218 193.42L4.58607 197.782Z" fill="white"/>
<path d="M14.4399 229.172L14.774 229.461L14.9351 229.275L14.8613 229.04L14.4399 229.172ZM4.58607 197.782L4.44196 197.365L4.03608 197.505L4.16468 197.914L4.58607 197.782ZM67.2167 265.563L67.6058 265.772L68.3021 264.475L67.007 265.174L67.2167 265.563ZM50.9044 274.36L50.5096 274.558L50.7136 274.965L51.114 274.749L50.9044 274.36ZM28.1311 228.96L27.9615 228.552L27.5238 228.734L27.7363 229.158L28.1311 228.96ZM28.2538 228.909L28.4234 229.317L28.8876 229.124L28.6363 228.688L28.2538 228.909ZM27.556 227.676L27.1332 227.804L27.1469 227.849L27.1699 227.891L27.556 227.676ZM17.2218 193.42L17.6446 193.293L17.5119 192.853L17.0777 193.003L17.2218 193.42ZM14.8613 229.04L5.00747 197.65L4.16468 197.914L14.0185 229.305L14.8613 229.04ZM10.4001 264.537C4.45767 252.69 6.61122 238.9 14.774 229.461L14.1059 228.884C5.71757 238.583 3.5024 252.756 9.61048 264.933L10.4001 264.537ZM53.0827 278.703C37.3842 286.578 18.2746 280.235 10.4001 264.537L9.61048 264.933C17.7037 281.067 37.3442 287.586 53.4788 279.493L53.0827 278.703ZM66.8276 265.354C63.8368 270.921 59.1616 275.654 53.0827 278.703L53.4788 279.493C59.7255 276.359 64.5317 271.494 67.6058 265.772L66.8276 265.354ZM67.007 265.174L50.6947 273.972L51.114 274.749L67.4263 265.951L67.007 265.174ZM51.2992 274.162L28.5259 228.762L27.7363 229.158L50.5096 274.558L51.2992 274.162ZM28.3008 229.368L28.4234 229.317L28.0841 228.501L27.9615 228.552L28.3008 229.368ZM27.1699 227.891C27.4049 228.314 27.6386 228.727 27.8712 229.13L28.6363 228.688C28.4062 228.289 28.1748 227.881 27.9421 227.462L27.1699 227.891ZM16.7989 193.548L27.1332 227.804L27.9789 227.549L17.6446 193.293L16.7989 193.548ZM4.73019 198.2L17.3659 193.838L17.0777 193.003L4.44196 197.365L4.73019 198.2Z" fill="#002D56"/>
<path d="M88.6762 232.931L80.1883 237.189L73.9505 224.753L72.3713 225.545L66.2324 213.307L64.6533 214.099L58.2174 201.268L61.4293 199.791L55.3358 187.643L63.8237 183.386L70.0616 195.821L76.2995 208.257L82.4384 220.495L88.6762 232.931Z" fill="#FFFDFD"/>
<path d="M73.9505 224.753L80.1883 237.189L88.6762 232.931L82.4384 220.495M73.9505 224.753L82.4384 220.495M73.9505 224.753L72.3713 225.545L66.2324 213.307M82.4384 220.495L76.2995 208.257M66.2324 213.307L76.2995 208.257M66.2324 213.307L64.6533 214.099L58.2174 201.268L61.4293 199.791M76.2995 208.257L70.0616 195.821M70.0616 195.821L63.8237 183.386L55.3358 187.643L61.4293 199.791M70.0616 195.821L61.4293 199.791" stroke="#152F55" stroke-width="0.883338"/>
</svg>
